<svg width="903" height="674" viewBox="0 0 903 674" fill="none" xmlns="http://www.w3.org/2000/svg">
<rect width="902.846" height="674" rx="25.0791" fill="#000201"/>
<path d="M280.824 322.16C280.632 331.232 288.408 338.768 297.672 338.576C303.768 338.576 308.952 335.648 311.688 330.704L306.792 327.248C304.536 330.8 301.512 332.576 297.72 332.576C291.816 332.576 287.496 328.256 287.496 322.208C287.496 316.16 291.816 311.744 297.72 311.744C301.512 311.744 304.536 313.52 306.792 317.072L311.688 313.616C308.856 308.672 303.72 305.744 297.72 305.744C288.504 305.552 280.68 313.088 280.824 322.16ZM314.95 326.096C314.806 332.864 320.662 338.672 327.622 338.528C334.582 338.672 340.582 332.864 340.438 326.096C340.582 319.328 334.63 313.616 327.67 313.712C320.71 313.568 314.806 319.328 314.95 326.096ZM333.814 326.144C333.814 329.84 331.174 332.576 327.67 332.576C324.07 332.576 321.526 329.84 321.526 326.144C321.526 322.352 324.07 319.616 327.67 319.616C331.174 319.616 333.814 322.448 333.814 326.144ZM382.121 323.264C382.121 317.504 378.713 313.712 373.145 313.712C369.881 313.712 367.097 315.008 365.225 317.12C363.641 314.864 361.289 313.712 358.169 313.712C355.433 313.712 353.033 314.672 351.449 316.352V314.24H345.497V338H351.977V324.176C351.977 321.344 353.705 319.568 356.345 319.568C358.889 319.568 360.569 321.344 360.569 324.176V338H367.049V324.032C367.049 321.392 368.873 319.568 371.417 319.568C373.961 319.568 375.641 321.344 375.641 324.176V338H382.121V323.264ZM388.294 338H394.774V314.24H388.294V338ZM387.382 305.6C387.382 307.856 389.206 309.584 391.51 309.584C393.814 309.584 395.686 307.856 395.686 305.6C395.686 303.296 393.814 301.568 391.51 301.568C389.206 301.568 387.382 303.296 387.382 305.6ZM423.025 323.264C423.025 317.504 419.617 313.712 414.097 313.712C411.265 313.712 408.817 314.72 407.137 316.4V314.24H401.185V338H407.665V324.128C407.665 321.392 409.537 319.52 412.177 319.52C414.817 319.52 416.593 321.392 416.593 324.128V338H423.025V323.264ZM447.167 314.24V317.216C445.487 314.96 442.799 313.712 439.391 313.712C432.911 313.712 428.015 318.416 428.015 325.472C428.015 332.432 432.815 337.28 439.391 337.28C442.415 337.28 444.911 336.32 446.639 334.448V335.744C446.639 339.44 444.143 341.36 440.303 341.36C437.423 341.36 435.215 340.256 432.575 338.288L429.167 342.8C432.479 345.728 436.367 347.216 440.831 347.216C448.271 347.216 453.119 343.088 453.119 335.36V314.24H447.167ZM446.735 325.376C446.735 329.456 443.999 331.808 440.735 331.808C437.279 331.808 434.591 329.264 434.591 325.424C434.591 321.584 437.231 319.232 440.735 319.232C444.047 319.232 446.735 321.296 446.735 325.376Z" fill="white"/>
<path d="M471.221 331.568C473.669 335.84 478.085 338.576 483.461 338.576C489.797 338.576 494.549 334.88 494.549 329.072C494.549 324.8 492.053 322.16 486.725 319.808L483.125 318.224C480.437 317.024 479.429 316.256 479.429 314.576C479.429 312.608 481.109 311.504 483.365 311.504C485.765 311.504 487.781 312.704 489.413 315.152L493.829 311.744C491.861 308.096 488.213 305.744 483.365 305.744C477.365 305.744 472.853 309.296 472.853 314.72C472.853 318.944 475.685 321.68 480.533 323.84L483.941 325.376C486.965 326.768 487.973 327.44 487.973 329.312C487.973 331.472 486.293 332.816 483.461 332.816C480.005 332.816 477.749 331.04 475.685 328.208L471.221 331.568ZM498.466 326.096C498.322 332.864 504.178 338.672 511.138 338.528C518.098 338.672 524.098 332.864 523.954 326.096C524.098 319.328 518.146 313.616 511.186 313.712C504.226 313.568 498.322 319.328 498.466 326.096ZM517.33 326.144C517.33 329.84 514.69 332.576 511.186 332.576C507.586 332.576 505.042 329.84 505.042 326.144C505.042 322.352 507.586 319.616 511.186 319.616C514.69 319.616 517.33 322.448 517.33 326.144ZM527.669 326.096C527.525 332.864 533.381 338.672 540.341 338.528C547.301 338.672 553.301 332.864 553.157 326.096C553.301 319.328 547.349 313.616 540.389 313.712C533.429 313.568 527.525 319.328 527.669 326.096ZM546.533 326.144C546.533 329.84 543.893 332.576 540.389 332.576C536.789 332.576 534.245 329.84 534.245 326.144C534.245 322.352 536.789 319.616 540.389 319.616C543.893 319.616 546.533 322.448 546.533 326.144ZM580.056 323.264C580.056 317.504 576.648 313.712 571.128 313.712C568.296 313.712 565.848 314.72 564.168 316.4V314.24H558.216V338H564.696V324.128C564.696 321.392 566.568 319.52 569.208 319.52C571.848 319.52 573.624 321.392 573.624 324.128V338H580.056V323.264ZM585.334 334.112C585.334 336.656 587.302 338.576 589.846 338.576C592.39 338.576 594.262 336.656 594.262 334.112C594.262 331.616 592.342 329.648 589.846 329.648C587.302 329.648 585.334 331.616 585.334 334.112ZM598.787 334.112C598.787 336.656 600.755 338.576 603.299 338.576C605.843 338.576 607.715 336.656 607.715 334.112C607.715 331.616 605.795 329.648 603.299 329.648C600.755 329.648 598.787 331.616 598.787 334.112ZM612.24 334.112C612.24 336.656 614.208 338.576 616.752 338.576C619.296 338.576 621.168 336.656 621.168 334.112C621.168 331.616 619.248 329.648 616.752 329.648C614.208 329.648 612.24 331.616 612.24 334.112Z" fill="#00DA63"/>
<rect x="763.203" y="16.3159" width="117.058" height="24.5786" rx="12.1996" fill="#0A0C0B" stroke="url(#paint0_linear_587_390)" stroke-width="1.28417"/>
<path d="M784.948 28.7065C784.907 30.6481 786.581 32.2405 788.512 32.2097C789.776 32.2097 790.845 31.6036 791.42 30.6481L790.598 30.042C790.115 30.792 789.417 31.2132 788.523 31.2132C787.136 31.2132 786.078 30.1447 786.078 28.7065C786.078 27.2682 787.136 26.1998 788.523 26.1998C789.417 26.1998 790.115 26.621 790.598 27.3709L791.42 26.7648C790.834 25.8094 789.756 25.2033 788.512 25.2033C786.581 25.1724 784.907 26.7648 784.948 28.7065ZM792.232 29.5694C792.201 30.9974 793.444 32.2405 794.893 32.2097C796.362 32.2405 797.605 30.9974 797.574 29.5694C797.605 28.1414 796.362 26.9086 794.893 26.9395C793.444 26.9189 792.201 28.1209 792.232 29.5694ZM796.464 29.5797C796.464 30.494 795.786 31.2132 794.893 31.2132C794.009 31.2132 793.331 30.5146 793.331 29.5797C793.331 28.6448 794.009 27.9257 794.903 27.9257C795.776 27.9257 796.464 28.6448 796.464 29.5797ZM803.218 28.9428C803.218 27.7408 802.509 26.9395 801.328 26.9395C800.701 26.9395 800.197 27.1449 799.817 27.5456V27.0525H798.811V32.0967H799.889V29.0866C799.889 28.3983 800.372 27.9154 801.04 27.9154C801.697 27.9154 802.139 28.388 802.139 29.0866V32.0967H803.218V28.9428ZM809.127 28.9428C809.127 27.7408 808.418 26.9395 807.237 26.9395C806.61 26.9395 806.107 27.1449 805.727 27.5456V27.0525H804.72V32.0967H805.798V29.0866C805.798 28.3983 806.281 27.9154 806.949 27.9154C807.607 27.9154 808.048 28.388 808.048 29.0866V32.0967H809.127V28.9428ZM815.17 29.929C815.221 29.6927 815.252 29.4667 815.252 29.251C815.252 27.936 814.255 26.9395 812.92 26.9395C811.492 26.9086 810.28 28.1312 810.31 29.5797C810.31 31.0693 811.482 32.2097 813.023 32.2097C813.793 32.2097 814.461 31.9426 815.036 31.3981L814.523 30.6584C814.07 31.0591 813.577 31.2543 813.053 31.2543C812.19 31.2543 811.543 30.7509 811.41 29.929H815.17ZM811.43 29.0866C811.595 28.3366 812.17 27.8538 812.879 27.8538C813.588 27.8538 814.163 28.3161 814.173 29.0866H811.43ZM816.169 29.5694C816.169 31.0385 817.351 32.2097 818.841 32.2097C819.755 32.2097 820.515 31.7679 820.967 31.0385L820.207 30.4529C819.837 30.9563 819.385 31.2132 818.851 31.2132C817.947 31.2132 817.269 30.494 817.269 29.5694C817.269 28.6551 817.947 27.936 818.851 27.936C819.395 27.936 819.847 28.1928 820.207 28.7065L820.967 28.1106C820.525 27.3812 819.775 26.9395 818.841 26.9395C817.392 26.9189 816.139 28.1209 816.169 29.5694ZM825.156 31.1824C824.858 31.2132 824.642 31.2337 824.488 31.2337C823.831 31.2337 823.492 31.0077 823.492 30.3605V27.9873H824.992V27.0525H823.492V25.7272H822.403V27.0525H821.581V27.9873H822.403V30.4529C822.403 31.6344 823.101 32.2097 824.262 32.2097C824.519 32.2097 824.817 32.1686 825.156 32.0967V31.1824ZM837.072 25.3163L835.377 29.8982L833.425 25.2033H833.045L831.103 29.8982L829.408 25.3163H828.206L830.847 32.2097H831.216L833.24 27.4018L835.264 32.2097H835.624L838.264 25.3163H837.072ZM842.947 29.0455C842.947 27.6894 842.126 26.9395 840.882 26.9395C840.009 26.9395 839.259 27.2887 838.756 28.0182L839.383 28.6551C839.804 28.1517 840.215 27.9052 840.78 27.9052C841.468 27.9052 841.858 28.2853 841.858 28.9839V29.3126H840.43C839.29 29.3126 838.571 29.8776 838.571 30.7509C838.571 31.6241 839.27 32.2097 840.328 32.2097C841.016 32.2097 841.571 31.9734 841.941 31.5316V32.0967H842.947V29.0455ZM841.858 30.1858C841.858 30.8742 841.283 31.3775 840.554 31.3775C840.03 31.3775 839.67 31.131 839.67 30.7098C839.67 30.2988 839.989 30.0934 840.564 30.0934H841.858V30.1858ZM844.449 32.0967H845.527V24.3917H844.449V32.0967ZM847.087 32.0967H848.166V24.3917H847.087V32.0967ZM854.267 29.929C854.318 29.6927 854.349 29.4667 854.349 29.251C854.349 27.936 853.352 26.9395 852.017 26.9395C850.589 26.9086 849.377 28.1312 849.407 29.5797C849.407 31.0693 850.579 32.2097 852.12 32.2097C852.89 32.2097 853.558 31.9426 854.133 31.3981L853.619 30.6584C853.167 31.0591 852.674 31.2543 852.15 31.2543C851.287 31.2543 850.64 30.7509 850.507 29.929H854.267ZM850.527 29.0866C850.692 28.3366 851.267 27.8538 851.976 27.8538C852.685 27.8538 853.26 28.3161 853.27 29.0866H850.527ZM858.585 31.1824C858.287 31.2132 858.071 31.2337 857.917 31.2337C857.259 31.2337 856.92 31.0077 856.92 30.3605V27.9873H858.42V27.0525H856.92V25.7272H855.831V27.0525H855.01V27.9873H855.831V30.4529C855.831 31.6344 856.53 32.2097 857.691 32.2097C857.948 32.2097 858.246 32.1686 858.585 32.0967V31.1824Z" fill="#00DA63"/>
<path d="M47.8076 25.1499C47.8094 24.5436 47.52 23.9735 47.0296 23.6171C47.5311 23.0897 47.8097 22.389 47.8076 21.6613C47.8047 20.7216 47.3398 19.8436 46.5639 19.3133C45.7882 18.7831 44.8012 18.6686 43.9247 19.0072C43.0482 19.3459 42.3945 20.0943 42.1768 21.0084C41.7707 21.2247 41.4311 21.5472 41.194 21.9415C40.9569 22.3358 40.8313 22.787 40.8305 23.2471C40.8289 23.7223 40.9626 24.1884 41.2162 24.5905C40.3723 25.4348 40.0195 26.6524 40.281 27.817C40.5425 28.9818 41.3819 29.9316 42.5057 30.3342C42.3868 30.6719 42.3863 31.0399 42.5044 31.3777C42.6225 31.7156 42.852 32.0032 43.1551 32.1933C43.0857 32.3747 43.0502 32.5672 43.0505 32.7613C43.0505 32.8045 43.0527 32.8476 43.0569 32.8917C42.7047 33.0435 42.4196 33.3178 42.2542 33.6638C42.0887 34.0097 42.0543 34.4038 42.1572 34.7732C42.26 35.1426 42.4932 35.4621 42.8136 35.6728C43.134 35.8833 43.5199 35.9708 43.8998 35.9189C44.2797 35.8668 44.6278 35.6789 44.8798 35.3899C45.1318 35.1009 45.2706 34.7304 45.2704 34.347C45.2704 34.3039 45.2682 34.2608 45.2641 34.2166C45.5478 34.0932 45.7893 33.8899 45.9594 33.6314C46.1294 33.373 46.2206 33.0707 46.2219 32.7613C46.2216 32.6274 46.2039 32.4942 46.1692 32.3649C46.7109 32.2181 47.1769 31.8715 47.4732 31.3949C47.7694 30.9184 47.8741 30.3472 47.766 29.7964C47.658 29.2458 47.3452 28.7565 46.8907 28.4272C47.0769 27.9929 47.1731 27.5253 47.1733 27.0527C47.1732 26.8995 47.1626 26.7465 47.1416 26.5947C47.564 26.2335 47.8073 25.7057 47.8076 25.1499L47.8076 25.1499Z" fill="#09A34E"/>
<path d="M34.8032 30.2256H30.9969C30.8217 30.2256 30.6797 30.3676 30.6797 30.5428V35.6179C30.6797 35.702 30.7131 35.7828 30.7726 35.8422C30.8321 35.9017 30.9128 35.9351 30.9969 35.9351H34.8032C34.8874 35.9351 34.9681 35.9017 35.0275 35.8422C35.087 35.7828 35.1204 35.702 35.1204 35.6179V30.5428C35.1204 30.4587 35.087 30.378 35.0275 30.3185C34.9681 30.259 34.8874 30.2256 34.8032 30.2256ZM31.9485 35.3007H31.3141V34.6663H31.9485V35.3007ZM31.9485 34.0319H31.3141V33.3976H31.9485V34.0319ZM31.9485 32.7632H31.3141V32.1288H31.9485V32.7632ZM31.9485 31.4944H31.3141V30.86H31.9485V31.4944ZM34.486 35.3007H32.5829V34.6663H34.486V35.3007ZM34.486 34.0319H32.5829V33.3976H34.486V34.0319ZM34.486 32.7632H32.5829V32.1288H34.486V32.7632ZM34.486 31.4944H32.5829V30.86H34.486V31.4944Z" fill="#09A34E"/>
<path d="M34.8041 27.6875H30.9969C30.8217 27.6875 30.6797 27.8296 30.6797 28.0048C30.6797 28.18 30.8217 28.322 30.9969 28.322H34.8041C34.9793 28.322 35.1214 28.18 35.1214 28.0048C35.1214 27.8296 34.9793 27.6875 34.8041 27.6875Z" fill="#09A34E"/>
<path d="M41.6797 34.6838L39.7769 35.3181C39.6486 35.3628 39.5622 35.4834 39.5612 35.6194V35.9365H39.2441C39.069 35.9365 38.927 35.7945 38.927 35.6194V24.8365C38.9251 23.6256 38.4614 22.4608 37.6306 21.5798C36.7997 20.6988 35.664 20.1678 34.4552 20.0952C34.3699 19.6491 34.0968 19.2613 33.7057 19.0304C33.3147 18.7994 32.8432 18.7476 32.4112 18.8884C31.9794 19.0289 31.6288 19.3483 31.4487 19.7653L30.5892 18.9028C30.5287 18.8443 30.4482 18.8113 30.3641 18.8108H28.4612V19.445H30.2341L30.8684 20.0793H29.7298C29.6332 20.0798 29.5422 20.1241 29.4824 20.1998L28.2139 21.7855L28.7085 22.1789L29.882 20.7136H31.3472C31.3953 20.945 31.4963 21.162 31.6421 21.3479H31.6326C31.4575 21.3479 31.3155 21.4899 31.3155 21.665V22.6354C30.6185 22.7146 29.9747 23.0471 29.5069 23.5699C29.0392 24.0927 28.7798 24.7692 28.7783 25.4707V36.8879C28.7791 37.14 28.8796 37.3816 29.0578 37.5598C29.2361 37.7381 29.4776 37.8386 29.7298 37.8393H36.0726C36.3248 37.8386 36.5663 37.7381 36.7446 37.5598C36.9228 37.3816 37.0233 37.14 37.024 36.8879V25.4707C37.0226 24.7692 36.7633 24.0927 36.2955 23.5699C35.8277 23.0471 35.1839 22.7146 34.4869 22.6354V21.665C34.4869 21.5809 34.4535 21.5002 34.394 21.4408C34.3346 21.3813 34.2539 21.3479 34.1698 21.3479H34.1603C34.3024 21.165 34.4021 20.9526 34.4521 20.7264C35.4933 20.7987 36.4685 21.263 37.1812 22.0257C37.8938 22.7882 38.2909 23.7928 38.2926 24.8365V35.6194C38.2933 35.8715 38.3939 36.1131 38.5721 36.2913C38.7504 36.4696 38.9919 36.5701 39.244 36.5708H39.5612V36.8879C39.5622 37.0238 39.6485 37.1445 39.7768 37.1892L41.6797 37.8235C41.7127 37.8334 41.7468 37.8388 41.7812 37.8394C41.8474 37.8403 41.9123 37.8191 41.9651 37.779C42.0489 37.7206 42.0988 37.6246 42.0983 37.5222V34.9851C42.0988 34.8827 42.0489 34.7867 41.9651 34.7282C41.8827 34.6684 41.7765 34.6519 41.6797 34.6838H41.6797ZM33.8526 20.3964C33.8526 20.6487 33.7524 20.8908 33.574 21.0692C33.3956 21.2476 33.1535 21.3478 32.9012 21.3478C32.649 21.3478 32.4068 21.2476 32.2285 21.0692C32.0501 20.8908 31.9498 20.6487 31.9498 20.3964C31.9498 20.1442 32.0501 19.902 32.2285 19.7236C32.4068 19.5453 32.649 19.445 32.9012 19.445C33.1534 19.4457 33.3949 19.5462 33.5732 19.7245C33.7514 19.9027 33.8519 20.1443 33.8527 20.3964L33.8526 20.3964ZM35.7555 35.6193C35.7548 35.8714 35.6543 36.113 35.476 36.2912C35.2978 36.4695 35.0562 36.57 34.8041 36.5707H30.9984C30.7462 36.57 30.5047 36.4695 30.3264 36.2912C30.1482 36.113 30.0476 35.8714 30.0469 35.6193V30.545C30.0476 30.2928 30.1482 30.0513 30.3264 29.873C30.5047 29.6948 30.7462 29.5943 30.9984 29.5936H34.8041C35.0562 29.5943 35.2978 29.6948 35.476 29.873C35.6543 30.0513 35.7548 30.2928 35.7555 30.545V35.6193ZM34.8041 28.9593H30.9984C30.6584 28.9593 30.3444 28.7779 30.1744 28.4836C30.0045 28.1892 30.0045 27.8265 30.1744 27.5321C30.3444 27.2378 30.6584 27.0564 30.9984 27.0564H34.8041C35.144 27.0564 35.458 27.2378 35.6281 27.5321C35.798 27.8265 35.798 28.1892 35.6281 28.4836C35.458 28.7779 35.144 28.9593 34.8041 28.9593ZM36.3898 25.7878V26.4221H29.4126V25.7878H36.3898Z" fill="#09A34E"/>
<path d="M55.3682 23.2831V24.6233H59.7414L55.6362 32.5938H57.2585L61.7587 23.6922V23.2831H55.3682ZM62.5264 27.8538C62.5264 30.6047 63.6973 32.7489 66.0813 32.7489C68.4795 32.7489 69.6222 30.6047 69.6222 27.8538C69.6222 26.429 69.326 25.2863 68.7194 24.4258C68.1269 23.5653 67.2522 23.128 66.0813 23.128C64.9105 23.128 64.0358 23.5653 63.4292 24.4399C62.8226 25.3004 62.5264 26.4431 62.5264 27.8538ZM68.0704 27.8679C68.0704 30.0686 67.4497 31.3806 66.0813 31.3806C64.713 31.3806 64.0782 30.0686 64.0782 27.8679C64.0782 25.6249 64.7412 24.4963 66.0813 24.4963C67.4074 24.4963 68.0704 25.6249 68.0704 27.8679Z" fill="#09A34E"/>
<defs>
<linearGradient id="paint0_linear_587_390" x1="791.79" y1="-4.04654" x2="856.161" y2="59.7594" gradientUnits="userSpaceOnUse">
<stop stop-color="#00DA63"/>
<stop offset="0.336458" stop-color="#00DA63" stop-opacity="0"/>
<stop offset="0.711458" stop-color="#00DA63" stop-opacity="0"/>
<stop offset="1" stop-color="#00DA63"/>
</linearGradient>
</defs>
</svg>
