<svg width="380" height="288" viewBox="0 0 380 288" fill="none" xmlns="http://www.w3.org/2000/svg">
<path d="M179.05 96.2402H273.704C276.792 96.2402 279.441 94.3437 280.559 91.6551C300.309 91.0912 311.972 87.5476 328.623 80.4486C330.007 79.8591 331.093 79.3069 332.037 78.7059C334.401 77.2078 336.484 75.4045 338.222 73.3402C343.364 67.2405 343.632 58.313 338.8 52.0337C336.058 48.4993 332.188 45.6941 327.614 43.9281C310.129 37.1693 299.829 33.5417 280.554 33.0479C279.436 30.3616 276.787 28.4697 273.702 28.4697H179.048C174.954 28.4697 171.625 31.799 171.625 35.8924V88.8167C171.625 92.9103 174.954 96.2394 179.048 96.2394L179.05 96.2402ZM335.078 55.0209C338.494 59.4593 338.281 65.8707 334.577 70.2653C333.151 71.9544 331.439 73.4362 329.484 74.6757C328.762 75.1323 327.895 75.5727 326.753 76.0573H326.751C310.531 82.9724 299.79 86.2736 281.126 86.8701L281.128 37.8292C299.203 38.3604 308.662 41.7176 325.896 48.3807C329.661 49.8346 332.82 52.1108 335.079 55.0209L335.078 55.0209ZM176.396 35.8932C176.396 34.4301 177.586 33.2418 179.047 33.2418H273.702C275.165 33.2418 276.353 34.4324 276.353 35.8932V88.8175C276.353 90.2806 275.162 91.4689 273.702 91.4689H179.047C177.584 91.4689 176.396 90.2783 176.396 88.8175V35.8932Z" fill="#25AE63"/>
<path d="M204.936 4.7715H244.758C246.076 4.7715 247.144 3.70442 247.144 2.38575C247.144 1.06709 246.076 0 244.758 0H204.936C203.617 0 202.55 1.06709 202.55 2.38575C202.55 3.70209 203.617 4.7715 204.936 4.7715Z" fill="#25AE63"/>
<path d="M178.549 4.7715H190.764C192.083 4.7715 193.15 3.70442 193.15 2.38575C193.15 1.06709 192.083 0 190.764 0H178.549C177.23 0 176.163 1.06709 176.163 2.38575C176.163 3.70209 177.232 4.7715 178.549 4.7715Z" fill="#25AE63"/>
<path d="M247.14 122.327C247.14 121.008 246.073 119.941 244.754 119.941H204.933C203.614 119.941 202.547 121.008 202.547 122.327C202.547 123.646 203.614 124.713 204.933 124.713H244.754C246.073 124.713 247.14 123.646 247.14 122.327Z" fill="#25AE63"/>
<path d="M178.549 119.941C177.23 119.941 176.163 121.008 176.163 122.327C176.163 123.646 177.23 124.713 178.549 124.713H190.764C192.083 124.713 193.15 123.646 193.15 122.327C193.15 121.008 192.083 119.941 190.764 119.941H178.549Z" fill="#25AE63"/>
<path d="M139.59 59.9707H99.7686C98.4499 59.9707 97.3828 61.0378 97.3828 62.3565C97.3828 63.6751 98.4499 64.7422 99.7686 64.7422H139.59C140.909 64.7422 141.976 63.6751 141.976 62.3565C141.976 61.0378 140.907 59.9707 139.59 59.9707V59.9707Z" fill="#25AE63"/>
<path d="M68.6997 83H28.8779C27.5593 83 26.4922 84.0671 26.4922 85.3858C26.4922 86.7044 27.5593 87.7715 28.8779 87.7715H68.6997C70.0184 87.7715 71.0855 86.7044 71.0855 85.3858C71.0855 84.0671 70.0161 83 68.6997 83V83Z" fill="#25AE63"/>
<path d="M73.3858 64.7422H85.599C86.9177 64.7422 87.9848 63.6751 87.9848 62.3565C87.9848 61.0378 86.9177 59.9707 85.599 59.9707H73.3858C72.0671 59.9707 71 61.0378 71 62.3565C71 63.6728 72.0671 64.7422 73.3858 64.7422Z" fill="#25AE63"/>
<path d="M2.49513 87.7715H14.7084C16.0271 87.7715 17.0941 86.7044 17.0941 85.3858C17.0941 84.0671 16.0271 83 14.7084 83H2.49513C1.17646 83 0.109375 84.0671 0.109375 85.3858C0.109375 86.7021 1.17646 87.7715 2.49513 87.7715Z" fill="#25AE63"/>
<path d="M116.661 27.7627H156.483C157.802 27.7627 158.869 26.6956 158.869 25.377C158.869 24.0583 157.802 22.9912 156.483 22.9912H116.661C115.342 22.9912 114.275 24.0583 114.275 25.377C114.275 26.6933 115.342 27.7627 116.661 27.7627V27.7627Z" fill="#25AE63"/>
<path d="M28.7705 43.7715H68.5923C69.911 43.7715 70.978 42.7044 70.978 41.3858C70.978 40.0671 69.911 39 68.5923 39H28.7705C27.4519 39 26.3848 40.0671 26.3848 41.3858C26.3848 42.7021 27.4519 43.7715 28.7705 43.7715V43.7715Z" fill="#25AE63"/>
<path d="M90.2764 27.7627H102.491C103.81 27.7627 104.877 26.6956 104.877 25.377C104.877 24.0583 103.81 22.9912 102.491 22.9912H90.2764C88.9577 22.9912 87.8906 24.0583 87.8906 25.377C87.8906 26.6933 88.96 27.7627 90.2764 27.7627Z" fill="#25AE63"/>
<path d="M2.38575 43.7715H14.6008C15.9195 43.7715 16.9866 42.7044 16.9866 41.3858C16.9866 40.0671 15.9195 39 14.6008 39H2.38575C1.06709 39 0 40.0671 0 41.3858C0 42.7021 1.06941 43.7715 2.38575 43.7715Z" fill="#25AE63"/>
<path d="M156.481 96.9502H116.659C115.341 96.9502 114.273 98.0173 114.273 99.3359C114.273 100.655 115.341 101.722 116.659 101.722H156.481C157.8 101.722 158.867 100.655 158.867 99.3359C158.867 98.0173 157.8 96.9502 156.481 96.9502V96.9502Z" fill="#25AE63"/>
<path d="M87.8906 99.3359C87.8906 100.655 88.9577 101.722 90.2764 101.722H102.491C103.81 101.722 104.877 100.655 104.877 99.3359C104.877 98.0173 103.81 96.9502 102.491 96.9502H90.2764C88.96 96.9502 87.8906 98.0173 87.8906 99.3359Z" fill="#25AE63"/>
<path d="M315.175 197.241H226.52C222.604 197.241 219.417 200.428 219.417 204.345V253.914C219.417 257.831 222.604 261.018 226.52 261.018H315.175C318.094 261.018 320.606 259.245 321.696 256.719C340.162 256.181 351.087 252.859 366.673 246.214C367.976 245.66 368.999 245.138 369.891 244.572C372.121 243.157 374.082 241.457 375.72 239.516C380.583 233.749 380.834 225.306 376.265 219.37C373.679 216.036 370.036 213.392 365.725 211.726C349.358 205.401 339.706 201.999 321.694 201.528C320.601 199.012 318.092 197.241 315.175 197.241H315.175ZM315.175 256.247H226.52C225.234 256.247 224.188 255.201 224.188 253.915V204.345C224.188 203.059 225.234 202.013 226.52 202.013H315.175C316.461 202.013 317.507 203.059 317.507 204.345V253.915C317.507 255.201 316.461 256.247 315.175 256.247ZM372.54 222.355C375.695 226.455 375.501 232.38 372.072 236.443C370.748 238.011 369.155 239.391 367.338 240.544C366.669 240.968 365.863 241.376 364.805 241.828H364.803C349.67 248.279 339.64 251.368 322.278 251.939V206.314C339.076 206.824 347.928 209.969 364.006 216.183C367.505 217.534 370.441 219.65 372.54 222.355L372.54 222.355Z" fill="#25AE63"/>
<path d="M288.06 175.346C289.379 175.346 290.446 174.279 290.446 172.96C290.446 171.641 289.379 170.574 288.06 170.574H250.764C249.446 170.574 248.378 171.641 248.378 172.96C248.378 174.279 249.446 175.346 250.764 175.346H288.06Z" fill="#25AE63"/>
<path d="M226.048 170.574C224.73 170.574 223.663 171.641 223.663 172.96C223.663 174.279 224.73 175.346 226.048 175.346H237.49C238.809 175.346 239.876 174.279 239.876 172.96C239.876 171.641 238.809 170.574 237.49 170.574H226.048Z" fill="#25AE63"/>
<path d="M288.06 287.685C289.379 287.685 290.446 286.618 290.446 285.299C290.446 283.98 289.379 282.913 288.06 282.913H250.764C249.446 282.913 248.378 283.98 248.378 285.299C248.378 286.618 249.446 287.685 250.764 287.685H288.06Z" fill="#25AE63"/>
<path d="M237.489 287.685C238.808 287.685 239.875 286.618 239.875 285.299C239.875 283.98 238.808 282.913 237.489 282.913H226.047C224.728 282.913 223.661 283.98 223.661 285.299C223.661 286.618 224.728 287.685 226.047 287.685H237.489Z" fill="#25AE63"/>
<path d="M189.558 226.741H152.259C150.941 226.741 149.874 227.808 149.874 229.127C149.874 230.446 150.941 231.513 152.259 231.513H189.558C190.876 231.513 191.943 230.446 191.943 229.127C191.943 227.811 190.874 226.741 189.558 226.741Z" fill="#25AE63"/>
<path d="M138.993 226.741H127.551C126.232 226.741 125.165 227.808 125.165 229.127C125.165 230.446 126.232 231.513 127.551 231.513H138.993C140.312 231.513 141.379 230.446 141.379 229.127C141.379 227.811 140.312 226.741 138.993 226.741Z" fill="#25AE63"/>
<path d="M168.081 196.877H205.379C206.698 196.877 207.765 195.81 207.765 194.491C207.765 193.173 206.698 192.105 205.379 192.105H168.081C166.762 192.105 165.695 193.173 165.695 194.491C165.695 195.81 166.762 196.877 168.081 196.877V196.877Z" fill="#25AE63"/>
<path d="M85.0967 212.772H122.395C123.714 212.772 124.781 211.704 124.781 210.386C124.781 209.067 123.714 208 122.395 208H85.0967C83.778 208 82.7109 209.067 82.7109 210.386C82.7109 211.704 83.778 212.772 85.0967 212.772V212.772Z" fill="#25AE63"/>
<path d="M85.0967 253.772H122.395C123.714 253.772 124.781 252.704 124.781 251.386C124.781 250.067 123.714 249 122.395 249H85.0967C83.778 249 82.7109 250.067 82.7109 251.386C82.7109 252.704 83.778 253.772 85.0967 253.772V253.772Z" fill="#25AE63"/>
<path d="M143.37 196.877H154.812C156.131 196.877 157.198 195.81 157.198 194.491C157.198 193.173 156.131 192.105 154.812 192.105H143.37C142.051 192.105 140.984 193.173 140.984 194.491C140.984 195.81 142.054 196.877 143.37 196.877Z" fill="#25AE63"/>
<path d="M60.3858 212.772H71.8278C73.1465 212.772 74.2136 211.704 74.2136 210.386C74.2136 209.067 73.1465 208 71.8278 208H60.3858C59.0671 208 58 209.067 58 210.386C58 211.704 59.0694 212.772 60.3858 212.772Z" fill="#25AE63"/>
<path d="M60.3858 253.772H71.8278C73.1465 253.772 74.2136 252.704 74.2136 251.386C74.2136 250.067 73.1465 249 71.8278 249H60.3858C59.0671 249 58 250.067 58 251.386C58 252.704 59.0694 253.772 60.3858 253.772Z" fill="#25AE63"/>
<path d="M165.695 263.762C165.695 265.08 166.762 266.147 168.081 266.147H205.379C206.698 266.147 207.765 265.08 207.765 263.762C207.765 262.443 206.698 261.376 205.379 261.376H168.081C166.762 261.376 165.695 262.445 165.695 263.762V263.762Z" fill="#25AE63"/>
<path d="M143.371 266.147H154.813C156.131 266.147 157.198 265.08 157.198 263.762C157.198 262.443 156.131 261.376 154.813 261.376H143.371C142.052 261.376 140.985 262.443 140.985 263.762C140.985 265.08 142.054 266.147 143.371 266.147Z" fill="#25AE63"/>
</svg>
