<svg width="903" height="675" viewBox="0 0 903 675" fill="none" xmlns="http://www.w3.org/2000/svg">
<rect width="903" height="674.115" rx="25.0833" fill="#000201"/>
<rect x="763.333" y="16.3199" width="117.078" height="24.5828" rx="12.2017" fill="#0A0C0B" stroke="url(#paint0_linear_414_1100)" stroke-width="1.28439"/>
<path d="M785.081 28.7118C785.039 30.6537 786.714 32.2464 788.646 32.2156C789.91 32.2156 790.978 31.6093 791.554 30.6537L790.732 30.0475C790.249 30.7976 789.55 31.2189 788.656 31.2189C787.269 31.2189 786.211 30.1503 786.211 28.7118C786.211 27.2732 787.269 26.2046 788.656 26.2046C789.55 26.2046 790.249 26.6259 790.732 27.376L791.554 26.7698C790.968 25.8142 789.889 25.2079 788.646 25.2079C786.714 25.1771 785.039 26.7698 785.081 28.7118ZM792.366 29.5749C792.335 31.0031 793.578 32.2464 795.027 32.2156C796.496 32.2464 797.74 31.0031 797.709 29.5749C797.74 28.1466 796.496 26.9136 795.027 26.9444C793.578 26.9239 792.335 28.1261 792.366 29.5749ZM796.599 29.5851C796.599 30.4996 795.921 31.2189 795.027 31.2189C794.143 31.2189 793.465 30.5202 793.465 29.5851C793.465 28.6501 794.143 27.9308 795.037 27.9308C795.911 27.9308 796.599 28.6501 796.599 29.5851ZM803.354 28.9481C803.354 27.7459 802.645 26.9444 801.463 26.9444C800.836 26.9444 800.333 27.1499 799.953 27.5507V27.0575H798.946V32.1025H800.025V29.0919C800.025 28.4035 800.508 27.9206 801.175 27.9206C801.833 27.9206 802.275 28.3932 802.275 29.0919V32.1025H803.354V28.9481ZM809.264 28.9481C809.264 27.7459 808.555 26.9444 807.373 26.9444C806.747 26.9444 806.243 27.1499 805.863 27.5507V27.0575H804.856V32.1025H805.935V29.0919C805.935 28.4035 806.418 27.9206 807.086 27.9206C807.743 27.9206 808.185 28.3932 808.185 29.0919V32.1025H809.264V28.9481ZM815.308 29.9345C815.359 29.6982 815.39 29.4721 815.39 29.2563C815.39 27.9411 814.393 26.9444 813.058 26.9444C811.629 26.9136 810.417 28.1364 810.448 29.5851C810.448 31.075 811.619 32.2156 813.16 32.2156C813.931 32.2156 814.599 31.9484 815.174 31.4038L814.66 30.664C814.208 31.0648 813.715 31.26 813.191 31.26C812.328 31.26 811.681 30.7565 811.547 29.9345H815.308ZM811.568 29.0919C811.732 28.3419 812.307 27.8589 813.016 27.8589C813.725 27.8589 814.301 28.3213 814.311 29.0919H811.568ZM816.308 29.5749C816.308 31.0442 817.489 32.2156 818.979 32.2156C819.894 32.2156 820.654 31.7737 821.106 31.0442L820.346 30.4585C819.976 30.962 819.524 31.2189 818.989 31.2189C818.085 31.2189 817.407 30.4996 817.407 29.5749C817.407 28.6604 818.085 27.9411 818.989 27.9411C819.534 27.9411 819.986 28.198 820.346 28.7118L821.106 28.1158C820.664 27.3863 819.914 26.9444 818.979 26.9444C817.53 26.9239 816.277 28.1261 816.308 29.5749ZM825.296 31.1881C824.998 31.2189 824.782 31.2394 824.628 31.2394C823.97 31.2394 823.631 31.0134 823.631 30.366V27.9925H825.131V27.0575H823.631V25.732H822.542V27.0575H821.72V27.9925H822.542V30.4585C822.542 31.6402 823.241 32.2156 824.402 32.2156C824.659 32.2156 824.957 32.1745 825.296 32.1025V31.1881ZM837.214 25.321L835.519 29.9037L833.566 25.2079H833.186L831.244 29.9037L829.549 25.321H828.347L830.987 32.2156H831.357L833.381 27.4068L835.406 32.2156H835.765L838.406 25.321H837.214ZM843.09 29.0508C843.09 27.6945 842.268 26.9444 841.025 26.9444C840.152 26.9444 839.401 27.2938 838.898 28.0233L839.525 28.6604C839.946 28.1569 840.357 27.9103 840.922 27.9103C841.611 27.9103 842.001 28.2905 842.001 28.9892V29.318H840.573C839.432 29.318 838.713 29.8831 838.713 30.7565C838.713 31.6299 839.412 32.2156 840.47 32.2156C841.158 32.2156 841.713 31.9792 842.083 31.5374V32.1025H843.09V29.0508ZM842.001 30.1914C842.001 30.8798 841.426 31.3833 840.696 31.3833C840.172 31.3833 839.812 31.1367 839.812 30.7154C839.812 30.3044 840.131 30.0989 840.706 30.0989H842.001V30.1914ZM844.592 32.1025H845.671V24.3962H844.592V32.1025ZM847.231 32.1025H848.31V24.3962H847.231V32.1025ZM854.411 29.9345C854.463 29.6982 854.494 29.4721 854.494 29.2563C854.494 27.9411 853.497 26.9444 852.161 26.9444C850.733 26.9136 849.52 28.1364 849.551 29.5851C849.551 31.075 850.723 32.2156 852.264 32.2156C853.034 32.2156 853.702 31.9484 854.278 31.4038L853.764 30.664C853.312 31.0648 852.819 31.26 852.295 31.26C851.432 31.26 850.784 30.7565 850.651 29.9345H854.411ZM850.671 29.0919C850.836 28.3419 851.411 27.8589 852.12 27.8589C852.829 27.8589 853.404 28.3213 853.415 29.0919H850.671ZM858.73 31.1881C858.432 31.2189 858.216 31.2394 858.062 31.2394C857.405 31.2394 857.066 31.0134 857.066 30.366V27.9925H858.566V27.0575H857.066V25.732H855.976V27.0575H855.154V27.9925H855.976V30.4585C855.976 31.6402 856.675 32.2156 857.836 32.2156C858.093 32.2156 858.391 32.1745 858.73 32.1025V31.1881Z" fill="#00DA63"/>
<path d="M47.8157 25.1529C47.8176 24.5465 47.5281 23.9763 47.0376 23.6199C47.5392 23.0924 47.8178 22.3916 47.8157 21.6638C47.8129 20.7239 47.3479 19.8457 46.5719 19.3154C45.796 18.7851 44.8089 18.6705 43.9322 19.0092C43.0555 19.3479 42.4017 20.0965 42.1839 21.0107C41.7778 21.2271 41.4381 21.5496 41.2011 21.944C40.9639 22.3384 40.8383 22.7897 40.8374 23.2498C40.8359 23.7251 40.9695 24.1913 41.2232 24.5934C40.3792 25.4378 40.0263 26.6557 40.2879 27.8205C40.5494 28.9855 41.389 29.9354 42.5129 30.3381C42.394 30.6758 42.3935 31.0439 42.5116 31.3817C42.6297 31.7198 42.8593 32.0074 43.1624 32.1975C43.0931 32.3789 43.0575 32.5715 43.0578 32.7657C43.0578 32.8089 43.0601 32.8519 43.0642 32.8961C42.712 33.0479 42.4268 33.3222 42.2614 33.6683C42.0959 34.0142 42.0614 34.4084 42.1644 34.7779C42.2672 35.1473 42.5004 35.4669 42.8209 35.6776C43.1413 35.8882 43.5273 35.9757 43.9073 35.9237C44.2872 35.8716 44.6354 35.6837 44.8875 35.3947C45.1395 35.1057 45.2783 34.7351 45.2781 34.3516C45.2781 34.3084 45.2759 34.2654 45.2718 34.2212C45.5555 34.0977 45.7971 33.8944 45.9672 33.6358C46.1373 33.3774 46.2285 33.0751 46.2297 32.7657C46.2295 32.6317 46.2118 32.4985 46.1771 32.3692C46.7188 32.2223 47.1849 31.8757 47.4813 31.399C47.7775 30.9224 47.8823 30.3511 47.7741 29.8003C47.6661 29.2496 47.3533 28.7602 46.8987 28.4308C47.0849 27.9964 47.1811 27.5288 47.1814 27.0561C47.1812 26.9029 47.1706 26.7498 47.1497 26.598C47.572 26.2367 47.8155 25.7089 47.8158 25.1529L47.8157 25.1529Z" fill="#09A34E"/>
<path d="M34.8091 30.2295H31.0027C30.8276 30.2295 30.6855 30.3715 30.6855 30.5467V35.6218C30.6855 35.7059 30.719 35.7867 30.7784 35.8461C30.8379 35.9056 30.9186 35.939 31.0027 35.939H34.8091C34.8932 35.939 34.9739 35.9056 35.0334 35.8461C35.0929 35.7867 35.1263 35.7059 35.1263 35.6218V30.5467C35.1263 30.4626 35.0929 30.3819 35.0334 30.3224C34.9739 30.2629 34.8932 30.2295 34.8091 30.2295ZM31.9543 35.3046H31.3199V34.6702H31.9543V35.3046ZM31.9543 34.0359H31.3199V33.4015H31.9543V34.0359ZM31.9543 32.7671H31.3199V32.1327H31.9543V32.7671ZM31.9543 31.4983H31.3199V30.8639H31.9543V31.4983ZM34.4919 35.3046H32.5887V34.6702H34.4919V35.3046ZM34.4919 34.0359H32.5887V33.4015H34.4919V34.0359ZM34.4919 32.7671H32.5887V32.1327H34.4919V32.7671ZM34.4919 31.4983H32.5887V30.8639H34.4919V31.4983Z" fill="#09A34E"/>
<path d="M34.8091 27.6924H31.0027C30.8276 27.6924 30.6855 27.8344 30.6855 28.0096C30.6855 28.1847 30.8276 28.3268 31.0027 28.3268H34.8091C34.9843 28.3268 35.1263 28.1847 35.1263 28.0096C35.1263 27.8344 34.9843 27.6924 34.8091 27.6924Z" fill="#09A34E"/>
<path d="M41.6869 34.6884L39.7837 35.3228C39.6554 35.3676 39.569 35.4882 39.5681 35.6242V35.9414H39.2509C39.0757 35.9414 38.9337 35.7993 38.9337 35.6242V24.8395C38.9318 23.6283 38.4681 22.4633 37.6371 21.5823C36.806 20.701 35.6702 20.17 34.4612 20.0974C34.3758 19.6512 34.1026 19.2633 33.7115 19.0324C33.3204 18.8014 32.8488 18.7496 32.4168 18.8903C31.9849 19.0309 31.6343 19.3504 31.4542 19.7674L30.5945 18.9048C30.534 18.8463 30.4534 18.8133 30.3693 18.8127H28.4661V19.4471H30.2393L30.8737 20.0815H29.7349C29.6383 20.0819 29.5473 20.1262 29.4875 20.202L28.2188 21.788L28.7135 22.1814L29.8871 20.7159H31.3526C31.4008 20.9473 31.5017 21.1644 31.6476 21.3503H31.6381C31.4629 21.3503 31.3209 21.4923 31.3209 21.6675V22.638C30.6238 22.7172 29.9799 23.0498 29.512 23.5726C29.0442 24.0956 28.7848 24.7722 28.7833 25.4738V36.8929C28.784 37.1451 28.8846 37.3867 29.0629 37.565C29.2411 37.7432 29.4827 37.8438 29.7349 37.8445H36.0788C36.331 37.8438 36.5726 37.7432 36.7509 37.565C36.9292 37.3867 37.0297 37.1451 37.0304 36.8929V25.4738C37.029 24.7722 36.7696 24.0955 36.3017 23.5726C35.8339 23.0498 35.19 22.7172 34.4929 22.638V21.6675C34.4929 21.5834 34.4594 21.5027 34.4 21.4432C34.3405 21.3837 34.2598 21.3503 34.1757 21.3503H34.1662C34.3083 21.1673 34.408 20.9549 34.458 20.7287C35.4994 20.801 36.4748 21.2654 37.1876 22.0282C37.9003 22.7909 38.2975 23.7956 38.2992 24.8395V35.6242C38.2999 35.8764 38.4005 36.118 38.5787 36.2962C38.757 36.4745 38.9986 36.5751 39.2508 36.5758H39.568V36.893C39.569 37.0289 39.6554 37.1495 39.7837 37.1943L41.6868 37.8287C41.7198 37.8386 41.754 37.844 41.7884 37.8446C41.8546 37.8455 41.9195 37.8243 41.9723 37.7842C42.0562 37.7257 42.106 37.6297 42.1056 37.5274V34.9898C42.106 34.8874 42.0562 34.7914 41.9723 34.7329C41.8899 34.673 41.7837 34.6566 41.6868 34.6884H41.6869ZM33.8585 20.3986C33.8585 20.651 33.7582 20.8931 33.5798 21.0715C33.4014 21.2499 33.1592 21.3502 32.9069 21.3502C32.6546 21.3502 32.4124 21.25 32.234 21.0715C32.0556 20.8931 31.9553 20.6509 31.9553 20.3986C31.9553 20.1463 32.0556 19.9041 32.234 19.7257C32.4124 19.5474 32.6546 19.4471 32.9069 19.4471C33.1591 19.4478 33.4007 19.5483 33.579 19.7266C33.7573 19.9049 33.8578 20.1465 33.8585 20.3987L33.8585 20.3986ZM35.7617 35.6241C35.761 35.8763 35.6604 36.1179 35.4821 36.2961C35.3039 36.4744 35.0623 36.575 34.8101 36.5757H31.0037C30.7515 36.575 30.5099 36.4744 30.3317 36.2961C30.1534 36.1179 30.0528 35.8763 30.0521 35.6241V30.5489C30.0528 30.2967 30.1534 30.0552 30.3317 29.8769C30.5099 29.6986 30.7515 29.5981 31.0037 29.5974H34.8101C35.0623 29.5981 35.3039 29.6986 35.4821 29.8769C35.6604 30.0552 35.761 30.2967 35.7617 30.5489V35.6241ZM34.8101 28.963H31.0037C30.6637 28.963 30.3496 28.7816 30.1796 28.4872C30.0097 28.1928 30.0097 27.83 30.1796 27.5356C30.3496 27.2412 30.6637 27.0598 31.0037 27.0598H34.8101C35.1501 27.0598 35.4641 27.2412 35.6342 27.5356C35.8041 27.83 35.8041 28.1928 35.6342 28.4872C35.4641 28.7816 35.1501 28.963 34.8101 28.963ZM36.3961 25.791V26.4254H29.4177V25.791H36.3961Z" fill="#09A34E"/>
<path d="M55.3781 23.2845V24.6249H59.752L55.6461 32.5967H57.2687L61.7696 23.6937V23.2845H55.3781ZM62.5375 27.8559C62.5375 30.6073 63.7085 32.7519 66.093 32.7519C68.4916 32.7519 69.6345 30.6073 69.6345 27.8559C69.6345 26.4309 69.3382 25.288 68.7315 24.4274C68.1389 23.5667 67.2641 23.1293 66.093 23.1293C64.9219 23.1293 64.0472 23.5667 63.4405 24.4415C62.8338 25.3021 62.5375 26.445 62.5375 27.8559ZM68.0824 27.87C68.0824 30.0711 67.4616 31.3833 66.093 31.3833C64.7244 31.3833 64.0895 30.0711 64.0895 27.87C64.0895 25.6266 64.7526 24.4979 66.093 24.4979C67.4193 24.4979 68.0824 25.6266 68.0824 27.87Z" fill="#09A34E"/>
<path d="M606.644 89.3594C602.058 89.3594 598.117 92.1538 596.498 96.1296L595.853 94.988C595.77 94.8318 595.646 94.7017 595.493 94.6122C595.34 94.5229 595.166 94.4777 594.99 94.4817C594.653 94.4892 594.345 94.6738 594.18 94.9672C594.015 95.2608 594.017 95.6195 594.185 95.9111L595.933 99.0381C596.054 99.2535 596.254 99.4135 596.491 99.4837C596.729 99.5542 596.984 99.5296 597.203 99.4155L600.31 97.8272V97.827C600.546 97.7188 600.728 97.5192 600.813 97.2741C600.898 97.029 600.88 96.7598 600.763 96.5284C600.645 96.2971 600.438 96.1238 600.19 96.0485C599.941 95.9732 599.673 96.0024 599.447 96.1296L598.305 96.7152C599.67 93.5215 602.887 91.2654 606.644 91.2654C611.647 91.2654 615.667 95.2433 615.667 100.16C615.667 105.077 611.647 109.055 606.644 109.055C602.364 109.055 598.799 106.117 597.858 102.205V102.205C597.778 101.873 597.528 101.609 597.2 101.513C596.873 101.416 596.52 101.501 596.272 101.736C596.025 101.971 595.922 102.32 596.002 102.651C597.147 107.418 601.491 110.961 606.643 110.961C612.663 110.961 617.573 106.121 617.573 100.16C617.573 94.1993 612.663 89.3595 606.643 89.3595L606.644 89.3594ZM606.763 94.1044H606.763C606.508 94.107 606.265 94.2114 606.088 94.3942C605.911 94.5768 605.814 94.823 605.82 95.0774V100.16V100.16C605.82 100.449 605.951 100.724 606.177 100.905L609.354 103.446V103.446C609.551 103.604 609.803 103.677 610.055 103.649C610.306 103.621 610.536 103.495 610.694 103.297C610.852 103.099 610.925 102.847 610.897 102.596C610.869 102.345 610.743 102.115 610.545 101.957L607.726 99.7032V95.0771V95.0774C607.731 94.8194 607.632 94.5704 607.45 94.3871C607.269 94.2036 607.021 94.1017 606.763 94.1044H606.763Z" fill="#00DA63"/>
<path d="M558.283 99.9472C558.283 101.178 557.285 102.175 556.054 102.175C554.824 102.175 553.826 101.178 553.826 99.9472C553.826 98.7165 554.824 97.7188 556.054 97.7188C557.285 97.7188 558.283 98.7165 558.283 99.9472Z" fill="#00DA63"/>
<path d="M568.469 97.7377L565.363 97.1502C565.178 96.522 564.927 95.9149 564.615 95.3387L566.399 92.7014C566.479 92.5761 566.514 92.4277 566.501 92.2797C566.487 92.1317 566.425 91.9923 566.323 91.8836L564.1 89.6605H564.1C563.991 89.5632 563.853 89.5041 563.707 89.4924C563.562 89.4807 563.416 89.5171 563.293 89.5958L560.656 91.4074H560.656C560.062 91.083 559.436 90.8227 558.787 90.6309L558.208 87.5254C558.173 87.3819 558.093 87.2533 557.979 87.1598C557.865 87.0663 557.723 87.0129 557.576 87.0078H554.432C554.284 87.0116 554.141 87.0645 554.027 87.1584C553.913 87.2521 553.833 87.3811 553.8 87.5254L553.213 90.6672C552.596 90.8553 551.998 91.1032 551.43 91.4074L548.826 89.6269C548.701 89.5469 548.552 89.511 548.404 89.5245C548.256 89.5381 548.117 89.6005 548.008 89.702L545.785 91.925C545.684 92.0337 545.621 92.173 545.608 92.3211C545.594 92.4691 545.63 92.6175 545.71 92.743L547.506 95.362C547.202 95.9299 546.957 96.5275 546.774 97.1451L543.668 97.7325C543.516 97.7594 543.378 97.837 543.276 97.9526C543.174 98.0683 543.114 98.2152 543.106 98.3692V101.501C543.11 101.649 543.163 101.792 543.257 101.907C543.351 102.022 543.48 102.103 543.624 102.137L546.73 102.725V102.725C546.918 103.352 547.168 103.959 547.478 104.536L545.705 107.125H545.705C545.621 107.255 545.585 107.411 545.603 107.566C545.622 107.72 545.693 107.863 545.806 107.971L548.024 110.189C548.132 110.291 548.271 110.355 548.42 110.368C548.568 110.382 548.717 110.345 548.842 110.264L551.44 108.488C552.001 108.792 552.59 109.04 553.2 109.229L553.79 112.37C553.824 112.514 553.904 112.642 554.018 112.736C554.132 112.829 554.274 112.883 554.421 112.888H557.566C557.714 112.885 557.856 112.832 557.971 112.738C558.085 112.644 558.165 112.515 558.197 112.37L558.78 109.265C559.417 109.079 560.033 108.828 560.62 108.517L563.241 110.3C563.367 110.383 563.517 110.422 563.667 110.409C563.818 110.396 563.959 110.333 564.069 110.23L566.293 108.007H566.292C566.392 107.898 566.452 107.759 566.464 107.612C566.476 107.465 566.438 107.318 566.357 107.194L564.587 104.58C564.901 103.994 565.157 103.377 565.35 102.741L568.456 102.153V102.153C568.6 102.119 568.73 102.038 568.823 101.923C568.917 101.808 568.97 101.665 568.974 101.516V98.3745C568.977 98.0696 568.767 97.8039 568.469 97.7378L568.469 97.7377ZM556.047 105.344C554.615 105.343 553.242 104.773 552.231 103.759C551.22 102.746 550.652 101.373 550.653 99.9412C550.654 98.5094 551.224 97.1369 552.237 96.1254C553.25 95.1137 554.623 94.546 556.055 94.5469C557.487 94.5478 558.859 95.1174 559.871 96.1303C560.883 97.1431 561.451 98.5165 561.45 99.948C561.45 101.381 560.881 102.754 559.867 103.766C558.853 104.779 557.479 105.346 556.047 105.344L556.047 105.344Z" fill="#00DA63"/>
<path d="M317.741 109.792H327.335V107.558H320.234V94.2717H317.741V109.792ZM329.679 109.792H332.148V98.2458H329.679V109.792ZM329.232 93.9425C329.232 94.8596 329.984 95.565 330.925 95.565C331.842 95.565 332.594 94.8596 332.594 93.9425C332.594 93.0254 331.842 92.2964 330.925 92.2964C329.984 92.2964 329.232 93.0254 329.232 93.9425ZM344.678 98.2458V99.8919C343.831 98.6926 342.35 97.9871 340.633 97.9871C337.388 97.9871 334.989 100.597 334.989 104.007C334.989 107.464 337.388 110.051 340.633 110.051C342.232 110.051 343.619 109.463 344.49 108.405V114.025H346.982V98.2458H344.678ZM344.537 104.007C344.537 106.5 342.843 107.793 341.056 107.793C339.081 107.793 337.505 106.241 337.505 104.031C337.505 101.844 339.01 100.245 341.056 100.245C342.867 100.245 344.537 101.491 344.537 104.007ZM350.436 104.948C350.436 108.052 352.599 110.051 355.492 110.051C358.313 110.051 360.5 108.052 360.5 104.948V98.2458H358.031V105.136C358.031 106.735 356.926 107.77 355.492 107.77C353.987 107.77 352.881 106.735 352.881 105.136V98.2458H350.436V104.948ZM363.964 109.792H366.434V98.2458H363.964V109.792ZM363.518 93.9425C363.518 94.8596 364.27 95.565 365.211 95.565C366.128 95.565 366.88 94.8596 366.88 93.9425C366.88 93.0254 366.128 92.2964 365.211 92.2964C364.27 92.2964 363.518 93.0254 363.518 93.9425ZM378.775 92.1553V99.6568C377.905 98.5986 376.518 97.9871 374.919 97.9871C371.721 97.9166 369.205 100.668 369.275 104.031C369.275 107.44 371.674 110.051 374.919 110.051C376.636 110.051 378.117 109.345 378.964 108.146V109.792H381.268V92.1553H378.775ZM378.823 104.031C378.823 106.547 377.153 107.793 375.342 107.793C373.296 107.793 371.791 106.218 371.791 104.007C371.791 101.797 373.367 100.245 375.342 100.245C377.129 100.245 378.823 101.538 378.823 104.031ZM384.839 109.792H387.308V98.2458H384.839V109.792ZM384.392 93.9425C384.392 94.8596 385.145 95.565 386.086 95.565C387.003 95.565 387.755 94.8596 387.755 93.9425C387.755 93.0254 387.003 92.2964 386.086 92.2964C385.145 92.2964 384.392 93.0254 384.392 93.9425ZM397.745 107.699C397.063 107.77 396.57 107.817 396.217 107.817C394.712 107.817 393.936 107.299 393.936 105.818V100.386H397.369V98.2458H393.936V95.2123H391.443V98.2458H389.562V100.386H391.443V106.029C391.443 108.734 393.042 110.051 395.7 110.051C396.287 110.051 396.969 109.957 397.745 109.792V107.699ZM408.291 98.2458L404.881 106.641L401.565 98.2458H398.908L403.517 109.275L403.047 110.356C402.482 111.65 401.683 112.049 400.531 112.049C400.342 112.049 399.896 112.026 399.167 111.955V114.048C399.802 114.213 400.436 114.283 401.071 114.283C403.047 114.283 404.34 113.296 405.304 111.109L410.924 98.2458H408.291Z" fill="#00DA63"/>
<path d="M293.813 85.4321C293.576 84.3976 292.539 84.3976 292.302 85.4321C290.337 94.0081 285.219 97.5407 285.219 105.2V105.2C285.219 108.222 286.713 111.014 289.138 112.526C291.563 114.037 294.551 114.037 296.977 112.526C299.402 111.015 300.896 108.222 300.896 105.2C300.896 97.5404 295.777 94.0078 293.813 85.4317L293.813 85.4321ZM291.787 109.991C291.637 110.269 291.392 110.471 291.105 110.553C290.818 110.635 290.513 110.592 290.256 110.431C288.528 109.348 287.463 107.356 287.458 105.2C287.458 104.768 287.672 104.369 288.018 104.153C288.365 103.938 288.792 103.938 289.138 104.153C289.484 104.369 289.698 104.768 289.698 105.2C289.701 106.495 290.342 107.69 291.38 108.34C291.637 108.5 291.824 108.765 291.9 109.075C291.977 109.384 291.936 109.714 291.787 109.991L291.787 109.991Z" fill="#00DA63"/>
<rect x="257" y="134.039" width="388.792" height="455.419" rx="25.9604" fill="#082314"/>
<rect x="275.133" y="159.123" width="352.734" height="52.5182" rx="14.8932" fill="#163A27"/>
<rect x="279.052" y="164.61" width="172.448" height="41.5443" rx="14.8932" fill="#259156"/>
<path d="M359.721 190.152H361.235L357.37 181.24H356.892L353.027 190.152H354.527L355.152 188.691H359.096L359.721 190.152ZM358.592 187.483H355.656L357.131 183.857L358.592 187.483ZM367.272 180.191V184.428C366.78 183.83 365.997 183.485 365.093 183.485C363.287 183.445 361.866 184.999 361.906 186.898C361.906 188.824 363.26 190.298 365.093 190.298C366.063 190.298 366.9 189.9 367.378 189.223V190.152H368.68V180.191H367.272ZM367.298 186.898C367.298 188.319 366.355 189.023 365.332 189.023C364.177 189.023 363.327 188.133 363.327 186.885C363.327 185.636 364.217 184.76 365.332 184.76C366.342 184.76 367.298 185.49 367.298 186.898ZM375.651 180.191V184.428C375.159 183.83 374.376 183.485 373.473 183.485C371.666 183.445 370.245 184.999 370.285 186.898C370.285 188.824 371.64 190.298 373.473 190.298C374.442 190.298 375.279 189.9 375.757 189.223V190.152H377.059V180.191H375.651ZM375.677 186.898C375.677 188.319 374.734 189.023 373.712 189.023C372.556 189.023 371.706 188.133 371.706 186.885C371.706 185.636 372.596 184.76 373.712 184.76C374.721 184.76 375.677 185.49 375.677 186.898Z" fill="white"/>
<path d="M520.862 190.152L518.232 186.54C519.282 186.128 519.919 185.225 519.919 184.069C519.919 182.489 518.711 181.386 516.944 181.386H513.743V190.152H515.151V186.765H516.758L519.255 190.152H520.862ZM515.151 182.635H516.917C517.887 182.635 518.471 183.219 518.471 184.082C518.471 184.933 517.887 185.517 516.917 185.517H515.151V182.635ZM527.705 187.35C527.772 187.044 527.812 186.752 527.812 186.473C527.812 184.773 526.523 183.485 524.796 183.485C522.95 183.445 521.383 185.025 521.423 186.898C521.423 188.824 522.937 190.298 524.929 190.298C525.925 190.298 526.789 189.953 527.533 189.249L526.868 188.293C526.284 188.811 525.647 189.063 524.969 189.063C523.853 189.063 523.017 188.412 522.844 187.35H527.705ZM522.871 186.261C523.083 185.291 523.827 184.667 524.743 184.667C525.66 184.667 526.404 185.265 526.417 186.261H522.871ZM539.198 186.075C539.198 184.521 538.282 183.485 536.781 183.485C535.865 183.485 535.054 183.883 534.576 184.507C534.191 183.87 533.5 183.485 532.597 183.485C531.814 183.485 531.176 183.764 530.711 184.242V183.631H529.41V190.152H530.804V186.274C530.804 185.371 531.389 184.76 532.239 184.76C533.075 184.76 533.607 185.371 533.607 186.274V190.152H535.001V186.208C535.001 185.371 535.586 184.76 536.436 184.76C537.272 184.76 537.79 185.358 537.79 186.274V190.152H539.198V186.075ZM540.723 186.885C540.683 188.731 542.291 190.338 544.163 190.298C546.063 190.338 547.67 188.731 547.63 186.885C547.67 185.039 546.063 183.445 544.163 183.485C542.291 183.458 540.683 185.012 540.723 186.885ZM546.196 186.898C546.196 188.08 545.319 189.01 544.163 189.01C543.021 189.01 542.145 188.107 542.145 186.898C542.145 185.69 543.021 184.76 544.177 184.76C545.306 184.76 546.196 185.69 546.196 186.898ZM553.512 183.631L551.613 187.948L549.7 183.631H548.212L551.373 190.298H551.852L554.999 183.631H553.512ZM561.87 187.35C561.937 187.044 561.976 186.752 561.976 186.473C561.976 184.773 560.688 183.485 558.961 183.485C557.115 183.445 555.548 185.025 555.588 186.898C555.588 188.824 557.102 190.298 559.094 190.298C560.09 190.298 560.954 189.953 561.698 189.249L561.033 188.293C560.449 188.811 559.811 189.063 559.134 189.063C558.018 189.063 557.182 188.412 557.009 187.35H561.87ZM557.036 186.261C557.248 185.291 557.992 184.667 558.908 184.667C559.825 184.667 560.569 185.265 560.582 186.261H557.036Z" fill="white"/>
<rect x="275.495" y="511.841" width="351.529" height="50.9228" rx="25.4614" fill="#000201" stroke="url(#paint1_linear_414_1100)" stroke-width="0.989075"/>
<path fill-rule="evenodd" clip-rule="evenodd" d="M497.954 538.066C498.039 537.98 498.087 537.864 498.087 537.743C498.087 537.622 498.039 537.506 497.954 537.421L494.082 533.549C493.997 533.464 493.881 533.416 493.76 533.416C493.639 533.416 493.523 533.464 493.437 533.549C493.352 533.635 493.303 533.751 493.303 533.872C493.303 533.993 493.352 534.109 493.437 534.195L496.53 537.287L483.436 537.287C483.315 537.287 483.199 537.335 483.113 537.42C483.028 537.506 482.979 537.622 482.979 537.743C482.979 537.865 483.028 537.981 483.113 538.066C483.199 538.152 483.315 538.2 483.436 538.2L496.53 538.2L493.437 541.292C493.352 541.378 493.303 541.494 493.303 541.615C493.303 541.736 493.352 541.852 493.437 541.937C493.523 542.023 493.639 542.071 493.76 542.071C493.881 542.071 493.997 542.023 494.082 541.937L497.954 538.066Z" fill="#00DA63"/>
<path d="M406.623 536.468C406.579 539.206 408.868 541.452 411.664 541.408C413.591 541.408 415.272 540.409 416.126 538.888V536.193H411.65V537.555H414.591V538.583C413.997 539.496 412.997 540.032 411.737 540.032C409.68 540.032 408.217 538.496 408.217 536.454C408.217 534.44 409.636 532.933 411.65 532.933C412.838 532.933 413.794 533.441 414.504 534.44L415.619 533.527C414.707 532.253 413.33 531.528 411.664 531.528C408.897 531.485 406.565 533.73 406.623 536.468ZM417.461 537.685C417.417 539.699 419.17 541.452 421.213 541.408C423.284 541.452 425.037 539.699 424.994 537.685C425.037 535.672 423.284 533.933 421.213 533.977C419.17 533.948 417.417 535.643 417.461 537.685ZM423.429 537.7C423.429 538.989 422.473 540.003 421.213 540.003C419.967 540.003 419.011 539.018 419.011 537.7C419.011 536.381 419.967 535.367 421.227 535.367C422.459 535.367 423.429 536.381 423.429 537.7ZM435.028 539.96C434.608 540.003 434.304 540.032 434.087 540.032C433.159 540.032 432.681 539.713 432.681 538.801V535.454H434.797V534.136H432.681V532.267H431.146V534.136H429.987V535.454H431.146V538.931C431.146 540.597 432.131 541.408 433.768 541.408C434.13 541.408 434.55 541.35 435.028 541.249V539.96ZM435.98 537.685C435.936 539.699 437.689 541.452 439.732 541.408C441.803 541.452 443.556 539.699 443.513 537.685C443.556 535.672 441.803 533.933 439.732 533.977C437.689 533.948 435.936 535.643 435.98 537.685ZM441.948 537.7C441.948 538.989 440.992 540.003 439.732 540.003C438.486 540.003 437.53 539.018 437.53 537.7C437.53 536.381 438.486 535.367 439.746 535.367C440.978 535.367 441.948 536.381 441.948 537.7ZM454.967 536.946C454.967 535.034 453.808 533.977 452.055 533.977C450.824 533.977 449.766 534.469 449.056 535.498L449.94 536.396C450.534 535.686 451.114 535.338 451.91 535.338C452.881 535.338 453.431 535.874 453.431 536.859V537.323H451.418C449.81 537.323 448.796 538.12 448.796 539.351C448.796 540.583 449.781 541.408 451.273 541.408C452.244 541.408 453.026 541.075 453.547 540.452V541.249H454.967V536.946ZM453.431 538.554C453.431 539.525 452.62 540.235 451.592 540.235C450.853 540.235 450.346 539.887 450.346 539.293C450.346 538.714 450.795 538.424 451.606 538.424H453.431V538.554ZM464.473 537.685C464.473 535.585 462.995 533.977 460.981 533.977C459.938 533.977 459.025 534.397 458.504 535.135V534.136H457.084V543.857H458.605V540.38C459.17 541.032 460.011 541.408 460.981 541.408C462.995 541.408 464.473 539.815 464.473 537.685ZM462.908 537.7C462.908 539.061 461.952 540.018 460.735 540.018C459.619 540.018 458.591 539.25 458.591 537.685C458.591 536.135 459.619 535.367 460.735 535.367C461.966 535.367 462.908 536.338 462.908 537.7ZM473.612 537.685C473.612 535.585 472.134 533.977 470.12 533.977C469.077 533.977 468.165 534.397 467.643 535.135V534.136H466.223V543.857H467.745V540.38C468.31 541.032 469.15 541.408 470.12 541.408C472.134 541.408 473.612 539.815 473.612 537.685ZM472.047 537.7C472.047 539.061 471.091 540.018 469.874 540.018C468.759 540.018 467.73 539.25 467.73 537.685C467.73 536.135 468.759 535.367 469.874 535.367C471.106 535.367 472.047 536.338 472.047 537.7Z" fill="#00DA63"/>
<path d="M462.4 365.084C457.206 365.084 453.042 361.004 453.042 356.028C453.042 351.052 457.206 346.972 462.4 346.972C467.594 346.972 471.757 351.052 471.757 356.028C471.757 361.004 467.594 365.084 462.4 365.084Z" stroke="#00DA63" stroke-width="1.81119"/>
<path d="M462.474 351.553V359.391" stroke="#00DA63" stroke-width="1.01901" stroke-linecap="round"/>
<path d="M466.394 355.473L458.555 355.473" stroke="#00DA63" stroke-width="1.01901" stroke-linecap="round"/>
<rect x="275.133" y="415.442" width="352.734" height="56.7505" rx="28.3753" fill="#000201"/>
<rect x="282.759" y="421.578" width="126.411" height="43.112" rx="21.556" fill="#082314"/>
<circle cx="304.314" cy="443.134" r="10.582" fill="white"/>
<path d="M323.127 444.699C323.681 445.667 324.659 446.253 325.832 446.253C327.213 446.253 328.234 445.427 328.234 444.178C328.234 443.232 327.68 442.667 326.517 442.135L325.713 441.765C325.007 441.407 324.757 441.309 324.713 440.744C324.713 440.179 325.191 439.874 325.8 439.874C326.408 439.874 326.93 440.179 327.31 440.744L328.115 440.124C327.669 439.353 326.811 438.842 325.8 438.842C324.561 438.842 323.54 439.614 323.54 440.787C323.54 441.743 324.17 442.298 325.213 442.776L326.006 443.145C326.756 443.493 327.06 443.71 327.06 444.221C327.06 444.83 326.561 445.221 325.822 445.221C324.996 445.221 324.42 444.775 323.942 444.08L323.127 444.699ZM334.435 443.841C334.489 443.591 334.522 443.352 334.522 443.124C334.522 441.733 333.468 440.678 332.055 440.678C330.544 440.646 329.262 441.939 329.295 443.471C329.295 445.047 330.534 446.253 332.164 446.253C332.979 446.253 333.685 445.971 334.294 445.395L333.75 444.612C333.272 445.036 332.75 445.243 332.196 445.243C331.283 445.243 330.599 444.71 330.457 443.841H334.435ZM330.479 442.95C330.653 442.156 331.262 441.646 332.011 441.646C332.761 441.646 333.37 442.135 333.381 442.95H330.479ZM335.829 446.134H336.97V437.983H335.829V446.134ZM343.424 443.841C343.478 443.591 343.51 443.352 343.51 443.124C343.51 441.733 342.456 440.678 341.044 440.678C339.533 440.646 338.251 441.939 338.283 443.471C338.283 445.047 339.522 446.253 341.152 446.253C341.967 446.253 342.674 445.971 343.282 445.395L342.739 444.612C342.261 445.036 341.739 445.243 341.185 445.243C340.272 445.243 339.587 444.71 339.446 443.841H343.424ZM339.468 442.95C339.642 442.156 340.25 441.646 341 441.646C341.75 441.646 342.359 442.135 342.369 442.95H339.468ZM344.481 443.46C344.481 445.014 345.731 446.253 347.307 446.253C348.274 446.253 349.078 445.786 349.556 445.014L348.752 444.395C348.361 444.928 347.882 445.199 347.317 445.199C346.361 445.199 345.644 444.439 345.644 443.46C345.644 442.493 346.361 441.733 347.317 441.733C347.893 441.733 348.371 442.004 348.752 442.548L349.556 441.917C349.089 441.146 348.295 440.678 347.307 440.678C345.774 440.657 344.448 441.928 344.481 443.46ZM353.987 445.167C353.672 445.199 353.444 445.221 353.281 445.221C352.585 445.221 352.227 444.982 352.227 444.297V441.787H353.813V440.798H352.227V439.396H351.075V440.798H350.205V441.787H351.075V444.395C351.075 445.645 351.814 446.253 353.042 446.253C353.313 446.253 353.629 446.21 353.987 446.134V445.167ZM361.363 445.167C361.048 445.199 360.819 445.221 360.656 445.221C359.961 445.221 359.602 444.982 359.602 444.297V441.787H361.189V440.798H359.602V439.396H358.45V440.798H357.581V441.787H358.45V444.395C358.45 445.645 359.189 446.253 360.417 446.253C360.689 446.253 361.004 446.21 361.363 446.134V445.167ZM362.076 443.46C362.044 444.971 363.359 446.286 364.891 446.253C366.445 446.286 367.76 444.971 367.727 443.46C367.76 441.95 366.445 440.646 364.891 440.678C363.359 440.657 362.044 441.928 362.076 443.46ZM366.554 443.471C366.554 444.439 365.836 445.199 364.891 445.199C363.956 445.199 363.239 444.46 363.239 443.471C363.239 442.482 363.956 441.722 364.902 441.722C365.826 441.722 366.554 442.482 366.554 443.471ZM369.036 446.134H370.177V437.983H369.036V446.134ZM371.557 443.145L373.708 440.798H372.296L370.209 443.134L372.524 446.134H373.893L371.557 443.145ZM379.421 443.841C379.475 443.591 379.508 443.352 379.508 443.124C379.508 441.733 378.454 440.678 377.041 440.678C375.53 440.646 374.248 441.939 374.281 443.471C374.281 445.047 375.52 446.253 377.15 446.253C377.965 446.253 378.671 445.971 379.28 445.395L378.736 444.612C378.258 445.036 377.737 445.243 377.182 445.243C376.269 445.243 375.585 444.71 375.444 443.841H379.421ZM375.465 442.95C375.639 442.156 376.248 441.646 376.998 441.646C377.747 441.646 378.356 442.135 378.367 442.95H375.465ZM385.477 442.798C385.477 441.526 384.727 440.678 383.478 440.678C382.815 440.678 382.282 440.896 381.88 441.32V440.798H380.815V446.134H381.956V442.95C381.956 442.222 382.467 441.711 383.173 441.711C383.869 441.711 384.336 442.211 384.336 442.95V446.134H385.477V442.798Z" fill="white"/>
<path d="M394.573 439.512L398.196 443.134L394.573 446.756" stroke="white" stroke-width="0.784848" stroke-linecap="round"/>
<path d="M567.455 443.234C567.455 447.473 569.259 450.776 572.932 450.776C576.627 450.776 578.387 447.473 578.387 443.234C578.387 441.039 577.931 439.279 576.996 437.953C576.083 436.627 574.736 435.953 572.932 435.953C571.128 435.953 569.78 436.627 568.846 437.975C567.911 439.301 567.455 441.061 567.455 443.234ZM575.996 443.256C575.996 446.647 575.04 448.668 572.932 448.668C570.824 448.668 569.845 446.647 569.845 443.256C569.845 439.8 570.867 438.062 572.932 438.062C574.975 438.062 575.996 439.8 575.996 443.256ZM580.848 449.103C580.848 450.059 581.609 450.776 582.565 450.776C583.521 450.776 584.239 450.059 584.239 449.103C584.239 448.125 583.521 447.407 582.565 447.407C581.609 447.407 580.848 448.146 580.848 449.103ZM586.706 443.234C586.706 447.473 588.51 450.776 592.183 450.776C595.877 450.776 597.638 447.473 597.638 443.234C597.638 441.039 597.182 439.279 596.247 437.953C595.334 436.627 593.987 435.953 592.183 435.953C590.379 435.953 589.031 436.627 588.097 437.975C587.162 439.301 586.706 441.061 586.706 443.234ZM595.247 443.256C595.247 446.647 594.291 448.668 592.183 448.668C590.074 448.668 589.096 446.647 589.096 443.256C589.096 439.8 590.118 438.062 592.183 438.062C594.226 438.062 595.247 439.8 595.247 443.256ZM600.29 443.234C600.29 447.473 602.093 450.776 605.767 450.776C609.461 450.776 611.222 447.473 611.222 443.234C611.222 441.039 610.765 439.279 609.831 437.953C608.918 436.627 607.571 435.953 605.767 435.953C603.963 435.953 602.615 436.627 601.681 437.975C600.746 439.301 600.29 441.061 600.29 443.234ZM608.831 443.256C608.831 446.647 607.875 448.668 605.767 448.668C603.658 448.668 602.68 446.647 602.68 443.256C602.68 439.8 603.702 438.062 605.767 438.062C607.81 438.062 608.831 439.8 608.831 443.256Z" fill="#131E18"/>
<path d="M294.997 400.025C294.997 398.949 294.386 398.126 293.363 397.794C293.841 397.382 294.093 396.824 294.093 396.147C294.093 394.792 293.044 393.809 291.464 393.809H288.395V402.575H292.154C293.868 402.575 294.997 401.499 294.997 400.025ZM291.331 395.044C292.194 395.044 292.685 395.483 292.685 396.213C292.685 396.944 292.194 397.408 291.331 397.408H289.777V395.044H291.331ZM293.575 399.985C293.575 400.822 293.004 401.34 292.035 401.34H289.777V398.617H292.035C293.004 398.617 293.575 399.148 293.575 399.985ZM301.693 398.63C301.693 396.877 300.63 395.908 299.023 395.908C297.894 395.908 296.925 396.359 296.274 397.302L297.084 398.126C297.629 397.475 298.16 397.156 298.89 397.156C299.78 397.156 300.285 397.648 300.285 398.551V398.976H298.439C296.964 398.976 296.035 399.706 296.035 400.835C296.035 401.964 296.938 402.721 298.306 402.721C299.196 402.721 299.913 402.416 300.391 401.845V402.575H301.693V398.63ZM300.285 400.105C300.285 400.995 299.541 401.645 298.598 401.645C297.921 401.645 297.456 401.327 297.456 400.782C297.456 400.251 297.868 399.985 298.611 399.985H300.285V400.105ZM303.634 402.575H305.028V392.614H303.634V402.575ZM312.225 398.63C312.225 396.877 311.163 395.908 309.555 395.908C308.426 395.908 307.457 396.359 306.806 397.302L307.616 398.126C308.161 397.475 308.692 397.156 309.423 397.156C310.313 397.156 310.817 397.648 310.817 398.551V398.976H308.971C307.497 398.976 306.567 399.706 306.567 400.835C306.567 401.964 307.47 402.721 308.838 402.721C309.728 402.721 310.445 402.416 310.923 401.845V402.575H312.225V398.63ZM310.817 400.105C310.817 400.995 310.073 401.645 309.13 401.645C308.453 401.645 307.988 401.327 307.988 400.782C307.988 400.251 308.4 399.985 309.144 399.985H310.817V400.105ZM319.864 398.498C319.864 396.944 318.948 395.908 317.42 395.908C316.61 395.908 315.959 396.173 315.468 396.691V396.054H314.166V402.575H315.561V398.684C315.561 397.794 316.185 397.169 317.048 397.169C317.898 397.169 318.469 397.78 318.469 398.684V402.575H319.864V398.498ZM321.394 399.308C321.394 401.207 322.922 402.721 324.847 402.721C326.03 402.721 327.012 402.15 327.597 401.207L326.614 400.45C326.136 401.101 325.551 401.433 324.861 401.433C323.692 401.433 322.815 400.503 322.815 399.308C322.815 398.126 323.692 397.196 324.861 397.196C325.565 397.196 326.149 397.528 326.614 398.192L327.597 397.422C327.026 396.479 326.056 395.908 324.847 395.908C322.975 395.881 321.354 397.435 321.394 399.308ZM334.875 399.773C334.942 399.467 334.982 399.175 334.982 398.896C334.982 397.196 333.693 395.908 331.966 395.908C330.12 395.868 328.553 397.448 328.593 399.321C328.593 401.247 330.107 402.721 332.099 402.721C333.095 402.721 333.959 402.376 334.703 401.672L334.038 400.716C333.454 401.234 332.817 401.486 332.139 401.486C331.023 401.486 330.187 400.835 330.014 399.773H334.875ZM330.041 398.684C330.253 397.714 330.997 397.09 331.913 397.09C332.83 397.09 333.574 397.687 333.587 398.684H330.041ZM336.394 396.997C336.394 397.581 336.858 398.019 337.443 398.019C338.027 398.019 338.466 397.581 338.466 396.997C338.466 396.399 338.027 395.961 337.443 395.961C336.858 395.961 336.394 396.412 336.394 396.997ZM336.394 401.699C336.394 402.283 336.858 402.721 337.443 402.721C338.027 402.721 338.466 402.283 338.466 401.699C338.466 401.101 338.027 400.663 337.443 400.663C336.858 400.663 336.394 401.114 336.394 401.699ZM343.825 398.112C343.825 400.702 344.928 402.721 347.173 402.721C349.431 402.721 350.506 400.702 350.506 398.112C350.506 396.771 350.227 395.695 349.656 394.885C349.098 394.075 348.275 393.663 347.173 393.663C346.07 393.663 345.247 394.075 344.676 394.898C344.104 395.708 343.825 396.784 343.825 398.112ZM349.045 398.126C349.045 400.198 348.461 401.433 347.173 401.433C345.884 401.433 345.287 400.198 345.287 398.126C345.287 396.014 345.911 394.951 347.173 394.951C348.421 394.951 349.045 396.014 349.045 398.126Z" fill="white"/>
<rect x="275.133" y="261.807" width="352.734" height="56.7505" rx="28.3753" fill="#000201"/>
<rect x="282.759" y="267.942" width="126.411" height="43.112" rx="21.556" fill="#082314"/>
<circle cx="304.314" cy="289.498" r="10.582" fill="white"/>
<path d="M323.127 291.064C323.681 292.031 324.659 292.618 325.832 292.618C327.213 292.618 328.234 291.792 328.234 290.542C328.234 289.597 327.68 289.031 326.517 288.499L325.713 288.129C325.007 287.771 324.757 287.673 324.713 287.108C324.713 286.543 325.191 286.239 325.8 286.239C326.408 286.239 326.93 286.543 327.31 287.108L328.115 286.489C327.669 285.717 326.811 285.206 325.8 285.206C324.561 285.206 323.54 285.978 323.54 287.151C323.54 288.108 324.17 288.662 325.213 289.14L326.006 289.51C326.756 289.857 327.06 290.075 327.06 290.585C327.06 291.194 326.561 291.585 325.822 291.585C324.996 291.585 324.42 291.14 323.942 290.444L323.127 291.064ZM334.435 290.205C334.489 289.955 334.522 289.716 334.522 289.488C334.522 288.097 333.468 287.043 332.055 287.043C330.544 287.01 329.262 288.303 329.295 289.836C329.295 291.411 330.534 292.618 332.164 292.618C332.979 292.618 333.685 292.335 334.294 291.759L333.75 290.977C333.272 291.4 332.75 291.607 332.196 291.607C331.283 291.607 330.599 291.074 330.457 290.205H334.435ZM330.479 289.314C330.653 288.521 331.262 288.01 332.011 288.01C332.761 288.01 333.37 288.499 333.381 289.314H330.479ZM335.829 292.498H336.97V284.348H335.829V292.498ZM343.424 290.205C343.478 289.955 343.51 289.716 343.51 289.488C343.51 288.097 342.456 287.043 341.044 287.043C339.533 287.01 338.251 288.303 338.283 289.836C338.283 291.411 339.522 292.618 341.152 292.618C341.967 292.618 342.674 292.335 343.282 291.759L342.739 290.977C342.261 291.4 341.739 291.607 341.185 291.607C340.272 291.607 339.587 291.074 339.446 290.205H343.424ZM339.468 289.314C339.642 288.521 340.25 288.01 341 288.01C341.75 288.01 342.359 288.499 342.369 289.314H339.468ZM344.481 289.825C344.481 291.379 345.731 292.618 347.307 292.618C348.274 292.618 349.078 292.15 349.556 291.379L348.752 290.759C348.361 291.292 347.882 291.563 347.317 291.563C346.361 291.563 345.644 290.803 345.644 289.825C345.644 288.858 346.361 288.097 347.317 288.097C347.893 288.097 348.371 288.369 348.752 288.912L349.556 288.282C349.089 287.51 348.295 287.043 347.307 287.043C345.774 287.021 344.448 288.292 344.481 289.825ZM353.987 291.531C353.672 291.563 353.444 291.585 353.281 291.585C352.585 291.585 352.227 291.346 352.227 290.662V288.151H353.813V287.162H352.227V285.76H351.075V287.162H350.205V288.151H351.075V290.759C351.075 292.009 351.814 292.618 353.042 292.618C353.313 292.618 353.629 292.574 353.987 292.498V291.531ZM361.363 291.531C361.048 291.563 360.819 291.585 360.656 291.585C359.961 291.585 359.602 291.346 359.602 290.662V288.151H361.189V287.162H359.602V285.76H358.45V287.162H357.581V288.151H358.45V290.759C358.45 292.009 359.189 292.618 360.417 292.618C360.689 292.618 361.004 292.574 361.363 292.498V291.531ZM362.076 289.825C362.044 291.335 363.359 292.65 364.891 292.618C366.445 292.65 367.76 291.335 367.727 289.825C367.76 288.314 366.445 287.01 364.891 287.043C363.359 287.021 362.044 288.292 362.076 289.825ZM366.554 289.836C366.554 290.803 365.836 291.563 364.891 291.563C363.956 291.563 363.239 290.825 363.239 289.836C363.239 288.847 363.956 288.086 364.902 288.086C365.826 288.086 366.554 288.847 366.554 289.836ZM369.036 292.498H370.177V284.348H369.036V292.498ZM371.557 289.51L373.708 287.162H372.296L370.209 289.499L372.524 292.498H373.893L371.557 289.51ZM379.421 290.205C379.475 289.955 379.508 289.716 379.508 289.488C379.508 288.097 378.454 287.043 377.041 287.043C375.53 287.01 374.248 288.303 374.281 289.836C374.281 291.411 375.52 292.618 377.15 292.618C377.965 292.618 378.671 292.335 379.28 291.759L378.736 290.977C378.258 291.4 377.737 291.607 377.182 291.607C376.269 291.607 375.585 291.074 375.444 290.205H379.421ZM375.465 289.314C375.639 288.521 376.248 288.01 376.998 288.01C377.747 288.01 378.356 288.499 378.367 289.314H375.465ZM385.477 289.162C385.477 287.89 384.727 287.043 383.478 287.043C382.815 287.043 382.282 287.26 381.88 287.684V287.162H380.815V292.498H381.956V289.314C381.956 288.586 382.467 288.075 383.173 288.075C383.869 288.075 384.336 288.575 384.336 289.314V292.498H385.477V289.162Z" fill="white"/>
<path d="M394.573 285.876L398.196 289.498L394.573 293.121" stroke="white" stroke-width="0.784848" stroke-linecap="round"/>
<path d="M567.455 289.6C567.455 293.838 569.259 297.141 572.932 297.141C576.627 297.141 578.387 293.838 578.387 289.6C578.387 287.404 577.931 285.644 576.996 284.318C576.083 282.992 574.736 282.319 572.932 282.319C571.128 282.319 569.78 282.992 568.846 284.34C567.911 285.666 567.455 287.426 567.455 289.6ZM575.996 289.621C575.996 293.012 575.04 295.033 572.932 295.033C570.824 295.033 569.845 293.012 569.845 289.621C569.845 286.166 570.867 284.427 572.932 284.427C574.975 284.427 575.996 286.166 575.996 289.621ZM580.848 295.468C580.848 296.424 581.609 297.141 582.565 297.141C583.521 297.141 584.239 296.424 584.239 295.468C584.239 294.49 583.521 293.773 582.565 293.773C581.609 293.773 580.848 294.512 580.848 295.468ZM586.706 289.6C586.706 293.838 588.51 297.141 592.183 297.141C595.877 297.141 597.638 293.838 597.638 289.6C597.638 287.404 597.182 285.644 596.247 284.318C595.334 282.992 593.987 282.319 592.183 282.319C590.379 282.319 589.031 282.992 588.097 284.34C587.162 285.666 586.706 287.426 586.706 289.6ZM595.247 289.621C595.247 293.012 594.291 295.033 592.183 295.033C590.074 295.033 589.096 293.012 589.096 289.621C589.096 286.166 590.118 284.427 592.183 284.427C594.226 284.427 595.247 286.166 595.247 289.621ZM600.29 289.6C600.29 293.838 602.093 297.141 605.767 297.141C609.461 297.141 611.222 293.838 611.222 289.6C611.222 287.404 610.765 285.644 609.831 284.318C608.918 282.992 607.571 282.319 605.767 282.319C603.963 282.319 602.615 282.992 601.681 284.34C600.746 285.666 600.29 287.426 600.29 289.6ZM608.831 289.621C608.831 293.012 607.875 295.033 605.767 295.033C603.658 295.033 602.68 293.012 602.68 289.621C602.68 286.166 603.702 284.427 605.767 284.427C607.81 284.427 608.831 286.166 608.831 289.621Z" fill="#131E18"/>
<path d="M294.997 246.389C294.997 245.313 294.386 244.49 293.363 244.158C293.841 243.746 294.093 243.188 294.093 242.511C294.093 241.156 293.044 240.173 291.464 240.173H288.395V248.939H292.154C293.868 248.939 294.997 247.864 294.997 246.389ZM291.331 241.409C292.194 241.409 292.685 241.847 292.685 242.577C292.685 243.308 292.194 243.773 291.331 243.773H289.777V241.409H291.331ZM293.575 246.349C293.575 247.186 293.004 247.704 292.035 247.704H289.777V244.981H292.035C293.004 244.981 293.575 245.513 293.575 246.349ZM301.693 244.995C301.693 243.241 300.63 242.272 299.023 242.272C297.894 242.272 296.925 242.723 296.274 243.666L297.084 244.49C297.629 243.839 298.16 243.52 298.89 243.52C299.78 243.52 300.285 244.012 300.285 244.915V245.34H298.439C296.964 245.34 296.035 246.071 296.035 247.2C296.035 248.328 296.938 249.086 298.306 249.086C299.196 249.086 299.913 248.78 300.391 248.209V248.939H301.693V244.995ZM300.285 246.469C300.285 247.359 299.541 248.01 298.598 248.01C297.921 248.01 297.456 247.691 297.456 247.146C297.456 246.615 297.868 246.349 298.611 246.349H300.285V246.469ZM303.634 248.939H305.028V238.978H303.634V248.939ZM312.225 244.995C312.225 243.241 311.163 242.272 309.555 242.272C308.426 242.272 307.457 242.723 306.806 243.666L307.616 244.49C308.161 243.839 308.692 243.52 309.423 243.52C310.313 243.52 310.817 244.012 310.817 244.915V245.34H308.971C307.497 245.34 306.567 246.071 306.567 247.2C306.567 248.328 307.47 249.086 308.838 249.086C309.728 249.086 310.445 248.78 310.923 248.209V248.939H312.225V244.995ZM310.817 246.469C310.817 247.359 310.073 248.01 309.13 248.01C308.453 248.01 307.988 247.691 307.988 247.146C307.988 246.615 308.4 246.349 309.144 246.349H310.817V246.469ZM319.864 244.862C319.864 243.308 318.948 242.272 317.42 242.272C316.61 242.272 315.959 242.538 315.468 243.056V242.418H314.166V248.939H315.561V245.048C315.561 244.158 316.185 243.534 317.048 243.534C317.898 243.534 318.469 244.145 318.469 245.048V248.939H319.864V244.862ZM321.394 245.672C321.394 247.571 322.922 249.086 324.847 249.086C326.03 249.086 327.012 248.514 327.597 247.571L326.614 246.814C326.136 247.465 325.551 247.797 324.861 247.797C323.692 247.797 322.815 246.867 322.815 245.672C322.815 244.49 323.692 243.56 324.861 243.56C325.565 243.56 326.149 243.892 326.614 244.556L327.597 243.786C327.026 242.843 326.056 242.272 324.847 242.272C322.975 242.245 321.354 243.799 321.394 245.672ZM334.875 246.137C334.942 245.831 334.982 245.539 334.982 245.26C334.982 243.56 333.693 242.272 331.966 242.272C330.12 242.232 328.553 243.813 328.593 245.685C328.593 247.611 330.107 249.086 332.099 249.086C333.095 249.086 333.959 248.74 334.703 248.036L334.038 247.08C333.454 247.598 332.817 247.85 332.139 247.85C331.023 247.85 330.187 247.2 330.014 246.137H334.875ZM330.041 245.048C330.253 244.078 330.997 243.454 331.913 243.454C332.83 243.454 333.574 244.052 333.587 245.048H330.041ZM336.394 243.361C336.394 243.945 336.858 244.384 337.443 244.384C338.027 244.384 338.466 243.945 338.466 243.361C338.466 242.763 338.027 242.325 337.443 242.325C336.858 242.325 336.394 242.777 336.394 243.361ZM336.394 248.063C336.394 248.647 336.858 249.086 337.443 249.086C338.027 249.086 338.466 248.647 338.466 248.063C338.466 247.465 338.027 247.027 337.443 247.027C336.858 247.027 336.394 247.478 336.394 248.063ZM343.825 244.477C343.825 247.067 344.928 249.086 347.173 249.086C349.431 249.086 350.506 247.067 350.506 244.477C350.506 243.135 350.227 242.059 349.656 241.249C349.098 240.439 348.275 240.027 347.173 240.027C346.07 240.027 345.247 240.439 344.676 241.262C344.104 242.073 343.825 243.148 343.825 244.477ZM349.045 244.49C349.045 246.562 348.461 247.797 347.173 247.797C345.884 247.797 345.287 246.562 345.287 244.49C345.287 242.378 345.911 241.316 347.173 241.316C348.421 241.316 349.045 242.378 349.045 244.49Z" fill="white"/>
<defs>
<linearGradient id="paint0_linear_414_1100" x1="791.924" y1="-4.04599" x2="856.306" y2="59.7708" gradientUnits="userSpaceOnUse">
<stop stop-color="#00DA63"/>
<stop offset="0.336458" stop-color="#00DA63" stop-opacity="0"/>
<stop offset="0.711458" stop-color="#00DA63" stop-opacity="0"/>
<stop offset="1" stop-color="#00DA63"/>
</linearGradient>
<linearGradient id="paint1_linear_414_1100" x1="362.068" y1="471.764" x2="482.218" y2="648.508" gradientUnits="userSpaceOnUse">
<stop stop-color="#00DA63"/>
<stop offset="0.336458" stop-color="#00DA63" stop-opacity="0"/>
<stop offset="0.711458" stop-color="#00DA63" stop-opacity="0"/>
<stop offset="1" stop-color="#00DA63"/>
</linearGradient>
</defs>
</svg>
