<svg width="358" height="288" viewBox="0 0 358 288" fill="none" xmlns="http://www.w3.org/2000/svg">
<path d="M357.802 132.145C357.802 59.2773 298.525 0 225.657 0C152.789 0 93.5117 59.2773 93.5117 132.145C93.5117 205.008 152.789 264.291 225.657 264.291C298.525 264.293 357.802 205.013 357.802 132.145ZM97.5777 132.145C97.5777 61.5238 155.036 4.06601 225.657 4.06601C296.278 4.06601 353.736 61.5238 353.736 132.145C353.736 202.767 296.278 260.225 225.657 260.225C155.036 260.227 97.5777 202.772 97.5777 132.145Z" fill="#25AE63"/>
<path d="M222.744 133.512L164.455 157.133" stroke="#25AE63" stroke-width="8" stroke-linecap="round"/>
<path d="M225.657 38.0756C226.781 38.0756 227.69 37.1663 227.69 36.0426V21.7439C227.69 20.6202 226.781 19.7109 225.657 19.7109C224.533 19.7109 223.624 20.6202 223.624 21.7439V36.0426C223.624 37.1643 224.533 38.0756 225.657 38.0756Z" fill="#25AE63"/>
<path d="M189.063 209.975C190.186 209.975 191.096 209.066 191.096 207.942V193.643C191.096 192.52 190.186 191.61 189.063 191.61C187.939 191.61 187.03 192.52 187.03 193.643V207.942C187.03 209.064 187.939 209.975 189.063 209.975Z" fill="#25AE63"/>
<path d="M294.22 66.4734C294.74 66.4734 295.26 66.2749 295.657 65.8778L305.767 55.7682C306.561 54.9741 306.561 53.6875 305.767 52.8934C304.973 52.0993 303.686 52.0993 302.892 52.8934L292.783 63.0031C291.988 63.7972 291.988 65.0837 292.783 65.8778C293.178 66.2749 293.698 66.4734 294.22 66.4734V66.4734Z" fill="#25AE63"/>
<path d="M148.423 52.8935C147.629 52.0993 146.343 52.0993 145.549 52.8935C144.755 53.6876 144.755 54.9741 145.549 55.7682L155.658 65.8779C156.055 66.2749 156.576 66.4735 157.096 66.4735C157.616 66.4735 158.136 66.2749 158.533 65.8779C159.327 65.0837 159.327 63.7972 158.533 63.0031L148.423 52.8935Z" fill="#25AE63"/>
<path d="M262.286 45.428C262.542 45.5352 262.808 45.5868 263.068 45.5868C263.864 45.5868 264.619 45.1163 264.944 44.336L270.461 31.1454C270.894 30.111 270.406 28.9198 269.369 28.485C268.335 28.0542 267.144 28.5406 266.709 29.5769L261.193 42.7676C260.761 43.804 261.249 44.9951 262.285 45.428H262.286Z" fill="#25AE63"/>
<path d="M186.369 44.3351C186.695 45.1154 187.451 45.5858 188.245 45.5858C188.507 45.5858 188.771 45.5342 189.028 45.427C190.064 44.9942 190.552 43.803 190.12 42.7666L184.602 29.576C184.17 28.5396 182.98 28.0532 181.942 28.4841C180.906 28.9169 180.417 30.1081 180.85 31.1444L186.369 44.3351Z" fill="#25AE63"/>
<path d="M315.734 168.942L329.122 173.961C329.358 174.049 329.598 174.09 329.835 174.09C330.658 174.09 331.431 173.586 331.738 172.77C332.134 171.72 331.6 170.547 330.549 170.152L317.162 165.133C316.112 164.743 314.94 165.273 314.543 166.322C314.15 167.376 314.684 168.547 315.735 168.942L315.734 168.942Z" fill="#25AE63"/>
<path d="M135.58 97.0611L122.192 92.0421C121.142 91.655 119.971 92.1811 119.574 93.2313C119.179 94.2816 119.713 95.4549 120.763 95.85L134.15 100.869C134.386 100.956 134.627 100.998 134.863 100.998C135.687 100.998 136.459 100.494 136.767 99.6777C137.164 98.6275 136.63 97.4541 135.58 97.061V97.0611Z" fill="#25AE63"/>
<path d="M134.151 165.135L120.764 170.154C119.714 170.55 119.18 171.721 119.575 172.773C119.88 173.589 120.657 174.093 121.479 174.093C121.715 174.093 121.957 174.05 122.191 173.964L135.579 168.945C136.629 168.55 137.163 167.379 136.768 166.327C136.373 165.274 135.203 164.744 134.151 165.135V165.135Z" fill="#25AE63"/>
<path d="M316.445 101C316.682 101 316.924 100.956 317.158 100.871L330.545 95.852C331.596 95.4569 332.13 94.2855 331.735 93.2333C331.34 92.183 330.17 91.6569 329.116 92.0441L315.729 97.0631C314.678 97.4581 314.144 98.6295 314.539 99.6817C314.849 100.496 315.623 101 316.445 101V101Z" fill="#25AE63"/>
<path d="M320.583 133.004C320.583 134.127 321.492 135.037 322.616 135.037H336.914C338.038 135.037 338.947 134.127 338.947 133.004C338.947 131.88 338.038 130.971 336.914 130.971H322.616C321.494 130.971 320.583 131.88 320.583 133.004Z" fill="#25AE63"/>
<path d="M130.731 133.004C130.731 131.88 129.822 130.971 128.698 130.971H114.4C113.276 130.971 112.367 131.88 112.367 133.004C112.367 134.127 113.276 135.037 114.4 135.037H128.698C129.82 135.037 130.731 134.125 130.731 133.004Z" fill="#25AE63"/>
<path d="M272.65 216.149V186.162C272.65 185.038 271.74 184.129 270.617 184.129H180.692C179.568 184.129 178.659 185.038 178.659 186.162V216.149C178.659 217.272 179.568 218.182 180.692 218.182H270.617C271.738 218.182 272.648 217.27 272.648 216.149H272.65ZM268.584 214.116H182.725V188.195H268.584V214.116Z" fill="#25AE63"/>
<path d="M225.657 120.769C231.93 120.769 237.035 125.874 237.035 132.148C237.035 138.421 231.93 143.526 225.657 143.526C219.383 143.526 214.278 138.421 214.278 132.148C214.278 125.874 219.383 120.769 225.657 120.769Z" fill="#25AE63"/>
<path d="M149.947 262.263H108.23C107.107 262.263 106.197 263.172 106.197 264.296C106.197 265.419 107.107 266.329 108.23 266.329H149.947C151.07 266.329 151.98 265.419 151.98 264.296C151.98 263.172 151.07 262.263 149.947 262.263Z" fill="#25AE63"/>
<path d="M87.9465 220H46.2303C45.1066 220 44.1973 220.909 44.1973 222.033C44.1973 223.157 45.1066 224.066 46.2303 224.066H87.9465C89.0702 224.066 89.9795 223.157 89.9795 222.033C89.9795 220.909 89.0702 220 87.9465 220Z" fill="#25AE63"/>
<path d="M89.5916 266.329H98.8235C99.9472 266.329 100.856 265.419 100.856 264.296C100.856 263.172 99.9472 262.263 98.8235 262.263H89.5916C88.4679 262.263 87.5586 263.172 87.5586 264.296C87.5586 265.419 88.4699 266.329 89.5916 266.329V266.329Z" fill="#25AE63"/>
<path d="M27.5916 224.066H36.8235C37.9472 224.066 38.8565 223.157 38.8565 222.033C38.8565 220.909 37.9472 220 36.8235 220H27.5916C26.4679 220 25.5586 220.909 25.5586 222.033C25.5586 223.157 26.4699 224.066 27.5916 224.066V224.066Z" fill="#25AE63"/>
<path d="M97.7601 283.614C96.6364 283.614 95.7271 284.524 95.7271 285.647C95.7271 286.771 96.6364 287.68 97.7601 287.68H139.476C140.6 287.68 141.509 286.771 141.509 285.647C141.509 284.524 140.6 283.614 139.476 283.614H97.7601Z" fill="#25AE63"/>
<path d="M79.1228 287.68H88.3547C89.4784 287.68 90.3877 286.771 90.3877 285.647C90.3877 284.524 89.4784 283.614 88.3547 283.614H79.1228C77.9992 283.614 77.0898 284.524 77.0898 285.647C77.0898 286.771 78.0011 287.68 79.1228 287.68V287.68Z" fill="#25AE63"/>
<path d="M124.388 240.911H82.6697C81.546 240.911 80.6367 241.82 80.6367 242.944C80.6367 244.068 81.546 244.977 82.6697 244.977H124.388C125.512 244.977 126.421 244.068 126.421 242.944C126.421 241.822 125.512 240.911 124.388 240.911Z" fill="#25AE63"/>
<path d="M62.388 199H20.6697C19.546 199 18.6367 199.909 18.6367 201.033C18.6367 202.157 19.546 203.066 20.6697 203.066H62.388C63.5117 203.066 64.421 202.157 64.421 201.033C64.421 199.911 63.5117 199 62.388 199Z" fill="#25AE63"/>
<path d="M64.033 240.911C62.9093 240.911 62 241.82 62 242.944C62 244.068 62.9093 244.977 64.033 244.977H73.2649C74.3886 244.977 75.2979 244.068 75.2979 242.944C75.2979 241.82 74.3886 240.911 73.2649 240.911H64.033Z" fill="#25AE63"/>
<path d="M2.033 199C0.909312 199 0 199.909 0 201.033C0 202.157 0.909312 203.066 2.033 203.066H11.2649C12.3886 203.066 13.2979 202.157 13.2979 201.033C13.2979 199.909 12.3886 199 11.2649 199H2.033Z" fill="#25AE63"/>
</svg>
