<svg width="386" height="263" viewBox="0 0 386 263" fill="none" xmlns="http://www.w3.org/2000/svg">
<path d="M108 3L245 117.286L108 227" stroke="#25AE63" stroke-width="5" stroke-linecap="round"/>
<path d="M176 3L312 117.286L176 227" stroke="#25AE63" stroke-width="5" stroke-linecap="round"/>
<path d="M246 3L382 117.286L246 227" stroke="#25AE63" stroke-width="5" stroke-linecap="round"/>
<path d="M16 229.5C16 230.879 16.8054 232 17.799 232H32.201C33.1933 232 34 230.881 34 229.5C34 228.121 33.1946 227 32.201 227H17.799C16.8054 227 16 228.121 16 229.5Z" fill="#25AE63"/>
<path d="M72.176 243H44.824C43.8179 243 43 244.119 43 245.5C43 246.879 43.8166 248 44.824 248H72.176C73.1821 248 74 246.881 74 245.5C73.9987 244.119 73.1822 243 72.176 243Z" fill="#25AE63"/>
<path d="M1.8185 248H35.1815C36.1846 248 37 246.881 37 245.5C37 244.121 36.1859 243 35.1815 243H1.8185C0.815433 243 0 244.119 0 245.5C0.00126803 246.881 0.8154 248 1.8185 248Z" fill="#25AE63"/>
<path d="M42.8609 232H79.1391C80.1656 232 81 230.881 81 229.5C81 228.121 80.1669 227 79.1391 227H42.8609C41.8345 227 41 228.119 41 229.5C41.0013 230.879 41.8305 232 42.8609 232Z" fill="#25AE63"/>
<path d="M58.199 259H5.80103C4.8076 259 4 259.895 4 261C4 262.103 4.80631 263 5.80103 263H58.199C59.1924 263 60 262.105 60 261C60 259.895 59.1924 259 58.199 259Z" fill="#25AE63"/>
<path d="M76.2497 259H65.7503C64.7848 259 64 259.895 64 261C64 262.103 64.7836 263 65.7503 263H76.2497C77.2152 263 78 262.105 78 261C77.9988 259.895 77.2152 259 76.2497 259Z" fill="#25AE63"/>
</svg>
