<svg width="1289" height="580" viewBox="0 0 1289 580" fill="none" xmlns="http://www.w3.org/2000/svg">
<path d="M249 165.287V322H251V165C250.344 165.173 249.674 165.269 249 165.287Z" fill="#00DA63"/>
<path d="M153.234 109.54C153.234 113.04 155.594 115.24 158.834 115.24C162.034 115.24 164.434 113.04 164.434 109.54V101.8H161.734V109.74C161.734 111.66 160.574 112.74 158.834 112.74C157.134 112.74 155.934 111.66 155.934 109.74V101.8H153.234V109.54ZM167.358 115H170.058V101.8H167.358V115ZM171.621 117.42H174.481L184.941 99.4H182.081L171.621 117.42ZM186.398 109.54C186.398 113.04 188.758 115.24 191.998 115.24C195.198 115.24 197.598 113.04 197.598 109.54V101.8H194.898V109.74C194.898 111.66 193.738 112.74 191.998 112.74C190.298 112.74 189.098 111.66 189.098 109.74V101.8H186.398V109.54ZM211.002 115L206.662 108.28L210.722 101.8H207.662L205.142 105.96L202.602 101.8H199.522L203.642 108.28L199.262 115H202.342L205.142 110.62L207.942 115H211.002ZM218.413 115H221.113V101.8H218.413V115ZM239.118 108.86C239.118 106.46 237.698 104.88 235.378 104.88C234.018 104.88 232.858 105.42 232.078 106.3C231.418 105.36 230.438 104.88 229.138 104.88C227.998 104.88 226.998 105.28 226.338 105.98V105.1H223.858V115H226.558V109.24C226.558 108.06 227.278 107.32 228.378 107.32C229.438 107.32 230.138 108.06 230.138 109.24V115H232.838V109.18C232.838 108.08 233.598 107.32 234.658 107.32C235.718 107.32 236.418 108.06 236.418 109.24V115H239.118V108.86ZM252.15 110.04C252.15 107.08 250.11 104.88 247.35 104.88C245.99 104.88 244.83 105.4 244.17 106.34V105.1H241.69V118.6H244.39V114.04C245.11 114.82 246.15 115.24 247.35 115.24C250.11 115.24 252.15 113 252.15 110.04ZM249.41 110.06C249.41 111.68 248.29 112.78 246.85 112.78C245.47 112.78 244.35 111.8 244.35 110.04C244.35 108.26 245.49 107.32 246.85 107.32C248.31 107.32 249.41 108.4 249.41 110.06ZM260.348 105.1C260.088 105.02 259.808 104.98 259.468 104.98C258.368 104.98 257.408 105.46 256.748 106.28V105.1H254.268V115H256.968V110.06C256.968 108.36 258.008 107.48 259.628 107.48H260.348V105.1ZM261.266 110.04C261.206 112.86 263.646 115.28 266.546 115.22C269.446 115.28 271.946 112.86 271.886 110.04C271.946 107.22 269.466 104.84 266.566 104.88C263.666 104.82 261.206 107.22 261.266 110.04ZM269.126 110.06C269.126 111.6 268.026 112.74 266.566 112.74C265.066 112.74 264.006 111.6 264.006 110.06C264.006 108.48 265.066 107.34 266.566 107.34C268.026 107.34 269.126 108.52 269.126 110.06ZM280.344 105.1L277.844 110.7L275.344 105.1H272.504L277.404 115.24H278.304L283.204 105.1H280.344ZM293.485 110.96C293.605 110.46 293.665 109.96 293.665 109.48C293.665 106.9 291.745 104.88 289.005 104.88C286.145 104.82 283.765 107.2 283.825 110.06C283.765 112.92 286.185 115.3 289.245 115.24C290.705 115.24 292.025 114.74 293.205 113.76L292.085 111.92C291.225 112.58 290.305 112.92 289.325 112.92C287.885 112.92 286.865 112.22 286.545 110.96H293.485ZM286.545 109.06C286.845 107.84 287.765 107.06 288.905 107.06C290.085 107.06 291.025 107.84 291.045 109.06H286.545ZM311.032 108.86C311.032 106.46 309.612 104.88 307.292 104.88C305.932 104.88 304.772 105.42 303.992 106.3C303.332 105.36 302.352 104.88 301.052 104.88C299.912 104.88 298.912 105.28 298.252 105.98V105.1H295.772V115H298.472V109.24C298.472 108.06 299.192 107.32 300.292 107.32C301.352 107.32 302.052 108.06 302.052 109.24V115H304.752V109.18C304.752 108.08 305.512 107.32 306.572 107.32C307.632 107.32 308.332 108.06 308.332 109.24V115H311.032V108.86ZM322.704 110.96C322.824 110.46 322.884 109.96 322.884 109.48C322.884 106.9 320.964 104.88 318.224 104.88C315.364 104.82 312.984 107.2 313.044 110.06C312.984 112.92 315.404 115.3 318.464 115.24C319.924 115.24 321.244 114.74 322.424 113.76L321.304 111.92C320.444 112.58 319.524 112.92 318.544 112.92C317.104 112.92 316.084 112.22 315.764 110.96H322.704ZM315.764 109.06C316.064 107.84 316.984 107.06 318.124 107.06C319.304 107.06 320.244 107.84 320.264 109.06H315.764ZM334.09 108.86C334.09 106.46 332.67 104.88 330.37 104.88C329.19 104.88 328.17 105.3 327.47 106V105.1H324.99V115H327.69V109.22C327.69 108.08 328.47 107.3 329.57 107.3C330.67 107.3 331.41 108.08 331.41 109.22V115H334.09V108.86ZM343.05 112.74C342.35 112.8 341.93 112.82 341.77 112.82C340.49 112.82 339.93 112.4 339.93 111.28V107.38H342.73V105.1H339.93V102.6H337.23V105.1H335.67V107.38H337.23V111.52C337.23 114 338.69 115.24 341.19 115.24C341.79 115.24 342.41 115.16 343.05 115V112.74ZM344.11 113.32C345.01 114.52 346.47 115.24 348.21 115.24C349.33 115.24 350.25 114.96 350.97 114.4C351.71 113.84 352.07 113.06 352.07 112.08C352.07 110.62 351.21 109.84 349.29 109.06L348.33 108.66C347.55 108.34 347.29 108.16 347.29 107.78C347.29 107.32 347.69 107.08 348.35 107.08C349.17 107.08 349.91 107.4 350.57 108.02L351.93 106.36C351.03 105.38 349.85 104.88 348.37 104.88C346.21 104.88 344.73 105.98 344.73 107.84C344.73 109.3 345.61 110.12 347.43 110.86L348.49 111.3C349.23 111.62 349.51 111.78 349.51 112.2C349.51 112.74 348.97 113.02 348.25 113.02C347.27 113.02 346.33 112.58 345.47 111.68L344.11 113.32ZM218.389 133.94C218.389 138.6 220.189 141.5 222.749 142.64L223.809 141.02C221.969 139.8 220.749 137.7 220.749 133.94C220.749 130.16 221.969 128.06 223.809 126.84L222.749 125.22C220.189 126.36 218.389 129.24 218.389 133.94ZM234.374 140H237.274L231.394 126.56H230.494L224.594 140H227.494L228.234 138.28H233.634L234.374 140ZM232.694 136.06H229.174L230.934 131.6L232.694 136.06ZM251.117 126.56L245.537 133.7L239.957 126.56H239.077V140H241.777V132.96L245.097 137.12H245.977L249.297 132.96V140H251.997V126.56H251.117ZM267.074 126.56L261.494 133.7L255.914 126.56H255.034V140H257.734V132.96L261.054 137.12H261.934L265.254 132.96V140H267.954V126.56H267.074ZM271.071 142.64C272.331 142.06 273.371 141.06 274.191 139.62C275.011 138.16 275.411 136.28 275.411 133.94C275.411 131.6 275.011 129.7 274.191 128.26C273.371 126.8 272.331 125.8 271.071 125.22L269.991 126.84C271.851 128.06 273.071 130.16 273.071 133.94C273.071 137.7 271.831 139.8 269.991 141.02L271.071 142.64Z" fill="white"/>
<path d="M455 354.287V511H457V354C456.344 354.173 455.674 354.269 455 354.287Z" fill="#00DA63"/>
<path d="M414.708 549H417.408V543.98H422.308V541.54H417.408V538.24H423.388V535.8H414.708V549ZM431.018 539.1C430.758 539.02 430.478 538.98 430.138 538.98C429.038 538.98 428.078 539.46 427.418 540.28V539.1H424.938V549H427.638V544.06C427.638 542.36 428.678 541.48 430.298 541.48H431.018V539.1ZM431.936 544.04C431.876 546.86 434.316 549.28 437.216 549.22C440.116 549.28 442.616 546.86 442.556 544.04C442.616 541.22 440.136 538.84 437.236 538.88C434.336 538.82 431.876 541.22 431.936 544.04ZM439.796 544.06C439.796 545.6 438.696 546.74 437.236 546.74C435.736 546.74 434.676 545.6 434.676 544.06C434.676 542.48 435.736 541.34 437.236 541.34C438.696 541.34 439.796 542.52 439.796 544.06ZM453.764 542.86C453.764 540.46 452.344 538.88 450.044 538.88C448.864 538.88 447.844 539.3 447.144 540V539.1H444.664V549H447.364V543.22C447.364 542.08 448.144 541.3 449.244 541.3C450.344 541.3 451.084 542.08 451.084 543.22V549H453.764V542.86ZM462.723 546.74C462.023 546.8 461.603 546.82 461.443 546.82C460.163 546.82 459.603 546.4 459.603 545.28V541.38H462.403V539.1H459.603V536.6H456.903V539.1H455.343V541.38H456.903V545.52C456.903 548 458.363 549.24 460.863 549.24C461.463 549.24 462.083 549.16 462.723 549V546.74ZM473.588 544.96C473.708 544.46 473.768 543.96 473.768 543.48C473.768 540.9 471.848 538.88 469.108 538.88C466.248 538.82 463.868 541.2 463.928 544.06C463.868 546.92 466.288 549.3 469.348 549.24C470.808 549.24 472.128 548.74 473.308 547.76L472.188 545.92C471.328 546.58 470.408 546.92 469.428 546.92C467.988 546.92 466.968 546.22 466.648 544.96H473.588ZM466.648 543.06C466.948 541.84 467.868 541.06 469.008 541.06C470.188 541.06 471.128 541.84 471.148 543.06H466.648ZM484.975 542.86C484.975 540.46 483.555 538.88 481.255 538.88C480.075 538.88 479.055 539.3 478.355 540V539.1H475.875V549H478.575V543.22C478.575 542.08 479.355 541.3 480.455 541.3C481.555 541.3 482.295 542.08 482.295 543.22V549H484.975V542.86ZM494.774 534V540.06C494.054 539.28 493.074 538.88 491.814 538.88C489.054 538.88 487.014 541.08 487.014 544.06C487.014 547.04 489.054 549.24 491.814 549.24C493.174 549.24 494.334 548.72 494.994 547.78V549H497.474V534H494.774ZM494.814 544.06C494.814 545.84 493.674 546.78 492.314 546.78C490.854 546.78 489.754 545.7 489.754 544.04C489.754 542.42 490.874 541.32 492.314 541.32C493.674 541.32 494.814 542.3 494.814 544.06ZM359.083 574H363.403C367.583 574.06 370.663 571.18 370.603 567.36C370.663 563.46 367.583 560.76 363.403 560.8H359.083V574ZM361.783 571.56V563.24H363.383C366.083 563.24 367.823 564.8 367.823 567.36C367.823 569.9 366.043 571.56 363.383 571.56H361.783ZM381.811 569.96C381.931 569.46 381.991 568.96 381.991 568.48C381.991 565.9 380.071 563.88 377.331 563.88C374.471 563.82 372.091 566.2 372.151 569.06C372.091 571.92 374.511 574.3 377.571 574.24C379.031 574.24 380.351 573.74 381.531 572.76L380.411 570.92C379.551 571.58 378.631 571.92 377.651 571.92C376.211 571.92 375.191 571.22 374.871 569.96H381.811ZM374.871 568.06C375.171 566.84 376.091 566.06 377.231 566.06C378.411 566.06 379.351 566.84 379.371 568.06H374.871ZM390.447 564.1L387.947 569.7L385.447 564.1H382.607L387.507 574.24H388.407L393.307 564.1H390.447ZM403.588 569.96C403.708 569.46 403.768 568.96 403.768 568.48C403.768 565.9 401.848 563.88 399.108 563.88C396.248 563.82 393.868 566.2 393.928 569.06C393.868 571.92 396.288 574.3 399.348 574.24C400.808 574.24 402.128 573.74 403.308 572.76L402.188 570.92C401.328 571.58 400.408 571.92 399.428 571.92C397.988 571.92 396.968 571.22 396.648 569.96H403.588ZM396.648 568.06C396.948 566.84 397.868 566.06 399.008 566.06C400.188 566.06 401.128 566.84 401.148 568.06H396.648ZM405.875 574H408.575V559H405.875V574ZM410.686 569.04C410.626 571.86 413.066 574.28 415.966 574.22C418.866 574.28 421.366 571.86 421.306 569.04C421.366 566.22 418.886 563.84 415.986 563.88C413.086 563.82 410.626 566.22 410.686 569.04ZM418.546 569.06C418.546 570.6 417.446 571.74 415.986 571.74C414.486 571.74 413.426 570.6 413.426 569.06C413.426 567.48 414.486 566.34 415.986 566.34C417.446 566.34 418.546 567.52 418.546 569.06ZM433.874 569.04C433.874 566.08 431.834 563.88 429.074 563.88C427.714 563.88 426.554 564.4 425.894 565.34V564.1H423.414V577.6H426.114V573.04C426.834 573.82 427.874 574.24 429.074 574.24C431.834 574.24 433.874 572 433.874 569.04ZM431.134 569.06C431.134 570.68 430.014 571.78 428.574 571.78C427.194 571.78 426.074 570.8 426.074 569.04C426.074 567.26 427.214 566.32 428.574 566.32C430.034 566.32 431.134 567.4 431.134 569.06ZM451.252 567.86C451.252 565.46 449.832 563.88 447.512 563.88C446.152 563.88 444.992 564.42 444.212 565.3C443.552 564.36 442.572 563.88 441.272 563.88C440.132 563.88 439.132 564.28 438.472 564.98V564.1H435.992V574H438.692V568.24C438.692 567.06 439.412 566.32 440.512 566.32C441.572 566.32 442.272 567.06 442.272 568.24V574H444.972V568.18C444.972 567.08 445.732 566.32 446.792 566.32C447.852 566.32 448.552 567.06 448.552 568.24V574H451.252V567.86ZM462.924 569.96C463.044 569.46 463.104 568.96 463.104 568.48C463.104 565.9 461.184 563.88 458.444 563.88C455.584 563.82 453.204 566.2 453.264 569.06C453.204 571.92 455.624 574.3 458.684 574.24C460.144 574.24 461.464 573.74 462.644 572.76L461.524 570.92C460.664 571.58 459.744 571.92 458.764 571.92C457.324 571.92 456.304 571.22 455.984 569.96H462.924ZM455.984 568.06C456.284 566.84 457.204 566.06 458.344 566.06C459.524 566.06 460.464 566.84 460.484 568.06H455.984ZM474.311 567.86C474.311 565.46 472.891 563.88 470.591 563.88C469.411 563.88 468.391 564.3 467.691 565V564.1H465.211V574H467.911V568.22C467.911 567.08 468.691 566.3 469.791 566.3C470.891 566.3 471.631 567.08 471.631 568.22V574H474.311V567.86ZM483.27 571.74C482.57 571.8 482.15 571.82 481.99 571.82C480.71 571.82 480.15 571.4 480.15 570.28V566.38H482.95V564.1H480.15V561.6H477.45V564.1H475.89V566.38H477.45V570.52C477.45 573 478.91 574.24 481.41 574.24C482.01 574.24 482.63 574.16 483.27 574V571.74ZM490.856 567.94C490.856 572.6 492.656 575.5 495.216 576.64L496.276 575.02C494.436 573.8 493.216 571.7 493.216 567.94C493.216 564.16 494.436 562.06 496.276 560.84L495.216 559.22C492.656 560.36 490.856 563.24 490.856 567.94ZM506.841 574H509.741L503.861 560.56H502.961L497.061 574H499.961L500.701 572.28H506.101L506.841 574ZM505.161 570.06H501.641L503.401 565.6L505.161 570.06ZM523.583 560.56L518.003 567.7L512.423 560.56H511.543V574H514.243V566.96L517.563 571.12H518.443L521.763 566.96V574H524.463V560.56H523.583ZM539.54 560.56L533.96 567.7L528.38 560.56H527.5V574H530.2V566.96L533.52 571.12H534.4L537.72 566.96V574H540.42V560.56H539.54ZM543.538 576.64C544.798 576.06 545.838 575.06 546.658 573.62C547.478 572.16 547.878 570.28 547.878 567.94C547.878 565.6 547.478 563.7 546.658 562.26C545.838 560.8 544.798 559.8 543.538 559.22L542.458 560.84C544.318 562.06 545.538 564.16 545.538 567.94C545.538 571.7 544.298 573.8 542.458 575.02L543.538 576.64Z" fill="white"/>
<path d="M554 173.287V330H556V173C555.344 173.173 554.674 173.269 554 173.287Z" fill="#00DA63"/>
<path d="M451.284 148H453.984V143.34H456.244C459.004 143.34 461.004 141.58 461.004 139.06C461.004 136.52 459.004 134.8 456.244 134.8H451.284V148ZM453.984 140.98V137.18H456.244C457.464 137.18 458.244 137.94 458.244 139.06C458.244 140.2 457.504 140.98 456.244 140.98H453.984ZM469.059 138.1C468.799 138.02 468.519 137.98 468.179 137.98C467.079 137.98 466.119 138.46 465.459 139.28V138.1H462.979V148H465.679V143.06C465.679 141.36 466.719 140.48 468.339 140.48H469.059V138.1ZM470.733 148H473.433V138.1H470.733V148ZM470.353 134.5C470.353 135.44 471.113 136.16 472.073 136.16C473.033 136.16 473.813 135.44 473.813 134.5C473.813 133.54 473.033 132.82 472.073 132.82C471.113 132.82 470.353 133.54 470.353 134.5ZM475.544 143.04C475.504 145.9 477.944 148.3 480.844 148.24C482.764 148.24 484.284 147.3 485.144 145.78L483.264 144.34C482.624 145.24 481.904 145.76 480.884 145.76C479.364 145.76 478.284 144.62 478.284 143.04C478.284 141.5 479.364 140.34 480.884 140.34C481.924 140.34 482.644 140.88 483.264 141.78L485.144 140.32C484.284 138.8 482.784 137.88 480.844 137.88C477.904 137.88 475.544 140.14 475.544 143.04ZM496.044 143.96C496.164 143.46 496.224 142.96 496.224 142.48C496.224 139.9 494.304 137.88 491.564 137.88C488.704 137.82 486.324 140.2 486.384 143.06C486.324 145.92 488.744 148.3 491.804 148.24C493.264 148.24 494.584 147.74 495.764 146.76L494.644 144.92C493.784 145.58 492.864 145.92 491.884 145.92C490.444 145.92 489.424 145.22 489.104 143.96H496.044ZM489.104 142.06C489.404 140.84 490.324 140.06 491.464 140.06C492.644 140.06 493.584 140.84 493.604 142.06H489.104ZM504.116 148H506.816V142.98H511.716V140.54H506.816V137.24H512.796V134.8H504.116V148ZM523.251 143.96C523.371 143.46 523.431 142.96 523.431 142.48C523.431 139.9 521.511 137.88 518.771 137.88C515.911 137.82 513.531 140.2 513.591 143.06C513.531 145.92 515.951 148.3 519.011 148.24C520.471 148.24 521.791 147.74 522.971 146.76L521.851 144.92C520.991 145.58 520.071 145.92 519.091 145.92C517.651 145.92 516.631 145.22 516.311 143.96H523.251ZM516.311 142.06C516.611 140.84 517.531 140.06 518.671 140.06C519.851 140.06 520.791 140.84 520.811 142.06H516.311ZM534.637 143.96C534.757 143.46 534.817 142.96 534.817 142.48C534.817 139.9 532.897 137.88 530.157 137.88C527.297 137.82 524.917 140.2 524.977 143.06C524.917 145.92 527.337 148.3 530.397 148.24C531.857 148.24 533.177 147.74 534.357 146.76L533.237 144.92C532.377 145.58 531.457 145.92 530.477 145.92C529.037 145.92 528.017 145.22 527.697 143.96H534.637ZM527.697 142.06C527.997 140.84 528.917 140.06 530.057 140.06C531.237 140.06 532.177 140.84 532.197 142.06H527.697ZM544.124 133V139.06C543.404 138.28 542.424 137.88 541.164 137.88C538.404 137.88 536.364 140.08 536.364 143.06C536.364 146.04 538.404 148.24 541.164 148.24C542.524 148.24 543.684 147.72 544.344 146.78V148H546.824V133H544.124ZM544.164 143.06C544.164 144.84 543.024 145.78 541.664 145.78C540.204 145.78 539.104 144.7 539.104 143.04C539.104 141.42 540.224 140.32 541.664 140.32C543.024 140.32 544.164 141.3 544.164 143.06ZM555.288 148H557.988V134.8H555.288V148ZM569.833 141.86C569.833 139.46 568.413 137.88 566.113 137.88C564.933 137.88 563.913 138.3 563.213 139V138.1H560.733V148H563.433V142.22C563.433 141.08 564.213 140.3 565.313 140.3C566.413 140.3 567.153 141.08 567.153 142.22V148H569.833V141.86ZM578.792 145.74C578.092 145.8 577.672 145.82 577.512 145.82C576.232 145.82 575.672 145.4 575.672 144.28V140.38H578.472V138.1H575.672V135.6H572.972V138.1H571.412V140.38H572.972V144.52C572.972 147 574.432 148.24 576.932 148.24C577.532 148.24 578.152 148.16 578.792 148V145.74ZM589.657 143.96C589.777 143.46 589.837 142.96 589.837 142.48C589.837 139.9 587.917 137.88 585.177 137.88C582.317 137.82 579.937 140.2 579.997 143.06C579.937 145.92 582.357 148.3 585.417 148.24C586.877 148.24 588.197 147.74 589.377 146.76L588.257 144.92C587.397 145.58 586.477 145.92 585.497 145.92C584.057 145.92 583.037 145.22 582.717 143.96H589.657ZM582.717 142.06C583.017 140.84 583.937 140.06 585.077 140.06C586.257 140.06 587.197 140.84 587.217 142.06H582.717ZM599.404 138.1V139.34C598.704 138.4 597.584 137.88 596.164 137.88C593.464 137.88 591.424 139.84 591.424 142.78C591.424 145.68 593.424 147.7 596.164 147.7C597.424 147.7 598.464 147.3 599.184 146.52V147.06C599.184 148.6 598.144 149.4 596.544 149.4C595.344 149.4 594.424 148.94 593.324 148.12L591.904 150C593.284 151.22 594.904 151.84 596.764 151.84C599.864 151.84 601.884 150.12 601.884 146.9V138.1H599.404ZM599.224 142.74C599.224 144.44 598.084 145.42 596.724 145.42C595.284 145.42 594.164 144.36 594.164 142.76C594.164 141.16 595.264 140.18 596.724 140.18C598.104 140.18 599.224 141.04 599.224 142.74ZM610.641 138.1C610.381 138.02 610.101 137.98 609.761 137.98C608.661 137.98 607.701 138.46 607.041 139.28V138.1H604.561V148H607.261V143.06C607.261 141.36 608.301 140.48 609.921 140.48H610.641V138.1ZM620.419 142.12C620.419 139.38 618.759 137.88 616.179 137.88C614.439 137.88 612.999 138.56 611.859 139.92L613.259 141.58C614.139 140.64 614.859 140.22 615.879 140.22C617.079 140.22 617.719 140.86 617.719 141.96V142.4H615.239C612.939 142.4 611.499 143.5 611.499 145.28C611.499 147.02 612.819 148.24 614.919 148.24C616.179 148.24 617.219 147.78 617.939 147.04V148H620.419V142.12ZM617.719 144.3C617.719 145.44 616.819 146.26 615.639 146.26C614.779 146.26 614.219 145.84 614.219 145.18C614.219 144.52 614.719 144.18 615.599 144.18H617.719V144.3ZM629.378 145.74C628.678 145.8 628.258 145.82 628.098 145.82C626.818 145.82 626.258 145.4 626.258 144.28V140.38H629.058V138.1H626.258V135.6H623.558V138.1H621.998V140.38H623.558V144.52C623.558 147 625.018 148.24 627.518 148.24C628.118 148.24 628.738 148.16 629.378 148V145.74ZM631.338 148H634.038V138.1H631.338V148ZM630.958 134.5C630.958 135.44 631.718 136.16 632.678 136.16C633.638 136.16 634.418 135.44 634.418 134.5C634.418 133.54 633.638 132.82 632.678 132.82C631.718 132.82 630.958 133.54 630.958 134.5ZM636.149 143.04C636.089 145.86 638.529 148.28 641.429 148.22C644.329 148.28 646.829 145.86 646.769 143.04C646.829 140.22 644.349 137.84 641.449 137.88C638.549 137.82 636.089 140.22 636.149 143.04ZM644.009 143.06C644.009 144.6 642.909 145.74 641.449 145.74C639.949 145.74 638.889 144.6 638.889 143.06C638.889 141.48 639.949 140.34 641.449 140.34C642.909 140.34 644.009 141.52 644.009 143.06ZM657.977 141.86C657.977 139.46 656.557 137.88 654.257 137.88C653.077 137.88 652.057 138.3 651.357 139V138.1H648.877V148H651.577V142.22C651.577 141.08 652.357 140.3 653.457 140.3C654.557 140.3 655.297 141.08 655.297 142.22V148H657.977V141.86Z" fill="white"/>
<path d="M736 279.256V419H738V279C737.344 279.154 736.674 279.24 736 279.256Z" fill="#00DA63"/>
<path d="M661.87 457H664.57V443.8H661.87V457ZM676.415 450.86C676.415 448.46 674.995 446.88 672.695 446.88C671.515 446.88 670.495 447.3 669.795 448V447.1H667.315V457H670.015V451.22C670.015 450.08 670.795 449.3 671.895 449.3C672.995 449.3 673.735 450.08 673.735 451.22V457H676.415V450.86ZM685.374 454.74C684.674 454.8 684.254 454.82 684.094 454.82C682.814 454.82 682.254 454.4 682.254 453.28V449.38H685.054V447.1H682.254V444.6H679.554V447.1H677.994V449.38H679.554V453.52C679.554 456 681.014 457.24 683.514 457.24C684.114 457.24 684.734 457.16 685.374 457V454.74ZM696.239 452.96C696.359 452.46 696.419 451.96 696.419 451.48C696.419 448.9 694.499 446.88 691.759 446.88C688.899 446.82 686.519 449.2 686.579 452.06C686.519 454.92 688.939 457.3 691.999 457.24C693.459 457.24 694.779 456.74 695.959 455.76L694.839 453.92C693.979 454.58 693.059 454.92 692.079 454.92C690.639 454.92 689.619 454.22 689.299 452.96H696.239ZM689.299 451.06C689.599 449.84 690.519 449.06 691.659 449.06C692.839 449.06 693.779 449.84 693.799 451.06H689.299ZM704.606 447.1C704.346 447.02 704.066 446.98 703.726 446.98C702.626 446.98 701.666 447.46 701.006 448.28V447.1H698.526V457H701.226V452.06C701.226 450.36 702.266 449.48 703.886 449.48H704.606V447.1ZM715.379 450.86C715.379 448.46 713.959 446.88 711.659 446.88C710.479 446.88 709.459 447.3 708.759 448V447.1H706.279V457H708.979V451.22C708.979 450.08 709.759 449.3 710.859 449.3C711.959 449.3 712.699 450.08 712.699 451.22V457H715.379V450.86ZM726.279 451.12C726.279 448.38 724.619 446.88 722.039 446.88C720.299 446.88 718.859 447.56 717.719 448.92L719.119 450.58C719.999 449.64 720.719 449.22 721.739 449.22C722.939 449.22 723.579 449.86 723.579 450.96V451.4H721.099C718.799 451.4 717.359 452.5 717.359 454.28C717.359 456.02 718.679 457.24 720.779 457.24C722.039 457.24 723.079 456.78 723.799 456.04V457H726.279V451.12ZM723.579 453.3C723.579 454.44 722.679 455.26 721.499 455.26C720.639 455.26 720.079 454.84 720.079 454.18C720.079 453.52 720.579 453.18 721.459 453.18H723.579V453.3ZM728.877 457H731.577V442H728.877V457ZM740.034 457H742.734V452.34H744.994C747.754 452.34 749.754 450.58 749.754 448.06C749.754 445.52 747.754 443.8 744.994 443.8H740.034V457ZM742.734 449.98V446.18H744.994C746.214 446.18 746.994 446.94 746.994 448.06C746.994 449.2 746.254 449.98 744.994 449.98H742.734ZM757.809 447.1C757.549 447.02 757.269 446.98 756.929 446.98C755.829 446.98 754.869 447.46 754.209 448.28V447.1H751.729V457H754.429V452.06C754.429 450.36 755.469 449.48 757.089 449.48H757.809V447.1ZM758.727 452.04C758.667 454.86 761.107 457.28 764.007 457.22C766.907 457.28 769.407 454.86 769.347 452.04C769.407 449.22 766.927 446.84 764.027 446.88C761.127 446.82 758.667 449.22 758.727 452.04ZM766.587 452.06C766.587 453.6 765.487 454.74 764.027 454.74C762.527 454.74 761.467 453.6 761.467 452.06C761.467 450.48 762.527 449.34 764.027 449.34C765.487 449.34 766.587 450.52 766.587 452.06ZM778.655 442V448.06C777.935 447.28 776.955 446.88 775.695 446.88C772.935 446.88 770.895 449.08 770.895 452.06C770.895 455.04 772.935 457.24 775.695 457.24C777.055 457.24 778.215 456.72 778.875 455.78V457H781.355V442H778.655ZM778.695 452.06C778.695 453.84 777.555 454.78 776.195 454.78C774.735 454.78 773.635 453.7 773.635 452.04C773.635 450.42 774.755 449.32 776.195 449.32C777.555 449.32 778.695 450.3 778.695 452.06ZM783.933 452.64C783.933 455.4 785.873 457.24 788.513 457.24C791.093 457.24 793.053 455.4 793.053 452.64V447.1H790.353V452.86C790.353 454 789.553 454.76 788.513 454.76C787.413 454.76 786.633 454 786.633 452.86V447.1H783.933V452.64ZM795.075 452.04C795.035 454.9 797.475 457.3 800.375 457.24C802.295 457.24 803.815 456.3 804.675 454.78L802.795 453.34C802.155 454.24 801.435 454.76 800.415 454.76C798.895 454.76 797.815 453.62 797.815 452.04C797.815 450.5 798.895 449.34 800.415 449.34C801.455 449.34 802.175 449.88 802.795 450.78L804.675 449.32C803.815 447.8 802.315 446.88 800.375 446.88C797.435 446.88 795.075 449.14 795.075 452.04ZM813.03 454.74C812.33 454.8 811.91 454.82 811.75 454.82C810.47 454.82 809.91 454.4 809.91 453.28V449.38H812.71V447.1H809.91V444.6H807.21V447.1H805.65V449.38H807.21V453.52C807.21 456 808.67 457.24 811.17 457.24C811.77 457.24 812.39 457.16 813.03 457V454.74ZM674.449 482H677.149V471.24H681.389V468.8H670.229V471.24H674.449V482ZM690.643 477.96C690.763 477.46 690.823 476.96 690.823 476.48C690.823 473.9 688.903 471.88 686.163 471.88C683.303 471.82 680.923 474.2 680.983 477.06C680.923 479.92 683.343 482.3 686.403 482.24C687.863 482.24 689.183 481.74 690.363 480.76L689.243 478.92C688.383 479.58 687.463 479.92 686.483 479.92C685.043 479.92 684.023 479.22 683.703 477.96H690.643ZM683.703 476.06C684.003 474.84 684.923 474.06 686.063 474.06C687.243 474.06 688.183 474.84 688.203 476.06H683.703ZM692.03 480.32C692.93 481.52 694.39 482.24 696.13 482.24C697.25 482.24 698.17 481.96 698.89 481.4C699.63 480.84 699.99 480.06 699.99 479.08C699.99 477.62 699.13 476.84 697.21 476.06L696.25 475.66C695.47 475.34 695.21 475.16 695.21 474.78C695.21 474.32 695.61 474.08 696.27 474.08C697.09 474.08 697.83 474.4 698.49 475.02L699.85 473.36C698.95 472.38 697.77 471.88 696.29 471.88C694.13 471.88 692.65 472.98 692.65 474.84C692.65 476.3 693.53 477.12 695.35 477.86L696.41 478.3C697.15 478.62 697.43 478.78 697.43 479.2C697.43 479.74 696.89 480.02 696.17 480.02C695.19 480.02 694.25 479.58 693.39 478.68L692.03 480.32ZM708.391 479.74C707.691 479.8 707.271 479.82 707.111 479.82C705.831 479.82 705.271 479.4 705.271 478.28V474.38H708.071V472.1H705.271V469.6H702.571V472.1H701.011V474.38H702.571V478.52C702.571 481 704.031 482.24 706.531 482.24C707.131 482.24 707.751 482.16 708.391 482V479.74ZM710.352 482H713.052V472.1H710.352V482ZM709.972 468.5C709.972 469.44 710.732 470.16 711.692 470.16C712.652 470.16 713.432 469.44 713.432 468.5C713.432 467.54 712.652 466.82 711.692 466.82C710.732 466.82 709.972 467.54 709.972 468.5ZM724.823 475.86C724.823 473.46 723.403 471.88 721.103 471.88C719.923 471.88 718.903 472.3 718.203 473V472.1H715.723V482H718.423V476.22C718.423 475.08 719.203 474.3 720.303 474.3C721.403 474.3 722.143 475.08 722.143 476.22V482H724.823V475.86ZM734.882 472.1V473.34C734.182 472.4 733.062 471.88 731.642 471.88C728.942 471.88 726.902 473.84 726.902 476.78C726.902 479.68 728.902 481.7 731.642 481.7C732.902 481.7 733.942 481.3 734.662 480.52V481.06C734.662 482.6 733.622 483.4 732.022 483.4C730.822 483.4 729.902 482.94 728.802 482.12L727.382 484C728.762 485.22 730.382 485.84 732.242 485.84C735.342 485.84 737.362 484.12 737.362 480.9V472.1H734.882ZM734.702 476.74C734.702 478.44 733.562 479.42 732.202 479.42C730.762 479.42 729.642 478.36 729.642 476.76C729.642 475.16 730.742 474.18 732.202 474.18C733.582 474.18 734.702 475.04 734.702 476.74ZM745.665 475.94C745.665 480.6 747.465 483.5 750.025 484.64L751.085 483.02C749.245 481.8 748.025 479.7 748.025 475.94C748.025 472.16 749.245 470.06 751.085 468.84L750.025 467.22C747.465 468.36 745.665 471.24 745.665 475.94ZM761.649 482H764.549L758.669 468.56H757.769L751.869 482H754.769L755.509 480.28H760.909L761.649 482ZM759.969 478.06H756.449L758.209 473.6L759.969 478.06ZM778.392 468.56L772.812 475.7L767.232 468.56H766.352V482H769.052V474.96L772.372 479.12H773.252L776.572 474.96V482H779.272V468.56H778.392ZM794.349 468.56L788.769 475.7L783.189 468.56H782.309V482H785.009V474.96L788.329 479.12H789.209L792.529 474.96V482H795.229V468.56H794.349ZM798.346 484.64C799.606 484.06 800.646 483.06 801.466 481.62C802.286 480.16 802.686 478.28 802.686 475.94C802.686 473.6 802.286 471.7 801.466 470.26C800.646 468.8 799.606 467.8 798.346 467.22L797.266 468.84C799.126 470.06 800.346 472.16 800.346 475.94C800.346 479.7 799.106 481.8 797.266 483.02L798.346 484.64Z" fill="white"/>
<path d="M858 44.3725V248H860V44C859.344 44.2249 858.674 44.3497 858 44.3725Z" fill="#00DA63"/>
<path d="M756.709 19H759.409V14.34H761.669C764.429 14.34 766.429 12.58 766.429 10.06C766.429 7.52 764.429 5.8 761.669 5.8H756.709V19ZM759.409 11.98V8.18H761.669C762.889 8.18 763.669 8.94 763.669 10.06C763.669 11.2 762.929 11.98 761.669 11.98H759.409ZM774.484 9.1C774.224 9.02 773.944 8.98 773.604 8.98C772.504 8.98 771.544 9.46 770.884 10.28V9.1H768.404V19H771.104V14.06C771.104 12.36 772.144 11.48 773.764 11.48H774.484V9.1ZM776.158 19H778.858V9.1H776.158V19ZM775.778 5.5C775.778 6.44 776.538 7.16 777.498 7.16C778.458 7.16 779.238 6.44 779.238 5.5C779.238 4.54 778.458 3.82 777.498 3.82C776.538 3.82 775.778 4.54 775.778 5.5ZM788.269 9.1L785.769 14.7L783.269 9.1H780.429L785.329 19.24H786.229L791.129 9.1H788.269ZM800.611 13.12C800.611 10.38 798.951 8.88 796.371 8.88C794.631 8.88 793.191 9.56 792.051 10.92L793.451 12.58C794.331 11.64 795.051 11.22 796.071 11.22C797.271 11.22 797.911 11.86 797.911 12.96V13.4H795.431C793.131 13.4 791.691 14.5 791.691 16.28C791.691 18.02 793.011 19.24 795.111 19.24C796.371 19.24 797.411 18.78 798.131 18.04V19H800.611V13.12ZM797.911 15.3C797.911 16.44 797.011 17.26 795.831 17.26C794.971 17.26 794.411 16.84 794.411 16.18C794.411 15.52 794.911 15.18 795.791 15.18H797.911V15.3ZM809.569 16.74C808.869 16.8 808.449 16.82 808.289 16.82C807.009 16.82 806.449 16.4 806.449 15.28V11.38H809.249V9.1H806.449V6.6H803.749V9.1H802.189V11.38H803.749V15.52C803.749 18 805.209 19.24 807.709 19.24C808.309 19.24 808.929 19.16 809.569 19V16.74ZM820.434 14.96C820.554 14.46 820.614 13.96 820.614 13.48C820.614 10.9 818.694 8.88 815.954 8.88C813.094 8.82 810.714 11.2 810.774 14.06C810.714 16.92 813.134 19.3 816.194 19.24C817.654 19.24 818.974 18.74 820.154 17.76L819.034 15.92C818.174 16.58 817.254 16.92 816.274 16.92C814.834 16.92 813.814 16.22 813.494 14.96H820.434ZM813.494 13.06C813.794 11.84 814.714 11.06 815.854 11.06C817.034 11.06 817.974 11.84 817.994 13.06H813.494ZM830.49 19H833.19V8.24H837.43V5.8H826.27V8.24H830.49V19ZM846.684 14.96C846.804 14.46 846.864 13.96 846.864 13.48C846.864 10.9 844.944 8.88 842.204 8.88C839.344 8.82 836.964 11.2 837.024 14.06C836.964 16.92 839.384 19.3 842.444 19.24C843.904 19.24 845.224 18.74 846.404 17.76L845.284 15.92C844.424 16.58 843.504 16.92 842.524 16.92C841.084 16.92 840.064 16.22 839.744 14.96H846.684ZM839.744 13.06C840.044 11.84 840.964 11.06 842.104 11.06C843.284 11.06 844.224 11.84 844.244 13.06H839.744ZM848.071 17.32C848.971 18.52 850.431 19.24 852.171 19.24C853.291 19.24 854.211 18.96 854.931 18.4C855.671 17.84 856.031 17.06 856.031 16.08C856.031 14.62 855.171 13.84 853.251 13.06L852.291 12.66C851.511 12.34 851.251 12.16 851.251 11.78C851.251 11.32 851.651 11.08 852.311 11.08C853.131 11.08 853.871 11.4 854.531 12.02L855.891 10.36C854.991 9.38 853.811 8.88 852.331 8.88C850.171 8.88 848.691 9.98 848.691 11.84C848.691 13.3 849.571 14.12 851.391 14.86L852.451 15.3C853.191 15.62 853.471 15.78 853.471 16.2C853.471 16.74 852.931 17.02 852.211 17.02C851.231 17.02 850.291 16.58 849.431 15.68L848.071 17.32ZM864.432 16.74C863.732 16.8 863.312 16.82 863.152 16.82C861.872 16.82 861.312 16.4 861.312 15.28V11.38H864.112V9.1H861.312V6.6H858.612V9.1H857.052V11.38H858.612V15.52C858.612 18 860.072 19.24 862.572 19.24C863.172 19.24 863.792 19.16 864.432 19V16.74ZM875.493 12.86C875.493 10.46 874.073 8.88 871.773 8.88C870.593 8.88 869.573 9.3 868.873 10V9.1H866.393V19H869.093V13.22C869.093 12.08 869.873 11.3 870.973 11.3C872.073 11.3 872.813 12.08 872.813 13.22V19H875.493V12.86ZM887.192 14.96C887.312 14.46 887.372 13.96 887.372 13.48C887.372 10.9 885.452 8.88 882.712 8.88C879.852 8.82 877.472 11.2 877.532 14.06C877.472 16.92 879.892 19.3 882.952 19.24C884.412 19.24 885.732 18.74 886.912 17.76L885.792 15.92C884.932 16.58 884.012 16.92 883.032 16.92C881.592 16.92 880.572 16.22 880.252 14.96H887.192ZM880.252 13.06C880.552 11.84 881.472 11.06 882.612 11.06C883.792 11.06 884.732 11.84 884.752 13.06H880.252ZM895.839 16.74C895.139 16.8 894.719 16.82 894.559 16.82C893.279 16.82 892.719 16.4 892.719 15.28V11.38H895.519V9.1H892.719V6.6H890.019V9.1H888.459V11.38H890.019V15.52C890.019 18 891.479 19.24 893.979 19.24C894.579 19.24 895.199 19.16 895.839 19V16.74ZM903.424 12.94C903.424 17.6 905.224 20.5 907.784 21.64L908.844 20.02C907.004 18.8 905.784 16.7 905.784 12.94C905.784 9.16 907.004 7.06 908.844 5.84L907.784 4.22C905.224 5.36 903.424 8.24 903.424 12.94ZM919.409 19H922.309L916.429 5.56H915.529L909.629 19H912.529L913.269 17.28H918.669L919.409 19ZM917.729 15.06H914.209L915.969 10.6L917.729 15.06ZM936.152 5.56L930.572 12.7L924.992 5.56H924.112V19H926.812V11.96L930.132 16.12H931.012L934.332 11.96V19H937.032V5.56H936.152ZM952.109 5.56L946.529 12.7L940.949 5.56H940.069V19H942.769V11.96L946.089 16.12H946.969L950.289 11.96V19H952.989V5.56H952.109ZM956.106 21.64C957.366 21.06 958.406 20.06 959.226 18.62C960.046 17.16 960.446 15.28 960.446 12.94C960.446 10.6 960.046 8.7 959.226 7.26C958.406 5.8 957.366 4.8 956.106 4.22L955.026 5.84C956.886 7.06 958.106 9.16 958.106 12.94C958.106 16.7 956.866 18.8 955.026 20.02L956.106 21.64Z" fill="white"/>
<path d="M1038 279.287V436H1040V279C1039.34 279.173 1038.67 279.269 1038 279.287Z" fill="#00DA63"/>
<path d="M971.752 474H974.452V463.24H978.692V460.8H967.532V463.24H971.752V474ZM987.946 469.96C988.066 469.46 988.126 468.96 988.126 468.48C988.126 465.9 986.206 463.88 983.466 463.88C980.606 463.82 978.226 466.2 978.286 469.06C978.226 471.92 980.646 474.3 983.706 474.24C985.166 474.24 986.486 473.74 987.666 472.76L986.546 470.92C985.686 471.58 984.766 471.92 983.786 471.92C982.346 471.92 981.326 471.22 981.006 469.96H987.946ZM981.006 468.06C981.306 466.84 982.226 466.06 983.366 466.06C984.546 466.06 985.486 466.84 985.506 468.06H981.006ZM989.333 472.32C990.233 473.52 991.693 474.24 993.433 474.24C994.553 474.24 995.473 473.96 996.193 473.4C996.933 472.84 997.293 472.06 997.293 471.08C997.293 469.62 996.433 468.84 994.513 468.06L993.553 467.66C992.773 467.34 992.513 467.16 992.513 466.78C992.513 466.32 992.913 466.08 993.573 466.08C994.393 466.08 995.133 466.4 995.793 467.02L997.153 465.36C996.253 464.38 995.073 463.88 993.593 463.88C991.433 463.88 989.953 464.98 989.953 466.84C989.953 468.3 990.833 469.12 992.653 469.86L993.713 470.3C994.453 470.62 994.733 470.78 994.733 471.2C994.733 471.74 994.193 472.02 993.473 472.02C992.493 472.02 991.553 471.58 990.693 470.68L989.333 472.32ZM1005.69 471.74C1004.99 471.8 1004.57 471.82 1004.41 471.82C1003.13 471.82 1002.57 471.4 1002.57 470.28V466.38H1005.37V464.1H1002.57V461.6H999.874V464.1H998.314V466.38H999.874V470.52C999.874 473 1001.33 474.24 1003.83 474.24C1004.43 474.24 1005.05 474.16 1005.69 474V471.74ZM1016.75 467.86C1016.75 465.46 1015.33 463.88 1013.03 463.88C1011.85 463.88 1010.83 464.3 1010.13 465V464.1H1007.65V474H1010.35V468.22C1010.35 467.08 1011.13 466.3 1012.23 466.3C1013.33 466.3 1014.07 467.08 1014.07 468.22V474H1016.75V467.86ZM1028.45 469.96C1028.57 469.46 1028.63 468.96 1028.63 468.48C1028.63 465.9 1026.71 463.88 1023.97 463.88C1021.11 463.82 1018.73 466.2 1018.79 469.06C1018.73 471.92 1021.15 474.3 1024.21 474.24C1025.67 474.24 1026.99 473.74 1028.17 472.76L1027.05 470.92C1026.19 471.58 1025.27 471.92 1024.29 471.92C1022.85 471.92 1021.83 471.22 1021.51 469.96H1028.45ZM1021.51 468.06C1021.81 466.84 1022.73 466.06 1023.87 466.06C1025.05 466.06 1025.99 466.84 1026.01 468.06H1021.51ZM1037.1 471.74C1036.4 471.8 1035.98 471.82 1035.82 471.82C1034.54 471.82 1033.98 471.4 1033.98 470.28V466.38H1036.78V464.1H1033.98V461.6H1031.28V464.1H1029.72V466.38H1031.28V470.52C1031.28 473 1032.74 474.24 1035.24 474.24C1035.84 474.24 1036.46 474.16 1037.1 474V471.74ZM1044.85 474H1053.33V471.56H1047.55V460.8H1044.85V474ZM1063.45 468.12C1063.45 465.38 1061.79 463.88 1059.21 463.88C1057.47 463.88 1056.03 464.56 1054.89 465.92L1056.29 467.58C1057.17 466.64 1057.89 466.22 1058.91 466.22C1060.11 466.22 1060.75 466.86 1060.75 467.96V468.4H1058.27C1055.97 468.4 1054.53 469.5 1054.53 471.28C1054.53 473.02 1055.85 474.24 1057.95 474.24C1059.21 474.24 1060.25 473.78 1060.97 473.04V474H1063.45V468.12ZM1060.75 470.3C1060.75 471.44 1059.85 472.26 1058.67 472.26C1057.81 472.26 1057.25 471.84 1057.25 471.18C1057.25 470.52 1057.75 470.18 1058.63 470.18H1060.75V470.3ZM1065.95 469.64C1065.95 472.4 1067.89 474.24 1070.53 474.24C1073.11 474.24 1075.07 472.4 1075.07 469.64V464.1H1072.37V469.86C1072.37 471 1071.57 471.76 1070.53 471.76C1069.43 471.76 1068.65 471 1068.65 469.86V464.1H1065.95V469.64ZM1086.75 467.86C1086.75 465.46 1085.33 463.88 1083.03 463.88C1081.85 463.88 1080.83 464.3 1080.13 465V464.1H1077.65V474H1080.35V468.22C1080.35 467.08 1081.13 466.3 1082.23 466.3C1083.33 466.3 1084.07 467.08 1084.07 468.22V474H1086.75V467.86ZM1088.79 469.04C1088.75 471.9 1091.19 474.3 1094.09 474.24C1096.01 474.24 1097.53 473.3 1098.39 471.78L1096.51 470.34C1095.87 471.24 1095.15 471.76 1094.13 471.76C1092.61 471.76 1091.53 470.62 1091.53 469.04C1091.53 467.5 1092.61 466.34 1094.13 466.34C1095.17 466.34 1095.89 466.88 1096.51 467.78L1098.39 466.32C1097.53 464.8 1096.03 463.88 1094.09 463.88C1091.15 463.88 1088.79 466.14 1088.79 469.04ZM1109.49 467.86C1109.49 465.46 1108.05 463.88 1105.81 463.88C1104.71 463.88 1103.75 464.28 1103.09 464.94V459H1100.39V474H1103.09V468.24C1103.09 467.1 1103.87 466.32 1104.97 466.32C1106.07 466.32 1106.81 467.1 1106.81 468.24V474H1109.49V467.86Z" fill="white"/>
<path d="M1187 129.287V286H1189V129C1188.34 129.173 1187.67 129.269 1187 129.287Z" fill="#00DA63"/>
<path d="M1132.26 76.32C1133.28 78.1 1135.12 79.24 1137.36 79.24C1140 79.24 1141.98 77.7 1141.98 75.28C1141.98 73.5 1140.94 72.4 1138.72 71.42L1137.22 70.76C1136.1 70.26 1135.68 69.94 1135.68 69.24C1135.68 68.42 1136.38 67.96 1137.32 67.96C1138.32 67.96 1139.16 68.46 1139.84 69.48L1141.68 68.06C1140.86 66.54 1139.34 65.56 1137.32 65.56C1134.82 65.56 1132.94 67.04 1132.94 69.3C1132.94 71.06 1134.12 72.2 1136.14 73.1L1137.56 73.74C1138.82 74.32 1139.24 74.6 1139.24 75.38C1139.24 76.28 1138.54 76.84 1137.36 76.84C1135.92 76.84 1134.98 76.1 1134.12 74.92L1132.26 76.32ZM1153.27 74.96C1153.39 74.46 1153.45 73.96 1153.45 73.48C1153.45 70.9 1151.53 68.88 1148.79 68.88C1145.93 68.82 1143.55 71.2 1143.61 74.06C1143.55 76.92 1145.97 79.3 1149.03 79.24C1150.49 79.24 1151.81 78.74 1152.99 77.76L1151.87 75.92C1151.01 76.58 1150.09 76.92 1149.11 76.92C1147.67 76.92 1146.65 76.22 1146.33 74.96H1153.27ZM1146.33 73.06C1146.63 71.84 1147.55 71.06 1148.69 71.06C1149.87 71.06 1150.81 71.84 1150.83 73.06H1146.33ZM1164.66 74.96C1164.78 74.46 1164.84 73.96 1164.84 73.48C1164.84 70.9 1162.92 68.88 1160.18 68.88C1157.32 68.82 1154.94 71.2 1155 74.06C1154.94 76.92 1157.36 79.3 1160.42 79.24C1161.88 79.24 1163.2 78.74 1164.38 77.76L1163.26 75.92C1162.4 76.58 1161.48 76.92 1160.5 76.92C1159.06 76.92 1158.04 76.22 1157.72 74.96H1164.66ZM1157.72 73.06C1158.02 71.84 1158.94 71.06 1160.08 71.06C1161.26 71.06 1162.2 71.84 1162.22 73.06H1157.72ZM1174.15 64V70.06C1173.43 69.28 1172.45 68.88 1171.19 68.88C1168.43 68.88 1166.39 71.08 1166.39 74.06C1166.39 77.04 1168.43 79.24 1171.19 79.24C1172.55 79.24 1173.71 78.72 1174.37 77.78V79H1176.85V64H1174.15ZM1174.19 74.06C1174.19 75.84 1173.05 76.78 1171.69 76.78C1170.23 76.78 1169.13 75.7 1169.13 74.04C1169.13 72.42 1170.25 71.32 1171.69 71.32C1173.05 71.32 1174.19 72.3 1174.19 74.06ZM1196.45 79L1192.71 73.82C1194.15 73.1 1195.03 71.74 1195.03 70.06C1195.03 67.52 1193.03 65.8 1190.27 65.8H1185.31V79H1188.01V74.34H1189.99L1193.41 79H1196.45ZM1188.01 68.18H1190.27C1191.49 68.18 1192.27 68.94 1192.27 70.06C1192.27 71.2 1191.53 71.96 1190.27 71.96H1188.01V68.18ZM1197.07 74.04C1197.01 76.86 1199.45 79.28 1202.35 79.22C1205.25 79.28 1207.75 76.86 1207.69 74.04C1207.75 71.22 1205.27 68.84 1202.37 68.88C1199.47 68.82 1197.01 71.22 1197.07 74.04ZM1204.93 74.06C1204.93 75.6 1203.83 76.74 1202.37 76.74C1200.87 76.74 1199.81 75.6 1199.81 74.06C1199.81 72.48 1200.87 71.34 1202.37 71.34C1203.83 71.34 1204.93 72.52 1204.93 74.06ZM1209.7 74.64C1209.7 77.4 1211.64 79.24 1214.28 79.24C1216.86 79.24 1218.82 77.4 1218.82 74.64V69.1H1216.12V74.86C1216.12 76 1215.32 76.76 1214.28 76.76C1213.18 76.76 1212.4 76 1212.4 74.86V69.1H1209.7V74.64ZM1230.5 72.86C1230.5 70.46 1229.08 68.88 1226.78 68.88C1225.6 68.88 1224.58 69.3 1223.88 70V69.1H1221.4V79H1224.1V73.22C1224.1 72.08 1224.88 71.3 1225.98 71.3C1227.08 71.3 1227.82 72.08 1227.82 73.22V79H1230.5V72.86ZM1240.3 64V70.06C1239.58 69.28 1238.6 68.88 1237.34 68.88C1234.58 68.88 1232.54 71.08 1232.54 74.06C1232.54 77.04 1234.58 79.24 1237.34 79.24C1238.7 79.24 1239.86 78.72 1240.52 77.78V79H1243V64H1240.3ZM1240.34 74.06C1240.34 75.84 1239.2 76.78 1237.84 76.78C1236.38 76.78 1235.28 75.7 1235.28 74.04C1235.28 72.42 1236.4 71.32 1237.84 71.32C1239.2 71.32 1240.34 72.3 1240.34 74.06ZM1144.22 104H1146.92V98.98H1151.82V96.54H1146.92V93.24H1152.9V90.8H1144.22V104ZM1154.35 99.64C1154.35 102.4 1156.29 104.24 1158.93 104.24C1161.51 104.24 1163.47 102.4 1163.47 99.64V94.1H1160.77V99.86C1160.77 101 1159.97 101.76 1158.93 101.76C1157.83 101.76 1157.05 101 1157.05 99.86V94.1H1154.35V99.64ZM1175.15 97.86C1175.15 95.46 1173.73 93.88 1171.43 93.88C1170.25 93.88 1169.23 94.3 1168.53 95V94.1H1166.05V104H1168.75V98.22C1168.75 97.08 1169.53 96.3 1170.63 96.3C1171.73 96.3 1172.47 97.08 1172.47 98.22V104H1175.15V97.86ZM1184.95 89V95.06C1184.23 94.28 1183.25 93.88 1181.99 93.88C1179.23 93.88 1177.19 96.08 1177.19 99.06C1177.19 102.04 1179.23 104.24 1181.99 104.24C1183.35 104.24 1184.51 103.72 1185.17 102.78V104H1187.65V89H1184.95ZM1184.99 99.06C1184.99 100.84 1183.85 101.78 1182.49 101.78C1181.03 101.78 1179.93 100.7 1179.93 99.04C1179.93 97.42 1181.05 96.32 1182.49 96.32C1183.85 96.32 1184.99 97.3 1184.99 99.06ZM1196.41 94.1C1196.15 94.02 1195.87 93.98 1195.53 93.98C1194.43 93.98 1193.47 94.46 1192.81 95.28V94.1H1190.33V104H1193.03V99.06C1193.03 97.36 1194.07 96.48 1195.69 96.48H1196.41V94.1ZM1206.18 98.12C1206.18 95.38 1204.52 93.88 1201.94 93.88C1200.2 93.88 1198.76 94.56 1197.62 95.92L1199.02 97.58C1199.9 96.64 1200.62 96.22 1201.64 96.22C1202.84 96.22 1203.48 96.86 1203.48 97.96V98.4H1201C1198.7 98.4 1197.26 99.5 1197.26 101.28C1197.26 103.02 1198.58 104.24 1200.68 104.24C1201.94 104.24 1202.98 103.78 1203.7 103.04V104H1206.18V98.12ZM1203.48 100.3C1203.48 101.44 1202.58 102.26 1201.4 102.26C1200.54 102.26 1199.98 101.84 1199.98 101.18C1199.98 100.52 1200.48 100.18 1201.36 100.18H1203.48V100.3ZM1208.78 104H1211.48V94.1H1208.78V104ZM1208.4 90.5C1208.4 91.44 1209.16 92.16 1210.12 92.16C1211.08 92.16 1211.86 91.44 1211.86 90.5C1211.86 89.54 1211.08 88.82 1210.12 88.82C1209.16 88.82 1208.4 89.54 1208.4 90.5ZM1213.25 102.32C1214.15 103.52 1215.61 104.24 1217.35 104.24C1218.47 104.24 1219.39 103.96 1220.11 103.4C1220.85 102.84 1221.21 102.06 1221.21 101.08C1221.21 99.62 1220.35 98.84 1218.43 98.06L1217.47 97.66C1216.69 97.34 1216.43 97.16 1216.43 96.78C1216.43 96.32 1216.83 96.08 1217.49 96.08C1218.31 96.08 1219.05 96.4 1219.71 97.02L1221.07 95.36C1220.17 94.38 1218.99 93.88 1217.51 93.88C1215.35 93.88 1213.87 94.98 1213.87 96.84C1213.87 98.3 1214.75 99.12 1216.57 99.86L1217.63 100.3C1218.37 100.62 1218.65 100.78 1218.65 101.2C1218.65 101.74 1218.11 102.02 1217.39 102.02C1216.41 102.02 1215.47 101.58 1214.61 100.68L1213.25 102.32ZM1232.36 99.96C1232.48 99.46 1232.54 98.96 1232.54 98.48C1232.54 95.9 1230.62 93.88 1227.88 93.88C1225.02 93.82 1222.64 96.2 1222.7 99.06C1222.64 101.92 1225.06 104.3 1228.12 104.24C1229.58 104.24 1230.9 103.74 1232.08 102.76L1230.96 100.92C1230.1 101.58 1229.18 101.92 1228.2 101.92C1226.76 101.92 1225.74 101.22 1225.42 99.96H1232.36ZM1225.42 98.06C1225.72 96.84 1226.64 96.06 1227.78 96.06C1228.96 96.06 1229.9 96.84 1229.92 98.06H1225.42Z" fill="white"/>
<path d="M157 292.287V449H159V292C158.344 292.173 157.674 292.269 157 292.287Z" fill="#00DA63"/>
<path d="M100.069 486H102.969L97.0893 472.56H96.1893L90.2893 486H93.1893L93.9293 484.28H99.3293L100.069 486ZM98.3893 482.06H94.8693L96.6293 477.6L98.3893 482.06ZM116.812 472.56L111.232 479.7L105.652 472.56H104.772V486H107.472V478.96L110.792 483.12H111.672L114.992 478.96V486H117.692V472.56H116.812ZM132.769 472.56L127.189 479.7L121.609 472.56H120.729V486H123.429V478.96L126.749 483.12H127.629L130.949 478.96V486H133.649V472.56H132.769ZM141.531 479.4C141.451 483.18 144.691 486.32 148.551 486.24C151.091 486.24 153.251 485.02 154.391 482.96L152.351 481.52C151.411 483 150.151 483.74 148.571 483.74C146.111 483.74 144.311 481.94 144.311 479.42C144.311 476.9 146.111 475.06 148.571 475.06C150.151 475.06 151.411 475.8 152.351 477.28L154.391 475.84C153.211 473.78 151.071 472.56 148.571 472.56C144.731 472.48 141.471 475.62 141.531 479.4ZM155.751 481.04C155.691 483.86 158.131 486.28 161.031 486.22C163.931 486.28 166.431 483.86 166.371 481.04C166.431 478.22 163.951 475.84 161.051 475.88C158.151 475.82 155.691 478.22 155.751 481.04ZM163.611 481.06C163.611 482.6 162.511 483.74 161.051 483.74C159.551 483.74 158.491 482.6 158.491 481.06C158.491 479.48 159.551 478.34 161.051 478.34C162.511 478.34 163.611 479.52 163.611 481.06ZM177.579 479.86C177.579 477.46 176.159 475.88 173.859 475.88C172.679 475.88 171.659 476.3 170.959 477V476.1H168.479V486H171.179V480.22C171.179 479.08 171.959 478.3 173.059 478.3C174.159 478.3 174.899 479.08 174.899 480.22V486H177.579V479.86ZM186.538 483.74C185.838 483.8 185.418 483.82 185.258 483.82C183.978 483.82 183.418 483.4 183.418 482.28V478.38H186.218V476.1H183.418V473.6H180.718V476.1H179.158V478.38H180.718V482.52C180.718 485 182.178 486.24 184.678 486.24C185.278 486.24 185.898 486.16 186.538 486V483.74ZM194.578 476.1C194.318 476.02 194.038 475.98 193.698 475.98C192.598 475.98 191.638 476.46 190.978 477.28V476.1H188.498V486H191.198V481.06C191.198 479.36 192.238 478.48 193.858 478.48H194.578V476.1ZM204.357 480.12C204.357 477.38 202.697 475.88 200.117 475.88C198.377 475.88 196.937 476.56 195.797 477.92L197.197 479.58C198.077 478.64 198.797 478.22 199.817 478.22C201.017 478.22 201.657 478.86 201.657 479.96V480.4H199.177C196.877 480.4 195.437 481.5 195.437 483.28C195.437 485.02 196.757 486.24 198.857 486.24C200.117 486.24 201.157 485.78 201.877 485.04V486H204.357V480.12ZM201.657 482.3C201.657 483.44 200.757 484.26 199.577 484.26C198.717 484.26 198.157 483.84 198.157 483.18C198.157 482.52 198.657 482.18 199.537 482.18H201.657V482.3ZM206.395 481.04C206.355 483.9 208.795 486.3 211.695 486.24C213.615 486.24 215.135 485.3 215.995 483.78L214.115 482.34C213.475 483.24 212.755 483.76 211.735 483.76C210.215 483.76 209.135 482.62 209.135 481.04C209.135 479.5 210.215 478.34 211.735 478.34C212.775 478.34 213.495 478.88 214.115 479.78L215.995 478.32C215.135 476.8 213.635 475.88 211.695 475.88C208.755 475.88 206.395 478.14 206.395 481.04ZM224.35 483.74C223.65 483.8 223.23 483.82 223.07 483.82C221.79 483.82 221.23 483.4 221.23 482.28V478.38H224.03V476.1H221.23V473.6H218.53V476.1H216.97V478.38H218.53V482.52C218.53 485 219.99 486.24 222.49 486.24C223.09 486.24 223.71 486.16 224.35 486V483.74ZM86.3149 511H90.6349C94.8149 511.06 97.8949 508.18 97.8349 504.36C97.8949 500.46 94.8149 497.76 90.6349 497.8H86.3149V511ZM89.0149 508.56V500.24H90.6149C93.3149 500.24 95.0549 501.8 95.0549 504.36C95.0549 506.9 93.2749 508.56 90.6149 508.56H89.0149ZM109.044 506.96C109.164 506.46 109.224 505.96 109.224 505.48C109.224 502.9 107.304 500.88 104.564 500.88C101.704 500.82 99.3235 503.2 99.3835 506.06C99.3235 508.92 101.744 511.3 104.804 511.24C106.264 511.24 107.584 510.74 108.764 509.76L107.644 507.92C106.784 508.58 105.864 508.92 104.884 508.92C103.444 508.92 102.424 508.22 102.104 506.96H109.044ZM102.104 505.06C102.404 503.84 103.324 503.06 104.464 503.06C105.644 503.06 106.584 503.84 106.604 505.06H102.104ZM117.68 501.1L115.18 506.7L112.68 501.1H109.84L114.74 511.24H115.64L120.54 501.1H117.68ZM130.821 506.96C130.941 506.46 131.001 505.96 131.001 505.48C131.001 502.9 129.081 500.88 126.341 500.88C123.481 500.82 121.101 503.2 121.161 506.06C121.101 508.92 123.521 511.3 126.581 511.24C128.041 511.24 129.361 510.74 130.541 509.76L129.421 507.92C128.561 508.58 127.641 508.92 126.661 508.92C125.221 508.92 124.201 508.22 123.881 506.96H130.821ZM123.881 505.06C124.181 503.84 125.101 503.06 126.241 503.06C127.421 503.06 128.361 503.84 128.381 505.06H123.881ZM133.108 511H135.808V496H133.108V511ZM137.919 506.04C137.859 508.86 140.299 511.28 143.199 511.22C146.099 511.28 148.599 508.86 148.539 506.04C148.599 503.22 146.119 500.84 143.219 500.88C140.319 500.82 137.859 503.22 137.919 506.04ZM145.779 506.06C145.779 507.6 144.679 508.74 143.219 508.74C141.719 508.74 140.659 507.6 140.659 506.06C140.659 504.48 141.719 503.34 143.219 503.34C144.679 503.34 145.779 504.52 145.779 506.06ZM161.107 506.04C161.107 503.08 159.067 500.88 156.307 500.88C154.947 500.88 153.787 501.4 153.127 502.34V501.1H150.647V514.6H153.347V510.04C154.067 510.82 155.107 511.24 156.307 511.24C159.067 511.24 161.107 509 161.107 506.04ZM158.367 506.06C158.367 507.68 157.247 508.78 155.807 508.78C154.427 508.78 153.307 507.8 153.307 506.04C153.307 504.26 154.447 503.32 155.807 503.32C157.267 503.32 158.367 504.4 158.367 506.06ZM178.485 504.86C178.485 502.46 177.065 500.88 174.745 500.88C173.385 500.88 172.225 501.42 171.445 502.3C170.785 501.36 169.805 500.88 168.505 500.88C167.365 500.88 166.365 501.28 165.705 501.98V501.1H163.225V511H165.925V505.24C165.925 504.06 166.645 503.32 167.745 503.32C168.805 503.32 169.505 504.06 169.505 505.24V511H172.205V505.18C172.205 504.08 172.965 503.32 174.025 503.32C175.085 503.32 175.785 504.06 175.785 505.24V511H178.485V504.86ZM190.157 506.96C190.277 506.46 190.337 505.96 190.337 505.48C190.337 502.9 188.417 500.88 185.677 500.88C182.817 500.82 180.437 503.2 180.497 506.06C180.437 508.92 182.857 511.3 185.917 511.24C187.377 511.24 188.697 510.74 189.877 509.76L188.757 507.92C187.897 508.58 186.977 508.92 185.997 508.92C184.557 508.92 183.537 508.22 183.217 506.96H190.157ZM183.217 505.06C183.517 503.84 184.437 503.06 185.577 503.06C186.757 503.06 187.697 503.84 187.717 505.06H183.217ZM201.544 504.86C201.544 502.46 200.124 500.88 197.824 500.88C196.644 500.88 195.624 501.3 194.924 502V501.1H192.444V511H195.144V505.22C195.144 504.08 195.924 503.3 197.024 503.3C198.124 503.3 198.864 504.08 198.864 505.22V511H201.544V504.86ZM210.503 508.74C209.803 508.8 209.383 508.82 209.223 508.82C207.943 508.82 207.383 508.4 207.383 507.28V503.38H210.183V501.1H207.383V498.6H204.683V501.1H203.123V503.38H204.683V507.52C204.683 510 206.143 511.24 208.643 511.24C209.243 511.24 209.863 511.16 210.503 511V508.74ZM229.589 505.12L227.509 503.64C227.269 504 227.029 504.34 226.789 504.66C226.449 505.16 226.069 505.72 225.649 506.3L223.709 503.96C225.229 502.7 225.869 501.72 225.869 500.46C225.869 498.76 224.509 497.56 222.569 497.56C220.509 497.56 219.149 498.82 219.149 500.72C219.149 501.68 219.509 502.56 220.309 503.6C219.329 504.38 218.629 505.06 218.229 505.64C217.849 506.22 217.649 506.86 217.649 507.56C217.649 509.74 219.429 511.24 221.989 511.24C223.309 511.24 224.509 510.84 225.569 510.02L226.369 511H229.529L227.309 508.3C227.649 507.88 228.249 507.06 229.069 505.88L229.589 505.12ZM221.569 500.76C221.569 500.2 221.949 499.86 222.529 499.86C223.109 499.86 223.449 500.18 223.449 500.72C223.449 501.26 223.169 501.66 222.389 502.28L222.349 502.3C221.769 501.58 221.569 501.22 221.569 500.76ZM224.009 508.12C223.409 508.62 222.789 508.86 222.149 508.86C221.089 508.86 220.349 508.24 220.349 507.3C220.349 506.66 220.629 506.26 221.729 505.36L224.009 508.12ZM80.6606 536H83.3606V522.8H80.6606V536ZM95.2056 529.86C95.2056 527.46 93.7856 525.88 91.4856 525.88C90.3056 525.88 89.2856 526.3 88.5856 527V526.1H86.1056V536H88.8056V530.22C88.8056 529.08 89.5856 528.3 90.6856 528.3C91.7856 528.3 92.5256 529.08 92.5256 530.22V536H95.2056V529.86ZM104.165 533.74C103.465 533.8 103.045 533.82 102.885 533.82C101.605 533.82 101.045 533.4 101.045 532.28V528.38H103.845V526.1H101.045V523.6H98.3448V526.1H96.7848V528.38H98.3448V532.52C98.3448 535 99.8048 536.24 102.305 536.24C102.905 536.24 103.525 536.16 104.165 536V533.74ZM115.03 531.96C115.15 531.46 115.21 530.96 115.21 530.48C115.21 527.9 113.29 525.88 110.55 525.88C107.69 525.82 105.31 528.2 105.37 531.06C105.31 533.92 107.73 536.3 110.79 536.24C112.25 536.24 113.57 535.74 114.75 534.76L113.63 532.92C112.77 533.58 111.85 533.92 110.87 533.92C109.43 533.92 108.41 533.22 108.09 531.96H115.03ZM108.09 530.06C108.39 528.84 109.31 528.06 110.45 528.06C111.63 528.06 112.57 528.84 112.59 530.06H108.09ZM123.397 526.1C123.137 526.02 122.857 525.98 122.517 525.98C121.417 525.98 120.457 526.46 119.797 527.28V526.1H117.317V536H120.017V531.06C120.017 529.36 121.057 528.48 122.677 528.48H123.397V526.1ZM134.17 529.86C134.17 527.46 132.75 525.88 130.45 525.88C129.27 525.88 128.25 526.3 127.55 527V526.1H125.07V536H127.77V530.22C127.77 529.08 128.55 528.3 129.65 528.3C130.75 528.3 131.49 529.08 131.49 530.22V536H134.17V529.86ZM145.07 530.12C145.07 527.38 143.41 525.88 140.83 525.88C139.09 525.88 137.65 526.56 136.51 527.92L137.91 529.58C138.79 528.64 139.51 528.22 140.53 528.22C141.73 528.22 142.37 528.86 142.37 529.96V530.4H139.89C137.59 530.4 136.15 531.5 136.15 533.28C136.15 535.02 137.47 536.24 139.57 536.24C140.83 536.24 141.87 535.78 142.59 535.04V536H145.07V530.12ZM142.37 532.3C142.37 533.44 141.47 534.26 140.29 534.26C139.43 534.26 138.87 533.84 138.87 533.18C138.87 532.52 139.37 532.18 140.25 532.18H142.37V532.3ZM147.668 536H150.368V521H147.668V536ZM160.809 536H163.509V525.24H167.749V522.8H156.589V525.24H160.809V536ZM177.003 531.96C177.122 531.46 177.183 530.96 177.183 530.48C177.183 527.9 175.263 525.88 172.523 525.88C169.663 525.82 167.283 528.2 167.343 531.06C167.283 533.92 169.703 536.3 172.763 536.24C174.223 536.24 175.543 535.74 176.723 534.76L175.603 532.92C174.743 533.58 173.823 533.92 172.843 533.92C171.403 533.92 170.383 533.22 170.063 531.96H177.003ZM170.063 530.06C170.363 528.84 171.283 528.06 172.423 528.06C173.603 528.06 174.543 528.84 174.563 530.06H170.063ZM178.389 534.32C179.289 535.52 180.749 536.24 182.489 536.24C183.609 536.24 184.529 535.96 185.249 535.4C185.989 534.84 186.349 534.06 186.349 533.08C186.349 531.62 185.489 530.84 183.569 530.06L182.609 529.66C181.829 529.34 181.569 529.16 181.569 528.78C181.569 528.32 181.969 528.08 182.629 528.08C183.449 528.08 184.189 528.4 184.849 529.02L186.209 527.36C185.309 526.38 184.129 525.88 182.649 525.88C180.489 525.88 179.009 526.98 179.009 528.84C179.009 530.3 179.889 531.12 181.709 531.86L182.769 532.3C183.509 532.62 183.789 532.78 183.789 533.2C183.789 533.74 183.249 534.02 182.529 534.02C181.549 534.02 180.609 533.58 179.749 532.68L178.389 534.32ZM194.751 533.74C194.051 533.8 193.631 533.82 193.471 533.82C192.191 533.82 191.631 533.4 191.631 532.28V528.38H194.431V526.1H191.631V523.6H188.931V526.1H187.371V528.38H188.931V532.52C188.931 535 190.391 536.24 192.891 536.24C193.491 536.24 194.111 536.16 194.751 536V533.74ZM196.711 536H199.411V526.1H196.711V536ZM196.331 522.5C196.331 523.44 197.091 524.16 198.051 524.16C199.011 524.16 199.791 523.44 199.791 522.5C199.791 521.54 199.011 520.82 198.051 520.82C197.091 520.82 196.331 521.54 196.331 522.5ZM211.182 529.86C211.182 527.46 209.762 525.88 207.462 525.88C206.282 525.88 205.262 526.3 204.562 527V526.1H202.082V536H204.782V530.22C204.782 529.08 205.562 528.3 206.662 528.3C207.762 528.3 208.502 529.08 208.502 530.22V536H211.182V529.86ZM221.241 526.1V527.34C220.541 526.4 219.421 525.88 218.001 525.88C215.301 525.88 213.261 527.84 213.261 530.78C213.261 533.68 215.261 535.7 218.001 535.7C219.261 535.7 220.301 535.3 221.021 534.52V535.06C221.021 536.6 219.981 537.4 218.381 537.4C217.181 537.4 216.261 536.94 215.161 536.12L213.741 538C215.121 539.22 216.741 539.84 218.601 539.84C221.701 539.84 223.721 538.12 223.721 534.9V526.1H221.241ZM221.061 530.74C221.061 532.44 219.921 533.42 218.561 533.42C217.121 533.42 216.001 532.36 216.001 530.76C216.001 529.16 217.101 528.18 218.561 528.18C219.941 528.18 221.061 529.04 221.061 530.74Z" fill="white"/>
<path d="M1184.31 235.07C1117.86 195.2 1042.53 150 898.379 150C754.229 150 678.899 195.2 612.449 235.07C551.659 271.55 499.159 303.07 388.249 303.07C277.339 303.07 224.839 271.58 164.059 235.07C119.439 208.3 70.8086 179.13 0.0585938 162.84V287.23C38.8186 299.86 69.3586 318.18 102.339 337.97C168.799 377.85 244.119 423.04 388.269 423.04C532.419 423.04 607.749 377.85 674.199 337.97C734.989 301.5 787.489 269.97 898.399 269.97C1009.31 269.97 1061.81 301.47 1122.59 337.97C1167.52 364.97 1216.5 394.32 1288.06 410.53V286.31C1248.59 273.64 1217.7 255.11 1184.31 235.07Z" fill="black"/>
<path d="M349.63 360.65L349.5 362.65C359.95 363.36 370.87 363.77 381.95 363.88V361.88C370.93 361.76 360.05 361.35 349.63 360.65ZM446.56 358.93C436.17 360.05 425.33 360.86 414.32 361.34L414.41 363.34C425.46 362.86 436.34 362.04 446.78 360.92L446.56 358.93ZM285.62 351.93L285.2 353.93C295.53 356.15 306.29 358.02 317.2 359.49L317.47 357.49C306.61 355.95 295.9 354.09 285.62 351.88V351.93ZM510.06 347.29C499.87 350.04 489.27 352.42 478.55 354.38L478.91 356.38C489.68 354.38 500.34 352.01 510.58 349.26L510.06 347.29ZM223.87 333L223.12 334.859C233.18 338.919 243.49 342.56 253.75 345.7L254.34 343.79C244.13 340.65 233.88 337.02 223.87 332.98V333ZM570.73 325.17C560.65 329.82 550.88 333.86 540.87 337.51L541.55 339.39C551.62 335.72 561.44 331.66 571.55 326.98L570.73 325.17ZM165.83 304.45L164.83 306.19C175.13 312.03 184.5 317.04 193.48 321.5L194.37 319.71C185.46 315.27 176.1 310.28 165.83 304.45ZM627.75 294.52C616.67 301.08 608 306.04 599.62 310.59L600.57 312.35C608.97 307.79 617.67 302.82 628.77 296.24L627.75 294.52ZM1153.98 285.52L1147.49 281.63L1146.49 283.34L1152.98 287.23C1159.98 291.42 1167.17 295.75 1174.36 299.96L1175.36 298.23C1168.16 294.05 1160.95 289.72 1153.98 285.54V285.52ZM133.69 285.52C125.97 280.88 117.98 276.09 110.01 271.45L109.01 273.18C117.01 277.82 124.95 282.6 132.67 287.18L136.87 289.7L137.87 287.99L133.69 285.52ZM683.69 261.69C673.14 267.48 663.11 273.38 655.55 277.88L656.55 279.6C664.09 275.11 674.09 269.22 684.63 263.44L683.69 261.69ZM1090.69 250.09L1089.81 251.89C1098.81 256.31 1108.21 261.25 1118.43 267.01L1119.43 265.27C1109.21 259.49 1099.82 254.53 1090.75 250.09H1090.69ZM52.23 241.7L51.43 243.54C60.98 247.67 70.53 252.23 80.62 257.48L81.54 255.71C71.46 250.43 61.88 245.85 52.29 241.7H52.23ZM742.52 234.3C732.52 238.04 722.72 242.16 712.59 246.91L713.44 248.72C723.52 244 733.26 239.89 743.22 236.18L742.52 234.3ZM1030.28 226.3L1029.71 228.22C1039.95 231.22 1050.22 234.82 1060.24 238.78L1060.98 236.92C1050.96 232.96 1040.63 229.39 1030.34 226.32L1030.28 226.3ZM3.11 224.3L0.110001 223.48H0V225.55L0.68 225.74C1.84 226.05 3.01 226.38 4.17 226.74L6.66 227.44L9.09 228.16C9.89 228.39 10.69 228.63 11.48 228.88C13 229.34 14.48 229.81 16.02 230.29C17.78 230.85 19.53 231.42 21.27 232L21.91 230.1C15.8 228.01 9.52 226.09 3.17 224.33L3.11 224.3ZM805.05 216.93C794.31 218.93 783.67 221.42 773.42 224.26L773.95 226.19C784.15 223.37 794.74 220.91 805.42 218.89L805.05 216.93ZM966.76 212.99L966.5 214.99C977.36 216.4 988.09 218.19 998.37 220.33L998.78 218.33C988.51 216.23 977.73 214.43 966.82 213.02L966.76 212.99ZM869.5 209.52C858.45 210.06 847.57 210.929 837.15 212.109L837.38 214.109C847.75 212.939 858.59 212.11 869.6 211.54L869.5 209.52ZM902 208.85V210.85C913 210.91 923.91 211.27 934.33 211.92L934.46 209.92C924.04 209.3 913.12 208.94 902.06 208.88L902 208.85Z" fill="#00DA63"/>
<path d="M1187.8 339.45C1194.09 339.45 1200.24 337.585 1205.47 334.09C1210.7 330.596 1214.77 325.63 1217.18 319.819C1219.59 314.008 1220.22 307.614 1218.99 301.446C1217.76 295.277 1214.73 289.611 1210.29 285.164C1205.84 280.716 1200.17 277.688 1194 276.461C1187.84 275.234 1181.44 275.863 1175.63 278.27C1169.82 280.677 1164.85 284.753 1161.36 289.983C1157.87 295.212 1156 301.36 1156 307.65C1156 316.084 1159.35 324.172 1165.31 330.136C1171.28 336.099 1179.37 339.45 1187.8 339.45Z" fill="#00DA63"/>
<path d="M1204.44 298.439C1203.92 297.202 1203.16 296.08 1202.2 295.139C1201.22 294.167 1200.03 293.42 1198.73 292.949C1197.47 292.485 1196.14 292.255 1194.8 292.269C1193.47 292.278 1192.15 292.522 1190.9 292.989C1189.62 293.475 1188.45 294.225 1187.47 295.189L1180.86 301.769L1178.22 304.369C1178.03 304.56 1177.8 304.707 1177.55 304.799C1177.25 304.899 1176.93 304.95 1176.61 304.949C1176.27 304.951 1175.93 304.887 1175.61 304.759C1175.36 304.67 1175.13 304.527 1174.94 304.339C1174.75 304.155 1174.59 303.929 1174.49 303.679C1174.38 303.434 1174.33 303.167 1174.34 302.899C1174.33 302.25 1174.56 301.619 1174.97 301.119L1177.39 298.459L1171.62 292.779L1168.9 295.679C1167.99 296.699 1167.29 297.889 1166.84 299.179C1166.4 300.404 1166.19 301.698 1166.21 302.999C1166.24 304.277 1166.49 305.54 1166.96 306.729C1167.45 307.972 1168.2 309.097 1169.15 310.029C1170.15 311.02 1171.34 311.784 1172.66 312.269C1173.91 312.736 1175.24 312.983 1176.57 312.999C1177.07 313 1177.57 312.97 1178.07 312.909C1178.91 312.79 1179.74 312.579 1180.53 312.279C1181.82 311.787 1182.99 311.035 1183.97 310.069L1186.63 307.449L1193.23 300.959C1193.43 300.761 1193.68 300.607 1193.94 300.509C1194.52 300.282 1195.16 300.282 1195.73 300.509C1196 300.607 1196.24 300.761 1196.44 300.959C1196.64 301.147 1196.79 301.371 1196.89 301.619C1196.99 301.863 1197.04 302.125 1197.03 302.389C1197.04 303.042 1196.82 303.677 1196.4 304.179L1185.98 314.659C1185.22 315.421 1184.79 316.453 1184.79 317.529C1184.79 318.606 1185.22 319.638 1185.98 320.399L1194.67 329.189L1200.88 323.429L1194.88 317.179L1195.77 316.279L1202.51 309.539C1203.43 308.51 1204.14 307.311 1204.6 306.009C1205.04 304.781 1205.25 303.483 1205.23 302.179C1205.21 300.894 1204.94 299.626 1204.44 298.439Z" fill="white"/>
</svg>
