<svg width="1289" height="611" viewBox="0 0 1289 611" fill="none" xmlns="http://www.w3.org/2000/svg">
<path d="M271 171.287V328H273V171C272.344 171.173 271.674 171.269 271 171.287Z" fill="#00DA63"/>
<path d="M166.67 115.54C166.67 119.04 169.03 121.24 172.27 121.24C175.47 121.24 177.87 119.04 177.87 115.54V107.8H175.17V115.74C175.17 117.66 174.01 118.74 172.27 118.74C170.57 118.74 169.37 117.66 169.37 115.74V107.8H166.67V115.54ZM180.793 121H183.493V107.8H180.793V121ZM185.056 123.42H187.916L198.376 105.4H195.516L185.056 123.42ZM199.834 115.54C199.834 119.04 202.194 121.24 205.434 121.24C208.634 121.24 211.034 119.04 211.034 115.54V107.8H208.334V115.74C208.334 117.66 207.174 118.74 205.434 118.74C203.734 118.74 202.534 117.66 202.534 115.74V107.8H199.834V115.54ZM224.438 121L220.098 114.28L224.158 107.8H221.098L218.578 111.96L216.038 107.8H212.958L217.078 114.28L212.698 121H215.778L218.578 116.62L221.378 121H224.438ZM238.868 106V112.06C238.148 111.28 237.168 110.88 235.908 110.88C233.148 110.88 231.108 113.08 231.108 116.06C231.108 119.04 233.148 121.24 235.908 121.24C237.268 121.24 238.428 120.72 239.088 119.78V121H241.568V106H238.868ZM238.908 116.06C238.908 117.84 237.768 118.78 236.408 118.78C234.948 118.78 233.848 117.7 233.848 116.04C233.848 114.42 234.968 113.32 236.408 113.32C237.768 113.32 238.908 114.3 238.908 116.06ZM253.346 116.96C253.466 116.46 253.526 115.96 253.526 115.48C253.526 112.9 251.606 110.88 248.866 110.88C246.006 110.82 243.626 113.2 243.686 116.06C243.626 118.92 246.046 121.3 249.106 121.24C250.566 121.24 251.886 120.74 253.066 119.76L251.946 117.92C251.086 118.58 250.166 118.92 249.186 118.92C247.746 118.92 246.726 118.22 246.406 116.96H253.346ZM246.406 115.06C246.706 113.84 247.626 113.06 248.766 113.06C249.946 113.06 250.886 113.84 250.906 115.06H246.406ZM254.733 119.32C255.633 120.52 257.093 121.24 258.833 121.24C259.953 121.24 260.873 120.96 261.593 120.4C262.333 119.84 262.693 119.06 262.693 118.08C262.693 116.62 261.833 115.84 259.913 115.06L258.953 114.66C258.173 114.34 257.913 114.16 257.913 113.78C257.913 113.32 258.313 113.08 258.973 113.08C259.793 113.08 260.533 113.4 261.193 114.02L262.553 112.36C261.653 111.38 260.473 110.88 258.993 110.88C256.833 110.88 255.353 111.98 255.353 113.84C255.353 115.3 256.233 116.12 258.053 116.86L259.113 117.3C259.853 117.62 260.133 117.78 260.133 118.2C260.133 118.74 259.593 119.02 258.873 119.02C257.893 119.02 256.953 118.58 256.093 117.68L254.733 119.32ZM264.735 121H267.435V111.1H264.735V121ZM264.355 107.5C264.355 108.44 265.115 109.16 266.075 109.16C267.035 109.16 267.815 108.44 267.815 107.5C267.815 106.54 267.035 105.82 266.075 105.82C265.115 105.82 264.355 106.54 264.355 107.5ZM277.566 111.1V112.34C276.866 111.4 275.746 110.88 274.326 110.88C271.626 110.88 269.586 112.84 269.586 115.78C269.586 118.68 271.586 120.7 274.326 120.7C275.586 120.7 276.626 120.3 277.346 119.52V120.06C277.346 121.6 276.306 122.4 274.706 122.4C273.506 122.4 272.586 121.94 271.486 121.12L270.066 123C271.446 124.22 273.066 124.84 274.926 124.84C278.026 124.84 280.046 123.12 280.046 119.9V111.1H277.566ZM277.386 115.74C277.386 117.44 276.246 118.42 274.886 118.42C273.446 118.42 272.326 117.36 272.326 115.76C272.326 114.16 273.426 113.18 274.886 113.18C276.266 113.18 277.386 114.04 277.386 115.74ZM291.823 114.86C291.823 112.46 290.403 110.88 288.103 110.88C286.923 110.88 285.903 111.3 285.203 112V111.1H282.723V121H285.423V115.22C285.423 114.08 286.203 113.3 287.303 113.3C288.403 113.3 289.143 114.08 289.143 115.22V121H291.823V114.86ZM303.188 109.72C303.188 108.6 303.768 108.18 304.988 108.18C305.228 108.18 305.488 108.2 305.788 108.24V105.98C305.328 105.84 304.828 105.76 304.308 105.76C301.928 105.76 300.488 107 300.488 109.48V111.1H299.088V113.38H300.488V121H303.188V113.38H305.368V111.1H303.188V109.72ZM306.303 116.04C306.243 118.86 308.683 121.28 311.583 121.22C314.483 121.28 316.983 118.86 316.923 116.04C316.983 113.22 314.503 110.84 311.603 110.88C308.703 110.82 306.243 113.22 306.303 116.04ZM314.163 116.06C314.163 117.6 313.063 118.74 311.603 118.74C310.103 118.74 309.043 117.6 309.043 116.06C309.043 114.48 310.103 113.34 311.603 113.34C313.063 113.34 314.163 114.52 314.163 116.06ZM325.111 111.1C324.851 111.02 324.571 110.98 324.231 110.98C323.131 110.98 322.171 111.46 321.511 112.28V111.1H319.031V121H321.731V116.06C321.731 114.36 322.771 113.48 324.391 113.48H325.111V111.1ZM332.571 121H335.271V115.98H340.171V113.54H335.271V110.24H341.251V107.8H332.571V121ZM350.886 115.12C350.886 112.38 349.226 110.88 346.646 110.88C344.906 110.88 343.466 111.56 342.326 112.92L343.726 114.58C344.606 113.64 345.326 113.22 346.346 113.22C347.546 113.22 348.186 113.86 348.186 114.96V115.4H345.706C343.406 115.4 341.966 116.5 341.966 118.28C341.966 120.02 343.286 121.24 345.386 121.24C346.646 121.24 347.686 120.78 348.406 120.04V121H350.886V115.12ZM348.186 117.3C348.186 118.44 347.286 119.26 346.106 119.26C345.246 119.26 344.686 118.84 344.686 118.18C344.686 117.52 345.186 117.18 346.066 117.18H348.186V117.3ZM359.565 111.1C359.305 111.02 359.025 110.98 358.685 110.98C357.585 110.98 356.625 111.46 355.965 112.28V111.1H353.485V121H356.185V116.06C356.185 114.36 357.225 113.48 358.845 113.48H359.565V111.1ZM376.498 114.86C376.498 112.46 375.078 110.88 372.758 110.88C371.398 110.88 370.238 111.42 369.458 112.3C368.798 111.36 367.818 110.88 366.518 110.88C365.378 110.88 364.378 111.28 363.718 111.98V111.1H361.238V121H363.938V115.24C363.938 114.06 364.658 113.32 365.758 113.32C366.818 113.32 367.518 114.06 367.518 115.24V121H370.218V115.18C370.218 114.08 370.978 113.32 372.038 113.32C373.098 113.32 373.798 114.06 373.798 115.24V121H376.498V114.86ZM216.352 140.12L214.272 138.64C214.032 139 213.792 139.34 213.552 139.66C213.212 140.16 212.832 140.72 212.412 141.3L210.472 138.96C211.992 137.7 212.632 136.72 212.632 135.46C212.632 133.76 211.272 132.56 209.332 132.56C207.272 132.56 205.912 133.82 205.912 135.72C205.912 136.68 206.272 137.56 207.072 138.6C206.092 139.38 205.392 140.06 204.992 140.64C204.612 141.22 204.412 141.86 204.412 142.56C204.412 144.74 206.192 146.24 208.752 146.24C210.072 146.24 211.272 145.84 212.332 145.02L213.132 146H216.292L214.072 143.3C214.412 142.88 215.012 142.06 215.832 140.88L216.352 140.12ZM208.332 135.76C208.332 135.2 208.712 134.86 209.292 134.86C209.872 134.86 210.212 135.18 210.212 135.72C210.212 136.26 209.932 136.66 209.152 137.28L209.112 137.3C208.532 136.58 208.332 136.22 208.332 135.76ZM210.772 143.12C210.172 143.62 209.552 143.86 208.912 143.86C207.852 143.86 207.112 143.24 207.112 142.3C207.112 141.66 207.392 141.26 208.492 140.36L210.772 143.12ZM224.094 146H232.574V143.56H226.794V132.8H224.094V146ZM234.403 146H237.103V136.1H234.403V146ZM234.023 132.5C234.023 133.44 234.783 134.16 235.743 134.16C236.703 134.16 237.483 133.44 237.483 132.5C237.483 131.54 236.703 130.82 235.743 130.82C234.783 130.82 234.023 131.54 234.023 132.5ZM255.034 139.86C255.034 137.46 253.614 135.88 251.294 135.88C249.934 135.88 248.774 136.42 247.994 137.3C247.334 136.36 246.354 135.88 245.054 135.88C243.914 135.88 242.914 136.28 242.254 136.98V136.1H239.774V146H242.474V140.24C242.474 139.06 243.194 138.32 244.294 138.32C245.354 138.32 246.054 139.06 246.054 140.24V146H248.754V140.18C248.754 139.08 249.514 138.32 250.574 138.32C251.634 138.32 252.334 139.06 252.334 140.24V146H255.034V139.86ZM257.606 146H260.306V136.1H257.606V146ZM257.226 132.5C257.226 133.44 257.986 134.16 258.946 134.16C259.906 134.16 260.686 133.44 260.686 132.5C260.686 131.54 259.906 130.82 258.946 130.82C257.986 130.82 257.226 131.54 257.226 132.5ZM269.337 143.74C268.637 143.8 268.217 143.82 268.057 143.82C266.777 143.82 266.217 143.4 266.217 142.28V138.38H269.017V136.1H266.217V133.6H263.517V136.1H261.957V138.38H263.517V142.52C263.517 145 264.977 146.24 267.477 146.24C268.077 146.24 268.697 146.16 269.337 146V143.74ZM276.323 139.4C276.263 143.18 279.523 146.32 283.323 146.24C287.123 146.32 290.423 143.18 290.363 139.4C290.423 135.62 287.123 132.48 283.323 132.56C279.523 132.48 276.263 135.62 276.323 139.4ZM287.583 139.4C287.583 141.94 285.763 143.74 283.343 143.74C280.903 143.74 279.103 141.94 279.103 139.4C279.103 136.86 280.903 135.06 283.343 135.06C285.763 135.06 287.583 136.9 287.583 139.4ZM298.549 136.1C298.289 136.02 298.009 135.98 297.669 135.98C296.569 135.98 295.609 136.46 294.949 137.28V136.1H292.469V146H295.169V141.06C295.169 139.36 296.209 138.48 297.829 138.48H298.549V136.1ZM307.228 131V137.06C306.508 136.28 305.528 135.88 304.268 135.88C301.508 135.88 299.468 138.08 299.468 141.06C299.468 144.04 301.508 146.24 304.268 146.24C305.628 146.24 306.788 145.72 307.448 144.78V146H309.928V131H307.228ZM307.268 141.06C307.268 142.84 306.128 143.78 304.768 143.78C303.308 143.78 302.208 142.7 302.208 141.04C302.208 139.42 303.328 138.32 304.768 138.32C306.128 138.32 307.268 139.3 307.268 141.06ZM321.706 141.96C321.826 141.46 321.886 140.96 321.886 140.48C321.886 137.9 319.966 135.88 317.226 135.88C314.366 135.82 311.986 138.2 312.046 141.06C311.986 143.92 314.406 146.3 317.466 146.24C318.926 146.24 320.246 145.74 321.426 144.76L320.306 142.92C319.446 143.58 318.526 143.92 317.546 143.92C316.106 143.92 315.086 143.22 314.766 141.96H321.706ZM314.766 140.06C315.066 138.84 315.986 138.06 317.126 138.06C318.306 138.06 319.246 138.84 319.266 140.06H314.766ZM330.072 136.1C329.812 136.02 329.532 135.98 329.192 135.98C328.092 135.98 327.132 136.46 326.472 137.28V136.1H323.992V146H326.692V141.06C326.692 139.36 327.732 138.48 329.352 138.48H330.072V136.1ZM330.846 144.32C331.746 145.52 333.206 146.24 334.946 146.24C336.066 146.24 336.986 145.96 337.706 145.4C338.446 144.84 338.806 144.06 338.806 143.08C338.806 141.62 337.946 140.84 336.026 140.06L335.066 139.66C334.286 139.34 334.026 139.16 334.026 138.78C334.026 138.32 334.426 138.08 335.086 138.08C335.906 138.08 336.646 138.4 337.306 139.02L338.666 137.36C337.766 136.38 336.586 135.88 335.106 135.88C332.946 135.88 331.466 136.98 331.466 138.84C331.466 140.3 332.346 141.12 334.166 141.86L335.226 142.3C335.966 142.62 336.246 142.78 336.246 143.2C336.246 143.74 335.706 144.02 334.986 144.02C334.006 144.02 333.066 143.58 332.206 142.68L330.846 144.32Z" fill="white"/>
<path d="M455 360.287V517H457V360C456.344 360.173 455.674 360.269 455 360.287Z" fill="#00DA63"/>
<path d="M367.42 555H370.12V549.98H375.02V547.54H370.12V544.24H376.1V541.8H367.42V555ZM385.736 549.12C385.736 546.38 384.076 544.88 381.496 544.88C379.756 544.88 378.316 545.56 377.176 546.92L378.576 548.58C379.456 547.64 380.176 547.22 381.196 547.22C382.396 547.22 383.036 547.86 383.036 548.96V549.4H380.556C378.256 549.4 376.816 550.5 376.816 552.28C376.816 554.02 378.136 555.24 380.236 555.24C381.496 555.24 382.536 554.78 383.256 554.04V555H385.736V549.12ZM383.036 551.3C383.036 552.44 382.136 553.26 380.956 553.26C380.096 553.26 379.536 552.84 379.536 552.18C379.536 551.52 380.036 551.18 380.916 551.18H383.036V551.3ZM394.414 545.1C394.154 545.02 393.874 544.98 393.534 544.98C392.434 544.98 391.474 545.46 390.814 546.28V545.1H388.334V555H391.034V550.06C391.034 548.36 392.074 547.48 393.694 547.48H394.414V545.1ZM411.348 548.86C411.348 546.46 409.928 544.88 407.608 544.88C406.248 544.88 405.088 545.42 404.308 546.3C403.648 545.36 402.668 544.88 401.368 544.88C400.228 544.88 399.228 545.28 398.568 545.98V545.1H396.088V555H398.788V549.24C398.788 548.06 399.508 547.32 400.608 547.32C401.668 547.32 402.368 548.06 402.368 549.24V555H405.068V549.18C405.068 548.08 405.828 547.32 406.888 547.32C407.948 547.32 408.648 548.06 408.648 549.24V555H411.348V548.86ZM431.046 549.12L428.966 547.64C428.726 548 428.486 548.34 428.246 548.66C427.906 549.16 427.526 549.72 427.106 550.3L425.166 547.96C426.686 546.7 427.326 545.72 427.326 544.46C427.326 542.76 425.966 541.56 424.026 541.56C421.966 541.56 420.606 542.82 420.606 544.72C420.606 545.68 420.966 546.56 421.766 547.6C420.786 548.38 420.086 549.06 419.686 549.64C419.306 550.22 419.106 550.86 419.106 551.56C419.106 553.74 420.886 555.24 423.446 555.24C424.766 555.24 425.966 554.84 427.026 554.02L427.826 555H430.986L428.766 552.3C429.106 551.88 429.706 551.06 430.526 549.88L431.046 549.12ZM423.026 544.76C423.026 544.2 423.406 543.86 423.986 543.86C424.566 543.86 424.906 544.18 424.906 544.72C424.906 545.26 424.626 545.66 423.846 546.28L423.806 546.3C423.226 545.58 423.026 545.22 423.026 544.76ZM425.466 552.12C424.866 552.62 424.246 552.86 423.606 552.86C422.546 552.86 421.806 552.24 421.806 551.3C421.806 550.66 422.086 550.26 423.186 549.36L425.466 552.12ZM438.788 555H447.268V552.56H441.488V541.8H438.788V555ZM449.096 555H451.796V545.1H449.096V555ZM448.716 541.5C448.716 542.44 449.476 543.16 450.436 543.16C451.396 543.16 452.176 542.44 452.176 541.5C452.176 540.54 451.396 539.82 450.436 539.82C449.476 539.82 448.716 540.54 448.716 541.5ZM469.727 548.86C469.727 546.46 468.307 544.88 465.987 544.88C464.627 544.88 463.467 545.42 462.687 546.3C462.027 545.36 461.047 544.88 459.747 544.88C458.607 544.88 457.607 545.28 456.947 545.98V545.1H454.467V555H457.167V549.24C457.167 548.06 457.887 547.32 458.987 547.32C460.047 547.32 460.747 548.06 460.747 549.24V555H463.447V549.18C463.447 548.08 464.207 547.32 465.267 547.32C466.327 547.32 467.027 548.06 467.027 549.24V555H469.727V548.86ZM472.299 555H474.999V545.1H472.299V555ZM471.919 541.5C471.919 542.44 472.679 543.16 473.639 543.16C474.599 543.16 475.379 542.44 475.379 541.5C475.379 540.54 474.599 539.82 473.639 539.82C472.679 539.82 471.919 540.54 471.919 541.5ZM484.03 552.74C483.33 552.8 482.91 552.82 482.75 552.82C481.47 552.82 480.91 552.4 480.91 551.28V547.38H483.71V545.1H480.91V542.6H478.21V545.1H476.65V547.38H478.21V551.52C478.21 554 479.67 555.24 482.17 555.24C482.77 555.24 483.39 555.16 484.03 555V552.74ZM491.016 548.4C490.956 552.18 494.216 555.32 498.016 555.24C501.816 555.32 505.116 552.18 505.056 548.4C505.116 544.62 501.816 541.48 498.016 541.56C494.216 541.48 490.956 544.62 491.016 548.4ZM502.276 548.4C502.276 550.94 500.456 552.74 498.036 552.74C495.596 552.74 493.796 550.94 493.796 548.4C493.796 545.86 495.596 544.06 498.036 544.06C500.456 544.06 502.276 545.9 502.276 548.4ZM513.242 545.1C512.982 545.02 512.702 544.98 512.362 544.98C511.262 544.98 510.302 545.46 509.642 546.28V545.1H507.162V555H509.862V550.06C509.862 548.36 510.902 547.48 512.522 547.48H513.242V545.1ZM521.921 540V546.06C521.201 545.28 520.221 544.88 518.961 544.88C516.201 544.88 514.161 547.08 514.161 550.06C514.161 553.04 516.201 555.24 518.961 555.24C520.321 555.24 521.481 554.72 522.141 553.78V555H524.621V540H521.921ZM521.961 550.06C521.961 551.84 520.821 552.78 519.461 552.78C518.001 552.78 516.901 551.7 516.901 550.04C516.901 548.42 518.021 547.32 519.461 547.32C520.821 547.32 521.961 548.3 521.961 550.06ZM536.399 550.96C536.519 550.46 536.579 549.96 536.579 549.48C536.579 546.9 534.659 544.88 531.919 544.88C529.059 544.82 526.679 547.2 526.739 550.06C526.679 552.92 529.099 555.3 532.159 555.24C533.619 555.24 534.939 554.74 536.119 553.76L534.999 551.92C534.139 552.58 533.219 552.92 532.239 552.92C530.799 552.92 529.779 552.22 529.459 550.96H536.399ZM529.459 549.06C529.759 547.84 530.679 547.06 531.819 547.06C532.999 547.06 533.939 547.84 533.959 549.06H529.459ZM544.766 545.1C544.506 545.02 544.226 544.98 543.886 544.98C542.786 544.98 541.826 545.46 541.166 546.28V545.1H538.686V555H541.386V550.06C541.386 548.36 542.426 547.48 544.046 547.48H544.766V545.1ZM348.194 573.4C348.114 577.18 351.354 580.32 355.214 580.24C357.754 580.24 359.914 579.02 361.054 576.96L359.014 575.52C358.074 577 356.814 577.74 355.234 577.74C352.774 577.74 350.974 575.94 350.974 573.42C350.974 570.9 352.774 569.06 355.234 569.06C356.814 569.06 358.074 569.8 359.014 571.28L361.054 569.84C359.874 567.78 357.734 566.56 355.234 566.56C351.394 566.48 348.134 569.62 348.194 573.4ZM362.413 575.04C362.353 577.86 364.793 580.28 367.693 580.22C370.593 580.28 373.093 577.86 373.033 575.04C373.093 572.22 370.613 569.84 367.713 569.88C364.813 569.82 362.353 572.22 362.413 575.04ZM370.273 575.06C370.273 576.6 369.173 577.74 367.713 577.74C366.213 577.74 365.153 576.6 365.153 575.06C365.153 573.48 366.213 572.34 367.713 572.34C369.173 572.34 370.273 573.52 370.273 575.06ZM384.241 573.86C384.241 571.46 382.821 569.88 380.521 569.88C379.341 569.88 378.321 570.3 377.621 571V570.1H375.141V580H377.841V574.22C377.841 573.08 378.621 572.3 379.721 572.3C380.821 572.3 381.561 573.08 381.561 574.22V580H384.241V573.86ZM393.2 577.74C392.5 577.8 392.08 577.82 391.92 577.82C390.64 577.82 390.08 577.4 390.08 576.28V572.38H392.88V570.1H390.08V567.6H387.38V570.1H385.82V572.38H387.38V576.52C387.38 579 388.84 580.24 391.34 580.24C391.94 580.24 392.56 580.16 393.2 580V577.74ZM401.24 570.1C400.98 570.02 400.7 569.98 400.36 569.98C399.26 569.98 398.3 570.46 397.64 571.28V570.1H395.16V580H397.86V575.06C397.86 573.36 398.9 572.48 400.52 572.48H401.24V570.1ZM411.019 574.12C411.019 571.38 409.359 569.88 406.779 569.88C405.039 569.88 403.599 570.56 402.459 571.92L403.859 573.58C404.739 572.64 405.459 572.22 406.479 572.22C407.679 572.22 408.319 572.86 408.319 573.96V574.4H405.839C403.539 574.4 402.099 575.5 402.099 577.28C402.099 579.02 403.419 580.24 405.519 580.24C406.779 580.24 407.819 579.78 408.539 579.04V580H411.019V574.12ZM408.319 576.3C408.319 577.44 407.419 578.26 406.239 578.26C405.379 578.26 404.819 577.84 404.819 577.18C404.819 576.52 405.319 576.18 406.199 576.18H408.319V576.3ZM413.057 575.04C413.017 577.9 415.457 580.3 418.357 580.24C420.277 580.24 421.797 579.3 422.657 577.78L420.777 576.34C420.137 577.24 419.417 577.76 418.397 577.76C416.877 577.76 415.797 576.62 415.797 575.04C415.797 573.5 416.877 572.34 418.397 572.34C419.437 572.34 420.157 572.88 420.777 573.78L422.657 572.32C421.797 570.8 420.297 569.88 418.357 569.88C415.417 569.88 413.057 572.14 413.057 575.04ZM431.013 577.74C430.313 577.8 429.893 577.82 429.733 577.82C428.452 577.82 427.893 577.4 427.893 576.28V572.38H430.693V570.1H427.893V567.6H425.193V570.1H423.633V572.38H425.193V576.52C425.193 579 426.653 580.24 429.153 580.24C429.753 580.24 430.373 580.16 431.013 580V577.74ZM438.758 580H443.078C447.258 580.06 450.338 577.18 450.278 573.36C450.338 569.46 447.258 566.76 443.078 566.8H438.758V580ZM441.458 577.56V569.24H443.058C445.758 569.24 447.498 570.8 447.498 573.36C447.498 575.9 445.718 577.56 443.058 577.56H441.458ZM461.487 575.96C461.607 575.46 461.667 574.96 461.667 574.48C461.667 571.9 459.747 569.88 457.007 569.88C454.147 569.82 451.767 572.2 451.827 575.06C451.767 577.92 454.187 580.3 457.247 580.24C458.707 580.24 460.027 579.74 461.207 578.76L460.087 576.92C459.227 577.58 458.307 577.92 457.327 577.92C455.887 577.92 454.867 577.22 454.547 575.96H461.487ZM454.547 574.06C454.847 572.84 455.767 572.06 456.907 572.06C458.087 572.06 459.027 572.84 459.047 574.06H454.547ZM470.123 570.1L467.623 575.7L465.123 570.1H462.283L467.183 580.24H468.083L472.983 570.1H470.123ZM483.264 575.96C483.384 575.46 483.444 574.96 483.444 574.48C483.444 571.9 481.524 569.88 478.784 569.88C475.924 569.82 473.544 572.2 473.604 575.06C473.544 577.92 475.964 580.3 479.024 580.24C480.484 580.24 481.804 579.74 482.984 578.76L481.864 576.92C481.004 577.58 480.084 577.92 479.104 577.92C477.664 577.92 476.644 577.22 476.324 575.96H483.264ZM476.324 574.06C476.624 572.84 477.544 572.06 478.684 572.06C479.864 572.06 480.804 572.84 480.824 574.06H476.324ZM485.551 580H488.251V565H485.551V580ZM490.362 575.04C490.302 577.86 492.742 580.28 495.642 580.22C498.542 580.28 501.042 577.86 500.982 575.04C501.042 572.22 498.562 569.84 495.662 569.88C492.762 569.82 490.302 572.22 490.362 575.04ZM498.222 575.06C498.222 576.6 497.122 577.74 495.662 577.74C494.162 577.74 493.102 576.6 493.102 575.06C493.102 573.48 494.162 572.34 495.662 572.34C497.122 572.34 498.222 573.52 498.222 575.06ZM513.55 575.04C513.55 572.08 511.51 569.88 508.75 569.88C507.39 569.88 506.23 570.4 505.57 571.34V570.1H503.09V583.6H505.79V579.04C506.51 579.82 507.55 580.24 508.75 580.24C511.51 580.24 513.55 578 513.55 575.04ZM510.81 575.06C510.81 576.68 509.69 577.78 508.25 577.78C506.87 577.78 505.75 576.8 505.75 575.04C505.75 573.26 506.89 572.32 508.25 572.32C509.71 572.32 510.81 573.4 510.81 575.06ZM530.928 573.86C530.928 571.46 529.508 569.88 527.188 569.88C525.828 569.88 524.668 570.42 523.888 571.3C523.228 570.36 522.248 569.88 520.948 569.88C519.808 569.88 518.808 570.28 518.148 570.98V570.1H515.668V580H518.368V574.24C518.368 573.06 519.088 572.32 520.188 572.32C521.248 572.32 521.948 573.06 521.948 574.24V580H524.648V574.18C524.648 573.08 525.408 572.32 526.468 572.32C527.528 572.32 528.228 573.06 528.228 574.24V580H530.928V573.86ZM542.6 575.96C542.72 575.46 542.78 574.96 542.78 574.48C542.78 571.9 540.86 569.88 538.12 569.88C535.26 569.82 532.88 572.2 532.94 575.06C532.88 577.92 535.3 580.3 538.36 580.24C539.82 580.24 541.14 579.74 542.32 578.76L541.2 576.92C540.34 577.58 539.42 577.92 538.44 577.92C537 577.92 535.98 577.22 535.66 575.96H542.6ZM535.66 574.06C535.96 572.84 536.88 572.06 538.02 572.06C539.2 572.06 540.14 572.84 540.16 574.06H535.66ZM553.987 573.86C553.987 571.46 552.567 569.88 550.267 569.88C549.087 569.88 548.067 570.3 547.367 571V570.1H544.887V580H547.587V574.22C547.587 573.08 548.367 572.3 549.467 572.3C550.567 572.3 551.307 573.08 551.307 574.22V580H553.987V573.86ZM562.946 577.74C562.246 577.8 561.826 577.82 561.666 577.82C560.386 577.82 559.826 577.4 559.826 576.28V572.38H562.626V570.1H559.826V567.6H557.126V570.1H555.566V572.38H557.126V576.52C557.126 579 558.586 580.24 561.086 580.24C561.686 580.24 562.306 580.16 562.946 580V577.74ZM378.483 603.28H381.063V599.74H384.463V597.44H381.063V593.92H378.483V597.44H375.043V599.74H378.483V603.28ZM392.459 605H395.159V591.8H392.459V605ZM407.004 598.86C407.004 596.46 405.584 594.88 403.284 594.88C402.104 594.88 401.084 595.3 400.384 596V595.1H397.904V605H400.604V599.22C400.604 598.08 401.384 597.3 402.484 597.3C403.584 597.3 404.324 598.08 404.324 599.22V605H407.004V598.86ZM415.964 602.74C415.264 602.8 414.844 602.82 414.684 602.82C413.404 602.82 412.844 602.4 412.844 601.28V597.38H415.644V595.1H412.844V592.6H410.144V595.1H408.584V597.38H410.144V601.52C410.144 604 411.604 605.24 414.104 605.24C414.704 605.24 415.324 605.16 415.964 605V602.74ZM426.829 600.96C426.949 600.46 427.009 599.96 427.009 599.48C427.009 596.9 425.089 594.88 422.349 594.88C419.489 594.82 417.109 597.2 417.169 600.06C417.109 602.92 419.529 605.3 422.589 605.24C424.049 605.24 425.369 604.74 426.549 603.76L425.429 601.92C424.569 602.58 423.649 602.92 422.669 602.92C421.229 602.92 420.209 602.22 419.889 600.96H426.829ZM419.889 599.06C420.189 597.84 421.109 597.06 422.249 597.06C423.429 597.06 424.369 597.84 424.389 599.06H419.889ZM435.195 595.1C434.935 595.02 434.655 594.98 434.315 594.98C433.215 594.98 432.255 595.46 431.595 596.28V595.1H429.115V605H431.815V600.06C431.815 598.36 432.855 597.48 434.475 597.48H435.195V595.1ZM445.969 598.86C445.969 596.46 444.549 594.88 442.249 594.88C441.069 594.88 440.049 595.3 439.349 596V595.1H436.869V605H439.569V599.22C439.569 598.08 440.349 597.3 441.449 597.3C442.549 597.3 443.289 598.08 443.289 599.22V605H445.969V598.86ZM456.869 599.12C456.869 596.38 455.209 594.88 452.629 594.88C450.889 594.88 449.449 595.56 448.309 596.92L449.709 598.58C450.589 597.64 451.309 597.22 452.329 597.22C453.529 597.22 454.169 597.86 454.169 598.96V599.4H451.689C449.389 599.4 447.949 600.5 447.949 602.28C447.949 604.02 449.269 605.24 451.369 605.24C452.629 605.24 453.669 604.78 454.389 604.04V605H456.869V599.12ZM454.169 601.3C454.169 602.44 453.269 603.26 452.089 603.26C451.229 603.26 450.669 602.84 450.669 602.18C450.669 601.52 451.169 601.18 452.049 601.18H454.169V601.3ZM459.467 605H462.167V590H459.467V605ZM472.607 605H475.307V594.24H479.547V591.8H468.387V594.24H472.607V605ZM488.801 600.96C488.921 600.46 488.981 599.96 488.981 599.48C488.981 596.9 487.061 594.88 484.321 594.88C481.461 594.82 479.081 597.2 479.141 600.06C479.081 602.92 481.501 605.3 484.561 605.24C486.021 605.24 487.341 604.74 488.521 603.76L487.401 601.92C486.541 602.58 485.621 602.92 484.641 602.92C483.201 602.92 482.181 602.22 481.861 600.96H488.801ZM481.861 599.06C482.161 597.84 483.081 597.06 484.221 597.06C485.401 597.06 486.341 597.84 486.361 599.06H481.861ZM490.188 603.32C491.088 604.52 492.548 605.24 494.288 605.24C495.408 605.24 496.328 604.96 497.048 604.4C497.788 603.84 498.148 603.06 498.148 602.08C498.148 600.62 497.288 599.84 495.368 599.06L494.408 598.66C493.628 598.34 493.368 598.16 493.368 597.78C493.368 597.32 493.768 597.08 494.428 597.08C495.248 597.08 495.988 597.4 496.648 598.02L498.008 596.36C497.108 595.38 495.928 594.88 494.448 594.88C492.288 594.88 490.808 595.98 490.808 597.84C490.808 599.3 491.688 600.12 493.508 600.86L494.568 601.3C495.308 601.62 495.588 601.78 495.588 602.2C495.588 602.74 495.048 603.02 494.328 603.02C493.348 603.02 492.408 602.58 491.548 601.68L490.188 603.32ZM506.55 602.74C505.85 602.8 505.43 602.82 505.27 602.82C503.99 602.82 503.43 602.4 503.43 601.28V597.38H506.23V595.1H503.43V592.6H500.73V595.1H499.17V597.38H500.73V601.52C500.73 604 502.19 605.24 504.69 605.24C505.29 605.24 505.91 605.16 506.55 605V602.74ZM508.51 605H511.21V595.1H508.51V605ZM508.13 591.5C508.13 592.44 508.89 593.16 509.85 593.16C510.81 593.16 511.59 592.44 511.59 591.5C511.59 590.54 510.81 589.82 509.85 589.82C508.89 589.82 508.13 590.54 508.13 591.5ZM522.981 598.86C522.981 596.46 521.561 594.88 519.261 594.88C518.081 594.88 517.061 595.3 516.361 596V595.1H513.881V605H516.581V599.22C516.581 598.08 517.361 597.3 518.461 597.3C519.561 597.3 520.301 598.08 520.301 599.22V605H522.981V598.86ZM533.04 595.1V596.34C532.34 595.4 531.22 594.88 529.8 594.88C527.1 594.88 525.06 596.84 525.06 599.78C525.06 602.68 527.06 604.7 529.8 604.7C531.06 604.7 532.1 604.3 532.82 603.52V604.06C532.82 605.6 531.78 606.4 530.18 606.4C528.98 606.4 528.06 605.94 526.96 605.12L525.54 607C526.92 608.22 528.54 608.84 530.4 608.84C533.5 608.84 535.52 607.12 535.52 603.9V595.1H533.04ZM532.86 599.74C532.86 601.44 531.72 602.42 530.36 602.42C528.92 602.42 527.8 601.36 527.8 599.76C527.8 598.16 528.9 597.18 530.36 597.18C531.74 597.18 532.86 598.04 532.86 599.74Z" fill="white"/>
<path d="M579 136.287V293H581V136C580.344 136.173 579.674 136.269 579 136.287Z" fill="#00DA63"/>
<path d="M472.241 86H474.941V80.98H479.841V78.54H474.941V75.24H480.921V72.8H472.241V86ZM488.551 76.1C488.291 76.02 488.011 75.98 487.671 75.98C486.571 75.98 485.611 76.46 484.951 77.28V76.1H482.471V86H485.171V81.06C485.171 79.36 486.211 78.48 487.831 78.48H488.551V76.1ZM489.469 81.04C489.409 83.86 491.849 86.28 494.749 86.22C497.649 86.28 500.149 83.86 500.089 81.04C500.149 78.22 497.669 75.84 494.769 75.88C491.869 75.82 489.409 78.22 489.469 81.04ZM497.329 81.06C497.329 82.6 496.229 83.74 494.769 83.74C493.269 83.74 492.209 82.6 492.209 81.06C492.209 79.48 493.269 78.34 494.769 78.34C496.229 78.34 497.329 79.52 497.329 81.06ZM511.297 79.86C511.297 77.46 509.877 75.88 507.577 75.88C506.397 75.88 505.377 76.3 504.677 77V76.1H502.197V86H504.897V80.22C504.897 79.08 505.677 78.3 506.777 78.3C507.877 78.3 508.617 79.08 508.617 80.22V86H511.297V79.86ZM520.257 83.74C519.557 83.8 519.137 83.82 518.977 83.82C517.697 83.82 517.137 83.4 517.137 82.28V78.38H519.937V76.1H517.137V73.6H514.437V76.1H512.877V78.38H514.437V82.52C514.437 85 515.897 86.24 518.397 86.24C518.997 86.24 519.617 86.16 520.257 86V83.74ZM531.122 81.96C531.242 81.46 531.302 80.96 531.302 80.48C531.302 77.9 529.382 75.88 526.642 75.88C523.782 75.82 521.402 78.2 521.462 81.06C521.402 83.92 523.822 86.3 526.882 86.24C528.342 86.24 529.662 85.74 530.842 84.76L529.722 82.92C528.862 83.58 527.942 83.92 526.962 83.92C525.522 83.92 524.502 83.22 524.182 81.96H531.122ZM524.182 80.06C524.482 78.84 525.402 78.06 526.542 78.06C527.722 78.06 528.662 78.84 528.682 80.06H524.182ZM542.508 79.86C542.508 77.46 541.088 75.88 538.788 75.88C537.608 75.88 536.588 76.3 535.888 77V76.1H533.408V86H536.108V80.22C536.108 79.08 536.888 78.3 537.988 78.3C539.088 78.3 539.828 79.08 539.828 80.22V86H542.508V79.86ZM552.308 71V77.06C551.588 76.28 550.608 75.88 549.348 75.88C546.588 75.88 544.548 78.08 544.548 81.06C544.548 84.04 546.588 86.24 549.348 86.24C550.708 86.24 551.868 85.72 552.528 84.78V86H555.008V71H552.308ZM552.348 81.06C552.348 82.84 551.208 83.78 549.848 83.78C548.388 83.78 547.288 82.7 547.288 81.04C547.288 79.42 548.408 78.32 549.848 78.32C551.208 78.32 552.348 79.3 552.348 81.06ZM563.471 86H567.791C571.971 86.06 575.051 83.18 574.991 79.36C575.051 75.46 571.971 72.76 567.791 72.8H563.471V86ZM566.171 83.56V75.24H567.771C570.471 75.24 572.211 76.8 572.211 79.36C572.211 81.9 570.431 83.56 567.771 83.56H566.171ZM586.2 81.96C586.32 81.46 586.38 80.96 586.38 80.48C586.38 77.9 584.46 75.88 581.72 75.88C578.86 75.82 576.48 78.2 576.54 81.06C576.48 83.92 578.9 86.3 581.96 86.24C583.42 86.24 584.74 85.74 585.92 84.76L584.8 82.92C583.94 83.58 583.02 83.92 582.04 83.92C580.6 83.92 579.58 83.22 579.26 81.96H586.2ZM579.26 80.06C579.56 78.84 580.48 78.06 581.62 78.06C582.8 78.06 583.74 78.84 583.76 80.06H579.26ZM594.836 76.1L592.336 81.7L589.836 76.1H586.996L591.896 86.24H592.796L597.696 76.1H594.836ZM607.977 81.96C608.097 81.46 608.157 80.96 608.157 80.48C608.157 77.9 606.237 75.88 603.497 75.88C600.637 75.82 598.257 78.2 598.317 81.06C598.257 83.92 600.677 86.3 603.737 86.24C605.197 86.24 606.517 85.74 607.697 84.76L606.577 82.92C605.717 83.58 604.797 83.92 603.817 83.92C602.377 83.92 601.357 83.22 601.037 81.96H607.977ZM601.037 80.06C601.337 78.84 602.257 78.06 603.397 78.06C604.577 78.06 605.517 78.84 605.537 80.06H601.037ZM610.264 86H612.964V71H610.264V86ZM615.075 81.04C615.015 83.86 617.455 86.28 620.355 86.22C623.255 86.28 625.755 83.86 625.695 81.04C625.755 78.22 623.275 75.84 620.375 75.88C617.475 75.82 615.015 78.22 615.075 81.04ZM622.935 81.06C622.935 82.6 621.835 83.74 620.375 83.74C618.875 83.74 617.815 82.6 617.815 81.06C617.815 79.48 618.875 78.34 620.375 78.34C621.835 78.34 622.935 79.52 622.935 81.06ZM638.263 81.04C638.263 78.08 636.223 75.88 633.463 75.88C632.103 75.88 630.943 76.4 630.283 77.34V76.1H627.803V89.6H630.503V85.04C631.223 85.82 632.263 86.24 633.463 86.24C636.223 86.24 638.263 84 638.263 81.04ZM635.523 81.06C635.523 82.68 634.403 83.78 632.963 83.78C631.583 83.78 630.463 82.8 630.463 81.04C630.463 79.26 631.603 78.32 632.963 78.32C634.423 78.32 635.523 79.4 635.523 81.06ZM655.641 79.86C655.641 77.46 654.221 75.88 651.901 75.88C650.541 75.88 649.381 76.42 648.601 77.3C647.941 76.36 646.961 75.88 645.661 75.88C644.521 75.88 643.521 76.28 642.861 76.98V76.1H640.381V86H643.081V80.24C643.081 79.06 643.801 78.32 644.901 78.32C645.961 78.32 646.661 79.06 646.661 80.24V86H649.361V80.18C649.361 79.08 650.121 78.32 651.181 78.32C652.241 78.32 652.941 79.06 652.941 80.24V86H655.641V79.86ZM667.313 81.96C667.433 81.46 667.493 80.96 667.493 80.48C667.493 77.9 665.573 75.88 662.833 75.88C659.973 75.82 657.593 78.2 657.653 81.06C657.593 83.92 660.013 86.3 663.073 86.24C664.533 86.24 665.853 85.74 667.033 84.76L665.913 82.92C665.053 83.58 664.133 83.92 663.153 83.92C661.713 83.92 660.693 83.22 660.373 81.96H667.313ZM660.373 80.06C660.673 78.84 661.593 78.06 662.733 78.06C663.913 78.06 664.853 78.84 664.873 80.06H660.373ZM678.7 79.86C678.7 77.46 677.28 75.88 674.98 75.88C673.8 75.88 672.78 76.3 672.08 77V76.1H669.6V86H672.3V80.22C672.3 79.08 673.08 78.3 674.18 78.3C675.28 78.3 676.02 79.08 676.02 80.22V86H678.7V79.86ZM687.659 83.74C686.959 83.8 686.539 83.82 686.379 83.82C685.099 83.82 684.539 83.4 684.539 82.28V78.38H687.339V76.1H684.539V73.6H681.839V76.1H680.279V78.38H681.839V82.52C681.839 85 683.299 86.24 685.799 86.24C686.399 86.24 687.019 86.16 687.659 86V83.74ZM484.053 104.94C484.053 109.6 485.853 112.5 488.413 113.64L489.473 112.02C487.633 110.8 486.413 108.7 486.413 104.94C486.413 101.16 487.633 99.06 489.473 97.84L488.413 96.22C485.853 97.36 484.053 100.24 484.053 104.94ZM491.518 111H494.218V105.98H499.118V103.54H494.218V100.24H500.198V97.8H491.518V111ZM509.833 105.12C509.833 102.38 508.173 100.88 505.593 100.88C503.853 100.88 502.413 101.56 501.273 102.92L502.673 104.58C503.553 103.64 504.273 103.22 505.293 103.22C506.493 103.22 507.133 103.86 507.133 104.96V105.4H504.653C502.353 105.4 500.913 106.5 500.913 108.28C500.913 110.02 502.233 111.24 504.333 111.24C505.593 111.24 506.633 110.78 507.353 110.04V111H509.833V105.12ZM507.133 107.3C507.133 108.44 506.233 109.26 505.053 109.26C504.193 109.26 503.633 108.84 503.633 108.18C503.633 107.52 504.133 107.18 505.013 107.18H507.133V107.3ZM518.512 101.1C518.252 101.02 517.972 100.98 517.632 100.98C516.532 100.98 515.572 101.46 514.912 102.28V101.1H512.432V111H515.132V106.06C515.132 104.36 516.172 103.48 517.792 103.48H518.512V101.1ZM535.446 104.86C535.446 102.46 534.026 100.88 531.706 100.88C530.346 100.88 529.186 101.42 528.406 102.3C527.746 101.36 526.766 100.88 525.466 100.88C524.326 100.88 523.326 101.28 522.666 101.98V101.1H520.186V111H522.886V105.24C522.886 104.06 523.606 103.32 524.706 103.32C525.766 103.32 526.466 104.06 526.466 105.24V111H529.166V105.18C529.166 104.08 529.926 103.32 530.986 103.32C532.046 103.32 532.746 104.06 532.746 105.24V111H535.446V104.86ZM555.143 105.12L553.063 103.64C552.823 104 552.583 104.34 552.343 104.66C552.003 105.16 551.623 105.72 551.203 106.3L549.263 103.96C550.783 102.7 551.423 101.72 551.423 100.46C551.423 98.76 550.063 97.56 548.123 97.56C546.063 97.56 544.703 98.82 544.703 100.72C544.703 101.68 545.063 102.56 545.863 103.6C544.883 104.38 544.183 105.06 543.783 105.64C543.403 106.22 543.203 106.86 543.203 107.56C543.203 109.74 544.983 111.24 547.543 111.24C548.863 111.24 550.063 110.84 551.123 110.02L551.923 111H555.083L552.863 108.3C553.203 107.88 553.803 107.06 554.623 105.88L555.143 105.12ZM547.123 100.76C547.123 100.2 547.503 99.86 548.083 99.86C548.663 99.86 549.003 100.18 549.003 100.72C549.003 101.26 548.723 101.66 547.943 102.28L547.903 102.3C547.323 101.58 547.123 101.22 547.123 100.76ZM549.563 108.12C548.963 108.62 548.343 108.86 547.703 108.86C546.643 108.86 545.903 108.24 545.903 107.3C545.903 106.66 546.183 106.26 547.283 105.36L549.563 108.12ZM562.885 111H571.365V108.56H565.585V97.8H562.885V111ZM573.194 111H575.894V101.1H573.194V111ZM572.814 97.5C572.814 98.44 573.574 99.16 574.534 99.16C575.494 99.16 576.274 98.44 576.274 97.5C576.274 96.54 575.494 95.82 574.534 95.82C573.574 95.82 572.814 96.54 572.814 97.5ZM593.825 104.86C593.825 102.46 592.405 100.88 590.085 100.88C588.725 100.88 587.565 101.42 586.785 102.3C586.125 101.36 585.145 100.88 583.845 100.88C582.705 100.88 581.705 101.28 581.045 101.98V101.1H578.565V111H581.265V105.24C581.265 104.06 581.985 103.32 583.085 103.32C584.145 103.32 584.845 104.06 584.845 105.24V111H587.545V105.18C587.545 104.08 588.305 103.32 589.365 103.32C590.425 103.32 591.125 104.06 591.125 105.24V111H593.825V104.86ZM596.397 111H599.097V101.1H596.397V111ZM596.017 97.5C596.017 98.44 596.777 99.16 597.737 99.16C598.697 99.16 599.477 98.44 599.477 97.5C599.477 96.54 598.697 95.82 597.737 95.82C596.777 95.82 596.017 96.54 596.017 97.5ZM608.128 108.74C607.428 108.8 607.008 108.82 606.848 108.82C605.568 108.82 605.008 108.4 605.008 107.28V103.38H607.808V101.1H605.008V98.6H602.308V101.1H600.748V103.38H602.308V107.52C602.308 110 603.768 111.24 606.268 111.24C606.868 111.24 607.488 111.16 608.128 111V108.74ZM615.114 104.4C615.054 108.18 618.314 111.32 622.114 111.24C625.914 111.32 629.214 108.18 629.154 104.4C629.214 100.62 625.914 97.48 622.114 97.56C618.314 97.48 615.054 100.62 615.114 104.4ZM626.374 104.4C626.374 106.94 624.554 108.74 622.134 108.74C619.694 108.74 617.894 106.94 617.894 104.4C617.894 101.86 619.694 100.06 622.134 100.06C624.554 100.06 626.374 101.9 626.374 104.4ZM637.34 101.1C637.08 101.02 636.8 100.98 636.46 100.98C635.36 100.98 634.4 101.46 633.74 102.28V101.1H631.26V111H633.96V106.06C633.96 104.36 635 103.48 636.62 103.48H637.34V101.1ZM646.019 96V102.06C645.299 101.28 644.319 100.88 643.059 100.88C640.299 100.88 638.259 103.08 638.259 106.06C638.259 109.04 640.299 111.24 643.059 111.24C644.419 111.24 645.579 110.72 646.239 109.78V111H648.719V96H646.019ZM646.059 106.06C646.059 107.84 644.919 108.78 643.559 108.78C642.099 108.78 640.999 107.7 640.999 106.04C640.999 104.42 642.119 103.32 643.559 103.32C644.919 103.32 646.059 104.3 646.059 106.06ZM660.497 106.96C660.617 106.46 660.677 105.96 660.677 105.48C660.677 102.9 658.757 100.88 656.017 100.88C653.157 100.82 650.777 103.2 650.837 106.06C650.777 108.92 653.197 111.3 656.257 111.24C657.717 111.24 659.037 110.74 660.217 109.76L659.097 107.92C658.237 108.58 657.317 108.92 656.337 108.92C654.897 108.92 653.877 108.22 653.557 106.96H660.497ZM653.557 105.06C653.857 103.84 654.777 103.06 655.917 103.06C657.097 103.06 658.037 103.84 658.057 105.06H653.557ZM668.863 101.1C668.603 101.02 668.323 100.98 667.983 100.98C666.883 100.98 665.923 101.46 665.263 102.28V101.1H662.783V111H665.483V106.06C665.483 104.36 666.523 103.48 668.143 103.48H668.863V101.1ZM670.602 113.64C671.862 113.06 672.902 112.06 673.722 110.62C674.542 109.16 674.942 107.28 674.942 104.94C674.942 102.6 674.542 100.7 673.722 99.26C672.902 97.8 671.862 96.8 670.602 96.22L669.522 97.84C671.382 99.06 672.602 101.16 672.602 104.94C672.602 108.7 671.362 110.8 669.522 112.02L670.602 113.64Z" fill="white"/>
<path d="M736 285.256V425H738V285C737.344 285.154 736.674 285.24 736 285.256Z" fill="#00DA63"/>
<path d="M673.784 463H676.484V449.8H673.784V463ZM688.329 456.86C688.329 454.46 686.909 452.88 684.609 452.88C683.429 452.88 682.409 453.3 681.709 454V453.1H679.229V463H681.929V457.22C681.929 456.08 682.709 455.3 683.809 455.3C684.909 455.3 685.649 456.08 685.649 457.22V463H688.329V456.86ZM697.288 460.74C696.588 460.8 696.168 460.82 696.008 460.82C694.728 460.82 694.168 460.4 694.168 459.28V455.38H696.968V453.1H694.168V450.6H691.468V453.1H689.908V455.38H691.468V459.52C691.468 462 692.928 463.24 695.428 463.24C696.028 463.24 696.648 463.16 697.288 463V460.74ZM708.153 458.96C708.273 458.46 708.333 457.96 708.333 457.48C708.333 454.9 706.413 452.88 703.673 452.88C700.813 452.82 698.433 455.2 698.493 458.06C698.433 460.92 700.853 463.3 703.913 463.24C705.373 463.24 706.693 462.74 707.873 461.76L706.753 459.92C705.893 460.58 704.973 460.92 703.993 460.92C702.553 460.92 701.533 460.22 701.213 458.96H708.153ZM701.213 457.06C701.513 455.84 702.433 455.06 703.573 455.06C704.753 455.06 705.693 455.84 705.713 457.06H701.213ZM717.9 453.1V454.34C717.2 453.4 716.08 452.88 714.66 452.88C711.96 452.88 709.92 454.84 709.92 457.78C709.92 460.68 711.92 462.7 714.66 462.7C715.92 462.7 716.96 462.3 717.68 461.52V462.06C717.68 463.6 716.64 464.4 715.04 464.4C713.84 464.4 712.92 463.94 711.82 463.12L710.4 465C711.78 466.22 713.4 466.84 715.26 466.84C718.36 466.84 720.38 465.12 720.38 461.9V453.1H717.9ZM717.72 457.74C717.72 459.44 716.58 460.42 715.22 460.42C713.78 460.42 712.66 459.36 712.66 457.76C712.66 456.16 713.76 455.18 715.22 455.18C716.6 455.18 717.72 456.04 717.72 457.74ZM729.137 453.1C728.877 453.02 728.597 452.98 728.257 452.98C727.157 452.98 726.197 453.46 725.537 454.28V453.1H723.057V463H725.757V458.06C725.757 456.36 726.797 455.48 728.417 455.48H729.137V453.1ZM738.915 457.12C738.915 454.38 737.255 452.88 734.675 452.88C732.935 452.88 731.495 453.56 730.355 454.92L731.755 456.58C732.635 455.64 733.355 455.22 734.375 455.22C735.575 455.22 736.215 455.86 736.215 456.96V457.4H733.735C731.435 457.4 729.995 458.5 729.995 460.28C729.995 462.02 731.315 463.24 733.415 463.24C734.675 463.24 735.715 462.78 736.435 462.04V463H738.915V457.12ZM736.215 459.3C736.215 460.44 735.315 461.26 734.135 461.26C733.275 461.26 732.715 460.84 732.715 460.18C732.715 459.52 733.215 459.18 734.095 459.18H736.215V459.3ZM747.874 460.74C747.174 460.8 746.754 460.82 746.594 460.82C745.314 460.82 744.754 460.4 744.754 459.28V455.38H747.554V453.1H744.754V450.6H742.054V453.1H740.494V455.38H742.054V459.52C742.054 462 743.514 463.24 746.014 463.24C746.614 463.24 747.234 463.16 747.874 463V460.74ZM749.834 463H752.534V453.1H749.834V463ZM749.454 449.5C749.454 450.44 750.214 451.16 751.174 451.16C752.134 451.16 752.914 450.44 752.914 449.5C752.914 448.54 752.134 447.82 751.174 447.82C750.214 447.82 749.454 448.54 749.454 449.5ZM754.645 458.04C754.585 460.86 757.025 463.28 759.925 463.22C762.825 463.28 765.325 460.86 765.265 458.04C765.325 455.22 762.845 452.84 759.945 452.88C757.045 452.82 754.585 455.22 754.645 458.04ZM762.505 458.06C762.505 459.6 761.405 460.74 759.945 460.74C758.445 460.74 757.385 459.6 757.385 458.06C757.385 456.48 758.445 455.34 759.945 455.34C761.405 455.34 762.505 456.52 762.505 458.06ZM776.473 456.86C776.473 454.46 775.053 452.88 772.753 452.88C771.573 452.88 770.553 453.3 769.853 454V453.1H767.373V463H770.073V457.22C770.073 456.08 770.853 455.3 771.953 455.3C773.053 455.3 773.793 456.08 773.793 457.22V463H776.473V456.86ZM784.118 458.04C784.058 460.86 786.498 463.28 789.398 463.22C792.298 463.28 794.798 460.86 794.738 458.04C794.798 455.22 792.318 452.84 789.418 452.88C786.518 452.82 784.058 455.22 784.118 458.04ZM791.978 458.06C791.978 459.6 790.878 460.74 789.418 460.74C787.918 460.74 786.858 459.6 786.858 458.06C786.858 456.48 787.918 455.34 789.418 455.34C790.878 455.34 791.978 456.52 791.978 458.06ZM800.006 451.72C800.006 450.6 800.586 450.18 801.806 450.18C802.046 450.18 802.306 450.2 802.606 450.24V447.98C802.146 447.84 801.646 447.76 801.126 447.76C798.746 447.76 797.306 449 797.306 451.48V453.1H795.906V455.38H797.306V463H800.006V455.38H802.186V453.1H800.006V451.72ZM710.903 488L706.883 482.48L710.603 478.1H707.403L703.843 482.32V473H701.143V488H703.843V482.52L707.823 488H710.903ZM721.044 483.96C721.164 483.46 721.224 482.96 721.224 482.48C721.224 479.9 719.304 477.88 716.564 477.88C713.704 477.82 711.324 480.2 711.384 483.06C711.324 485.92 713.744 488.3 716.804 488.24C718.264 488.24 719.584 487.74 720.764 486.76L719.644 484.92C718.784 485.58 717.864 485.92 716.884 485.92C715.444 485.92 714.424 485.22 714.104 483.96H721.044ZM714.104 482.06C714.404 480.84 715.324 480.06 716.464 480.06C717.644 480.06 718.584 480.84 718.604 482.06H714.104ZM732.43 483.96C732.55 483.46 732.61 482.96 732.61 482.48C732.61 479.9 730.69 477.88 727.95 477.88C725.09 477.82 722.71 480.2 722.77 483.06C722.71 485.92 725.13 488.3 728.19 488.24C729.65 488.24 730.97 487.74 732.15 486.76L731.03 484.92C730.17 485.58 729.25 485.92 728.27 485.92C726.83 485.92 725.81 485.22 725.49 483.96H732.43ZM725.49 482.06C725.79 480.84 726.71 480.06 727.85 480.06C729.03 480.06 729.97 480.84 729.99 482.06H725.49ZM745.177 483.04C745.177 480.08 743.137 477.88 740.377 477.88C739.017 477.88 737.857 478.4 737.197 479.34V478.1H734.717V491.6H737.417V487.04C738.137 487.82 739.177 488.24 740.377 488.24C743.137 488.24 745.177 486 745.177 483.04ZM742.437 483.06C742.437 484.68 741.317 485.78 739.877 485.78C738.497 485.78 737.377 484.8 737.377 483.04C737.377 481.26 738.517 480.32 739.877 480.32C741.337 480.32 742.437 481.4 742.437 483.06ZM756.395 483.96C756.515 483.46 756.575 482.96 756.575 482.48C756.575 479.9 754.655 477.88 751.915 477.88C749.055 477.82 746.675 480.2 746.735 483.06C746.675 485.92 749.095 488.3 752.155 488.24C753.615 488.24 754.935 487.74 756.115 486.76L754.995 484.92C754.135 485.58 753.215 485.92 752.235 485.92C750.795 485.92 749.775 485.22 749.455 483.96H756.395ZM749.455 482.06C749.755 480.84 750.675 480.06 751.815 480.06C752.995 480.06 753.935 480.84 753.955 482.06H749.455ZM764.762 478.1C764.502 478.02 764.222 477.98 763.882 477.98C762.782 477.98 761.822 478.46 761.162 479.28V478.1H758.682V488H761.382V483.06C761.382 481.36 762.422 480.48 764.042 480.48H764.762V478.1ZM765.536 486.32C766.436 487.52 767.896 488.24 769.636 488.24C770.756 488.24 771.676 487.96 772.396 487.4C773.136 486.84 773.496 486.06 773.496 485.08C773.496 483.62 772.636 482.84 770.716 482.06L769.756 481.66C768.976 481.34 768.716 481.16 768.716 480.78C768.716 480.32 769.116 480.08 769.776 480.08C770.596 480.08 771.336 480.4 771.996 481.02L773.356 479.36C772.456 478.38 771.276 477.88 769.796 477.88C767.636 477.88 766.156 478.98 766.156 480.84C766.156 482.3 767.036 483.12 768.856 483.86L769.916 484.3C770.656 484.62 770.936 484.78 770.936 485.2C770.936 485.74 770.396 486.02 769.676 486.02C768.696 486.02 767.756 485.58 766.896 484.68L765.536 486.32Z" fill="white"/>
<path d="M873 69.3451V258H875V69C874.344 69.2083 873.674 69.324 873 69.3451Z" fill="#00DA63"/>
<path d="M765.049 19H767.749V14.34H770.009C772.769 14.34 774.769 12.58 774.769 10.06C774.769 7.52 772.769 5.8 770.009 5.8H765.049V19ZM767.749 11.98V8.18H770.009C771.229 8.18 772.009 8.94 772.009 10.06C772.009 11.2 771.269 11.98 770.009 11.98H767.749ZM782.824 9.1C782.564 9.02 782.284 8.98 781.944 8.98C780.844 8.98 779.884 9.46 779.224 10.28V9.1H776.744V19H779.444V14.06C779.444 12.36 780.484 11.48 782.104 11.48H782.824V9.1ZM784.498 19H787.198V9.1H784.498V19ZM784.118 5.5C784.118 6.44 784.878 7.16 785.838 7.16C786.798 7.16 787.578 6.44 787.578 5.5C787.578 4.54 786.798 3.82 785.838 3.82C784.878 3.82 784.118 4.54 784.118 5.5ZM796.609 9.1L794.109 14.7L791.609 9.1H788.769L793.669 19.24H794.569L799.469 9.1H796.609ZM808.951 13.12C808.951 10.38 807.291 8.88 804.711 8.88C802.971 8.88 801.531 9.56 800.391 10.92L801.791 12.58C802.671 11.64 803.391 11.22 804.411 11.22C805.611 11.22 806.251 11.86 806.251 12.96V13.4H803.771C801.471 13.4 800.031 14.5 800.031 16.28C800.031 18.02 801.351 19.24 803.451 19.24C804.711 19.24 805.751 18.78 806.471 18.04V19H808.951V13.12ZM806.251 15.3C806.251 16.44 805.351 17.26 804.171 17.26C803.311 17.26 802.751 16.84 802.751 16.18C802.751 15.52 803.251 15.18 804.131 15.18H806.251V15.3ZM817.909 16.74C817.209 16.8 816.789 16.82 816.629 16.82C815.349 16.82 814.789 16.4 814.789 15.28V11.38H817.589V9.1H814.789V6.6H812.089V9.1H810.529V11.38H812.089V15.52C812.089 18 813.549 19.24 816.049 19.24C816.649 19.24 817.269 19.16 817.909 19V16.74ZM828.774 14.96C828.894 14.46 828.954 13.96 828.954 13.48C828.954 10.9 827.034 8.88 824.294 8.88C821.434 8.82 819.054 11.2 819.114 14.06C819.054 16.92 821.474 19.3 824.534 19.24C825.994 19.24 827.314 18.74 828.494 17.76L827.374 15.92C826.514 16.58 825.594 16.92 824.614 16.92C823.174 16.92 822.154 16.22 821.834 14.96H828.774ZM821.834 13.06C822.134 11.84 823.054 11.06 824.194 11.06C825.374 11.06 826.314 11.84 826.334 13.06H821.834ZM838.83 19H841.53V8.24H845.77V5.8H834.61V8.24H838.83V19ZM855.024 14.96C855.144 14.46 855.204 13.96 855.204 13.48C855.204 10.9 853.284 8.88 850.544 8.88C847.684 8.82 845.304 11.2 845.364 14.06C845.304 16.92 847.724 19.3 850.784 19.24C852.244 19.24 853.564 18.74 854.744 17.76L853.624 15.92C852.764 16.58 851.844 16.92 850.864 16.92C849.424 16.92 848.404 16.22 848.084 14.96H855.024ZM848.084 13.06C848.384 11.84 849.304 11.06 850.444 11.06C851.624 11.06 852.564 11.84 852.584 13.06H848.084ZM856.411 17.32C857.311 18.52 858.771 19.24 860.511 19.24C861.631 19.24 862.551 18.96 863.271 18.4C864.011 17.84 864.371 17.06 864.371 16.08C864.371 14.62 863.511 13.84 861.591 13.06L860.631 12.66C859.851 12.34 859.591 12.16 859.591 11.78C859.591 11.32 859.991 11.08 860.651 11.08C861.471 11.08 862.211 11.4 862.871 12.02L864.231 10.36C863.331 9.38 862.151 8.88 860.671 8.88C858.511 8.88 857.031 9.98 857.031 11.84C857.031 13.3 857.911 14.12 859.731 14.86L860.791 15.3C861.531 15.62 861.811 15.78 861.811 16.2C861.811 16.74 861.271 17.02 860.551 17.02C859.571 17.02 858.631 16.58 857.771 15.68L856.411 17.32ZM872.772 16.74C872.072 16.8 871.652 16.82 871.492 16.82C870.212 16.82 869.652 16.4 869.652 15.28V11.38H872.452V9.1H869.652V6.6H866.952V9.1H865.392V11.38H866.952V15.52C866.952 18 868.412 19.24 870.912 19.24C871.512 19.24 872.132 19.16 872.772 19V16.74ZM883.833 12.86C883.833 10.46 882.413 8.88 880.113 8.88C878.933 8.88 877.913 9.3 877.213 10V9.1H874.733V19H877.433V13.22C877.433 12.08 878.213 11.3 879.313 11.3C880.413 11.3 881.153 12.08 881.153 13.22V19H883.833V12.86ZM895.532 14.96C895.652 14.46 895.712 13.96 895.712 13.48C895.712 10.9 893.792 8.88 891.052 8.88C888.192 8.82 885.812 11.2 885.872 14.06C885.812 16.92 888.232 19.3 891.292 19.24C892.752 19.24 894.072 18.74 895.252 17.76L894.132 15.92C893.272 16.58 892.352 16.92 891.372 16.92C889.932 16.92 888.912 16.22 888.592 14.96H895.532ZM888.592 13.06C888.892 11.84 889.812 11.06 890.952 11.06C892.132 11.06 893.072 11.84 893.092 13.06H888.592ZM904.179 16.74C903.479 16.8 903.059 16.82 902.899 16.82C901.619 16.82 901.059 16.4 901.059 15.28V11.38H903.859V9.1H901.059V6.6H898.359V9.1H896.799V11.38H898.359V15.52C898.359 18 899.819 19.24 902.319 19.24C902.919 19.24 903.539 19.16 904.179 19V16.74ZM911.764 12.94C911.764 17.6 913.564 20.5 916.124 21.64L917.184 20.02C915.344 18.8 914.124 16.7 914.124 12.94C914.124 9.16 915.344 7.06 917.184 5.84L916.124 4.22C913.564 5.36 911.764 8.24 911.764 12.94ZM919.229 19H921.929V13.98H926.829V11.54H921.929V8.24H927.909V5.8H919.229V19ZM937.544 13.12C937.544 10.38 935.884 8.88 933.304 8.88C931.564 8.88 930.124 9.56 928.984 10.92L930.384 12.58C931.264 11.64 931.984 11.22 933.004 11.22C934.204 11.22 934.844 11.86 934.844 12.96V13.4H932.364C930.064 13.4 928.624 14.5 928.624 16.28C928.624 18.02 929.944 19.24 932.044 19.24C933.304 19.24 934.344 18.78 935.064 18.04V19H937.544V13.12ZM934.844 15.3C934.844 16.44 933.944 17.26 932.764 17.26C931.904 17.26 931.344 16.84 931.344 16.18C931.344 15.52 931.844 15.18 932.724 15.18H934.844V15.3ZM946.223 9.1C945.963 9.02 945.683 8.98 945.343 8.98C944.243 8.98 943.283 9.46 942.623 10.28V9.1H940.143V19H942.843V14.06C942.843 12.36 943.883 11.48 945.503 11.48H946.223V9.1ZM963.157 12.86C963.157 10.46 961.737 8.88 959.417 8.88C958.057 8.88 956.897 9.42 956.117 10.3C955.457 9.36 954.477 8.88 953.177 8.88C952.037 8.88 951.037 9.28 950.377 9.98V9.1H947.897V19H950.597V13.24C950.597 12.06 951.317 11.32 952.417 11.32C953.477 11.32 954.177 12.06 954.177 13.24V19H956.877V13.18C956.877 12.08 957.637 11.32 958.697 11.32C959.757 11.32 960.457 12.06 960.457 13.24V19H963.157V12.86ZM982.854 13.12L980.774 11.64C980.534 12 980.294 12.34 980.054 12.66C979.714 13.16 979.334 13.72 978.914 14.3L976.974 11.96C978.494 10.7 979.134 9.72 979.134 8.46C979.134 6.76 977.774 5.56 975.834 5.56C973.774 5.56 972.414 6.82 972.414 8.72C972.414 9.68 972.774 10.56 973.574 11.6C972.594 12.38 971.894 13.06 971.494 13.64C971.114 14.22 970.914 14.86 970.914 15.56C970.914 17.74 972.694 19.24 975.254 19.24C976.574 19.24 977.774 18.84 978.834 18.02L979.634 19H982.794L980.574 16.3C980.914 15.88 981.514 15.06 982.334 13.88L982.854 13.12ZM974.834 8.76C974.834 8.2 975.214 7.86 975.794 7.86C976.374 7.86 976.714 8.18 976.714 8.72C976.714 9.26 976.434 9.66 975.654 10.28L975.614 10.3C975.034 9.58 974.834 9.22 974.834 8.76ZM977.274 16.12C976.674 16.62 976.054 16.86 975.414 16.86C974.354 16.86 973.614 16.24 973.614 15.3C973.614 14.66 973.894 14.26 974.994 13.36L977.274 16.12ZM817.549 44H826.029V41.56H820.249V30.8H817.549V44ZM827.858 44H830.558V34.1H827.858V44ZM827.478 30.5C827.478 31.44 828.238 32.16 829.198 32.16C830.158 32.16 830.938 31.44 830.938 30.5C830.938 29.54 830.158 28.82 829.198 28.82C828.238 28.82 827.478 29.54 827.478 30.5ZM848.489 37.86C848.489 35.46 847.069 33.88 844.749 33.88C843.389 33.88 842.229 34.42 841.449 35.3C840.789 34.36 839.809 33.88 838.509 33.88C837.369 33.88 836.369 34.28 835.709 34.98V34.1H833.229V44H835.929V38.24C835.929 37.06 836.649 36.32 837.749 36.32C838.809 36.32 839.509 37.06 839.509 38.24V44H842.209V38.18C842.209 37.08 842.969 36.32 844.029 36.32C845.089 36.32 845.789 37.06 845.789 38.24V44H848.489V37.86ZM851.061 44H853.761V34.1H851.061V44ZM850.681 30.5C850.681 31.44 851.441 32.16 852.401 32.16C853.361 32.16 854.141 31.44 854.141 30.5C854.141 29.54 853.361 28.82 852.401 28.82C851.441 28.82 850.681 29.54 850.681 30.5ZM862.792 41.74C862.092 41.8 861.672 41.82 861.512 41.82C860.232 41.82 859.672 41.4 859.672 40.28V36.38H862.472V34.1H859.672V31.6H856.972V34.1H855.412V36.38H856.972V40.52C856.972 43 858.432 44.24 860.932 44.24C861.532 44.24 862.152 44.16 862.792 44V41.74ZM869.778 37.4C869.718 41.18 872.978 44.32 876.778 44.24C880.578 44.32 883.878 41.18 883.818 37.4C883.878 33.62 880.578 30.48 876.778 30.56C872.978 30.48 869.718 33.62 869.778 37.4ZM881.038 37.4C881.038 39.94 879.218 41.74 876.798 41.74C874.358 41.74 872.558 39.94 872.558 37.4C872.558 34.86 874.358 33.06 876.798 33.06C879.218 33.06 881.038 34.9 881.038 37.4ZM892.004 34.1C891.744 34.02 891.464 33.98 891.124 33.98C890.024 33.98 889.064 34.46 888.404 35.28V34.1H885.924V44H888.624V39.06C888.624 37.36 889.664 36.48 891.284 36.48H892.004V34.1ZM900.683 29V35.06C899.963 34.28 898.983 33.88 897.723 33.88C894.963 33.88 892.923 36.08 892.923 39.06C892.923 42.04 894.963 44.24 897.723 44.24C899.083 44.24 900.243 43.72 900.903 42.78V44H903.383V29H900.683ZM900.723 39.06C900.723 40.84 899.583 41.78 898.223 41.78C896.763 41.78 895.663 40.7 895.663 39.04C895.663 37.42 896.783 36.32 898.223 36.32C899.583 36.32 900.723 37.3 900.723 39.06ZM915.161 39.96C915.281 39.46 915.341 38.96 915.341 38.48C915.341 35.9 913.421 33.88 910.681 33.88C907.821 33.82 905.441 36.2 905.501 39.06C905.441 41.92 907.861 44.3 910.921 44.24C912.381 44.24 913.701 43.74 914.881 42.76L913.761 40.92C912.901 41.58 911.981 41.92 911.001 41.92C909.561 41.92 908.541 41.22 908.221 39.96H915.161ZM908.221 38.06C908.521 36.84 909.441 36.06 910.581 36.06C911.761 36.06 912.701 36.84 912.721 38.06H908.221ZM923.527 34.1C923.267 34.02 922.987 33.98 922.647 33.98C921.547 33.98 920.587 34.46 919.927 35.28V34.1H917.447V44H920.147V39.06C920.147 37.36 921.187 36.48 922.807 36.48H923.527V34.1ZM925.266 46.64C926.526 46.06 927.566 45.06 928.386 43.62C929.206 42.16 929.606 40.28 929.606 37.94C929.606 35.6 929.206 33.7 928.386 32.26C927.566 30.8 926.526 29.8 925.266 29.22L924.186 30.84C926.046 32.06 927.266 34.16 927.266 37.94C927.266 41.7 926.026 43.8 924.186 45.02L925.266 46.64Z" fill="white"/>
<path d="M1038 285.287V442H1040V285C1039.34 285.173 1038.67 285.269 1038 285.287Z" fill="#00DA63"/>
<path d="M969.885 480H972.585V475.34H974.845C977.605 475.34 979.605 473.58 979.605 471.06C979.605 468.52 977.605 466.8 974.845 466.8H969.885V480ZM972.585 472.98V469.18H974.845C976.065 469.18 976.845 469.94 976.845 471.06C976.845 472.2 976.105 472.98 974.845 472.98H972.585ZM987.66 470.1C987.4 470.02 987.12 469.98 986.78 469.98C985.68 469.98 984.72 470.46 984.06 471.28V470.1H981.58V480H984.28V475.06C984.28 473.36 985.32 472.48 986.94 472.48H987.66V470.1ZM989.334 480H992.034V470.1H989.334V480ZM988.954 466.5C988.954 467.44 989.714 468.16 990.674 468.16C991.634 468.16 992.414 467.44 992.414 466.5C992.414 465.54 991.634 464.82 990.674 464.82C989.714 464.82 988.954 465.54 988.954 466.5ZM1001.45 470.1L998.945 475.7L996.445 470.1H993.605L998.505 480.24H999.405L1004.31 470.1H1001.45ZM1013.79 474.12C1013.79 471.38 1012.13 469.88 1009.55 469.88C1007.81 469.88 1006.37 470.56 1005.23 471.92L1006.63 473.58C1007.51 472.64 1008.23 472.22 1009.25 472.22C1010.45 472.22 1011.09 472.86 1011.09 473.96V474.4H1008.61C1006.31 474.4 1004.87 475.5 1004.87 477.28C1004.87 479.02 1006.19 480.24 1008.29 480.24C1009.55 480.24 1010.59 479.78 1011.31 479.04V480H1013.79V474.12ZM1011.09 476.3C1011.09 477.44 1010.19 478.26 1009.01 478.26C1008.15 478.26 1007.59 477.84 1007.59 477.18C1007.59 476.52 1008.09 476.18 1008.97 476.18H1011.09V476.3ZM1022.74 477.74C1022.04 477.8 1021.62 477.82 1021.46 477.82C1020.18 477.82 1019.62 477.4 1019.62 476.28V472.38H1022.42V470.1H1019.62V467.6H1016.92V470.1H1015.36V472.38H1016.92V476.52C1016.92 479 1018.38 480.24 1020.88 480.24C1021.48 480.24 1022.1 480.16 1022.74 480V477.74ZM1033.61 475.96C1033.73 475.46 1033.79 474.96 1033.79 474.48C1033.79 471.9 1031.87 469.88 1029.13 469.88C1026.27 469.82 1023.89 472.2 1023.95 475.06C1023.89 477.92 1026.31 480.3 1029.37 480.24C1030.83 480.24 1032.15 479.74 1033.33 478.76L1032.21 476.92C1031.35 477.58 1030.43 477.92 1029.45 477.92C1028.01 477.92 1026.99 477.22 1026.67 475.96H1033.61ZM1026.67 474.06C1026.97 472.84 1027.89 472.06 1029.03 472.06C1030.21 472.06 1031.15 472.84 1031.17 474.06H1026.67ZM1043.67 480H1046.37V469.24H1050.61V466.8H1039.45V469.24H1043.67V480ZM1059.86 475.96C1059.98 475.46 1060.04 474.96 1060.04 474.48C1060.04 471.9 1058.12 469.88 1055.38 469.88C1052.52 469.82 1050.14 472.2 1050.2 475.06C1050.14 477.92 1052.56 480.3 1055.62 480.24C1057.08 480.24 1058.4 479.74 1059.58 478.76L1058.46 476.92C1057.6 477.58 1056.68 477.92 1055.7 477.92C1054.26 477.92 1053.24 477.22 1052.92 475.96H1059.86ZM1052.92 474.06C1053.22 472.84 1054.14 472.06 1055.28 472.06C1056.46 472.06 1057.4 472.84 1057.42 474.06H1052.92ZM1061.25 478.32C1062.15 479.52 1063.61 480.24 1065.35 480.24C1066.47 480.24 1067.39 479.96 1068.11 479.4C1068.85 478.84 1069.21 478.06 1069.21 477.08C1069.21 475.62 1068.35 474.84 1066.43 474.06L1065.47 473.66C1064.69 473.34 1064.43 473.16 1064.43 472.78C1064.43 472.32 1064.83 472.08 1065.49 472.08C1066.31 472.08 1067.05 472.4 1067.71 473.02L1069.07 471.36C1068.17 470.38 1066.99 469.88 1065.51 469.88C1063.35 469.88 1061.87 470.98 1061.87 472.84C1061.87 474.3 1062.75 475.12 1064.57 475.86L1065.63 476.3C1066.37 476.62 1066.65 476.78 1066.65 477.2C1066.65 477.74 1066.11 478.02 1065.39 478.02C1064.41 478.02 1063.47 477.58 1062.61 476.68L1061.25 478.32ZM1077.61 477.74C1076.91 477.8 1076.49 477.82 1076.33 477.82C1075.05 477.82 1074.49 477.4 1074.49 476.28V472.38H1077.29V470.1H1074.49V467.6H1071.79V470.1H1070.23V472.38H1071.79V476.52C1071.79 479 1073.25 480.24 1075.75 480.24C1076.35 480.24 1076.97 480.16 1077.61 480V477.74ZM1088.67 473.86C1088.67 471.46 1087.25 469.88 1084.95 469.88C1083.77 469.88 1082.75 470.3 1082.05 471V470.1H1079.57V480H1082.27V474.22C1082.27 473.08 1083.05 472.3 1084.15 472.3C1085.25 472.3 1085.99 473.08 1085.99 474.22V480H1088.67V473.86ZM1100.37 475.96C1100.49 475.46 1100.55 474.96 1100.55 474.48C1100.55 471.9 1098.63 469.88 1095.89 469.88C1093.03 469.82 1090.65 472.2 1090.71 475.06C1090.65 477.92 1093.07 480.3 1096.13 480.24C1097.59 480.24 1098.91 479.74 1100.09 478.76L1098.97 476.92C1098.11 477.58 1097.19 477.92 1096.21 477.92C1094.77 477.92 1093.75 477.22 1093.43 475.96H1100.37ZM1093.43 474.06C1093.73 472.84 1094.65 472.06 1095.79 472.06C1096.97 472.06 1097.91 472.84 1097.93 474.06H1093.43ZM1109.01 477.74C1108.31 477.8 1107.89 477.82 1107.73 477.82C1106.45 477.82 1105.89 477.4 1105.89 476.28V472.38H1108.69V470.1H1105.89V467.6H1103.19V470.1H1101.63V472.38H1103.19V476.52C1103.19 479 1104.65 480.24 1107.15 480.24C1107.75 480.24 1108.37 480.16 1109.01 480V477.74ZM977.333 498.94C977.333 503.6 979.133 506.5 981.693 507.64L982.753 506.02C980.913 504.8 979.693 502.7 979.693 498.94C979.693 495.16 980.913 493.06 982.753 491.84L981.693 490.22C979.133 491.36 977.333 494.24 977.333 498.94ZM984.797 505H987.497V499.98H992.397V497.54H987.497V494.24H993.477V491.8H984.797V505ZM1003.11 499.12C1003.11 496.38 1001.45 494.88 998.873 494.88C997.133 494.88 995.693 495.56 994.553 496.92L995.953 498.58C996.833 497.64 997.553 497.22 998.573 497.22C999.773 497.22 1000.41 497.86 1000.41 498.96V499.4H997.933C995.633 499.4 994.193 500.5 994.193 502.28C994.193 504.02 995.513 505.24 997.613 505.24C998.873 505.24 999.913 504.78 1000.63 504.04V505H1003.11V499.12ZM1000.41 501.3C1000.41 502.44 999.513 503.26 998.333 503.26C997.473 503.26 996.913 502.84 996.913 502.18C996.913 501.52 997.413 501.18 998.293 501.18H1000.41V501.3ZM1011.79 495.1C1011.53 495.02 1011.25 494.98 1010.91 494.98C1009.81 494.98 1008.85 495.46 1008.19 496.28V495.1H1005.71V505H1008.41V500.06C1008.41 498.36 1009.45 497.48 1011.07 497.48H1011.79V495.1ZM1028.73 498.86C1028.73 496.46 1027.31 494.88 1024.99 494.88C1023.63 494.88 1022.47 495.42 1021.69 496.3C1021.03 495.36 1020.05 494.88 1018.75 494.88C1017.61 494.88 1016.61 495.28 1015.95 495.98V495.1H1013.47V505H1016.17V499.24C1016.17 498.06 1016.89 497.32 1017.99 497.32C1019.05 497.32 1019.75 498.06 1019.75 499.24V505H1022.45V499.18C1022.45 498.08 1023.21 497.32 1024.27 497.32C1025.33 497.32 1026.03 498.06 1026.03 499.24V505H1028.73V498.86ZM1048.42 499.12L1046.34 497.64C1046.1 498 1045.86 498.34 1045.62 498.66C1045.28 499.16 1044.9 499.72 1044.48 500.3L1042.54 497.96C1044.06 496.7 1044.7 495.72 1044.7 494.46C1044.7 492.76 1043.34 491.56 1041.4 491.56C1039.34 491.56 1037.98 492.82 1037.98 494.72C1037.98 495.68 1038.34 496.56 1039.14 497.6C1038.16 498.38 1037.46 499.06 1037.06 499.64C1036.68 500.22 1036.48 500.86 1036.48 501.56C1036.48 503.74 1038.26 505.24 1040.82 505.24C1042.14 505.24 1043.34 504.84 1044.4 504.02L1045.2 505H1048.36L1046.14 502.3C1046.48 501.88 1047.08 501.06 1047.9 499.88L1048.42 499.12ZM1040.4 494.76C1040.4 494.2 1040.78 493.86 1041.36 493.86C1041.94 493.86 1042.28 494.18 1042.28 494.72C1042.28 495.26 1042 495.66 1041.22 496.28L1041.18 496.3C1040.6 495.58 1040.4 495.22 1040.4 494.76ZM1042.84 502.12C1042.24 502.62 1041.62 502.86 1040.98 502.86C1039.92 502.86 1039.18 502.24 1039.18 501.3C1039.18 500.66 1039.46 500.26 1040.56 499.36L1042.84 502.12ZM1056.16 505H1064.64V502.56H1058.86V491.8H1056.16V505ZM1066.47 505H1069.17V495.1H1066.47V505ZM1066.09 491.5C1066.09 492.44 1066.85 493.16 1067.81 493.16C1068.77 493.16 1069.55 492.44 1069.55 491.5C1069.55 490.54 1068.77 489.82 1067.81 489.82C1066.85 489.82 1066.09 490.54 1066.09 491.5ZM1087.1 498.86C1087.1 496.46 1085.68 494.88 1083.36 494.88C1082 494.88 1080.84 495.42 1080.06 496.3C1079.4 495.36 1078.42 494.88 1077.12 494.88C1075.98 494.88 1074.98 495.28 1074.32 495.98V495.1H1071.84V505H1074.54V499.24C1074.54 498.06 1075.26 497.32 1076.36 497.32C1077.42 497.32 1078.12 498.06 1078.12 499.24V505H1080.82V499.18C1080.82 498.08 1081.58 497.32 1082.64 497.32C1083.7 497.32 1084.4 498.06 1084.4 499.24V505H1087.1V498.86ZM1089.68 505H1092.38V495.1H1089.68V505ZM1089.3 491.5C1089.3 492.44 1090.06 493.16 1091.02 493.16C1091.98 493.16 1092.76 492.44 1092.76 491.5C1092.76 490.54 1091.98 489.82 1091.02 489.82C1090.06 489.82 1089.3 490.54 1089.3 491.5ZM1101.41 502.74C1100.71 502.8 1100.29 502.82 1100.13 502.82C1098.85 502.82 1098.29 502.4 1098.29 501.28V497.38H1101.09V495.1H1098.29V492.6H1095.59V495.1H1094.03V497.38H1095.59V501.52C1095.59 504 1097.05 505.24 1099.55 505.24C1100.15 505.24 1100.77 505.16 1101.41 505V502.74ZM1008.78 523.4C1008.72 527.18 1011.98 530.32 1015.78 530.24C1019.58 530.32 1022.88 527.18 1022.82 523.4C1022.88 519.62 1019.58 516.48 1015.78 516.56C1011.98 516.48 1008.72 519.62 1008.78 523.4ZM1020.04 523.4C1020.04 525.94 1018.22 527.74 1015.8 527.74C1013.36 527.74 1011.56 525.94 1011.56 523.4C1011.56 520.86 1013.36 519.06 1015.8 519.06C1018.22 519.06 1020.04 520.9 1020.04 523.4ZM1031.01 520.1C1030.75 520.02 1030.47 519.98 1030.13 519.98C1029.03 519.98 1028.07 520.46 1027.41 521.28V520.1H1024.93V530H1027.63V525.06C1027.63 523.36 1028.67 522.48 1030.29 522.48H1031.01V520.1ZM1039.69 515V521.06C1038.97 520.28 1037.99 519.88 1036.73 519.88C1033.97 519.88 1031.93 522.08 1031.93 525.06C1031.93 528.04 1033.97 530.24 1036.73 530.24C1038.09 530.24 1039.25 529.72 1039.91 528.78V530H1042.39V515H1039.69ZM1039.73 525.06C1039.73 526.84 1038.59 527.78 1037.23 527.78C1035.77 527.78 1034.67 526.7 1034.67 525.04C1034.67 523.42 1035.79 522.32 1037.23 522.32C1038.59 522.32 1039.73 523.3 1039.73 525.06ZM1054.17 525.96C1054.29 525.46 1054.35 524.96 1054.35 524.48C1054.35 521.9 1052.43 519.88 1049.69 519.88C1046.83 519.82 1044.45 522.2 1044.51 525.06C1044.45 527.92 1046.87 530.3 1049.93 530.24C1051.39 530.24 1052.71 529.74 1053.89 528.76L1052.77 526.92C1051.91 527.58 1050.99 527.92 1050.01 527.92C1048.57 527.92 1047.55 527.22 1047.23 525.96H1054.17ZM1047.23 524.06C1047.53 522.84 1048.45 522.06 1049.59 522.06C1050.77 522.06 1051.71 522.84 1051.73 524.06H1047.23ZM1062.53 520.1C1062.27 520.02 1061.99 519.98 1061.65 519.98C1060.55 519.98 1059.59 520.46 1058.93 521.28V520.1H1056.45V530H1059.15V525.06C1059.15 523.36 1060.19 522.48 1061.81 522.48H1062.53V520.1ZM1064.27 532.64C1065.53 532.06 1066.57 531.06 1067.39 529.62C1068.21 528.16 1068.61 526.28 1068.61 523.94C1068.61 521.6 1068.21 519.7 1067.39 518.26C1066.57 516.8 1065.53 515.8 1064.27 515.22L1063.19 516.84C1065.05 518.06 1066.27 520.16 1066.27 523.94C1066.27 527.7 1065.03 529.8 1063.19 531.02L1064.27 532.64Z" fill="white"/>
<path d="M1177 135.287V292H1179V135C1178.34 135.173 1177.67 135.269 1177 135.287Z" fill="#00DA63"/>
<path d="M1110.75 60H1113.45V49.24H1117.69V46.8H1106.53V49.24H1110.75V60ZM1126.95 55.96C1127.07 55.46 1127.13 54.96 1127.13 54.48C1127.13 51.9 1125.21 49.88 1122.47 49.88C1119.61 49.82 1117.23 52.2 1117.29 55.06C1117.23 57.92 1119.65 60.3 1122.71 60.24C1124.17 60.24 1125.49 59.74 1126.67 58.76L1125.55 56.92C1124.69 57.58 1123.77 57.92 1122.79 57.92C1121.35 57.92 1120.33 57.22 1120.01 55.96H1126.95ZM1120.01 54.06C1120.31 52.84 1121.23 52.06 1122.37 52.06C1123.55 52.06 1124.49 52.84 1124.51 54.06H1120.01ZM1128.33 58.32C1129.23 59.52 1130.69 60.24 1132.43 60.24C1133.55 60.24 1134.47 59.96 1135.19 59.4C1135.93 58.84 1136.29 58.06 1136.29 57.08C1136.29 55.62 1135.43 54.84 1133.51 54.06L1132.55 53.66C1131.77 53.34 1131.51 53.16 1131.51 52.78C1131.51 52.32 1131.91 52.08 1132.57 52.08C1133.39 52.08 1134.13 52.4 1134.79 53.02L1136.15 51.36C1135.25 50.38 1134.07 49.88 1132.59 49.88C1130.43 49.88 1128.95 50.98 1128.95 52.84C1128.95 54.3 1129.83 55.12 1131.65 55.86L1132.71 56.3C1133.45 56.62 1133.73 56.78 1133.73 57.2C1133.73 57.74 1133.19 58.02 1132.47 58.02C1131.49 58.02 1130.55 57.58 1129.69 56.68L1128.33 58.32ZM1144.69 57.74C1143.99 57.8 1143.57 57.82 1143.41 57.82C1142.13 57.82 1141.57 57.4 1141.57 56.28V52.38H1144.37V50.1H1141.57V47.6H1138.87V50.1H1137.31V52.38H1138.87V56.52C1138.87 59 1140.33 60.24 1142.83 60.24C1143.43 60.24 1144.05 60.16 1144.69 60V57.74ZM1155.75 53.86C1155.75 51.46 1154.33 49.88 1152.03 49.88C1150.85 49.88 1149.83 50.3 1149.13 51V50.1H1146.65V60H1149.35V54.22C1149.35 53.08 1150.13 52.3 1151.23 52.3C1152.33 52.3 1153.07 53.08 1153.07 54.22V60H1155.75V53.86ZM1167.45 55.96C1167.57 55.46 1167.63 54.96 1167.63 54.48C1167.63 51.9 1165.71 49.88 1162.97 49.88C1160.11 49.82 1157.73 52.2 1157.79 55.06C1157.73 57.92 1160.15 60.3 1163.21 60.24C1164.67 60.24 1165.99 59.74 1167.17 58.76L1166.05 56.92C1165.19 57.58 1164.27 57.92 1163.29 57.92C1161.85 57.92 1160.83 57.22 1160.51 55.96H1167.45ZM1160.51 54.06C1160.81 52.84 1161.73 52.06 1162.87 52.06C1164.05 52.06 1164.99 52.84 1165.01 54.06H1160.51ZM1176.1 57.74C1175.4 57.8 1174.98 57.82 1174.82 57.82C1173.54 57.82 1172.98 57.4 1172.98 56.28V52.38H1175.78V50.1H1172.98V47.6H1170.28V50.1H1168.72V52.38H1170.28V56.52C1170.28 59 1171.74 60.24 1174.24 60.24C1174.84 60.24 1175.46 60.16 1176.1 60V57.74ZM1183.85 60H1192.33V57.56H1186.55V46.8H1183.85V60ZM1202.45 54.12C1202.45 51.38 1200.79 49.88 1198.21 49.88C1196.47 49.88 1195.03 50.56 1193.89 51.92L1195.29 53.58C1196.17 52.64 1196.89 52.22 1197.91 52.22C1199.11 52.22 1199.75 52.86 1199.75 53.96V54.4H1197.27C1194.97 54.4 1193.53 55.5 1193.53 57.28C1193.53 59.02 1194.85 60.24 1196.95 60.24C1198.21 60.24 1199.25 59.78 1199.97 59.04V60H1202.45V54.12ZM1199.75 56.3C1199.75 57.44 1198.85 58.26 1197.67 58.26C1196.81 58.26 1196.25 57.84 1196.25 57.18C1196.25 56.52 1196.75 56.18 1197.63 56.18H1199.75V56.3ZM1204.95 55.64C1204.95 58.4 1206.89 60.24 1209.53 60.24C1212.11 60.24 1214.07 58.4 1214.07 55.64V50.1H1211.37V55.86C1211.37 57 1210.57 57.76 1209.53 57.76C1208.43 57.76 1207.65 57 1207.65 55.86V50.1H1204.95V55.64ZM1225.75 53.86C1225.75 51.46 1224.33 49.88 1222.03 49.88C1220.85 49.88 1219.83 50.3 1219.13 51V50.1H1216.65V60H1219.35V54.22C1219.35 53.08 1220.13 52.3 1221.23 52.3C1222.33 52.3 1223.07 53.08 1223.07 54.22V60H1225.75V53.86ZM1227.79 55.04C1227.75 57.9 1230.19 60.3 1233.09 60.24C1235.01 60.24 1236.53 59.3 1237.39 57.78L1235.51 56.34C1234.87 57.24 1234.15 57.76 1233.13 57.76C1231.61 57.76 1230.53 56.62 1230.53 55.04C1230.53 53.5 1231.61 52.34 1233.13 52.34C1234.17 52.34 1234.89 52.88 1235.51 53.78L1237.39 52.32C1236.53 50.8 1235.03 49.88 1233.09 49.88C1230.15 49.88 1227.79 52.14 1227.79 55.04ZM1248.49 53.86C1248.49 51.46 1247.05 49.88 1244.81 49.88C1243.71 49.88 1242.75 50.28 1242.09 50.94V45H1239.39V60H1242.09V54.24C1242.09 53.1 1242.87 52.32 1243.97 52.32C1245.07 52.32 1245.81 53.1 1245.81 54.24V60H1248.49V53.86ZM1116.33 78.94C1116.33 83.6 1118.13 86.5 1120.69 87.64L1121.75 86.02C1119.91 84.8 1118.69 82.7 1118.69 78.94C1118.69 75.16 1119.91 73.06 1121.75 71.84L1120.69 70.22C1118.13 71.36 1116.33 74.24 1116.33 78.94ZM1123.8 85H1126.5V79.98H1131.4V77.54H1126.5V74.24H1132.48V71.8H1123.8V85ZM1142.11 79.12C1142.11 76.38 1140.45 74.88 1137.87 74.88C1136.13 74.88 1134.69 75.56 1133.55 76.92L1134.95 78.58C1135.83 77.64 1136.55 77.22 1137.57 77.22C1138.77 77.22 1139.41 77.86 1139.41 78.96V79.4H1136.93C1134.63 79.4 1133.19 80.5 1133.19 82.28C1133.19 84.02 1134.51 85.24 1136.61 85.24C1137.87 85.24 1138.91 84.78 1139.63 84.04V85H1142.11V79.12ZM1139.41 81.3C1139.41 82.44 1138.51 83.26 1137.33 83.26C1136.47 83.26 1135.91 82.84 1135.91 82.18C1135.91 81.52 1136.41 81.18 1137.29 81.18H1139.41V81.3ZM1150.79 75.1C1150.53 75.02 1150.25 74.98 1149.91 74.98C1148.81 74.98 1147.85 75.46 1147.19 76.28V75.1H1144.71V85H1147.41V80.06C1147.41 78.36 1148.45 77.48 1150.07 77.48H1150.79V75.1ZM1167.73 78.86C1167.73 76.46 1166.31 74.88 1163.99 74.88C1162.63 74.88 1161.47 75.42 1160.69 76.3C1160.03 75.36 1159.05 74.88 1157.75 74.88C1156.61 74.88 1155.61 75.28 1154.95 75.98V75.1H1152.47V85H1155.17V79.24C1155.17 78.06 1155.89 77.32 1156.99 77.32C1158.05 77.32 1158.75 78.06 1158.75 79.24V85H1161.45V79.18C1161.45 78.08 1162.21 77.32 1163.27 77.32C1164.33 77.32 1165.03 78.06 1165.03 79.24V85H1167.73V78.86ZM1187.42 79.12L1185.34 77.64C1185.1 78 1184.86 78.34 1184.62 78.66C1184.28 79.16 1183.9 79.72 1183.48 80.3L1181.54 77.96C1183.06 76.7 1183.7 75.72 1183.7 74.46C1183.7 72.76 1182.34 71.56 1180.4 71.56C1178.34 71.56 1176.98 72.82 1176.98 74.72C1176.98 75.68 1177.34 76.56 1178.14 77.6C1177.16 78.38 1176.46 79.06 1176.06 79.64C1175.68 80.22 1175.48 80.86 1175.48 81.56C1175.48 83.74 1177.26 85.24 1179.82 85.24C1181.14 85.24 1182.34 84.84 1183.4 84.02L1184.2 85H1187.36L1185.14 82.3C1185.48 81.88 1186.08 81.06 1186.9 79.88L1187.42 79.12ZM1179.4 74.76C1179.4 74.2 1179.78 73.86 1180.36 73.86C1180.94 73.86 1181.28 74.18 1181.28 74.72C1181.28 75.26 1181 75.66 1180.22 76.28L1180.18 76.3C1179.6 75.58 1179.4 75.22 1179.4 74.76ZM1181.84 82.12C1181.24 82.62 1180.62 82.86 1179.98 82.86C1178.92 82.86 1178.18 82.24 1178.18 81.3C1178.18 80.66 1178.46 80.26 1179.56 79.36L1181.84 82.12ZM1195.16 85H1203.64V82.56H1197.86V71.8H1195.16V85ZM1205.47 85H1208.17V75.1H1205.47V85ZM1205.09 71.5C1205.09 72.44 1205.85 73.16 1206.81 73.16C1207.77 73.16 1208.55 72.44 1208.55 71.5C1208.55 70.54 1207.77 69.82 1206.81 69.82C1205.85 69.82 1205.09 70.54 1205.09 71.5ZM1226.1 78.86C1226.1 76.46 1224.68 74.88 1222.36 74.88C1221 74.88 1219.84 75.42 1219.06 76.3C1218.4 75.36 1217.42 74.88 1216.12 74.88C1214.98 74.88 1213.98 75.28 1213.32 75.98V75.1H1210.84V85H1213.54V79.24C1213.54 78.06 1214.26 77.32 1215.36 77.32C1216.42 77.32 1217.12 78.06 1217.12 79.24V85H1219.82V79.18C1219.82 78.08 1220.58 77.32 1221.64 77.32C1222.7 77.32 1223.4 78.06 1223.4 79.24V85H1226.1V78.86ZM1228.68 85H1231.38V75.1H1228.68V85ZM1228.3 71.5C1228.3 72.44 1229.06 73.16 1230.02 73.16C1230.98 73.16 1231.76 72.44 1231.76 71.5C1231.76 70.54 1230.98 69.82 1230.02 69.82C1229.06 69.82 1228.3 70.54 1228.3 71.5ZM1240.41 82.74C1239.71 82.8 1239.29 82.82 1239.13 82.82C1237.85 82.82 1237.29 82.4 1237.29 81.28V77.38H1240.09V75.1H1237.29V72.6H1234.59V75.1H1233.03V77.38H1234.59V81.52C1234.59 84 1236.05 85.24 1238.55 85.24C1239.15 85.24 1239.77 85.16 1240.41 85V82.74ZM1147.78 103.4C1147.72 107.18 1150.98 110.32 1154.78 110.24C1158.58 110.32 1161.88 107.18 1161.82 103.4C1161.88 99.62 1158.58 96.48 1154.78 96.56C1150.98 96.48 1147.72 99.62 1147.78 103.4ZM1159.04 103.4C1159.04 105.94 1157.22 107.74 1154.8 107.74C1152.36 107.74 1150.56 105.94 1150.56 103.4C1150.56 100.86 1152.36 99.06 1154.8 99.06C1157.22 99.06 1159.04 100.9 1159.04 103.4ZM1170.01 100.1C1169.75 100.02 1169.47 99.98 1169.13 99.98C1168.03 99.98 1167.07 100.46 1166.41 101.28V100.1H1163.93V110H1166.63V105.06C1166.63 103.36 1167.67 102.48 1169.29 102.48H1170.01V100.1ZM1178.69 95V101.06C1177.97 100.28 1176.99 99.88 1175.73 99.88C1172.97 99.88 1170.93 102.08 1170.93 105.06C1170.93 108.04 1172.97 110.24 1175.73 110.24C1177.09 110.24 1178.25 109.72 1178.91 108.78V110H1181.39V95H1178.69ZM1178.73 105.06C1178.73 106.84 1177.59 107.78 1176.23 107.78C1174.77 107.78 1173.67 106.7 1173.67 105.04C1173.67 103.42 1174.79 102.32 1176.23 102.32C1177.59 102.32 1178.73 103.3 1178.73 105.06ZM1193.17 105.96C1193.29 105.46 1193.35 104.96 1193.35 104.48C1193.35 101.9 1191.43 99.88 1188.69 99.88C1185.83 99.82 1183.45 102.2 1183.51 105.06C1183.45 107.92 1185.87 110.3 1188.93 110.24C1190.39 110.24 1191.71 109.74 1192.89 108.76L1191.77 106.92C1190.91 107.58 1189.99 107.92 1189.01 107.92C1187.57 107.92 1186.55 107.22 1186.23 105.96H1193.17ZM1186.23 104.06C1186.53 102.84 1187.45 102.06 1188.59 102.06C1189.77 102.06 1190.71 102.84 1190.73 104.06H1186.23ZM1201.53 100.1C1201.27 100.02 1200.99 99.98 1200.65 99.98C1199.55 99.98 1198.59 100.46 1197.93 101.28V100.1H1195.45V110H1198.15V105.06C1198.15 103.36 1199.19 102.48 1200.81 102.48H1201.53V100.1ZM1203.27 112.64C1204.53 112.06 1205.57 111.06 1206.39 109.62C1207.21 108.16 1207.61 106.28 1207.61 103.94C1207.61 101.6 1207.21 99.7 1206.39 98.26C1205.57 96.8 1204.53 95.8 1203.27 95.22L1202.19 96.84C1204.05 98.06 1205.27 100.16 1205.27 103.94C1205.27 107.7 1204.03 109.8 1202.19 111.02L1203.27 112.64Z" fill="white"/>
<path d="M167 298.287V455H169V298C168.344 298.173 167.674 298.269 167 298.287Z" fill="#00DA63"/>
<path d="M62.809 489.32C63.829 491.1 65.669 492.24 67.909 492.24C70.549 492.24 72.529 490.7 72.529 488.28C72.529 486.5 71.489 485.4 69.269 484.42L67.769 483.76C66.649 483.26 66.229 482.94 66.229 482.24C66.229 481.42 66.929 480.96 67.869 480.96C68.869 480.96 69.709 481.46 70.389 482.48L72.229 481.06C71.409 479.54 69.889 478.56 67.869 478.56C65.369 478.56 63.489 480.04 63.489 482.3C63.489 484.06 64.669 485.2 66.689 486.1L68.109 486.74C69.369 487.32 69.789 487.6 69.789 488.38C69.789 489.28 69.089 489.84 67.909 489.84C66.469 489.84 65.529 489.1 64.669 487.92L62.809 489.32ZM74.1609 487.04C74.1209 489.9 76.5609 492.3 79.4609 492.24C81.3809 492.24 82.9009 491.3 83.7609 489.78L81.8809 488.34C81.2409 489.24 80.5209 489.76 79.5009 489.76C77.9809 489.76 76.9009 488.62 76.9009 487.04C76.9009 485.5 77.9809 484.34 79.5009 484.34C80.5409 484.34 81.2609 484.88 81.8809 485.78L83.7609 484.32C82.9009 482.8 81.4009 481.88 79.4609 481.88C76.5209 481.88 74.1609 484.14 74.1609 487.04ZM94.056 486.12C94.056 483.38 92.396 481.88 89.816 481.88C88.076 481.88 86.636 482.56 85.496 483.92L86.896 485.58C87.776 484.64 88.496 484.22 89.516 484.22C90.716 484.22 91.356 484.86 91.356 485.96V486.4H88.876C86.576 486.4 85.136 487.5 85.136 489.28C85.136 491.02 86.456 492.24 88.556 492.24C89.816 492.24 90.856 491.78 91.576 491.04V492H94.056V486.12ZM91.356 488.3C91.356 489.44 90.456 490.26 89.276 490.26C88.416 490.26 87.856 489.84 87.856 489.18C87.856 488.52 88.356 488.18 89.236 488.18H91.356V488.3ZM96.6545 492H99.3545V477H96.6545V492ZM111.126 487.96C111.246 487.46 111.306 486.96 111.306 486.48C111.306 483.9 109.386 481.88 106.646 481.88C103.786 481.82 101.406 484.2 101.466 487.06C101.406 489.92 103.826 492.3 106.886 492.24C108.346 492.24 109.666 491.74 110.846 490.76L109.726 488.92C108.866 489.58 107.946 489.92 106.966 489.92C105.526 489.92 104.506 489.22 104.186 487.96H111.126ZM104.186 486.06C104.486 484.84 105.406 484.06 106.546 484.06C107.726 484.06 108.666 484.84 108.686 486.06H104.186ZM118.918 487.64C118.918 490.4 120.858 492.24 123.498 492.24C126.078 492.24 128.038 490.4 128.038 487.64V482.1H125.338V487.86C125.338 489 124.538 489.76 123.498 489.76C122.398 489.76 121.618 489 121.618 487.86V482.1H118.918V487.64ZM141.079 487.04C141.079 484.08 139.039 481.88 136.279 481.88C134.919 481.88 133.759 482.4 133.099 483.34V482.1H130.619V495.6H133.319V491.04C134.039 491.82 135.079 492.24 136.279 492.24C139.039 492.24 141.079 490 141.079 487.04ZM138.339 487.06C138.339 488.68 137.219 489.78 135.779 489.78C134.399 489.78 133.279 488.8 133.279 487.04C133.279 485.26 134.419 484.32 135.779 484.32C137.239 484.32 138.339 485.4 138.339 487.06ZM148.983 492H153.303C157.483 492.06 160.563 489.18 160.503 485.36C160.563 481.46 157.483 478.76 153.303 478.8H148.983V492ZM151.683 489.56V481.24H153.283C155.983 481.24 157.723 482.8 157.723 485.36C157.723 487.9 155.943 489.56 153.283 489.56H151.683ZM171.711 487.96C171.831 487.46 171.891 486.96 171.891 486.48C171.891 483.9 169.971 481.88 167.231 481.88C164.371 481.82 161.991 484.2 162.051 487.06C161.991 489.92 164.411 492.3 167.471 492.24C168.931 492.24 170.251 491.74 171.431 490.76L170.311 488.92C169.451 489.58 168.531 489.92 167.551 489.92C166.111 489.92 165.091 489.22 164.771 487.96H171.711ZM164.771 486.06C165.071 484.84 165.991 484.06 167.131 484.06C168.311 484.06 169.251 484.84 169.271 486.06H164.771ZM180.348 482.1L177.848 487.7L175.348 482.1H172.508L177.408 492.24H178.308L183.208 482.1H180.348ZM193.489 487.96C193.609 487.46 193.669 486.96 193.669 486.48C193.669 483.9 191.749 481.88 189.009 481.88C186.149 481.82 183.769 484.2 183.829 487.06C183.769 489.92 186.189 492.3 189.249 492.24C190.709 492.24 192.029 491.74 193.209 490.76L192.089 488.92C191.229 489.58 190.309 489.92 189.329 489.92C187.889 489.92 186.869 489.22 186.549 487.96H193.489ZM186.549 486.06C186.849 484.84 187.769 484.06 188.909 484.06C190.089 484.06 191.029 484.84 191.049 486.06H186.549ZM195.776 492H198.476V477H195.776V492ZM200.587 487.04C200.527 489.86 202.967 492.28 205.867 492.22C208.767 492.28 211.267 489.86 211.207 487.04C211.267 484.22 208.787 481.84 205.887 481.88C202.987 481.82 200.527 484.22 200.587 487.04ZM208.447 487.06C208.447 488.6 207.347 489.74 205.887 489.74C204.387 489.74 203.327 488.6 203.327 487.06C203.327 485.48 204.387 484.34 205.887 484.34C207.347 484.34 208.447 485.52 208.447 487.06ZM223.775 487.04C223.775 484.08 221.735 481.88 218.975 481.88C217.615 481.88 216.455 482.4 215.795 483.34V482.1H213.315V495.6H216.015V491.04C216.735 491.82 217.775 492.24 218.975 492.24C221.735 492.24 223.775 490 223.775 487.04ZM221.035 487.06C221.035 488.68 219.915 489.78 218.475 489.78C217.095 489.78 215.975 488.8 215.975 487.04C215.975 485.26 217.115 484.32 218.475 484.32C219.935 484.32 221.035 485.4 221.035 487.06ZM241.153 485.86C241.153 483.46 239.733 481.88 237.413 481.88C236.053 481.88 234.893 482.42 234.113 483.3C233.453 482.36 232.473 481.88 231.173 481.88C230.033 481.88 229.033 482.28 228.373 482.98V482.1H225.893V492H228.593V486.24C228.593 485.06 229.313 484.32 230.413 484.32C231.473 484.32 232.173 485.06 232.173 486.24V492H234.873V486.18C234.873 485.08 235.633 484.32 236.693 484.32C237.753 484.32 238.453 485.06 238.453 486.24V492H241.153V485.86ZM252.825 487.96C252.945 487.46 253.005 486.96 253.005 486.48C253.005 483.9 251.085 481.88 248.345 481.88C245.485 481.82 243.105 484.2 243.165 487.06C243.105 489.92 245.525 492.3 248.585 492.24C250.045 492.24 251.365 491.74 252.545 490.76L251.425 488.92C250.565 489.58 249.645 489.92 248.665 489.92C247.225 489.92 246.205 489.22 245.885 487.96H252.825ZM245.885 486.06C246.185 484.84 247.105 484.06 248.245 484.06C249.425 484.06 250.365 484.84 250.385 486.06H245.885ZM264.211 485.86C264.211 483.46 262.791 481.88 260.491 481.88C259.311 481.88 258.291 482.3 257.591 483V482.1H255.111V492H257.811V486.22C257.811 485.08 258.591 484.3 259.691 484.3C260.791 484.3 261.531 485.08 261.531 486.22V492H264.211V485.86ZM273.171 489.74C272.471 489.8 272.051 489.82 271.891 489.82C270.611 489.82 270.051 489.4 270.051 488.28V484.38H272.851V482.1H270.051V479.6H267.351V482.1H265.791V484.38H267.351V488.52C267.351 491 268.811 492.24 271.311 492.24C271.911 492.24 272.531 492.16 273.171 492V489.74ZM112.403 511.12L110.323 509.64C110.083 510 109.843 510.34 109.603 510.66C109.263 511.16 108.883 511.72 108.463 512.3L106.523 509.96C108.043 508.7 108.683 507.72 108.683 506.46C108.683 504.76 107.323 503.56 105.383 503.56C103.323 503.56 101.963 504.82 101.963 506.72C101.963 507.68 102.323 508.56 103.123 509.6C102.143 510.38 101.443 511.06 101.043 511.64C100.663 512.22 100.463 512.86 100.463 513.56C100.463 515.74 102.243 517.24 104.803 517.24C106.123 517.24 107.323 516.84 108.383 516.02L109.183 517H112.343L110.123 514.3C110.463 513.88 111.063 513.06 111.883 511.88L112.403 511.12ZM104.383 506.76C104.383 506.2 104.763 505.86 105.343 505.86C105.923 505.86 106.263 506.18 106.263 506.72C106.263 507.26 105.983 507.66 105.203 508.28L105.163 508.3C104.583 507.58 104.383 507.22 104.383 506.76ZM106.823 514.12C106.223 514.62 105.603 514.86 104.963 514.86C103.903 514.86 103.163 514.24 103.163 513.3C103.163 512.66 103.443 512.26 104.543 511.36L106.823 514.12ZM120.145 517H124.465C128.645 517.06 131.725 514.18 131.665 510.36C131.725 506.46 128.645 503.76 124.465 503.8H120.145V517ZM122.845 514.56V506.24H124.445C127.145 506.24 128.885 507.8 128.885 510.36C128.885 512.9 127.105 514.56 124.445 514.56H122.845ZM142.874 512.96C142.994 512.46 143.054 511.96 143.054 511.48C143.054 508.9 141.134 506.88 138.394 506.88C135.534 506.82 133.154 509.2 133.214 512.06C133.154 514.92 135.574 517.3 138.634 517.24C140.094 517.24 141.414 516.74 142.594 515.76L141.474 513.92C140.614 514.58 139.694 514.92 138.714 514.92C137.274 514.92 136.254 514.22 135.934 512.96H142.874ZM135.934 511.06C136.234 509.84 137.154 509.06 138.294 509.06C139.474 509.06 140.414 509.84 140.434 511.06H135.934ZM144.26 515.32C145.16 516.52 146.62 517.24 148.36 517.24C149.48 517.24 150.4 516.96 151.12 516.4C151.86 515.84 152.22 515.06 152.22 514.08C152.22 512.62 151.36 511.84 149.44 511.06L148.48 510.66C147.7 510.34 147.44 510.16 147.44 509.78C147.44 509.32 147.84 509.08 148.5 509.08C149.32 509.08 150.06 509.4 150.72 510.02L152.08 508.36C151.18 507.38 150 506.88 148.52 506.88C146.36 506.88 144.88 507.98 144.88 509.84C144.88 511.3 145.76 512.12 147.58 512.86L148.64 513.3C149.38 513.62 149.66 513.78 149.66 514.2C149.66 514.74 149.12 515.02 148.4 515.02C147.42 515.02 146.48 514.58 145.62 513.68L144.26 515.32ZM154.262 517H156.962V507.1H154.262V517ZM153.882 503.5C153.882 504.44 154.642 505.16 155.602 505.16C156.562 505.16 157.342 504.44 157.342 503.5C157.342 502.54 156.562 501.82 155.602 501.82C154.642 501.82 153.882 502.54 153.882 503.5ZM167.093 507.1V508.34C166.393 507.4 165.273 506.88 163.853 506.88C161.153 506.88 159.113 508.84 159.113 511.78C159.113 514.68 161.113 516.7 163.853 516.7C165.113 516.7 166.153 516.3 166.873 515.52V516.06C166.873 517.6 165.833 518.4 164.233 518.4C163.033 518.4 162.113 517.94 161.013 517.12L159.593 519C160.973 520.22 162.593 520.84 164.453 520.84C167.553 520.84 169.573 519.12 169.573 515.9V507.1H167.093ZM166.913 511.74C166.913 513.44 165.773 514.42 164.413 514.42C162.973 514.42 161.853 513.36 161.853 511.76C161.853 510.16 162.953 509.18 164.413 509.18C165.793 509.18 166.913 510.04 166.913 511.74ZM181.35 510.86C181.35 508.46 179.93 506.88 177.63 506.88C176.45 506.88 175.43 507.3 174.73 508V507.1H172.25V517H174.95V511.22C174.95 510.08 175.73 509.3 176.83 509.3C177.93 509.3 178.67 510.08 178.67 511.22V517H181.35V510.86ZM195.915 514.74C195.215 514.8 194.795 514.82 194.635 514.82C193.355 514.82 192.795 514.4 192.795 513.28V509.38H195.595V507.1H192.795V504.6H190.095V507.1H188.535V509.38H190.095V513.52C190.095 516 191.555 517.24 194.055 517.24C194.655 517.24 195.275 517.16 195.915 517V514.74ZM206.78 512.96C206.9 512.46 206.96 511.96 206.96 511.48C206.96 508.9 205.04 506.88 202.3 506.88C199.44 506.82 197.06 509.2 197.12 512.06C197.06 514.92 199.48 517.3 202.54 517.24C204 517.24 205.32 516.74 206.5 515.76L205.38 513.92C204.52 514.58 203.6 514.92 202.62 514.92C201.18 514.92 200.16 514.22 199.84 512.96H206.78ZM199.84 511.06C200.14 509.84 201.06 509.06 202.2 509.06C203.38 509.06 204.32 509.84 204.34 511.06H199.84ZM217.367 511.12C217.367 508.38 215.707 506.88 213.127 506.88C211.387 506.88 209.947 507.56 208.807 508.92L210.207 510.58C211.087 509.64 211.807 509.22 212.827 509.22C214.027 509.22 214.667 509.86 214.667 510.96V511.4H212.187C209.887 511.4 208.447 512.5 208.447 514.28C208.447 516.02 209.767 517.24 211.867 517.24C213.127 517.24 214.167 516.78 214.887 516.04V517H217.367V511.12ZM214.667 513.3C214.667 514.44 213.767 515.26 212.587 515.26C211.727 515.26 211.167 514.84 211.167 514.18C211.167 513.52 211.667 513.18 212.547 513.18H214.667V513.3ZM235.225 510.86C235.225 508.46 233.805 506.88 231.485 506.88C230.125 506.88 228.965 507.42 228.185 508.3C227.525 507.36 226.545 506.88 225.245 506.88C224.105 506.88 223.105 507.28 222.445 507.98V507.1H219.965V517H222.665V511.24C222.665 510.06 223.385 509.32 224.485 509.32C225.545 509.32 226.245 510.06 226.245 511.24V517H228.945V511.18C228.945 510.08 229.705 509.32 230.765 509.32C231.825 509.32 232.525 510.06 232.525 511.24V517H235.225V510.86Z" fill="white"/>
<path d="M1184.31 232.07C1117.86 192.2 1042.53 147 898.379 147C754.229 147 678.899 192.2 612.449 232.07C551.659 268.55 499.159 300.07 388.249 300.07C277.339 300.07 224.839 268.58 164.059 232.07C119.439 205.3 70.8086 176.13 0.0585938 159.84V284.23C38.8186 296.86 69.3586 315.18 102.339 334.97C168.799 374.85 244.119 420.04 388.269 420.04C532.419 420.04 607.749 374.85 674.199 334.97C734.989 298.5 787.489 266.97 898.399 266.97C1009.31 266.97 1061.81 298.47 1122.59 334.97C1167.52 361.97 1216.5 391.32 1288.06 407.53V283.31C1248.59 270.64 1217.7 252.11 1184.31 232.07Z" fill="black"/>
<path d="M349.63 366.8L349.5 368.8C359.95 369.51 370.87 369.92 381.95 370.03V368.03C370.93 367.91 360.05 367.5 349.63 366.8ZM446.56 365.08C436.17 366.2 425.33 367.01 414.32 367.49L414.41 369.49C425.46 369.01 436.34 368.19 446.78 367.07L446.56 365.08ZM285.62 358.08L285.2 360.08C295.53 362.3 306.29 364.17 317.2 365.64L317.47 363.64C306.61 362.1 295.9 360.24 285.62 358.03V358.08ZM510.06 353.44C499.87 356.19 489.27 358.57 478.55 360.53L478.91 362.53C489.68 360.53 500.34 358.16 510.58 355.41L510.06 353.44ZM223.87 339.15L223.12 341.01C233.18 345.07 243.49 348.71 253.75 351.85L254.34 349.94C244.13 346.8 233.88 343.17 223.87 339.13V339.15ZM570.73 331.32C560.65 335.97 550.88 340.01 540.87 343.66L541.55 345.54C551.62 341.87 561.44 337.81 571.55 333.13L570.73 331.32ZM165.83 310.6L164.83 312.34C175.13 318.18 184.5 323.19 193.48 327.65L194.37 325.86C185.46 321.42 176.1 316.43 165.83 310.6ZM627.75 300.67C616.67 307.23 608 312.19 599.62 316.74L600.57 318.5C608.97 313.94 617.67 308.97 628.77 302.39L627.75 300.67ZM1153.98 291.67L1147.49 287.78L1146.49 289.49L1152.98 293.38C1159.98 297.57 1167.17 301.9 1174.36 306.11L1175.36 304.38C1168.16 300.2 1160.95 295.87 1153.98 291.69V291.67ZM133.69 291.67C125.97 287.03 117.98 282.24 110.01 277.6L109.01 279.33C117.01 283.97 124.95 288.75 132.67 293.33L136.87 295.85L137.87 294.14L133.69 291.67ZM683.69 267.84C673.14 273.63 663.11 279.53 655.55 284.03L656.55 285.75C664.09 281.26 674.09 275.37 684.63 269.59L683.69 267.84ZM1090.69 256.24L1089.81 258.04C1098.81 262.46 1108.21 267.4 1118.43 273.16L1119.43 271.42C1109.21 265.64 1099.82 260.68 1090.75 256.24H1090.69ZM52.23 247.85L51.43 249.69C60.98 253.82 70.53 258.38 80.62 263.63L81.54 261.86C71.46 256.58 61.88 252 52.29 247.85H52.23ZM742.52 240.45C732.52 244.19 722.72 248.31 712.59 253.06L713.44 254.87C723.52 250.15 733.26 246.04 743.22 242.33L742.52 240.45ZM1030.28 232.45L1029.71 234.37C1039.95 237.37 1050.22 240.97 1060.24 244.93L1060.98 243.07C1050.96 239.11 1040.63 235.54 1030.34 232.47L1030.28 232.45ZM3.11 230.45L0.110001 229.63H0V231.7L0.68 231.89C1.84 232.2 3.01 232.53 4.17 232.89L6.66 233.59L9.09 234.31C9.89 234.54 10.69 234.78 11.48 235.03C13 235.49 14.48 235.96 16.02 236.44C17.78 237 19.53 237.57 21.27 238.15L21.91 236.25C15.8 234.16 9.52 232.24 3.17 230.48L3.11 230.45ZM805.05 223.08C794.31 225.08 783.67 227.57 773.42 230.41L773.95 232.34C784.15 229.52 794.74 227.06 805.42 225.04L805.05 223.08ZM966.76 219.14L966.5 221.14C977.36 222.55 988.09 224.34 998.37 226.48L998.78 224.48C988.51 222.38 977.73 220.58 966.82 219.17L966.76 219.14ZM869.5 215.67C858.45 216.21 847.57 217.08 837.15 218.26L837.38 220.26C847.75 219.09 858.59 218.26 869.6 217.69L869.5 215.67ZM902 215V217C913 217.06 923.91 217.42 934.33 218.07L934.46 216.07C924.04 215.45 913.12 215.09 902.06 215.03L902 215Z" fill="#00DA63"/>
<path d="M1177.8 337.6C1184.09 337.6 1190.24 335.735 1195.47 332.241C1200.7 328.746 1204.77 323.78 1207.18 317.969C1209.59 312.159 1210.22 305.765 1208.99 299.596C1207.76 293.428 1204.73 287.761 1200.29 283.314C1195.84 278.867 1190.17 275.838 1184 274.611C1177.84 273.384 1171.44 274.014 1165.63 276.421C1159.82 278.827 1154.85 282.903 1151.36 288.133C1147.87 293.362 1146 299.511 1146 305.8C1146 314.234 1149.35 322.322 1155.31 328.286C1161.28 334.25 1169.37 337.6 1177.8 337.6Z" fill="#00DA63"/>
<path d="M1194.44 296.59C1193.92 295.352 1193.16 294.231 1192.2 293.29C1191.22 292.317 1190.03 291.57 1188.73 291.1C1187.47 290.635 1186.14 290.405 1184.8 290.42C1183.47 290.428 1182.15 290.672 1180.9 291.14C1179.62 291.626 1178.45 292.375 1177.47 293.34L1170.86 299.92L1168.22 302.52C1168.03 302.71 1167.8 302.857 1167.55 302.95C1167.25 303.049 1166.93 303.1 1166.61 303.1C1166.27 303.102 1165.93 303.037 1165.61 302.91C1165.36 302.821 1165.13 302.677 1164.94 302.49C1164.75 302.305 1164.59 302.08 1164.49 301.83C1164.38 301.585 1164.33 301.318 1164.34 301.05C1164.33 300.4 1164.56 299.769 1164.97 299.27L1167.39 296.61L1161.62 290.93L1158.9 293.83C1157.99 294.85 1157.29 296.039 1156.84 297.33C1156.4 298.555 1156.19 299.849 1156.21 301.15C1156.24 302.427 1156.49 303.69 1156.96 304.88C1157.45 306.123 1158.2 307.248 1159.15 308.18C1160.15 309.17 1161.34 309.934 1162.66 310.42C1163.91 310.887 1165.24 311.134 1166.57 311.15C1167.07 311.15 1167.57 311.12 1168.07 311.06C1168.91 310.941 1169.74 310.729 1170.53 310.43C1171.82 309.938 1172.99 309.185 1173.97 308.22L1176.63 305.6L1183.23 299.11C1183.43 298.911 1183.68 298.758 1183.94 298.66C1184.52 298.433 1185.16 298.433 1185.73 298.66C1186 298.758 1186.24 298.911 1186.44 299.11C1186.64 299.297 1186.79 299.522 1186.89 299.77C1186.99 300.013 1187.04 300.276 1187.03 300.54C1187.04 301.192 1186.82 301.827 1186.4 302.33L1175.98 312.81C1175.22 313.571 1174.79 314.603 1174.79 315.68C1174.79 316.756 1175.22 317.788 1175.98 318.55L1184.67 327.34L1190.88 321.58L1184.88 315.33L1185.77 314.43L1192.51 307.69C1193.43 306.66 1194.14 305.461 1194.6 304.16C1195.04 302.931 1195.25 301.634 1195.23 300.33C1195.21 299.045 1194.94 297.776 1194.44 296.59Z" fill="white"/>
</svg>
