<svg width="18" height="17" viewBox="0 0 18 17" fill="none" xmlns="http://www.w3.org/2000/svg">
<path d="M12.506 13.5537L11.6576 9.11816L8.51636 11.595L9.77451 13.2157L6.71936 16.0306C6.65855 16.0866 6.61892 16.1618 6.60716 16.2436C6.59541 16.3254 6.61226 16.4087 6.65486 16.4795C6.69746 16.5503 6.7632 16.6042 6.84096 16.6321C6.91873 16.6601 7.00375 16.6603 7.08165 16.6328L11.6665 15.0157C11.9582 14.9127 12.2033 14.7086 12.3574 14.4403C12.5114 14.1721 12.5641 13.8575 12.506 13.5537V13.5537Z" fill="#EF5361"/>
<path d="M3.74144 4.77691L8.17695 5.62518L5.70012 8.76658L4.0794 7.50843L1.26447 10.5638C1.20851 10.6246 1.13331 10.6641 1.05157 10.6758C0.969827 10.6875 0.886548 10.6707 0.815796 10.6281C0.745045 10.5855 0.691154 10.5198 0.663225 10.4421C0.635296 10.3644 0.63504 10.2794 0.662499 10.2016L2.27943 5.61667C2.38235 5.32493 2.58647 5.07977 2.85472 4.92569C3.12298 4.77161 3.43759 4.71882 3.74144 4.77691V4.77691Z" fill="#EF5361"/>
<path d="M13.6077 0.390625C11.9459 0.902971 9.92582 2.03608 8.02716 4.45938C5.83841 7.25295 4.65514 8.85528 4.021 9.75507L7.54375 13.2778C8.44353 12.6437 10.0459 11.4604 12.8394 9.27165C15.2626 7.373 16.3958 5.35295 16.9085 3.69127L13.6077 0.390625Z" fill="#DBE2EB"/>
<path d="M12.8418 9.27545C10.048 11.4637 8.44616 12.6468 7.54584 13.2818L6.90088 12.6368C7.80147 12.0025 9.40407 10.8198 12.1968 8.63062C14.6205 6.7321 15.7534 4.71192 16.2659 3.05078L16.9097 3.6948C16.3983 5.35674 15.2644 7.37598 12.8418 9.27545V9.27545Z" fill="#C8CBD2"/>
<path d="M17.2815 0.591971C17.2699 0.44372 17.2058 0.304468 17.1007 0.199269C16.9956 0.0940714 16.8564 0.0298343 16.7081 0.0181165C15.4761 -0.0622747 14.2413 0.125532 13.0889 0.568584L16.731 4.2107C17.174 3.05845 17.3618 1.82383 17.2815 0.591971V0.591971Z" fill="#EF5361"/>
<path d="M16.7313 4.20611L16.0874 3.56223C16.521 2.43015 16.7102 1.21917 16.6427 0.00878906C16.6649 0.0108168 16.6869 0.0128446 16.7082 0.0137908C16.8563 0.0255723 16.9954 0.0897724 17.1005 0.194869C17.2056 0.299966 17.2698 0.439078 17.2816 0.58724C17.3613 1.8191 17.1736 3.05363 16.7313 4.20611Z" fill="#DA2A47"/>
<path d="M4.41124 9.20898C3.99001 9.79027 3.72613 10.175 3.56269 10.4232C3.48821 10.5363 3.45507 10.6716 3.46889 10.8062C3.48271 10.9409 3.54264 11.0667 3.63853 11.1623L6.13646 13.6602C6.23205 13.756 6.35782 13.8159 6.49249 13.8297C6.62716 13.8435 6.76246 13.8104 6.87551 13.7359C7.1237 13.5724 7.50817 13.3086 8.08973 12.8873L4.41124 9.20898Z" fill="#EF5361"/>
<path d="M8.08939 12.887C7.50688 13.3087 7.12255 13.5723 6.87503 13.7352C6.76211 13.8102 6.62666 13.8437 6.4918 13.8299C6.35694 13.8161 6.23103 13.756 6.13558 13.6598L5.4917 13.0159C5.58738 13.1117 5.71324 13.1716 5.84799 13.1854C5.98273 13.1991 6.11809 13.1659 6.23115 13.0913C6.47868 12.9284 6.863 12.6648 7.44551 12.2432L8.08939 12.887Z" fill="#DA2A47"/>
<path d="M12.7925 6.96688C13.7515 6.56938 14.2067 5.46975 13.8092 4.51078C13.4117 3.55181 12.312 3.09664 11.3531 3.49414C10.3941 3.89163 9.93893 4.99127 10.3364 5.95024C10.7339 6.90921 11.8336 7.36437 12.7925 6.96688Z" fill="#43567C"/>
<path d="M13.3996 6.55819C13.2251 6.73279 13.0179 6.87129 12.7899 6.96578C12.5618 7.06028 12.3174 7.10892 12.0705 7.10892C11.8237 7.10892 11.5793 7.06028 11.3512 6.96578C11.1232 6.87129 10.916 6.73279 10.7415 6.55819C10.6713 6.48762 10.6064 6.41199 10.5474 6.33189C10.9095 6.59398 11.3531 6.71846 11.7987 6.68299C12.2443 6.64752 12.6626 6.45442 12.9787 6.13835C13.2948 5.82228 13.4878 5.40392 13.5233 4.95834C13.5588 4.51276 13.4343 4.06912 13.1722 3.70703C13.2523 3.76614 13.3279 3.83102 13.3985 3.90115C13.751 4.25339 13.949 4.73118 13.9493 5.22945C13.9495 5.72772 13.7517 6.20567 13.3996 6.55819V6.55819Z" fill="#384868"/>
<path d="M4.19421 12.9024C4.19421 12.9024 5.53063 13.9716 4.70966 15.3655C3.88869 16.7594 2.74315 16.4537 2.74315 16.4537C2.74315 16.4537 3.12504 15.9064 3.06759 15.7345C3.06759 15.7345 1.66749 17.4147 0 16.1418C0 16.1418 0.700116 15.8746 0.846385 15.2955C0.992654 14.7163 1.27289 14.169 1.62288 13.9081C1.52211 14.0041 1.39508 14.0681 1.25789 14.0919C1.12071 14.1157 0.97956 14.0982 0.852333 14.0416C0.97226 13.9763 1.06982 13.8765 1.13238 13.7551C1.19495 13.6337 1.21964 13.4963 1.20327 13.3607C1.14568 12.8834 2.93362 11.6168 4.19421 12.9024Z" fill="#EF5361"/>
<path d="M4.35055 13.0488C4.35055 13.0488 3.72573 12.2679 2.91125 12.7477C2.09677 13.2274 2.27589 13.8967 2.27589 13.8967C2.27589 13.8967 2.59573 13.6737 2.69617 13.7075C2.69617 13.7075 1.71433 14.5256 2.45811 15.5C2.45811 15.5 2.61439 15.0909 2.95275 15.0054C3.29112 14.9198 3.61096 14.7562 3.76385 14.5517C3.70782 14.6106 3.67049 14.6848 3.65659 14.7649C3.64268 14.845 3.65282 14.9274 3.68572 15.0017C3.724 14.9317 3.78239 14.8749 3.85333 14.8384C3.92427 14.8019 4.00451 14.7876 4.0837 14.7972C4.36163 14.8302 5.10177 13.7852 4.35055 13.0488V13.0488Z" fill="#FFC943"/>
</svg>
