<svg width="903" height="674" viewBox="0 0 903 674" fill="none" xmlns="http://www.w3.org/2000/svg">
<rect width="902.846" height="674" rx="25.0791" fill="#000201"/>
<rect x="763.203" y="16.3169" width="117.058" height="24.5786" rx="12.1996" fill="#0A0C0B" stroke="url(#paint0_linear_410_814)" stroke-width="1.28417"/>
<path d="M784.947 28.7074C784.906 30.6491 786.58 32.2415 788.511 32.2107C789.775 32.2107 790.844 31.6045 791.419 30.6491L790.597 30.043C790.114 30.7929 789.416 31.2141 788.522 31.2141C787.135 31.2141 786.077 30.1457 786.077 28.7074C786.077 27.2692 787.135 26.2008 788.522 26.2008C789.416 26.2008 790.114 26.622 790.597 27.3719L791.419 26.7658C790.833 25.8104 789.755 25.2042 788.511 25.2042C786.58 25.1734 784.906 26.7658 784.947 28.7074ZM792.231 29.5704C792.2 30.9984 793.443 32.2415 794.892 32.2107C796.361 32.2415 797.604 30.9984 797.573 29.5704C797.604 28.1424 796.361 26.9096 794.892 26.9404C793.443 26.9199 792.2 28.1219 792.231 29.5704ZM796.463 29.5807C796.463 30.495 795.785 31.2141 794.892 31.2141C794.008 31.2141 793.33 30.5156 793.33 29.5807C793.33 28.6458 794.008 27.9267 794.902 27.9267C795.775 27.9267 796.463 28.6458 796.463 29.5807ZM803.217 28.9437C803.217 27.7418 802.508 26.9404 801.327 26.9404C800.7 26.9404 800.196 27.1459 799.816 27.5466V27.0534H798.81V32.0977H799.888V29.0876C799.888 28.3992 800.371 27.9164 801.039 27.9164C801.696 27.9164 802.138 28.389 802.138 29.0876V32.0977H803.217V28.9437ZM809.126 28.9437C809.126 27.7418 808.417 26.9404 807.236 26.9404C806.609 26.9404 806.106 27.1459 805.726 27.5466V27.0534H804.719V32.0977H805.797V29.0876C805.797 28.3992 806.28 27.9164 806.948 27.9164C807.606 27.9164 808.047 28.389 808.047 29.0876V32.0977H809.126V28.9437ZM815.169 29.93C815.22 29.6937 815.251 29.4677 815.251 29.2519C815.251 27.9369 814.254 26.9404 812.919 26.9404C811.491 26.9096 810.279 28.1321 810.309 29.5807C810.309 31.0703 811.481 32.2107 813.022 32.2107C813.792 32.2107 814.46 31.9436 815.035 31.3991L814.522 30.6594C814.07 31.06 813.576 31.2552 813.052 31.2552C812.189 31.2552 811.542 30.7518 811.409 29.93H815.169ZM811.429 29.0876C811.594 28.3376 812.169 27.8548 812.878 27.8548C813.587 27.8548 814.162 28.3171 814.172 29.0876H811.429ZM816.168 29.5704C816.168 31.0395 817.35 32.2107 818.84 32.2107C819.754 32.2107 820.514 31.7689 820.966 31.0395L820.206 30.4539C819.836 30.9573 819.384 31.2141 818.85 31.2141C817.946 31.2141 817.268 30.495 817.268 29.5704C817.268 28.6561 817.946 27.9369 818.85 27.9369C819.394 27.9369 819.846 28.1938 820.206 28.7074L820.966 28.1116C820.524 27.3822 819.774 26.9404 818.84 26.9404C817.391 26.9199 816.138 28.1219 816.168 29.5704ZM825.155 31.1833C824.857 31.2141 824.642 31.2347 824.487 31.2347C823.83 31.2347 823.491 31.0087 823.491 30.3615V27.9883H824.991V27.0534H823.491V25.7282H822.402V27.0534H821.58V27.9883H822.402V30.4539C822.402 31.6354 823.101 32.2107 824.261 32.2107C824.518 32.2107 824.816 32.1696 825.155 32.0977V31.1833ZM837.071 25.3172L835.376 29.8992L833.424 25.2042H833.044L831.102 29.8992L829.407 25.3172H828.205L830.846 32.2107H831.215L833.239 27.4027L835.263 32.2107H835.623L838.263 25.3172H837.071ZM842.946 29.0465C842.946 27.6904 842.125 26.9404 840.882 26.9404C840.008 26.9404 839.258 27.2897 838.755 28.0191L839.382 28.6561C839.803 28.1527 840.214 27.9061 840.779 27.9061C841.467 27.9061 841.857 28.2862 841.857 28.9848V29.3136H840.429C839.289 29.3136 838.57 29.8786 838.57 30.7518C838.57 31.6251 839.269 32.2107 840.327 32.2107C841.015 32.2107 841.57 31.9744 841.94 31.5326V32.0977H842.946V29.0465ZM841.857 30.1868C841.857 30.8751 841.282 31.3785 840.553 31.3785C840.029 31.3785 839.669 31.132 839.669 30.7108C839.669 30.2998 839.988 30.0944 840.563 30.0944H841.857V30.1868ZM844.448 32.0977H845.526V24.3926H844.448V32.0977ZM847.086 32.0977H848.165V24.3926H847.086V32.0977ZM854.266 29.93C854.317 29.6937 854.348 29.4677 854.348 29.2519C854.348 27.9369 853.351 26.9404 852.016 26.9404C850.588 26.9096 849.376 28.1321 849.406 29.5807C849.406 31.0703 850.578 32.2107 852.119 32.2107C852.889 32.2107 853.557 31.9436 854.132 31.3991L853.618 30.6594C853.166 31.06 852.673 31.2552 852.149 31.2552C851.286 31.2552 850.639 30.7518 850.506 29.93H854.266ZM850.526 29.0876C850.691 28.3376 851.266 27.8548 851.975 27.8548C852.684 27.8548 853.259 28.3171 853.269 29.0876H850.526ZM858.584 31.1833C858.286 31.2141 858.07 31.2347 857.916 31.2347C857.258 31.2347 856.919 31.0087 856.919 30.3615V27.9883H858.419V27.0534H856.919V25.7282H855.83V27.0534H855.009V27.9883H855.83V30.4539C855.83 31.6354 856.529 32.2107 857.69 32.2107C857.947 32.2107 858.245 32.1696 858.584 32.0977V31.1833Z" fill="#00DA63"/>
<path d="M47.8076 25.1499C47.8094 24.5436 47.52 23.9735 47.0296 23.6171C47.5311 23.0897 47.8097 22.389 47.8076 21.6613C47.8047 20.7216 47.3398 19.8436 46.5639 19.3133C45.7882 18.7831 44.8012 18.6686 43.9247 19.0072C43.0482 19.3459 42.3945 20.0943 42.1768 21.0084C41.7707 21.2247 41.4311 21.5472 41.194 21.9415C40.9569 22.3358 40.8313 22.787 40.8305 23.2471C40.8289 23.7223 40.9626 24.1884 41.2162 24.5905C40.3723 25.4348 40.0195 26.6524 40.281 27.817C40.5425 28.9818 41.3819 29.9316 42.5057 30.3342C42.3868 30.6719 42.3863 31.0399 42.5044 31.3777C42.6225 31.7156 42.852 32.0032 43.1551 32.1933C43.0857 32.3747 43.0502 32.5672 43.0505 32.7613C43.0505 32.8045 43.0527 32.8476 43.0569 32.8917C42.7047 33.0435 42.4196 33.3178 42.2542 33.6638C42.0887 34.0097 42.0543 34.4038 42.1572 34.7732C42.26 35.1426 42.4932 35.4622 42.8136 35.6728C43.134 35.8833 43.5199 35.9708 43.8998 35.9189C44.2797 35.8668 44.6278 35.6789 44.8798 35.3899C45.1318 35.101 45.2706 34.7304 45.2704 34.347C45.2704 34.3039 45.2682 34.2608 45.2641 34.2166C45.5478 34.0932 45.7893 33.8899 45.9594 33.6314C46.1294 33.373 46.2206 33.0707 46.2219 32.7613C46.2216 32.6274 46.2039 32.4942 46.1692 32.3649C46.7109 32.2181 47.1769 31.8715 47.4732 31.3949C47.7694 30.9184 47.8741 30.3472 47.766 29.7964C47.658 29.2458 47.3452 28.7565 46.8907 28.4272C47.0769 27.9929 47.1731 27.5253 47.1733 27.0527C47.1732 26.8995 47.1626 26.7465 47.1416 26.5947C47.564 26.2335 47.8073 25.7057 47.8076 25.1499L47.8076 25.1499Z" fill="#09A34E"/>
<path d="M34.8035 30.2266H30.9978C30.8227 30.2266 30.6807 30.3686 30.6807 30.5437V35.618C30.6807 35.7021 30.7141 35.7828 30.7735 35.8423C30.833 35.9017 30.9137 35.9351 30.9978 35.9351H34.8035C34.8876 35.9351 34.9683 35.9017 35.0278 35.8423C35.0872 35.7828 35.1207 35.7021 35.1207 35.618V30.5437C35.1207 30.4596 35.0872 30.3789 35.0278 30.3194C34.9683 30.26 34.8876 30.2266 34.8035 30.2266ZM31.9492 35.3008H31.3149V34.6666H31.9492V35.3008ZM31.9492 34.0323H31.3149V33.398H31.9492V34.0323ZM31.9492 32.7637H31.3149V32.1294H31.9492V32.7637ZM31.9492 31.4951H31.3149V30.8608H31.9492V31.4951ZM34.4864 35.3008H32.5835V34.6666H34.4864V35.3008ZM34.4864 34.0323H32.5835V33.398H34.4864V34.0323ZM34.4864 32.7637H32.5835V32.1294H34.4864V32.7637ZM34.4864 31.4951H32.5835V30.8608H34.4864V31.4951Z" fill="#09A34E"/>
<path d="M34.8035 27.6885H30.9978C30.8227 27.6885 30.6807 27.8305 30.6807 28.0056C30.6807 28.1808 30.8227 28.3228 30.9978 28.3228H34.8035C34.9787 28.3228 35.1207 28.1808 35.1207 28.0056C35.1207 27.8305 34.9787 27.6885 34.8035 27.6885Z" fill="#09A34E"/>
<path d="M41.6797 34.6838L39.7769 35.3181C39.6486 35.3628 39.5622 35.4834 39.5612 35.6194V35.9365H39.2441C39.069 35.9365 38.927 35.7945 38.927 35.6194V24.8365C38.9251 23.6256 38.4614 22.4608 37.6306 21.5798C36.7997 20.6988 35.664 20.1678 34.4552 20.0952C34.3699 19.6491 34.0968 19.2613 33.7057 19.0304C33.3147 18.7994 32.8432 18.7476 32.4112 18.8884C31.9794 19.0289 31.6288 19.3483 31.4487 19.7653L30.5892 18.9028C30.5287 18.8443 30.4482 18.8113 30.3641 18.8108H28.4612V19.445H30.2341L30.8684 20.0793H29.7298C29.6332 20.0798 29.5422 20.1241 29.4824 20.1998L28.2139 21.7855L28.7085 22.1789L29.882 20.7136H31.3472C31.3953 20.945 31.4963 21.162 31.6421 21.3479H31.6326C31.4575 21.3479 31.3155 21.4899 31.3155 21.665V22.6354C30.6185 22.7146 29.9747 23.0471 29.5069 23.5699C29.0392 24.0927 28.7798 24.7692 28.7783 25.4707V36.8879C28.7791 37.14 28.8796 37.3816 29.0578 37.5598C29.2361 37.7381 29.4776 37.8386 29.7298 37.8393H36.0726C36.3248 37.8386 36.5663 37.7381 36.7446 37.5598C36.9228 37.3816 37.0233 37.14 37.024 36.8879V25.4707C37.0226 24.7692 36.7633 24.0927 36.2955 23.5699C35.8277 23.0471 35.1839 22.7146 34.4869 22.6354V21.665C34.4869 21.5809 34.4535 21.5002 34.394 21.4408C34.3346 21.3813 34.2539 21.3479 34.1698 21.3479H34.1603C34.3024 21.165 34.4021 20.9526 34.4521 20.7264C35.4933 20.7987 36.4685 21.263 37.1812 22.0257C37.8938 22.7882 38.2909 23.7928 38.2926 24.8365V35.6194C38.2933 35.8715 38.3939 36.1131 38.5721 36.2913C38.7504 36.4696 38.9919 36.5701 39.244 36.5708H39.5612V36.8879C39.5622 37.0239 39.6485 37.1445 39.7768 37.1892L41.6797 37.8235C41.7127 37.8334 41.7468 37.8388 41.7812 37.8394C41.8474 37.8404 41.9123 37.8191 41.9651 37.779C42.0489 37.7206 42.0988 37.6246 42.0983 37.5222V34.9851C42.0988 34.8827 42.0489 34.7867 41.9651 34.7282C41.8827 34.6684 41.7765 34.6519 41.6797 34.6838H41.6797ZM33.8526 20.3964C33.8526 20.6487 33.7524 20.8908 33.574 21.0692C33.3956 21.2476 33.1535 21.3478 32.9012 21.3478C32.649 21.3478 32.4068 21.2476 32.2285 21.0692C32.0501 20.8908 31.9498 20.6487 31.9498 20.3964C31.9498 20.1442 32.0501 19.902 32.2285 19.7236C32.4068 19.5453 32.649 19.445 32.9012 19.445C33.1534 19.4457 33.3949 19.5462 33.5732 19.7245C33.7514 19.9027 33.8519 20.1443 33.8527 20.3964L33.8526 20.3964ZM35.7555 35.6193C35.7548 35.8714 35.6543 36.113 35.476 36.2912C35.2978 36.4695 35.0562 36.57 34.8041 36.5707H30.9984C30.7462 36.57 30.5047 36.4695 30.3264 36.2912C30.1482 36.113 30.0476 35.8714 30.0469 35.6193V30.545C30.0476 30.2928 30.1482 30.0513 30.3264 29.873C30.5047 29.6948 30.7462 29.5943 30.9984 29.5936H34.8041C35.0562 29.5943 35.2978 29.6948 35.476 29.873C35.6543 30.0513 35.7548 30.2928 35.7555 30.545V35.6193ZM34.8041 28.9593H30.9984C30.6584 28.9593 30.3444 28.7779 30.1744 28.4836C30.0045 28.1892 30.0045 27.8265 30.1744 27.5321C30.3444 27.2378 30.6584 27.0564 30.9984 27.0564H34.8041C35.144 27.0564 35.458 27.2378 35.6281 27.5321C35.798 27.8265 35.798 28.1892 35.6281 28.4836C35.458 28.7779 35.144 28.9593 34.8041 28.9593ZM36.3898 25.7878V26.4221H29.4126V25.7878H36.3898Z" fill="#09A34E"/>
<path d="M55.3682 23.2831V24.6233H59.7414L55.6362 32.5938H57.2585L61.7587 23.6922V23.2831H55.3682ZM62.5264 27.8538C62.5264 30.6047 63.6973 32.7489 66.0813 32.7489C68.4795 32.7489 69.6222 30.6047 69.6222 27.8538C69.6222 26.429 69.326 25.2863 68.7194 24.4258C68.1269 23.5653 67.2522 23.128 66.0813 23.128C64.9105 23.128 64.0358 23.5653 63.4292 24.4399C62.8226 25.3004 62.5264 26.4431 62.5264 27.8538ZM68.0704 27.8679C68.0704 30.0686 67.4497 31.3805 66.0813 31.3805C64.713 31.3805 64.0782 30.0686 64.0782 27.8679C64.0782 25.6249 64.7412 24.4963 66.0813 24.4963C67.4074 24.4963 68.0704 25.6249 68.0704 27.8679Z" fill="#09A34E"/>
<path d="M318.254 160.75C319.453 162.843 321.569 164.112 324.108 164.112C327.094 164.112 329.304 162.325 329.304 159.621C329.304 157.576 328.105 156.353 325.589 155.201L323.849 154.402C322.321 153.626 321.78 153.414 321.686 152.192C321.686 150.969 322.721 150.311 324.038 150.311C325.354 150.311 326.483 150.969 327.306 152.192L329.045 150.852C328.082 149.182 326.224 148.077 324.038 148.077C321.357 148.077 319.147 149.747 319.147 152.286C319.147 154.355 320.511 155.554 322.768 156.588L324.484 157.388C326.107 158.14 326.765 158.61 326.765 159.715C326.765 161.032 325.683 161.879 324.085 161.879C322.298 161.879 321.052 160.915 320.017 159.41L318.254 160.75ZM347.08 152.309L344.094 159.762L340.544 152.051H339.698L336.194 159.857L333.161 152.309H330.528L335.654 164.112H336.5L340.121 156.424L343.742 164.112H344.588L349.714 152.309H347.08ZM360.646 156.871C360.646 153.767 358.765 152.051 355.92 152.051C353.922 152.051 352.206 152.85 351.053 154.519L352.488 155.977C353.452 154.825 354.392 154.261 355.685 154.261C357.261 154.261 358.154 155.131 358.154 156.729V157.482H354.886C352.276 157.482 350.63 158.775 350.63 160.773C350.63 162.772 352.229 164.112 354.651 164.112C356.226 164.112 357.496 163.571 358.342 162.56V163.854H360.646V156.871ZM358.154 159.48C358.154 161.056 356.837 162.208 355.168 162.208C353.969 162.208 353.146 161.643 353.146 160.679C353.146 159.739 353.875 159.269 355.192 159.269H358.154V159.48ZM376.073 158.07C376.073 154.66 373.675 152.051 370.407 152.051C368.714 152.051 367.233 152.733 366.386 153.932V152.309H364.082V168.086H366.551V162.443C367.468 163.501 368.831 164.112 370.407 164.112C373.675 164.112 376.073 161.526 376.073 158.07ZM373.534 158.093C373.534 160.303 371.982 161.855 370.007 161.855C368.197 161.855 366.527 160.609 366.527 158.07C366.527 155.554 368.197 154.308 370.007 154.308C372.005 154.308 373.534 155.883 373.534 158.093Z" fill="#00DA63"/>
<path d="M306.655 157.666L298.151 157.059L298.151 157.059C297.933 157.04 297.722 157.143 297.603 157.327C297.482 157.508 297.467 157.741 297.565 157.936L298.576 159.957C294.962 163.027 286.94 161.804 283.723 160.733C283.471 160.649 283.194 160.738 283.038 160.953C282.883 161.169 282.886 161.461 283.045 161.673C286.684 166.525 296.235 167.966 301.521 164.634L302.424 166.439C302.527 166.645 302.737 166.775 302.967 166.775H302.977H302.977C303.21 166.771 303.421 166.634 303.519 166.422L307.163 158.526V158.526C307.247 158.345 307.236 158.134 307.135 157.963C307.033 157.791 306.854 157.68 306.655 157.666L306.655 157.666Z" fill="#00DA63"/>
<path d="M283.488 156.449L291.991 157.056C292.006 157.058 292.021 157.058 292.035 157.058L292.035 157.058C292.245 157.058 292.441 156.949 292.551 156.77C292.662 156.591 292.672 156.367 292.578 156.179L291.567 154.158C295.182 151.089 303.204 152.312 306.42 153.382C306.672 153.467 306.949 153.377 307.104 153.162C307.26 152.946 307.257 152.655 307.098 152.442C303.459 147.589 293.907 146.149 288.622 149.481L287.719 147.676C287.613 147.469 287.399 147.339 287.166 147.34C286.933 147.344 286.722 147.481 286.624 147.693L282.98 155.589V155.589C282.896 155.77 282.907 155.981 283.008 156.152C283.11 156.324 283.289 156.435 283.488 156.449L283.488 156.449Z" fill="#00DA63"/>
<path d="M608.213 146.555C603.628 146.555 599.688 149.349 598.069 153.324L597.424 152.182C597.341 152.026 597.217 151.896 597.064 151.807C596.912 151.717 596.737 151.672 596.561 151.676C596.224 151.684 595.916 151.868 595.751 152.162C595.586 152.455 595.588 152.814 595.757 153.105L597.504 156.232C597.625 156.447 597.825 156.607 598.062 156.677C598.3 156.748 598.555 156.723 598.774 156.609L601.88 155.021V155.021C602.116 154.913 602.298 154.713 602.383 154.468C602.469 154.223 602.45 153.954 602.333 153.723C602.215 153.491 602.008 153.318 601.76 153.243C601.512 153.167 601.243 153.197 601.017 153.324L599.876 153.909C601.241 150.716 604.457 148.46 608.213 148.46C613.215 148.46 617.235 152.438 617.235 157.353C617.235 162.269 613.215 166.247 608.213 166.247C603.933 166.247 600.369 163.31 599.429 159.398V159.398C599.349 159.066 599.098 158.803 598.771 158.706C598.444 158.609 598.09 158.694 597.843 158.929C597.596 159.164 597.493 159.513 597.573 159.844C598.717 164.61 603.061 168.152 608.212 168.152C614.231 168.152 619.141 163.313 619.141 157.354C619.141 151.394 614.231 146.555 608.212 146.555L608.213 146.555ZM608.332 151.299H608.332C608.077 151.302 607.835 151.406 607.657 151.589C607.48 151.771 607.384 152.017 607.389 152.272V157.354V157.353C607.389 157.643 607.52 157.917 607.746 158.098L610.922 160.639V160.639C611.12 160.797 611.372 160.87 611.623 160.842C611.875 160.814 612.104 160.687 612.262 160.49C612.42 160.292 612.493 160.04 612.465 159.789C612.437 159.538 612.311 159.308 612.113 159.15L609.295 156.897V152.271V152.272C609.3 152.014 609.201 151.765 609.019 151.582C608.838 151.398 608.59 151.296 608.332 151.299H608.332Z" fill="#00DA63"/>
<path d="M559.86 157.141C559.86 158.372 558.863 159.369 557.632 159.369C556.402 159.369 555.404 158.372 555.404 157.141C555.404 155.911 556.402 154.913 557.632 154.913C558.863 154.913 559.86 155.911 559.86 157.141Z" fill="#00DA63"/>
<path d="M570.045 154.932L566.94 154.345C566.754 153.717 566.503 153.11 566.192 152.534L567.975 149.897C568.055 149.771 568.091 149.623 568.077 149.475C568.063 149.327 568.001 149.188 567.9 149.079L565.677 146.856H565.677C565.568 146.759 565.43 146.7 565.284 146.688C565.138 146.677 564.993 146.713 564.87 146.792L562.233 148.603H562.233C561.64 148.279 561.013 148.018 560.365 147.827L559.785 144.722C559.751 144.578 559.671 144.45 559.557 144.356C559.443 144.263 559.301 144.209 559.154 144.204H556.01C555.862 144.208 555.72 144.261 555.605 144.355C555.491 144.448 555.411 144.577 555.378 144.722L554.791 147.863C554.174 148.051 553.577 148.299 553.008 148.603L550.405 146.823C550.28 146.743 550.131 146.707 549.983 146.72C549.835 146.734 549.696 146.796 549.587 146.898L547.365 149.12C547.263 149.229 547.201 149.368 547.187 149.516C547.174 149.664 547.21 149.813 547.29 149.938L549.085 152.557C548.782 153.125 548.536 153.722 548.353 154.34L545.248 154.927C545.096 154.954 544.958 155.031 544.856 155.147C544.754 155.263 544.694 155.41 544.687 155.564V158.695C544.69 158.843 544.743 158.986 544.837 159.101C544.931 159.216 545.06 159.297 545.204 159.331L548.309 159.918V159.919C548.497 160.546 548.747 161.153 549.057 161.73L547.285 164.317H547.284C547.2 164.448 547.165 164.604 547.183 164.759C547.202 164.913 547.273 165.056 547.385 165.164L549.603 167.381C549.711 167.484 549.85 167.547 549.999 167.56C550.147 167.574 550.296 167.537 550.421 167.456L553.019 165.681C553.579 165.985 554.169 166.233 554.778 166.421L555.368 169.562C555.402 169.706 555.482 169.834 555.596 169.928C555.71 170.021 555.852 170.075 555.999 170.08H559.143C559.291 170.076 559.434 170.024 559.548 169.93C559.663 169.836 559.742 169.707 559.775 169.562L560.357 166.457C560.994 166.271 561.61 166.021 562.197 165.709L564.818 167.492C564.944 167.575 565.094 167.614 565.244 167.601C565.394 167.588 565.536 167.525 565.646 167.422L567.869 165.2H567.869C567.968 165.091 568.028 164.952 568.04 164.805C568.052 164.657 568.014 164.511 567.933 164.387L566.163 161.774C566.477 161.187 566.733 160.571 566.927 159.934L570.032 159.347V159.347C570.176 159.313 570.305 159.231 570.399 159.116C570.492 159.001 570.545 158.858 570.549 158.71V155.569C570.553 155.264 570.342 154.998 570.045 154.932L570.045 154.932ZM557.624 162.537C556.193 162.536 554.821 161.966 553.81 160.953C552.798 159.94 552.231 158.567 552.232 157.135C552.233 155.704 552.803 154.331 553.816 153.32C554.829 152.309 556.202 151.741 557.633 151.742C559.064 151.743 560.437 152.312 561.448 153.325C562.46 154.338 563.028 155.711 563.027 157.142C563.027 158.574 562.458 159.948 561.444 160.96C560.431 161.972 559.057 162.539 557.624 162.537L557.624 162.537Z" fill="#00DA63"/>
<rect x="257.061" y="192.013" width="388.726" height="337.784" rx="25.9559" fill="#082314"/>
<rect x="275.495" y="447.841" width="351.529" height="50.9228" rx="25.4614" fill="#000201" stroke="url(#paint1_linear_410_814)" stroke-width="0.989075"/>
<path fill-rule="evenodd" clip-rule="evenodd" d="M497.954 474.066C498.039 473.98 498.087 473.864 498.087 473.743C498.087 473.622 498.039 473.506 497.954 473.421L494.082 469.549C493.997 469.464 493.881 469.416 493.76 469.416C493.639 469.416 493.523 469.464 493.437 469.549C493.352 469.635 493.303 469.751 493.303 469.872C493.303 469.993 493.352 470.109 493.437 470.195L496.53 473.287L483.436 473.287C483.315 473.287 483.199 473.335 483.113 473.42C483.028 473.506 482.979 473.622 482.979 473.743C482.979 473.865 483.028 473.981 483.113 474.066C483.199 474.152 483.315 474.2 483.436 474.2L496.53 474.2L493.437 477.292C493.352 477.378 493.303 477.494 493.303 477.615C493.303 477.736 493.352 477.852 493.437 477.937C493.523 478.023 493.639 478.071 493.76 478.071C493.881 478.071 493.997 478.023 494.082 477.937L497.954 474.066Z" fill="#00DA63"/>
<path d="M406.623 472.468C406.579 475.206 408.868 477.452 411.664 477.408C413.591 477.408 415.272 476.409 416.126 474.888V472.193H411.65V473.555H414.591V474.583C413.997 475.496 412.997 476.032 411.737 476.032C409.68 476.032 408.217 474.496 408.217 472.454C408.217 470.44 409.636 468.933 411.65 468.933C412.838 468.933 413.794 469.441 414.504 470.44L415.619 469.527C414.707 468.253 413.33 467.528 411.664 467.528C408.897 467.485 406.565 469.73 406.623 472.468ZM417.461 473.685C417.417 475.699 419.17 477.452 421.213 477.408C423.284 477.452 425.037 475.699 424.994 473.685C425.037 471.672 423.284 469.933 421.213 469.977C419.17 469.948 417.417 471.643 417.461 473.685ZM423.429 473.7C423.429 474.989 422.473 476.003 421.213 476.003C419.967 476.003 419.011 475.018 419.011 473.7C419.011 472.381 419.967 471.367 421.227 471.367C422.459 471.367 423.429 472.381 423.429 473.7ZM435.028 475.96C434.608 476.003 434.304 476.032 434.087 476.032C433.159 476.032 432.681 475.713 432.681 474.801V471.454H434.797V470.136H432.681V468.267H431.146V470.136H429.987V471.454H431.146V474.931C431.146 476.597 432.131 477.408 433.768 477.408C434.13 477.408 434.55 477.35 435.028 477.249V475.96ZM435.98 473.685C435.936 475.699 437.689 477.452 439.732 477.408C441.803 477.452 443.556 475.699 443.513 473.685C443.556 471.672 441.803 469.933 439.732 469.977C437.689 469.948 435.936 471.643 435.98 473.685ZM441.948 473.7C441.948 474.989 440.992 476.003 439.732 476.003C438.486 476.003 437.53 475.018 437.53 473.7C437.53 472.381 438.486 471.367 439.746 471.367C440.978 471.367 441.948 472.381 441.948 473.7ZM454.967 472.946C454.967 471.034 453.808 469.977 452.055 469.977C450.824 469.977 449.766 470.469 449.056 471.498L449.94 472.396C450.534 471.686 451.114 471.338 451.91 471.338C452.881 471.338 453.431 471.874 453.431 472.859V473.323H451.418C449.81 473.323 448.796 474.12 448.796 475.351C448.796 476.583 449.781 477.408 451.273 477.408C452.244 477.408 453.026 477.075 453.547 476.452V477.249H454.967V472.946ZM453.431 474.554C453.431 475.525 452.62 476.235 451.592 476.235C450.853 476.235 450.346 475.887 450.346 475.293C450.346 474.714 450.795 474.424 451.606 474.424H453.431V474.554ZM464.473 473.685C464.473 471.585 462.995 469.977 460.981 469.977C459.938 469.977 459.025 470.397 458.504 471.135V470.136H457.084V479.857H458.605V476.38C459.17 477.032 460.011 477.408 460.981 477.408C462.995 477.408 464.473 475.815 464.473 473.685ZM462.908 473.7C462.908 475.061 461.952 476.018 460.735 476.018C459.619 476.018 458.591 475.25 458.591 473.685C458.591 472.135 459.619 471.367 460.735 471.367C461.966 471.367 462.908 472.338 462.908 473.7ZM473.612 473.685C473.612 471.585 472.134 469.977 470.12 469.977C469.077 469.977 468.165 470.397 467.643 471.135V470.136H466.223V479.857H467.745V476.38C468.31 477.032 469.15 477.408 470.12 477.408C472.134 477.408 473.612 475.815 473.612 473.685ZM472.047 473.7C472.047 475.061 471.091 476.018 469.874 476.018C468.759 476.018 467.73 475.25 467.73 473.685C467.73 472.135 468.759 471.367 469.874 471.367C471.106 471.367 472.047 472.338 472.047 473.7Z" fill="#00DA63"/>
<rect x="275.086" y="246.874" width="352.674" height="56.7409" rx="28.3704" fill="#000201"/>
<rect x="282.71" y="253.009" width="126.401" height="43.1047" rx="21.5523" fill="#082314"/>
<circle cx="304.262" cy="274.561" r="10.5802" fill="white"/>
<path d="M323.071 276.126C323.625 277.093 324.603 277.68 325.776 277.68C327.156 277.68 328.178 276.854 328.178 275.605C328.178 274.66 327.623 274.095 326.461 273.562L325.657 273.193C324.951 272.834 324.701 272.736 324.657 272.171C324.657 271.606 325.135 271.302 325.744 271.302C326.352 271.302 326.874 271.606 327.254 272.171L328.058 271.552C327.613 270.781 326.754 270.27 325.744 270.27C324.505 270.27 323.484 271.041 323.484 272.215C323.484 273.171 324.114 273.725 325.157 274.203L325.95 274.573C326.7 274.92 327.004 275.138 327.004 275.648C327.004 276.257 326.504 276.648 325.765 276.648C324.94 276.648 324.364 276.202 323.886 275.507L323.071 276.126ZM334.377 275.268C334.432 275.018 334.464 274.779 334.464 274.551C334.464 273.16 333.41 272.106 331.998 272.106C330.487 272.074 329.205 273.367 329.238 274.899C329.238 276.474 330.477 277.68 332.106 277.68C332.921 277.68 333.627 277.398 334.236 276.822L333.693 276.039C333.215 276.463 332.693 276.67 332.139 276.67C331.226 276.67 330.542 276.137 330.4 275.268H334.377ZM330.422 274.377C330.596 273.584 331.205 273.073 331.954 273.073C332.704 273.073 333.312 273.562 333.323 274.377H330.422ZM335.771 277.561H336.912V269.412H335.771V277.561ZM343.364 275.268C343.419 275.018 343.451 274.779 343.451 274.551C343.451 273.16 342.397 272.106 340.985 272.106C339.475 272.074 338.193 273.367 338.225 274.899C338.225 276.474 339.464 277.68 341.094 277.68C341.908 277.68 342.615 277.398 343.223 276.822L342.68 276.039C342.202 276.463 341.68 276.67 341.126 276.67C340.213 276.67 339.529 276.137 339.388 275.268H343.364ZM339.409 274.377C339.583 273.584 340.192 273.073 340.941 273.073C341.691 273.073 342.3 273.562 342.31 274.377H339.409ZM344.422 274.888C344.422 276.441 345.671 277.68 347.247 277.68C348.214 277.68 349.018 277.213 349.496 276.441L348.692 275.822C348.301 276.355 347.823 276.626 347.258 276.626C346.301 276.626 345.584 275.866 345.584 274.888C345.584 273.921 346.301 273.16 347.258 273.16C347.833 273.16 348.311 273.432 348.692 273.975L349.496 273.345C349.029 272.573 348.235 272.106 347.247 272.106C345.715 272.084 344.389 273.356 344.422 274.888ZM353.926 276.594C353.611 276.626 353.383 276.648 353.22 276.648C352.525 276.648 352.166 276.409 352.166 275.724V273.214H353.752V272.226H352.166V270.824H351.014V272.226H350.145V273.214H351.014V275.822C351.014 277.072 351.753 277.68 352.981 277.68C353.253 277.68 353.568 277.637 353.926 277.561V276.594ZM361.301 276.594C360.985 276.626 360.757 276.648 360.594 276.648C359.899 276.648 359.54 276.409 359.54 275.724V273.214H361.127V272.226H359.54V270.824H358.389V272.226H357.519V273.214H358.389V275.822C358.389 277.072 359.128 277.68 360.355 277.68C360.627 277.68 360.942 277.637 361.301 277.561V276.594ZM362.014 274.888C361.982 276.398 363.296 277.713 364.828 277.68C366.382 277.713 367.697 276.398 367.664 274.888C367.697 273.377 366.382 272.074 364.828 272.106C363.296 272.084 361.982 273.356 362.014 274.888ZM366.491 274.899C366.491 275.866 365.774 276.626 364.828 276.626C363.894 276.626 363.177 275.887 363.177 274.899C363.177 273.91 363.894 273.149 364.839 273.149C365.763 273.149 366.491 273.91 366.491 274.899ZM368.972 277.561H370.113V269.412H368.972V277.561ZM371.493 274.573L373.644 272.226H372.232L370.145 274.562L372.46 277.561H373.829L371.493 274.573ZM379.356 275.268C379.41 275.018 379.443 274.779 379.443 274.551C379.443 273.16 378.389 272.106 376.976 272.106C375.466 272.074 374.184 273.367 374.216 274.899C374.216 276.474 375.455 277.68 377.085 277.68C377.9 277.68 378.606 277.398 379.214 276.822L378.671 276.039C378.193 276.463 377.671 276.67 377.117 276.67C376.205 276.67 375.52 276.137 375.379 275.268H379.356ZM375.401 274.377C375.574 273.584 376.183 273.073 376.933 273.073C377.682 273.073 378.291 273.562 378.302 274.377H375.401ZM385.411 274.225C385.411 272.954 384.661 272.106 383.412 272.106C382.749 272.106 382.217 272.323 381.815 272.747V272.226H380.75V277.561H381.891V274.377C381.891 273.649 382.401 273.138 383.108 273.138C383.803 273.138 384.27 273.638 384.27 274.377V277.561H385.411V274.225Z" fill="white"/>
<path d="M394.517 270.938L398.138 274.56L394.517 278.182" stroke="white" stroke-width="0.784715" stroke-linecap="round"/>
<path d="M567.359 274.665C567.359 278.903 569.162 282.206 572.835 282.206C576.529 282.206 578.289 278.903 578.289 274.665C578.289 272.471 577.833 270.71 576.898 269.385C575.986 268.059 574.639 267.386 572.835 267.386C571.031 267.386 569.684 268.059 568.75 269.407C567.815 270.732 567.359 272.492 567.359 274.665ZM575.899 274.687C575.899 278.077 574.943 280.098 572.835 280.098C570.727 280.098 569.749 278.077 569.749 274.687C569.749 271.232 570.77 269.493 572.835 269.493C574.878 269.493 575.899 271.232 575.899 274.687ZM580.75 280.533C580.75 281.489 581.51 282.206 582.467 282.206C583.423 282.206 584.14 281.489 584.14 280.533C584.14 279.555 583.423 278.838 582.467 278.838C581.51 278.838 580.75 279.576 580.75 280.533ZM586.606 274.665C586.606 278.903 588.41 282.206 592.083 282.206C595.777 282.206 597.537 278.903 597.537 274.665C597.537 272.471 597.081 270.71 596.146 269.385C595.233 268.059 593.886 267.386 592.083 267.386C590.279 267.386 588.932 268.059 587.997 269.407C587.063 270.732 586.606 272.492 586.606 274.665ZM595.147 274.687C595.147 278.077 594.19 280.098 592.083 280.098C589.975 280.098 588.997 278.077 588.997 274.687C588.997 271.232 590.018 269.493 592.083 269.493C594.125 269.493 595.147 271.232 595.147 274.687ZM600.188 274.665C600.188 278.903 601.992 282.206 605.664 282.206C609.358 282.206 611.119 278.903 611.119 274.665C611.119 272.471 610.662 270.71 609.728 269.385C608.815 268.059 607.468 267.386 605.664 267.386C603.861 267.386 602.513 268.059 601.579 269.407C600.644 270.732 600.188 272.492 600.188 274.665ZM608.728 274.687C608.728 278.077 607.772 280.098 605.664 280.098C603.556 280.098 602.578 278.077 602.578 274.687C602.578 271.232 603.6 269.493 605.664 269.493C607.707 269.493 608.728 271.232 608.728 274.687Z" fill="#131E18"/>
<rect x="275.086" y="363.647" width="352.674" height="56.7409" rx="28.3704" fill="#000201"/>
<rect x="282.71" y="369.782" width="126.401" height="43.1047" rx="21.5523" fill="#082314"/>
<circle cx="304.262" cy="391.334" r="10.5802" fill="white"/>
<path d="M323.071 392.9C323.625 393.867 324.603 394.454 325.776 394.454C327.156 394.454 328.178 393.628 328.178 392.378C328.178 391.433 327.623 390.868 326.461 390.336L325.657 389.966C324.951 389.608 324.701 389.51 324.657 388.945C324.657 388.38 325.135 388.076 325.744 388.076C326.352 388.076 326.874 388.38 327.254 388.945L328.058 388.325C327.613 387.554 326.754 387.043 325.744 387.043C324.505 387.043 323.484 387.815 323.484 388.988C323.484 389.944 324.114 390.499 325.157 390.977L325.95 391.346C326.7 391.694 327.004 391.911 327.004 392.422C327.004 393.03 326.504 393.421 325.765 393.421C324.94 393.421 324.364 392.976 323.886 392.28L323.071 392.9ZM334.377 392.041C334.432 391.792 334.464 391.552 334.464 391.324C334.464 389.934 333.41 388.88 331.998 388.88C330.487 388.847 329.205 390.14 329.238 391.672C329.238 393.247 330.477 394.454 332.106 394.454C332.921 394.454 333.627 394.171 334.236 393.595L333.693 392.813C333.215 393.237 332.693 393.443 332.139 393.443C331.226 393.443 330.542 392.911 330.4 392.041H334.377ZM330.422 391.15C330.596 390.357 331.205 389.847 331.954 389.847C332.704 389.847 333.312 390.336 333.323 391.15H330.422ZM335.771 394.334H336.912V386.185H335.771V394.334ZM343.364 392.041C343.419 391.792 343.451 391.552 343.451 391.324C343.451 389.934 342.397 388.88 340.985 388.88C339.475 388.847 338.193 390.14 338.225 391.672C338.225 393.247 339.464 394.454 341.094 394.454C341.908 394.454 342.615 394.171 343.223 393.595L342.68 392.813C342.202 393.237 341.68 393.443 341.126 393.443C340.213 393.443 339.529 392.911 339.388 392.041H343.364ZM339.409 391.15C339.583 390.357 340.192 389.847 340.941 389.847C341.691 389.847 342.3 390.336 342.31 391.15H339.409ZM344.422 391.661C344.422 393.215 345.671 394.454 347.247 394.454C348.214 394.454 349.018 393.986 349.496 393.215L348.692 392.596C348.301 393.128 347.823 393.4 347.258 393.4C346.301 393.4 345.584 392.639 345.584 391.661C345.584 390.694 346.301 389.934 347.258 389.934C347.833 389.934 348.311 390.205 348.692 390.748L349.496 390.118C349.029 389.347 348.235 388.88 347.247 388.88C345.715 388.858 344.389 390.129 344.422 391.661ZM353.926 393.367C353.611 393.4 353.383 393.421 353.22 393.421C352.525 393.421 352.166 393.182 352.166 392.498V389.988H353.752V388.999H352.166V387.598H351.014V388.999H350.145V389.988H351.014V392.596C351.014 393.845 351.753 394.454 352.981 394.454C353.253 394.454 353.568 394.41 353.926 394.334V393.367ZM361.301 393.367C360.985 393.4 360.757 393.421 360.594 393.421C359.899 393.421 359.54 393.182 359.54 392.498V389.988H361.127V388.999H359.54V387.598H358.389V388.999H357.519V389.988H358.389V392.596C358.389 393.845 359.128 394.454 360.355 394.454C360.627 394.454 360.942 394.41 361.301 394.334V393.367ZM362.014 391.661C361.982 393.171 363.296 394.486 364.828 394.454C366.382 394.486 367.697 393.171 367.664 391.661C367.697 390.151 366.382 388.847 364.828 388.88C363.296 388.858 361.982 390.129 362.014 391.661ZM366.491 391.672C366.491 392.639 365.774 393.4 364.828 393.4C363.894 393.4 363.177 392.661 363.177 391.672C363.177 390.683 363.894 389.923 364.839 389.923C365.763 389.923 366.491 390.683 366.491 391.672ZM368.972 394.334H370.113V386.185H368.972V394.334ZM371.493 391.346L373.644 388.999H372.232L370.145 391.335L372.46 394.334H373.829L371.493 391.346ZM379.356 392.041C379.41 391.792 379.443 391.552 379.443 391.324C379.443 389.934 378.389 388.88 376.976 388.88C375.466 388.847 374.184 390.14 374.216 391.672C374.216 393.247 375.455 394.454 377.085 394.454C377.9 394.454 378.606 394.171 379.214 393.595L378.671 392.813C378.193 393.237 377.671 393.443 377.117 393.443C376.205 393.443 375.52 392.911 375.379 392.041H379.356ZM375.401 391.15C375.574 390.357 376.183 389.847 376.933 389.847C377.682 389.847 378.291 390.336 378.302 391.15H375.401ZM385.411 390.998C385.411 389.727 384.661 388.88 383.412 388.88C382.749 388.88 382.217 389.097 381.815 389.521V388.999H380.75V394.334H381.891V391.15C381.891 390.422 382.401 389.912 383.108 389.912C383.803 389.912 384.27 390.412 384.27 391.15V394.334H385.411V390.998Z" fill="white"/>
<path d="M394.517 387.712L398.138 391.334L394.517 394.955" stroke="white" stroke-width="0.784715" stroke-linecap="round"/>
<path d="M567.359 391.438C567.359 395.675 569.162 398.978 572.835 398.978C576.529 398.978 578.289 395.675 578.289 391.438C578.289 389.243 577.833 387.483 576.898 386.157C575.986 384.832 574.639 384.158 572.835 384.158C571.031 384.158 569.684 384.832 568.75 386.179C567.815 387.505 567.359 389.265 567.359 391.438ZM575.899 391.46C575.899 394.849 574.943 396.87 572.835 396.87C570.727 396.87 569.749 394.849 569.749 391.46C569.749 388.004 570.77 386.266 572.835 386.266C574.878 386.266 575.899 388.004 575.899 391.46ZM580.75 397.305C580.75 398.261 581.51 398.978 582.467 398.978C583.423 398.978 584.14 398.261 584.14 397.305C584.14 396.327 583.423 395.61 582.467 395.61C581.51 395.61 580.75 396.349 580.75 397.305ZM586.606 391.438C586.606 395.675 588.41 398.978 592.083 398.978C595.777 398.978 597.537 395.675 597.537 391.438C597.537 389.243 597.081 387.483 596.146 386.157C595.233 384.832 593.886 384.158 592.083 384.158C590.279 384.158 588.932 384.832 587.997 386.179C587.063 387.505 586.606 389.265 586.606 391.438ZM595.147 391.46C595.147 394.849 594.19 396.87 592.083 396.87C589.975 396.87 588.997 394.849 588.997 391.46C588.997 388.004 590.018 386.266 592.083 386.266C594.125 386.266 595.147 388.004 595.147 391.46ZM600.188 391.438C600.188 395.675 601.992 398.978 605.664 398.978C609.358 398.978 611.119 395.675 611.119 391.438C611.119 389.243 610.662 387.483 609.728 386.157C608.815 384.832 607.468 384.158 605.664 384.158C603.861 384.158 602.513 384.832 601.579 386.179C600.644 387.505 600.188 389.265 600.188 391.438ZM608.728 391.46C608.728 394.849 607.772 396.87 605.664 396.87C603.556 396.87 602.578 394.849 602.578 391.46C602.578 388.004 603.6 386.266 605.664 386.266C607.707 386.266 608.728 388.004 608.728 391.46Z" fill="#131E18"/>
<path d="M288.017 231.474C288.694 232.656 289.89 233.373 291.324 233.373C293.01 233.373 294.259 232.363 294.259 230.836C294.259 229.681 293.581 228.99 292.16 228.34L291.178 227.888C290.315 227.45 290.009 227.33 289.956 226.64C289.956 225.949 290.54 225.577 291.284 225.577C292.028 225.577 292.665 225.949 293.13 226.64L294.113 225.883C293.568 224.94 292.519 224.316 291.284 224.316C289.77 224.316 288.522 225.259 288.522 226.693C288.522 227.862 289.292 228.539 290.567 229.123L291.536 229.575C292.453 230 292.824 230.265 292.824 230.889C292.824 231.633 292.214 232.111 291.311 232.111C290.301 232.111 289.597 231.567 289.013 230.717L288.017 231.474ZM304.299 226.706L302.612 230.916L300.607 226.56H300.129L298.15 230.969L296.437 226.706H294.95L297.845 233.373H298.323L300.368 229.03L302.413 233.373H302.891L305.786 226.706H304.299ZM311.961 229.282C311.961 227.53 310.899 226.56 309.292 226.56C308.163 226.56 307.194 227.012 306.543 227.954L307.353 228.778C307.898 228.127 308.429 227.808 309.159 227.808C310.049 227.808 310.554 228.3 310.554 229.203V229.628H308.708C307.234 229.628 306.304 230.358 306.304 231.487C306.304 232.616 307.207 233.373 308.575 233.373C309.465 233.373 310.182 233.067 310.66 232.496V233.227H311.961V229.282ZM310.554 230.757C310.554 231.646 309.81 232.297 308.867 232.297C308.19 232.297 307.725 231.978 307.725 231.434C307.725 230.903 308.137 230.637 308.88 230.637H310.554V230.757ZM320.675 229.96C320.675 228.034 319.32 226.56 317.474 226.56C316.518 226.56 315.681 226.945 315.203 227.622V226.706H313.902V235.617H315.296V232.43C315.814 233.027 316.584 233.373 317.474 233.373C319.32 233.373 320.675 231.912 320.675 229.96ZM319.24 229.973C319.24 231.221 318.364 232.098 317.248 232.098C316.226 232.098 315.283 231.394 315.283 229.96C315.283 228.539 316.226 227.835 317.248 227.835C318.377 227.835 319.24 228.725 319.24 229.973ZM326.094 233.227H327.502V229.614H330.981V228.34H327.502V225.723H331.725V224.462H326.094V233.227ZM336.555 226.706C336.395 226.666 336.223 226.64 336.023 226.64C335.28 226.64 334.589 226.972 334.124 227.556V226.706H332.823V233.227H334.217V229.747C334.217 228.592 335.027 227.941 336.13 227.941H336.555V226.706ZM337.261 229.96C337.222 231.806 338.828 233.412 340.701 233.373C342.6 233.412 344.207 231.806 344.167 229.96C344.207 228.114 342.6 226.52 340.701 226.56C338.828 226.534 337.222 228.087 337.261 229.96ZM342.733 229.973C342.733 231.155 341.856 232.085 340.701 232.085C339.559 232.085 338.682 231.181 338.682 229.973C338.682 228.765 339.559 227.835 340.714 227.835C341.843 227.835 342.733 228.765 342.733 229.973ZM355.553 229.15C355.553 227.596 354.636 226.56 353.136 226.56C352.22 226.56 351.409 226.959 350.931 227.583C350.546 226.945 349.856 226.56 348.953 226.56C348.169 226.56 347.532 226.839 347.067 227.317V226.706H345.766V233.227H347.16V229.349C347.16 228.446 347.744 227.835 348.594 227.835C349.431 227.835 349.962 228.446 349.962 229.349V233.227H351.356V229.282C351.356 228.446 351.941 227.835 352.791 227.835C353.627 227.835 354.145 228.433 354.145 229.349V233.227H355.553V229.15Z" fill="white"/>
<path d="M288.017 348.131C288.694 349.313 289.89 350.03 291.324 350.03C293.01 350.03 294.259 349.021 294.259 347.493C294.259 346.338 293.581 345.648 292.16 344.997L291.178 344.545C290.315 344.107 290.009 343.988 289.956 343.297C289.956 342.606 290.54 342.235 291.284 342.235C292.028 342.235 292.665 342.606 293.13 343.297L294.113 342.54C293.568 341.597 292.519 340.973 291.284 340.973C289.77 340.973 288.522 341.916 288.522 343.35C288.522 344.519 289.292 345.196 290.567 345.78L291.536 346.232C292.453 346.657 292.824 346.922 292.824 347.547C292.824 348.29 292.214 348.768 291.311 348.768C290.301 348.768 289.597 348.224 289.013 347.374L288.017 348.131ZM304.299 343.363L302.612 347.573L300.607 343.217H300.129L298.15 347.626L296.437 343.363H294.95L297.845 350.03H298.323L300.368 345.687L302.413 350.03H302.891L305.786 343.363H304.299ZM311.961 345.94C311.961 344.187 310.899 343.217 309.292 343.217C308.163 343.217 307.194 343.669 306.543 344.612L307.353 345.435C307.898 344.784 308.429 344.466 309.159 344.466C310.049 344.466 310.554 344.957 310.554 345.86V346.285H308.708C307.234 346.285 306.304 347.015 306.304 348.144C306.304 349.273 307.207 350.03 308.575 350.03C309.465 350.03 310.182 349.724 310.66 349.153V349.884H311.961V345.94ZM310.554 347.414C310.554 348.303 309.81 348.954 308.867 348.954C308.19 348.954 307.725 348.635 307.725 348.091C307.725 347.56 308.137 347.294 308.88 347.294H310.554V347.414ZM320.675 346.617C320.675 344.691 319.32 343.217 317.474 343.217C316.518 343.217 315.681 343.602 315.203 344.28V343.363H313.902V352.274H315.296V349.087C315.814 349.685 316.584 350.03 317.474 350.03C319.32 350.03 320.675 348.569 320.675 346.617ZM319.24 346.63C319.24 347.879 318.364 348.755 317.248 348.755C316.226 348.755 315.283 348.051 315.283 346.617C315.283 345.196 316.226 344.492 317.248 344.492C318.377 344.492 319.24 345.382 319.24 346.63ZM327.491 349.884H328.899V342.381H331.86V341.119H324.543V342.381H327.491V349.884ZM331.685 346.617C331.645 348.463 333.252 350.07 335.124 350.03C337.023 350.07 338.63 348.463 338.59 346.617C338.63 344.771 337.023 343.177 335.124 343.217C333.252 343.191 331.645 344.745 331.685 346.617ZM337.156 346.63C337.156 347.812 336.28 348.742 335.124 348.742C333.982 348.742 333.106 347.839 333.106 346.63C333.106 345.422 333.982 344.492 335.138 344.492C336.267 344.492 337.156 345.422 337.156 346.63Z" fill="white"/>
<path d="M462.59 337.789C457.397 337.789 453.234 333.71 453.234 328.734C453.234 323.759 457.397 319.68 462.59 319.68C467.783 319.68 471.946 323.759 471.946 328.734C471.946 333.71 467.783 337.789 462.59 337.789Z" stroke="#00DA63" stroke-width="1.81088"/>
<path fill-rule="evenodd" clip-rule="evenodd" d="M462.59 327.829C462.394 327.829 462.206 327.906 462.068 328.044C461.93 328.181 461.852 328.368 461.852 328.562L461.852 345.849L457.211 341.236C457.072 341.098 456.884 341.021 456.688 341.021C456.492 341.021 456.305 341.098 456.166 341.236C456.028 341.374 455.95 341.56 455.95 341.755C455.95 341.95 456.028 342.136 456.166 342.274L462.067 348.137C462.136 348.205 462.217 348.26 462.307 348.297C462.396 348.334 462.493 348.353 462.59 348.353C462.687 348.353 462.783 348.334 462.872 348.297C462.962 348.26 463.043 348.205 463.112 348.137L469.013 342.274C469.082 342.206 469.136 342.125 469.173 342.036C469.21 341.947 469.229 341.851 469.229 341.755C469.229 341.56 469.152 341.374 469.013 341.236C468.875 341.098 468.687 341.021 468.491 341.021C468.295 341.021 468.107 341.098 467.969 341.236L463.327 345.849L463.327 328.562C463.327 328.368 463.25 328.181 463.111 328.044C462.973 327.906 462.785 327.829 462.59 327.829Z" fill="#00DA63"/>
<path d="M484.204 230.677C484.204 229.601 483.593 228.778 482.571 228.446C483.049 228.034 483.301 227.476 483.301 226.799C483.301 225.445 482.252 224.462 480.672 224.462H477.604V233.227H481.362C483.075 233.227 484.204 232.151 484.204 230.677ZM480.539 225.697C481.402 225.697 481.894 226.135 481.894 226.866C481.894 227.596 481.402 228.061 480.539 228.061H478.985V225.697H480.539ZM482.783 230.637C482.783 231.474 482.212 231.992 481.243 231.992H478.985V229.269H481.243C482.212 229.269 482.783 229.8 482.783 230.637ZM490.899 229.282C490.899 227.53 489.837 226.56 488.23 226.56C487.101 226.56 486.132 227.012 485.481 227.954L486.291 228.778C486.836 228.127 487.367 227.808 488.097 227.808C488.987 227.808 489.492 228.3 489.492 229.203V229.628H487.646C486.172 229.628 485.242 230.358 485.242 231.487C485.242 232.616 486.145 233.373 487.513 233.373C488.403 233.373 489.12 233.067 489.598 232.496V233.227H490.899V229.282ZM489.492 230.757C489.492 231.646 488.748 232.297 487.805 232.297C487.128 232.297 486.663 231.978 486.663 231.434C486.663 230.903 487.075 230.637 487.819 230.637H489.492V230.757ZM492.84 233.227H494.234V223.267H492.84V233.227ZM501.43 229.282C501.43 227.53 500.367 226.56 498.761 226.56C497.632 226.56 496.662 227.012 496.012 227.954L496.822 228.778C497.366 228.127 497.897 227.808 498.628 227.808C499.518 227.808 500.022 228.3 500.022 229.203V229.628H498.176C496.702 229.628 495.773 230.358 495.773 231.487C495.773 232.616 496.676 233.373 498.044 233.373C498.933 233.373 499.65 233.067 500.128 232.496V233.227H501.43V229.282ZM500.022 230.757C500.022 231.646 499.279 232.297 498.336 232.297C497.658 232.297 497.194 231.978 497.194 231.434C497.194 230.903 497.605 230.637 498.349 230.637H500.022V230.757ZM509.068 229.15C509.068 227.596 508.151 226.56 506.624 226.56C505.814 226.56 505.163 226.826 504.672 227.344V226.706H503.37V233.227H504.765V229.336C504.765 228.446 505.389 227.822 506.252 227.822C507.102 227.822 507.673 228.433 507.673 229.336V233.227H509.068V229.15ZM510.597 229.96C510.597 231.859 512.124 233.373 514.05 233.373C515.232 233.373 516.215 232.802 516.799 231.859L515.816 231.102C515.338 231.753 514.754 232.085 514.063 232.085C512.895 232.085 512.018 231.155 512.018 229.96C512.018 228.778 512.895 227.848 514.063 227.848C514.767 227.848 515.351 228.18 515.816 228.844L516.799 228.074C516.228 227.131 515.258 226.56 514.05 226.56C512.178 226.534 510.557 228.087 510.597 229.96ZM524.076 230.425C524.143 230.119 524.182 229.827 524.182 229.548C524.182 227.848 522.894 226.56 521.168 226.56C519.322 226.52 517.755 228.101 517.795 229.973C517.795 231.899 519.309 233.373 521.301 233.373C522.297 233.373 523.16 233.027 523.904 232.324L523.24 231.367C522.655 231.885 522.018 232.138 521.341 232.138C520.225 232.138 519.388 231.487 519.216 230.425H524.076ZM519.242 229.336C519.455 228.366 520.198 227.742 521.115 227.742C522.031 227.742 522.775 228.34 522.788 229.336H519.242ZM525.594 227.649C525.594 228.233 526.059 228.672 526.643 228.672C527.228 228.672 527.666 228.233 527.666 227.649C527.666 227.051 527.228 226.613 526.643 226.613C526.059 226.613 525.594 227.065 525.594 227.649ZM525.594 232.35C525.594 232.934 526.059 233.373 526.643 233.373C527.228 233.373 527.666 232.934 527.666 232.35C527.666 231.753 527.228 231.314 526.643 231.314C526.059 231.314 525.594 231.766 525.594 232.35ZM533.025 228.765C533.025 231.354 534.127 233.373 536.371 233.373C538.629 233.373 539.705 231.354 539.705 228.765C539.705 227.423 539.426 226.348 538.855 225.538C538.297 224.727 537.474 224.316 536.371 224.316C535.269 224.316 534.446 224.727 533.875 225.551C533.304 226.361 533.025 227.437 533.025 228.765ZM538.244 228.778C538.244 230.849 537.66 232.085 536.371 232.085C535.083 232.085 534.486 230.849 534.486 228.778C534.486 226.666 535.11 225.604 536.371 225.604C537.62 225.604 538.244 226.666 538.244 228.778ZM541.208 232.35C541.208 232.934 541.673 233.373 542.257 233.373C542.842 233.373 543.28 232.934 543.28 232.35C543.28 231.753 542.842 231.314 542.257 231.314C541.673 231.314 541.208 231.766 541.208 232.35ZM544.787 228.765C544.787 231.354 545.89 233.373 548.134 233.373C550.391 233.373 551.467 231.354 551.467 228.765C551.467 227.423 551.188 226.348 550.617 225.538C550.059 224.727 549.236 224.316 548.134 224.316C547.032 224.316 546.208 224.727 545.637 225.551C545.066 226.361 544.787 227.437 544.787 228.765ZM550.006 228.778C550.006 230.849 549.422 232.085 548.134 232.085C546.846 232.085 546.248 230.849 546.248 228.778C546.248 226.666 546.872 225.604 548.134 225.604C549.382 225.604 550.006 226.666 550.006 228.778ZM553.087 228.765C553.087 231.354 554.189 233.373 556.434 233.373C558.691 233.373 559.767 231.354 559.767 228.765C559.767 227.423 559.488 226.348 558.917 225.538C558.359 224.727 557.536 224.316 556.434 224.316C555.331 224.316 554.508 224.727 553.937 225.551C553.366 226.361 553.087 227.437 553.087 228.765ZM558.306 228.778C558.306 230.849 557.722 232.085 556.434 232.085C555.146 232.085 554.548 230.849 554.548 228.778C554.548 226.666 555.172 225.604 556.434 225.604C557.682 225.604 558.306 226.666 558.306 228.778ZM561.387 228.765C561.387 231.354 562.489 233.373 564.734 233.373C566.991 233.373 568.067 231.354 568.067 228.765C568.067 227.423 567.788 226.348 567.217 225.538C566.659 224.727 565.836 224.316 564.734 224.316C563.631 224.316 562.808 224.727 562.237 225.551C561.666 226.361 561.387 227.437 561.387 228.765ZM566.606 228.778C566.606 230.849 566.022 232.085 564.734 232.085C563.445 232.085 562.848 230.849 562.848 228.778C562.848 226.666 563.472 225.604 564.734 225.604C565.982 225.604 566.606 226.666 566.606 228.778ZM576.101 230.491H574.906V227.795H573.498V230.491H570.882L573.365 224.462H571.918L569.116 231.314V231.699H573.498V233.227H574.906V231.699H576.101V230.491ZM583.106 230.398C583.106 228.632 581.686 227.662 580.119 227.662C579.72 227.662 579.348 227.702 579.003 227.782V225.723H582.615V224.462H577.622V228.871H579.64C580.929 228.871 581.659 229.429 581.659 230.425C581.659 231.434 580.889 232.085 579.84 232.085C578.897 232.085 578.246 231.593 577.715 230.783L576.732 231.487C577.33 232.616 578.432 233.373 579.879 233.373C581.619 233.373 583.106 232.164 583.106 230.398ZM588.576 233.227H594.499V231.965H589.984V229.19H593.264V227.968H589.984V225.723H594.339V224.462H588.576V233.227ZM598.195 233.227H599.603V225.723H602.564V224.462H595.247V225.723H598.195V233.227ZM603.879 233.227H605.287V229.216H609.695V233.227H611.103V224.462H609.695V227.954H605.287V224.462H603.879V233.227Z" fill="#00B050"/>
<defs>
<linearGradient id="paint0_linear_410_814" x1="791.79" y1="-4.04557" x2="856.161" y2="59.7603" gradientUnits="userSpaceOnUse">
<stop stop-color="#00DA63"/>
<stop offset="0.336458" stop-color="#00DA63" stop-opacity="0"/>
<stop offset="0.711458" stop-color="#00DA63" stop-opacity="0"/>
<stop offset="1" stop-color="#00DA63"/>
</linearGradient>
<linearGradient id="paint1_linear_410_814" x1="362.068" y1="407.764" x2="482.218" y2="584.508" gradientUnits="userSpaceOnUse">
<stop stop-color="#00DA63"/>
<stop offset="0.336458" stop-color="#00DA63" stop-opacity="0"/>
<stop offset="0.711458" stop-color="#00DA63" stop-opacity="0"/>
<stop offset="1" stop-color="#00DA63"/>
</linearGradient>
</defs>
</svg>
