<svg width="313" height="279" viewBox="0 0 313 279" fill="none" xmlns="http://www.w3.org/2000/svg">
<path d="M311.058 58H281.942C280.871 58 280 58.6715 280 59.5C280 60.3274 280.869 61 281.942 61H311.058C312.129 61 313 60.3285 313 59.5C312.999 58.6715 312.129 58 311.058 58Z" fill="#25AE63"/>
<path d="M234.015 61H270.985C272.096 61 273 60.3285 273 59.5C273 58.6726 272.098 58 270.985 58H234.015C232.904 58 232 58.6715 232 59.5C232.001 60.3285 232.904 61 234.015 61Z" fill="#25AE63"/>
<path d="M241 39.5C241 40.3274 241.895 41 242.999 41H259.001C260.104 41 261 40.3285 261 39.5C261 38.6726 260.105 38 259.001 38H242.999C241.895 38 241 38.6726 241 39.5Z" fill="#25AE63"/>
<path d="M272.001 41H310.999C312.103 41 313 40.3285 313 39.5C313 38.6726 312.104 38 310.999 38H272.001C270.897 38 270 38.6715 270 39.5C270.001 40.3274 270.893 41 272.001 41V41Z" fill="#25AE63"/>
<path d="M292.006 78H233.994C232.894 78 232 78.6715 232 79.5C232 80.3274 232.893 81 233.994 81H292.006C293.106 81 294 80.3285 294 79.5C294 78.6715 293.106 78 292.006 78Z" fill="#25AE63"/>
<path d="M311.125 78H299.875C298.841 78 298 78.6715 298 79.5C298 80.3274 298.84 81 299.875 81H311.125C312.159 81 313 80.3285 313 79.5C312.999 78.6715 312.159 78 311.125 78Z" fill="#25AE63"/>
<path d="M225 13L240 25.7551L225 38" stroke="#25AE63" stroke-width="3" stroke-linecap="round"/>
<mask id="path-8-inside-1_971_1496" fill="white">
<rect x="77" width="108" height="45" rx="2"/>
</mask>
<rect x="77" width="108" height="45" rx="2" stroke="#25AE63" stroke-width="8" mask="url(#path-8-inside-1_971_1496)"/>
<path d="M128.5 44.6768L128.361 98.1668" stroke="#25AE63" stroke-width="4" stroke-linecap="round"/>
<path d="M128.5 168.677V227.03" stroke="#25AE63" stroke-width="4" stroke-linecap="round"/>
<mask id="path-11-inside-2_971_1496" fill="white">
<rect x="100.199" y="227.029" width="57.6484" height="51.9705" rx="2"/>
</mask>
<rect x="100.199" y="227.029" width="57.6484" height="51.9705" rx="2" stroke="#25AE63" stroke-width="8" mask="url(#path-11-inside-2_971_1496)"/>
<path d="M128.731 69.6318H4C2.89543 69.6318 2 70.5273 2 71.6318V251.532C2 252.636 2.89543 253.532 4 253.532H102.073" stroke="#25AE63" stroke-width="4" stroke-linecap="round"/>
<path d="M128 97.4244L178.462 132L128 166.576L77.5384 132L128 97.4244Z" stroke="#25AE63" stroke-width="4"/>
</svg>
