<svg width="354" height="313" viewBox="0 0 354 313" fill="none" xmlns="http://www.w3.org/2000/svg">
<path d="M352.058 58H322.942C321.871 58 321 58.6715 321 59.5C321 60.3274 321.869 61 322.942 61H352.058C353.129 61 354 60.3285 354 59.5C353.999 58.6715 353.129 58 352.058 58Z" fill="#25AE63"/>
<path d="M275.015 61H311.985C313.096 61 314 60.3285 314 59.5C314 58.6726 313.098 58 311.985 58H275.015C273.904 58 273 58.6715 273 59.5C273.001 60.3285 273.904 61 275.015 61Z" fill="#25AE63"/>
<path d="M282 39.5C282 40.3274 282.895 41 283.999 41H300.001C301.104 41 302 40.3285 302 39.5C302 38.6726 301.105 38 300.001 38H283.999C282.895 38 282 38.6726 282 39.5Z" fill="#25AE63"/>
<path d="M313.001 41H351.999C353.103 41 354 40.3285 354 39.5C354 38.6726 353.104 38 351.999 38H313.001C311.897 38 311 38.6715 311 39.5C311.001 40.3274 311.893 41 313.001 41V41Z" fill="#25AE63"/>
<path d="M333.006 78H274.994C273.894 78 273 78.6715 273 79.5C273 80.3274 273.893 81 274.994 81H333.006C334.106 81 335 80.3285 335 79.5C335 78.6715 334.106 78 333.006 78Z" fill="#25AE63"/>
<path d="M352.125 78H340.875C339.841 78 339 78.6715 339 79.5C339 80.3274 339.84 81 340.875 81H352.125C353.159 81 354 80.3285 354 79.5C353.999 78.6715 353.159 78 352.125 78Z" fill="#25AE63"/>
<path d="M266 13L281 25.7551L266 38" stroke="#25AE63" stroke-width="3" stroke-linecap="round"/>
<mask id="path-8-inside-1_587_389" fill="white">
<rect x="80.7778" width="135.516" height="50.0454" rx="2"/>
</mask>
<rect x="80.7778" width="135.516" height="50.0454" rx="2" stroke="#25AE63" stroke-width="8" mask="url(#path-8-inside-1_587_389)"/>
<path d="M146.736 50.0459L146.577 109.964" stroke="#25AE63" stroke-width="4" stroke-linecap="round"/>
<path d="M146.736 188.947V254.313" stroke="#25AE63" stroke-width="4" stroke-linecap="round"/>
<mask id="path-11-inside-2_587_389" fill="white">
<rect x="114.355" y="254.312" width="65.959" height="58.216" rx="2"/>
</mask>
<rect x="114.355" y="254.312" width="65.959" height="58.216" rx="2" stroke="#25AE63" stroke-width="8" mask="url(#path-11-inside-2_587_389)"/>
<path d="M147 78H4C2.89543 78 2 78.8954 2 80V282C2 283.105 2.89543 284 4 284H116.5" stroke="#25AE63" stroke-width="4" stroke-linecap="round"/>
<path d="M146.737 109.611L207.782 148.602L146.737 187.593L85.693 148.602L146.737 109.611Z" stroke="#25AE63" stroke-width="4"/>
</svg>
