<svg width="62" height="62" viewBox="0 0 62 62" fill="none" xmlns="http://www.w3.org/2000/svg">
<circle cx="30.5281" cy="31.3196" r="29.3812" transform="rotate(90 30.5281 31.3196)" fill="black" stroke="url(#paint0_linear_735_1967)" stroke-width="2.22053"/>
<path fill-rule="evenodd" clip-rule="evenodd" d="M28.0391 22.6913V22.6984C28.0391 22.7229 28.04 22.7471 28.042 22.7716L28.0441 22.802L28.0493 22.8386C28.0727 23.0328 28.1437 23.1841 28.2383 23.3021C28.4232 23.5521 28.7201 23.7147 29.0554 23.7147C29.0554 23.7147 30.0718 23.6365 30.0718 22.6852V21.682C30.0718 21.4127 30.1784 21.1534 30.3697 20.9635C30.5595 20.7722 30.8189 20.6656 31.0881 20.6656H44.3008C44.8619 20.6656 45.3172 20.2103 45.3172 19.6492C45.3172 19.0881 44.8619 18.6328 44.3008 18.6328H31.0881C30.2791 18.6328 29.5037 18.9541 28.9325 19.5262C28.3603 20.0975 28.0391 20.873 28.0391 21.682V22.6852L28.0391 22.6913Z" fill="#00DA63"/>
<path fill-rule="evenodd" clip-rule="evenodd" d="M32.1048 38.9729V39.9761C32.1048 40.2454 31.9981 40.5047 31.8069 40.6946C31.617 40.8858 31.3577 40.9924 31.0884 40.9924H17.8757C17.3147 40.9924 16.8594 41.4478 16.8594 42.0088C16.8594 42.5699 17.3147 43.0252 17.8757 43.0252H31.0884C31.8974 43.0252 32.6728 42.704 33.2441 42.1318C33.8162 41.5605 34.1375 40.785 34.1375 39.9761V38.9729C34.1375 38.0338 33.1211 39.9761 33.1211 39.9761C32.5601 37.9433 32.1048 38.3986 32.1048 38.9597L32.1048 38.9729Z" fill="#00DA63"/>
<path fill-rule="evenodd" clip-rule="evenodd" d="M26.0083 23.7148H22.9592C21.2752 23.7148 19.9102 25.0802 19.9102 26.764V30.8296C19.9102 31.3906 20.3659 31.8459 20.9265 31.8459C21.4871 31.8459 21.9429 31.3906 21.9429 30.8296V26.764C21.9429 26.2029 22.398 25.7476 22.9592 25.7476H26.0083C26.5689 25.7476 27.0247 25.2923 27.0247 24.7312C27.0247 24.1702 26.5689 23.7148 26.0083 23.7148Z" fill="#00DA63"/>
<path fill-rule="evenodd" clip-rule="evenodd" d="M36.1726 37.9426H39.2217C40.9057 37.9426 42.2708 36.5773 42.2708 34.8935V30.8279C42.2708 30.2669 41.815 29.8115 41.2544 29.8115C40.6938 29.8115 40.2381 30.2669 40.2381 30.8279V34.8935C40.2381 35.4545 39.7832 35.9099 39.2217 35.9099H36.1726C35.612 35.9099 35.1562 36.3652 35.1562 36.9262C35.1562 37.4873 35.612 37.9426 36.1726 37.9426Z" fill="#00DA63"/>
<path fill-rule="evenodd" clip-rule="evenodd" d="M42.2698 30.8296V26.764C42.2698 25.0802 40.9047 23.7148 39.2207 23.7148H32.1062C31.5456 23.7148 31.0898 24.1702 31.0898 24.7312C31.0898 25.2923 31.5456 25.7476 32.1062 25.7476H39.2207C39.782 25.7476 40.2371 26.2029 40.2371 26.764V30.8296C40.2371 31.3906 40.6929 31.8459 41.2534 31.8459C41.814 31.8459 42.2698 31.3906 42.2698 30.8296Z" fill="#00DA63"/>
<path fill-rule="evenodd" clip-rule="evenodd" d="M19.9102 30.8279V34.8935C19.9102 36.5773 21.2752 37.9426 22.9592 37.9426H30.0738C30.6343 37.9426 31.0901 37.4873 31.0901 36.9262C31.0901 36.3652 30.6343 35.9099 30.0738 35.9099H22.9592C22.398 35.9099 21.9429 35.4545 21.9429 34.8935V30.8279C21.9429 30.2669 21.4871 29.8115 20.9265 29.8115C20.3659 29.8115 19.9102 30.2669 19.9102 30.8279Z" fill="#00DA63"/>
<path fill-rule="evenodd" clip-rule="evenodd" d="M31.0881 27.7803C29.4051 27.7803 28.0391 29.1463 28.0391 30.8294C28.0391 32.5126 29.4051 33.8786 31.0881 33.8786C32.7712 33.8786 34.1372 32.5126 34.1372 30.8294C34.1372 29.1463 32.7712 27.7803 31.0881 27.7803ZM31.0881 29.813C31.6492 29.813 32.1045 30.2684 32.1045 30.8294C32.1045 31.3905 31.6492 31.8458 31.0881 31.8458C30.5271 31.8458 30.0718 31.3905 30.0718 30.8294C30.0718 30.2684 30.5271 29.813 31.0881 29.813Z" fill="#00DA63"/>
<path fill-rule="evenodd" clip-rule="evenodd" d="M41.5516 18.3346L43.5843 20.3673C43.9811 20.7641 44.6247 20.7639 45.0215 20.3671C45.4181 19.9705 45.4185 19.3269 45.0215 18.9299L42.9888 16.8971C42.592 16.5003 41.9484 16.5005 41.5516 16.8973C41.1548 17.2939 41.1546 17.9375 41.5516 18.3346Z" fill="#00DA63"/>
<path fill-rule="evenodd" clip-rule="evenodd" d="M20.627 43.3236L18.5943 41.2908C18.1973 40.8938 17.5536 40.894 17.1571 41.2908C16.7603 41.6876 16.7601 42.3313 17.1569 42.7281L19.1896 44.7609C19.5866 45.1579 20.2302 45.1574 20.6268 44.7609C21.0236 44.3641 21.0238 43.7204 20.627 43.3236Z" fill="#00DA63"/>
<path fill-rule="evenodd" clip-rule="evenodd" d="M42.9888 22.4005L45.0215 20.3677C45.4185 19.9709 45.4181 19.3273 45.0215 18.9305C44.6247 18.5337 43.9811 18.5335 43.5843 18.9305L41.5516 20.9633C41.1546 21.3601 41.1548 22.0037 41.5516 22.4005C41.9484 22.7971 42.592 22.7975 42.9888 22.4005Z" fill="#00DA63"/>
<path fill-rule="evenodd" clip-rule="evenodd" d="M19.1896 39.2555L17.1569 41.2883C16.7601 41.6853 16.7603 42.3289 17.1571 42.7255C17.5536 43.1223 18.1973 43.1225 18.5943 42.7257L20.627 40.693C21.0238 40.2959 21.0236 39.6523 20.6268 39.2557C20.2302 38.8589 19.5866 38.8587 19.1896 39.2555Z" fill="#00DA63"/>
<path fill-rule="evenodd" clip-rule="evenodd" d="M34.1382 38.9597C34.1382 39.521 33.6831 39.9761 33.1218 39.9761C32.5606 39.9761 32.1055 39.521 32.1055 38.9597C32.1055 38.3985 32.5606 37.9434 33.1218 37.9434C33.6831 37.9434 34.1382 38.3985 34.1382 38.9597Z" fill="#00DA63"/>
<defs>
<linearGradient id="paint0_linear_735_1967" x1="4.24239" y1="-29.1376" x2="61.7498" y2="-25.2454" gradientUnits="userSpaceOnUse">
<stop stop-color="#00DA63"/>
<stop offset="0.336458" stop-color="#00DA63" stop-opacity="0"/>
<stop offset="0.711458" stop-color="#00DA63" stop-opacity="0"/>
<stop offset="1" stop-color="#00DA63"/>
</linearGradient>
</defs>
</svg>
