<svg width="21" height="11" viewBox="0 0 21 11" fill="none" xmlns="http://www.w3.org/2000/svg">
<path d="M16.014 9.95877L19.9616 5.95946L19.9618 5.95933C20.0215 5.89889 20.0689 5.82722 20.1011 5.74846C20.1334 5.66965 20.15 5.58522 20.15 5.5C20.15 5.41478 20.1334 5.33036 20.1011 5.25154C20.0689 5.17278 20.0215 5.10111 19.9618 5.04068L19.9616 5.04054L16.014 1.04124C15.9543 0.980735 15.8833 0.932638 15.805 0.899787C15.7267 0.866935 15.6427 0.85 15.5578 0.85C15.3864 0.85 15.2223 0.919021 15.1017 1.04124C14.9811 1.16339 14.9137 1.32865 14.9137 1.50056C14.9137 1.67248 14.9811 1.83774 15.1017 1.95989L15.1017 1.9599L17.9555 4.85007L1.49347 4.85007C1.32218 4.85007 1.1583 4.91903 1.03778 5.04112C0.917326 5.16315 0.85 5.32825 0.85 5.5C0.85 5.67175 0.917326 5.83685 1.03778 5.95888C1.1583 6.08098 1.32218 6.14993 1.49347 6.14993L17.9555 6.14993L15.1017 9.0401L15.1017 9.04011C14.9811 9.16226 14.9137 9.32752 14.9137 9.49944C14.9137 9.67136 14.9811 9.83662 15.1017 9.95877C15.2223 10.081 15.3864 10.15 15.5578 10.15C15.7293 10.15 15.8933 10.081 16.014 9.95877Z" fill="#00DA63" stroke="#00DA63" stroke-width="0.3"/>
</svg>
