<svg width="21" height="11" viewBox="0 0 21 11" fill="none" xmlns="http://www.w3.org/2000/svg">
<path d="M17.9555 5.10105L15.1017 2.21088L15.1017 2.21086C14.9811 2.08871 14.9137 1.92345 14.9137 1.75154C14.9137 1.57962 14.9811 1.41436 15.1017 1.29221C15.2223 1.17 15.3864 1.10098 15.5578 1.10098C15.6427 1.10098 15.7267 1.11791 15.805 1.15076C15.8833 1.18361 15.9543 1.23171 16.014 1.29221L19.9616 5.29152L17.9555 5.10105ZM17.9555 5.10105L1.49347 5.10105C1.32218 5.10105 1.1583 5.17 1.03778 5.2921C0.917326 5.41413 0.85 5.57923 0.85 5.75098C0.85 5.92272 0.917326 6.08782 1.03778 6.20986C1.1583 6.33195 1.32218 6.40091 1.49347 6.40091L17.9555 6.40091L15.1017 9.29107L15.1017 9.29109C14.9811 9.41324 14.9137 9.5785 14.9137 9.75042C14.9137 9.92233 14.9811 10.0876 15.1017 10.2097C15.2223 10.332 15.3864 10.401 15.5578 10.401C15.7293 10.401 15.8933 10.332 16.014 10.2097L19.9616 6.21044L17.9555 5.10105ZM20.1011 5.99944C20.0689 6.0782 20.0215 6.14987 19.9618 6.2103L20.1011 5.99944ZM20.1011 5.99944C20.1334 5.92062 20.15 5.8362 20.15 5.75098M20.1011 5.99944L20.15 5.75098M20.15 5.75098C20.15 5.66576 20.1334 5.58133 20.1011 5.50252M20.15 5.75098L20.1011 5.50252M20.1011 5.50252C20.0689 5.42376 20.0215 5.35208 19.9618 5.29165L20.1011 5.50252Z" fill="#00DA63" stroke="#00DA63" stroke-width="0.3"/>
</svg>
