<svg width="20" height="20" viewBox="0 0 20 20" fill="none" xmlns="http://www.w3.org/2000/svg">
<path d="M6.9007 10.0061L1.56961 15.3807C0.576038 13.8273 0 11.981 0 10.0003C0 8.03115 0.569609 6.19532 1.55247 4.64746L6.9007 10.0061ZM18.4692 15.3189C19.4386 13.7783 20 11.955 20 10.0003C20 8.03508 19.4326 6.20247 18.4535 4.65675L13.0992 9.99462L18.4692 15.3189Z" fill="#00DA63"/>
<path d="M9.99984 20.0005C8.04472 20.0005 6.22093 19.4386 4.68018 18.4688L10.0056 13.0996L15.3813 18.43C13.8281 19.424 11.981 20.0005 9.99984 20.0005Z" fill="white"/>
<path d="M10.0005 0C11.9713 0 13.8082 0.57043 15.3569 1.5544L9.99477 6.90063L4.65332 1.54883C6.19975 0.568216 8.03369 0 10.0005 0Z" fill="white"/>
</svg>
