<svg width="28" height="19" viewBox="0 0 28 19" fill="none" xmlns="http://www.w3.org/2000/svg">
<path d="M22.9925 1.55539C21.2125 0.819231 19.3293 0.296158 17.3928 0C17.1516 0.38545 16.8698 0.903882 16.6755 1.31632C14.5876 1.03883 12.5189 1.03883 10.4694 1.31632C10.2751 0.903976 9.98697 0.38545 9.74353 0C7.80515 0.296295 5.92038 0.8207 4.13949 1.55923C0.595651 6.29269 -0.365057 10.9084 0.115244 15.4589C2.46575 17.0103 4.74363 17.9528 6.98313 18.5696C7.5397 17.893 8.03169 17.1768 8.45404 16.4283C7.64996 16.1577 6.8748 15.8242 6.13777 15.4319C6.33173 15.3048 6.52112 15.1724 6.70565 15.0348C11.1717 16.8812 16.0243 16.8812 20.4372 15.0348C20.6225 15.1715 20.8118 15.3039 21.005 15.4319C20.2667 15.8253 19.4901 16.1594 18.6844 16.4302C19.1092 17.1818 19.6003 17.8987 20.1554 18.5714C22.397 17.9548 24.677 17.0123 27.0275 15.4589C27.5911 10.1838 26.0648 5.61044 22.9925 1.55539ZM9.06252 12.6604C7.72181 12.6604 6.62232 11.5541 6.62232 10.207C6.62232 8.85983 7.69838 7.75164 9.06252 7.75164C10.4268 7.75164 11.5262 8.85786 11.5027 10.207C11.5048 11.5541 10.4268 12.6604 9.06252 12.6604ZM18.0802 12.6604C16.7395 12.6604 15.6401 11.5541 15.6401 10.207C15.6401 8.85983 16.7161 7.75164 18.0802 7.75164C19.4444 7.75164 20.5438 8.85786 20.5204 10.207C20.5204 11.5541 19.4444 12.6604 18.0802 12.6604Z" fill="#9B9C9D"/>
</svg>
