<svg width="62" height="62" viewBox="0 0 62 62" fill="none" xmlns="http://www.w3.org/2000/svg">
<circle cx="30.7742" cy="31.3596" r="29.3812" transform="rotate(90 30.7742 31.3596)" fill="black" stroke="url(#paint0_linear_735_1893)" stroke-width="2.22053"/>
<path d="M42.7659 22.5412V28.3738C42.7659 29.1279 42.1534 29.7407 41.3991 29.7407C41.0341 29.7407 40.6892 29.5984 40.4297 29.3392C40.3081 29.2215 40.2107 29.0792 40.1457 28.925C40.101 28.8237 40.0687 28.7142 40.0483 28.6044C40.0444 28.5603 40.0362 28.5193 40.0322 28.4751C40.0282 28.4426 40.0282 28.4061 40.0282 28.3738L40.028 23.9077H35.5661C34.8075 23.9077 34.1992 23.2952 34.1992 22.5412C34.1992 22.4073 34.2196 22.2735 34.2561 22.1473C34.2643 22.1193 34.2765 22.0868 34.2886 22.0582C34.3048 22.0135 34.3212 21.973 34.3455 21.9326C34.3738 21.8794 34.4024 21.8225 34.4346 21.7739C34.4711 21.7252 34.5037 21.6765 34.5441 21.6318C34.5441 21.6279 34.5481 21.6279 34.5523 21.6233C34.5727 21.599 34.5928 21.5792 34.6171 21.5585C34.6375 21.5342 34.6576 21.5144 34.6819 21.498C34.6901 21.494 34.6941 21.4895 34.698 21.4858L34.7102 21.4737C34.7224 21.4618 34.7345 21.4493 34.7507 21.4417C34.7668 21.4295 34.7872 21.4134 34.8075 21.4007C34.8115 21.4007 34.8115 21.3967 34.8157 21.3967C34.844 21.3763 34.8766 21.3557 34.9091 21.3398C34.9091 21.3398 34.9131 21.3398 34.9131 21.3353C34.9131 21.3353 34.917 21.3353 34.917 21.3398C34.921 21.3398 34.921 21.3353 34.921 21.3353C34.921 21.3313 34.9249 21.3313 34.9249 21.3313C34.9289 21.3274 34.9332 21.3274 34.9371 21.3231C34.9654 21.311 34.9897 21.2985 35.0183 21.2864L35.0426 21.2745C35.063 21.27 35.0831 21.2584 35.1074 21.2499H35.1114C35.1479 21.238 35.1844 21.2255 35.2209 21.2173C35.2452 21.2091 35.2696 21.2054 35.2939 21.2012C35.3222 21.193 35.3547 21.1893 35.383 21.1851C35.3912 21.1851 35.3991 21.1811 35.4074 21.1811H35.4195C35.4642 21.1729 35.5129 21.1689 35.5655 21.1689H41.3982C42.1533 21.1698 42.7659 21.7866 42.7659 22.5412L42.7659 22.5412Z" fill="#00DA63"/>
<path d="M30.0532 31.4014L28.8242 32.4519C28.5769 32.6587 28.2603 32.7725 27.9357 32.7725C27.5342 32.7725 27.1568 32.6021 26.8934 32.298C26.8651 32.2615 26.8365 32.229 26.8164 32.1925L30.0532 31.4014Z" fill="#00DA63"/>
<path d="M39.7035 28.5576L38.1703 28.9104L36.9737 29.1863H36.9698L31.7536 30.3913L31.0479 30.5577L26.586 31.5879L26.2533 31.6609L22.5664 32.5128L22.6312 32.8778L26.3263 31.9733L26.6548 31.8926L30.6176 30.9191L31.3436 30.7448L36.3934 29.5073H36.3974L37.6508 29.1989L39.7275 28.6918C39.7156 28.6469 39.7077 28.6024 39.7035 28.5577L39.7035 28.5576Z" fill="#00DA63"/>
<path d="M22.3624 33.2839L22.2976 32.9554L22.2328 32.5861L22.1719 32.2616L22.1315 32.0381L20.7969 32.3343L21.0849 33.7985L21.0241 34.0616L21.5758 34.2523L21.6001 34.3293C21.8395 35.0188 22.5251 36.8887 22.9022 37.2945L23.0035 37.4122L22.4275 33.6321L22.3624 33.2839Z" fill="#00DA63"/>
<path d="M43.0238 28.8818C43.0198 28.9223 43.0116 28.967 42.9994 29.0111C42.9629 29.1571 42.9021 29.2952 42.8169 29.4126C42.7643 29.4978 42.6992 29.5747 42.6262 29.6401C42.6019 29.6681 42.5776 29.6885 42.5532 29.7091C42.5329 29.7253 42.5128 29.7417 42.4885 29.7533C42.4559 29.7816 42.4155 29.8059 42.379 29.8266L42.1356 29.9604L42.083 29.9884L41.3774 30.3737V30.3777L38.9153 31.7284L38.4652 31.9799L36.9928 32.7911L36.66 32.9736V39.5238C36.66 40.2583 36.0232 40.8542 35.2445 40.8542C34.4616 40.8542 33.8247 40.258 33.8247 39.5238V32.2228C33.7843 31.7039 34.0233 31.1926 34.4859 30.9328L35.4148 30.4219H35.4188L36.5262 29.8093H36.5301L39.8195 29.006C39.8965 29.2174 40.0263 29.4075 40.1927 29.5779C40.5133 29.8984 40.9391 30.0727 41.3974 30.0727C42.1594 30.0744 42.8045 29.5711 43.0237 28.8819L43.0238 28.8818Z" fill="#00DA63"/>
<path d="M35.5909 25.0888L34.0738 27.5266L33.6398 28.22C33.5951 28.2933 33.5464 28.3578 33.4856 28.4187C33.4247 28.5078 33.3478 28.5929 33.2626 28.6659L32.6461 29.1891L31.5995 30.0854L26.582 31.2415C26.6225 30.9009 26.7889 30.5925 27.0486 30.3698L30.8085 27.1613L31.3763 26.6786L31.7778 26.0338L33.8464 22.7119C33.8707 23.1298 34.041 23.5395 34.3574 23.8558L35.5909 25.0888Z" fill="#00DA63"/>
<path d="M46.255 40.3704C46.0156 40.7232 45.6467 40.9504 45.2449 40.999H44.8839C44.6932 40.9707 44.5147 40.9017 44.3565 40.7962L39.0877 37.2066L38.1993 36.6022C37.8544 36.3711 37.664 35.9897 37.6436 35.5882C37.6396 35.5274 37.6396 35.4665 37.6436 35.4057C37.6518 35.3002 37.6719 35.1949 37.7044 35.0894C37.7084 35.069 37.7126 35.0529 37.7206 35.0325L38.1059 34.0145L38.7711 32.2496L38.7915 32.189L42.2028 30.3109C42.3406 30.2662 42.4747 30.2008 42.6003 30.1162L42.5921 30.1408L42.5882 30.1612L40.9089 34.6143L40.7873 34.9348L41.0713 35.1258L45.9508 38.4514C46.247 38.65 46.4375 38.9545 46.4983 39.3155C46.5551 39.6808 46.466 40.0539 46.255 40.3702L46.255 40.3704Z" fill="#00DA63"/>
<path d="M26.5842 41.6654L25.0063 42.1439L26.6411 43.4663L23.5746 42.6144L23.0025 44.0016L20.0903 41.641H13.9492V40.9756H23.169L21.2504 41.7302L22.735 42.9306L23.1933 41.8154L23.7368 41.965L23.6152 41.868L26.4505 41.0081L26.5235 40.9878V40.996H47.7451V41.6654L26.5842 41.6654Z" fill="#00DA63"/>
<path d="M26.7971 41.1725L24.3594 40.0424L30.4838 39.5674L26.7971 41.1725Z" fill="#00DA63"/>
<path d="M28.254 39.2182H25.707L28.254 37.9189V39.2182Z" fill="#00DA63"/>
<path d="M23.7109 40.8804L24.1744 36.9395L25.3916 38.9101L23.7109 40.8804Z" fill="#00DA63"/>
<path d="M21.0044 41.1028L20.7461 39.707H22.4001L21.0044 41.1028Z" fill="#00DA63"/>
<path d="M28.9102 42.8633H30.2761V43.1974H28.9102V42.8633Z" fill="#00DA63"/>
<path d="M32.3047 42.8633H33.6707V43.1974H32.3047V42.8633Z" fill="#00DA63"/>
<path d="M35.543 42.8633H36.9095V43.1974H35.543V42.8633Z" fill="#00DA63"/>
<path d="M38.7773 42.8633H40.1433V43.1974H38.7773V42.8633Z" fill="#00DA63"/>
<path d="M42.0781 42.8633H43.4441V43.1974H42.0781V42.8633Z" fill="#00DA63"/>
<path d="M45.4883 42.8633H46.8543V43.1974H45.4883V42.8633Z" fill="#00DA63"/>
<path d="M27.2578 44.3613H28.6244V44.6955H27.2578V44.3613Z" fill="#00DA63"/>
<path d="M23.8945 44.3613H25.2605V44.6955H23.8945V44.3613Z" fill="#00DA63"/>
<path d="M20.6914 44.3613H22.0574V44.6955H20.6914V44.3613Z" fill="#00DA63"/>
<path d="M17.4336 44.3613H18.7996V44.6955H17.4336V44.3613Z" fill="#00DA63"/>
<path d="M14.6094 44.7051H15.9275V45.0276H14.6094V44.7051Z" fill="#00DA63"/>
<path d="M15.6328 42.8633H16.9988V43.1974H15.6328V42.8633Z" fill="#00DA63"/>
<path d="M19.0469 42.8633H20.4134V43.1974H19.0469V42.8633Z" fill="#00DA63"/>
<path d="M30.6445 44.3613H32.0105V44.6955H30.6445V44.3613Z" fill="#00DA63"/>
<path d="M33.8828 44.3613H35.2494V44.6955H33.8828V44.3613Z" fill="#00DA63"/>
<path d="M37.125 44.3613H38.491V44.6955H37.125V44.3613Z" fill="#00DA63"/>
<path d="M40.4219 44.3613H41.7879V44.6955H40.4219V44.3613Z" fill="#00DA63"/>
<path d="M43.8281 44.3613H45.1941V44.6955H43.8281V44.3613Z" fill="#00DA63"/>
<path d="M34.6497 19.8331C34.6497 21.1716 33.5588 22.2669 32.2159 22.2669C31.4939 22.2669 30.8409 21.9463 30.3986 21.4393C30.3582 21.3946 30.3174 21.3496 30.2852 21.3009C31.3761 20.4003 32.7959 18.9484 33.6436 17.8652C33.684 17.8935 33.7205 17.9221 33.757 17.9544C34.3053 18.3972 34.6497 19.0785 34.6497 19.8331L34.6497 19.8331Z" fill="#00DA63"/>
<path d="M34.0393 16.6387C34.0028 16.7603 33.865 17.0119 33.5688 17.4094C33.5119 17.4946 33.4389 17.5837 33.362 17.6813C33.1591 17.9328 32.9036 18.2325 32.5952 18.5819C31.7475 19.5269 30.8269 20.4193 30.1088 21.0242C30.0154 21.1009 29.9263 21.1739 29.8451 21.235C29.4315 21.5595 29.1191 21.7624 28.9609 21.7746V17.5642C28.9609 17.0532 29.3746 16.6393 29.8816 16.6393L34.0393 16.639L34.0393 16.6387Z" fill="#00DA63"/>
<path d="M39.2684 24.2365H35.565C35.4312 24.2365 35.3013 24.2204 35.1797 24.1924L39.029 28.0417L39.0327 28.0398L39.2766 28.2746L39.6945 28.1606V24.6674L39.2684 24.2365Z" fill="#00DA63"/>
<defs>
<linearGradient id="paint0_linear_735_1893" x1="4.48848" y1="-29.0976" x2="61.9958" y2="-25.2053" gradientUnits="userSpaceOnUse">
<stop stop-color="#00DA63"/>
<stop offset="0.336458" stop-color="#00DA63" stop-opacity="0"/>
<stop offset="0.711458" stop-color="#00DA63" stop-opacity="0"/>
<stop offset="1" stop-color="#00DA63"/>
</linearGradient>
</defs>
</svg>
