<svg width="23" height="22" viewBox="0 0 23 22" fill="none" xmlns="http://www.w3.org/2000/svg">
<path d="M11.5 0C5.14625 0 0 5.0503 0 11.2793C0 16.2638 3.29475 20.4907 7.86312 21.9805C8.43812 22.0867 8.64896 21.738 8.64896 21.4382C8.64896 21.1703 8.63938 20.4606 8.63458 19.5207C5.43567 20.2012 4.761 18.0074 4.761 18.0074C4.23775 16.7056 3.48162 16.3578 3.48162 16.3578C2.43992 15.6585 3.56212 15.6726 3.56212 15.6726C4.71692 15.7515 5.32354 16.8343 5.32354 16.8343C6.34896 18.5591 8.0155 18.061 8.67292 17.7724C8.77642 17.043 9.07254 16.5458 9.40125 16.2638C6.84729 15.9818 4.163 15.0118 4.163 10.6899C4.163 9.45862 4.60862 8.45289 5.34654 7.66334C5.21717 7.37853 4.82904 6.23181 5.44717 4.67808C5.44717 4.67808 6.41029 4.37542 8.60967 5.83421C9.52967 5.58325 10.5072 5.45918 11.4847 5.45354C12.4622 5.45918 13.4397 5.58325 14.3597 5.83421C16.5447 4.37542 17.5078 4.67808 17.5078 4.67808C18.1259 6.23181 17.7378 7.37853 17.6228 7.66334C18.3559 8.45289 18.8015 9.45862 18.8015 10.6899C18.8015 15.0231 16.1134 15.9771 13.5547 16.2544C13.9572 16.5928 14.3309 17.2846 14.3309 18.3411C14.3309 19.8506 14.3165 21.0631 14.3165 21.4297C14.3165 21.7258 14.5178 22.0783 15.1072 21.9655C19.7081 20.486 23 16.2563 23 11.2793C23 5.0503 17.8509 0 11.5 0" fill="#9B9C9D"/>
</svg>
