<svg width="62" height="62" viewBox="0 0 62 62" fill="none" xmlns="http://www.w3.org/2000/svg">
<circle cx="31.282" cy="30.6692" r="29.3812" transform="rotate(90 31.282 30.6692)" fill="black" stroke="url(#paint0_linear_735_1960)" stroke-width="2.22053"/>
<path d="M40.7302 44.1437L38.1972 37.2406H37.5708C37.4255 37.6657 37.2076 38.2756 36.9171 39.0704C36.6265 39.8651 36.4177 40.4381 36.2906 40.7892H32.9677V42.5635C32.9677 43.0625 32.7952 43.483 32.4502 43.8249C32.1052 44.1668 31.6921 44.3378 31.211 44.3378C30.7298 44.3378 30.3212 44.1622 29.9853 43.811C29.6494 43.4599 29.4814 43.044 29.4814 42.5635V40.7892H26.1313C26.0223 40.4381 25.8226 39.8651 25.5321 39.0704C25.2415 38.2756 25.0237 37.6657 24.8784 37.2406H24.2519L21.7189 44.1437C21.0834 43.811 20.7656 43.2843 20.7656 42.5635V37.2406C20.7656 36.7416 21.2287 36.0254 22.1547 35.0921C23.0808 34.1587 23.7798 33.6921 24.2519 33.6921C24.2519 31.1785 24.547 28.7111 25.1371 26.29C25.7273 23.8688 26.558 21.7341 27.6293 19.8859C28.7006 18.0377 29.899 16.7255 31.2246 15.9492C32.5501 16.7255 33.7485 18.0377 34.8198 19.8859C35.8912 21.7341 36.7219 23.8688 37.312 26.29C37.9021 28.7111 38.1972 31.1785 38.1972 33.6921C38.6693 33.6921 39.3684 34.1587 40.2944 35.0921C41.2205 36.0254 41.6835 36.7416 41.6835 37.2406V42.5635C41.6835 43.2843 41.3658 43.811 40.7302 44.1437ZM31.2246 23.0464C30.2622 23.0464 29.4406 23.3929 28.7596 24.086C28.0787 24.7791 27.7383 25.6154 27.7383 26.5949C27.7383 27.5745 28.0787 28.4108 28.7596 29.1039C29.4406 29.797 30.2622 30.1435 31.2246 30.1435C32.1869 30.1435 33.0086 29.797 33.6895 29.1039C34.3704 28.4108 34.7109 27.5745 34.7109 26.5949C34.7109 25.6154 34.3704 24.7791 33.6895 24.086C33.0086 23.3929 32.1869 23.0464 31.2246 23.0464Z" fill="#00DA63"/>
<defs>
<linearGradient id="paint0_linear_735_1960" x1="4.99629" y1="-29.788" x2="62.5037" y2="-25.8958" gradientUnits="userSpaceOnUse">
<stop stop-color="#00DA63"/>
<stop offset="0.336458" stop-color="#00DA63" stop-opacity="0"/>
<stop offset="0.711458" stop-color="#00DA63" stop-opacity="0"/>
<stop offset="1" stop-color="#00DA63"/>
</linearGradient>
</defs>
</svg>
