<svg width="23" height="13" viewBox="0 0 23 13" fill="none" xmlns="http://www.w3.org/2000/svg">
<circle cx="6.49985" cy="6.49985" r="5.99985" stroke-opacity="0.85"/>
<path fill-rule="evenodd" clip-rule="evenodd" d="M6.03783 6.78947C6.03783 6.91891 6.08892 7.04304 6.17986 7.13457C6.2708 7.22609 6.39414 7.27751 6.52274 7.27751L20.619 7.27751L17.567 10.3483C17.476 10.4399 17.4248 10.5642 17.4248 10.6938C17.4248 10.8234 17.476 10.9477 17.567 11.0393C17.6581 11.131 17.7816 11.1825 17.9103 11.1825C18.0391 11.1825 18.1626 11.131 18.2537 11.0393L22.1329 7.135C22.1781 7.08967 22.2139 7.03581 22.2384 6.97652C22.2628 6.91723 22.2754 6.85366 22.2754 6.78947C22.2754 6.72528 22.2628 6.66171 22.2384 6.60242C22.2139 6.54313 22.1781 6.48927 22.1329 6.44394L18.2537 2.53961C18.2086 2.49423 18.1551 2.45824 18.0961 2.43368C18.0372 2.40912 17.9741 2.39648 17.9103 2.39648C17.7816 2.39648 17.6581 2.44797 17.567 2.53961C17.476 2.63125 17.4248 2.75554 17.4248 2.88514C17.4248 3.01474 17.476 3.13903 17.567 3.23067L20.619 6.30143L6.52274 6.30143C6.39414 6.30143 6.2708 6.35285 6.17986 6.44437C6.08892 6.5359 6.03783 6.66003 6.03783 6.78947Z" fill="white" fill-opacity="0.85"/>
</svg>
