<svg width="62" height="62" viewBox="0 0 62 62" fill="none" xmlns="http://www.w3.org/2000/svg">
<circle cx="30.5281" cy="30.6281" r="29.3812" transform="rotate(90 30.5281 30.6281)" fill="black" stroke="url(#paint0_linear_735_1945)" stroke-width="2.22053"/>
<path d="M29.6533 15.9072C31.5216 15.9073 33.3705 16.2849 35.0891 17.0174C36.8076 17.75 38.3602 18.8223 39.6536 20.1699C40.947 21.5175 41.9545 23.1127 42.6156 24.8595C43.2766 26.6062 43.5775 28.4686 43.5002 30.3346C42.8802 29.4086 41.9788 28.7065 40.9291 28.3318C39.8794 27.9571 38.737 27.9297 37.6705 28.2537C36.604 28.5776 35.67 29.2357 35.0062 30.1308C34.3425 31.0259 33.9842 32.1106 33.9843 33.2249V33.334C33.2404 33.526 32.5815 33.9597 32.1111 34.5669C31.6407 35.1741 31.3855 35.9204 31.3857 36.6884V43.5081C29.5082 43.7431 27.6024 43.5913 25.7857 43.062C23.9691 42.5328 22.2801 41.6372 20.8229 40.4306C19.3657 39.2239 18.1711 37.7318 17.3127 36.046C16.4543 34.3603 15.9504 32.5167 15.8319 30.6289C15.7134 28.741 15.9829 26.8489 16.6237 25.0692C17.2646 23.2894 18.2633 21.6597 19.5582 20.2804C20.8531 18.9012 22.4168 17.8016 24.153 17.0495C25.8892 16.2974 27.7611 15.9086 29.6533 15.9072ZM35.4706 25.6848C35.3272 25.542 35.1383 25.454 34.9367 25.436C34.7352 25.4179 34.5336 25.471 34.3671 25.5861L34.2459 25.6848L27.921 32.0092L25.0695 29.157L24.9482 29.0565C24.7814 28.9416 24.5795 28.8888 24.3777 28.9073C24.176 28.9258 23.9871 29.0144 23.8439 29.1577C23.7007 29.3011 23.6123 29.49 23.5941 29.6917C23.5759 29.8935 23.629 30.0952 23.7442 30.2618L23.843 30.383L27.3077 33.8466L27.429 33.9453C27.5736 34.0451 27.7452 34.0985 27.921 34.0985C28.0967 34.0985 28.2683 34.0451 28.413 33.9453L28.5342 33.8448L35.4706 26.9109L35.5711 26.7896C35.6864 26.6228 35.7395 26.4209 35.7211 26.219C35.7028 26.0171 35.6141 25.828 35.4706 25.6848ZM39.1814 29.7613C40.1003 29.7613 40.9816 30.1263 41.6313 30.7758C42.2811 31.4253 42.6461 32.3063 42.6461 33.2249V34.9566H43.5123C43.9718 34.9566 44.4124 35.1391 44.7373 35.4639C45.0622 35.7886 45.2447 36.2291 45.2447 36.6884V43.6155C45.2447 44.0748 45.0622 44.5152 44.7373 44.84C44.4124 45.1648 43.9718 45.3472 43.5123 45.3472H34.8505C34.391 45.3472 33.9504 45.1648 33.6255 44.84C33.3006 44.5152 33.1181 44.0748 33.1181 43.6155V36.6884C33.1181 36.2291 33.3006 35.7886 33.6255 35.4639C33.9504 35.1391 34.391 34.9566 34.8505 34.9566H35.7166V33.2249C35.7166 32.3063 36.0817 31.4253 36.7314 30.7758C37.3812 30.1263 38.2625 29.7613 39.1814 29.7613ZM38.0467 40.7858C38.2148 41.0866 38.4957 41.3083 38.8274 41.4022C39.1591 41.496 39.5145 41.4543 39.8154 41.2862C40.1164 41.1181 40.3382 40.8374 40.4321 40.5058C40.526 40.1742 40.4843 39.8189 40.3161 39.5181C40.1479 39.2173 39.8671 38.9955 39.5354 38.9017C39.2037 38.8078 38.8483 38.8495 38.5473 39.0176C38.2464 39.1857 38.0246 39.4665 37.9307 39.798C37.8368 40.1296 37.8785 40.4849 38.0467 40.7858ZM39.1814 31.4931C38.7219 31.4931 38.2813 31.6756 37.9564 32.0003C37.6315 32.3251 37.449 32.7656 37.449 33.2249V34.9566H40.9138V33.2249C40.9138 32.7656 40.7312 32.3251 40.4064 32.0003C40.0815 31.6756 39.6408 31.4931 39.1814 31.4931Z" fill="#00DA63"/>
<defs>
<linearGradient id="paint0_linear_735_1945" x1="4.24239" y1="-29.829" x2="61.7498" y2="-25.9368" gradientUnits="userSpaceOnUse">
<stop stop-color="#00DA63"/>
<stop offset="0.336458" stop-color="#00DA63" stop-opacity="0"/>
<stop offset="0.711458" stop-color="#00DA63" stop-opacity="0"/>
<stop offset="1" stop-color="#00DA63"/>
</linearGradient>
</defs>
</svg>
