<svg width="173" height="39" viewBox="0 0 173 39" fill="none" xmlns="http://www.w3.org/2000/svg">
<path d="M19.5 39C30.2696 39 39 30.2696 39 19.5C39 8.73047 30.2696 0 19.5 0C8.73045 0 0 8.73047 0 19.5C0 30.2696 8.73045 39 19.5 39Z" fill="#00DA63"/>
<path d="M29.7008 13.8535C29.3853 13.0943 28.9182 12.4052 28.3273 11.8267C27.7266 11.2319 27.0005 10.7739 26.2003 10.4852C25.4308 10.1997 24.6141 10.0572 23.7917 10.0647C22.9738 10.0716 22.1638 10.2231 21.4003 10.5119C20.61 10.8107 19.8928 11.2703 19.2956 11.8607L15.2441 15.8657L13.626 17.4575C13.5084 17.5732 13.3668 17.6627 13.211 17.72C13.0267 17.7831 12.833 17.8152 12.6379 17.8147C12.4381 17.8098 12.2407 17.7703 12.0548 17.6981C11.899 17.6419 11.7574 17.5532 11.6398 17.438C11.5203 17.3244 11.4263 17.1874 11.3638 17.0359C11.3012 16.8844 11.2716 16.7217 11.2767 16.5583C11.2699 16.1612 11.4065 15.7746 11.662 15.4671L13.1443 13.8316L9.60668 10.3515L7.93916 12.1256C7.38243 12.7546 6.95386 13.4832 6.6768 14.2714C6.40712 15.0251 6.27661 15.8202 6.29142 16.6191C6.30663 17.4018 6.46132 18.1758 6.74845 18.9059C7.04684 19.6661 7.50475 20.3559 8.09234 20.9303C8.70052 21.5335 9.43351 22.001 10.2416 22.3009C11.0097 22.5884 11.8235 22.7398 12.6453 22.7481C12.9526 22.7514 13.2597 22.7327 13.5642 22.6922C14.0802 22.6231 14.586 22.4942 15.0712 22.3082C15.8626 22.0053 16.5811 21.5435 17.1809 20.9522L18.8114 19.3482L22.8603 15.3651C22.9823 15.243 23.1298 15.1485 23.2927 15.088C23.4679 15.0193 23.6549 14.9838 23.8435 14.9835C24.0314 14.9838 24.2176 15.0193 24.392 15.088C24.5557 15.1494 24.704 15.2447 24.8268 15.3675C24.9461 15.4806 25.0399 15.6172 25.102 15.7684C25.1642 15.9195 25.1933 16.0819 25.1874 16.2448C25.1968 16.6427 25.0609 17.0306 24.8045 17.3384L18.3815 23.7955C17.9135 24.2664 17.6514 24.8988 17.6514 25.5574C17.6514 26.216 17.9135 26.8485 18.3815 27.3194L23.7101 32.7096L27.522 29.1785L23.8435 25.3436L24.3945 24.7919L28.5274 20.6605C29.091 20.0256 29.5261 19.2907 29.8095 18.4952C30.077 17.7402 30.2067 16.9446 30.1925 16.1452C30.1738 15.358 30.0071 14.5809 29.7008 13.8535V13.8535Z" fill="white"/>
<path d="M46.5483 26.1774L49.1976 24.2455C50.2233 25.6254 51.5623 26.8965 53.8122 26.8965C55.4644 26.8965 56.4876 26.1495 56.4876 24.8709C56.4876 23.6834 55.5767 23.2707 54.0967 22.6073L52.0739 21.7262C49.4821 20.5944 47.5167 19.103 47.5167 16.4824C47.5167 13.3352 50.2233 11.3223 53.7548 11.3223C56.746 11.3223 58.8523 12.7832 59.9642 14.7708L57.3541 16.7306C56.4432 15.4064 55.3026 14.6316 53.7652 14.6316C52.5124 14.6316 51.4162 15.1836 51.4162 16.404C51.4162 17.4522 52.2436 17.8953 53.6086 18.5005L55.7463 19.412C58.7088 20.678 60.3871 22.144 60.3871 24.7291C60.3871 28.122 57.5394 30.1931 53.8096 30.1931C50.5653 30.2083 47.9447 28.6056 46.5483 26.1774Z" fill="white"/>
<path d="M71.7098 26.7092V29.859C70.881 30.0786 70.0285 30.1911 69.1724 30.194C65.8451 30.194 63.7727 28.55 63.7727 25.009V19.2412H61.6453V16.0658H63.7727V12.5811H67.455V16.0658H71.2748V19.2412H67.455V24.6766C67.455 26.2643 68.2724 26.8217 69.9549 26.8217C70.3998 26.8294 70.9998 26.7655 71.7098 26.7092Z" fill="white"/>
<path d="M85.5484 22.0229V29.8719H82.0511V28.5891C81.0636 29.5702 79.598 30.1932 77.7912 30.1932C74.7462 30.1932 72.9678 28.4762 72.9678 26.2368C72.9678 23.8306 75.0357 22.3859 78.2435 22.3859H81.7409V21.7973C81.7409 20.355 80.8672 19.472 79.156 19.472C77.6619 19.472 76.6176 20.1392 75.4622 21.2896L73.4873 19.082C75.1236 17.2351 77.1243 16.3545 79.5799 16.3545C83.1238 16.3569 85.5484 18.2554 85.5484 22.0229ZM81.7409 24.9369V24.7774H78.7502C77.5094 24.7774 76.8037 25.2312 76.8037 26.1142C76.8037 26.9972 77.6231 27.5589 78.807 27.5589C80.4148 27.5589 81.7409 26.487 81.7409 24.9369Z" fill="white"/>
<path d="M98.129 16.5156V19.8096H97.0856C94.8262 19.8096 93.2332 20.9143 93.2332 23.3721V30.1932H89.3225V16.5232H92.9146V18.1525C93.3826 17.5842 93.9814 17.1265 94.6647 16.815C95.348 16.5034 96.0974 16.3464 96.8546 16.356C97.2856 16.3446 97.7157 16.3985 98.129 16.5156V16.5156Z" fill="white"/>
<path d="M110.108 30.1885L104.463 22.3793V30.1937H100.645V8.80664H104.473V22.0941L109.523 16.077H114.058L108.785 22.3217L114.484 30.1911L110.108 30.1885Z" fill="white"/>
<path d="M115.742 11.3223H121.875C127.894 11.3223 132.097 15.0393 132.097 20.7C132.097 26.2769 127.894 30.1932 121.875 30.1932H115.742V11.3223ZM121.847 26.7045C125.622 26.7045 128.152 24.3436 128.152 20.7C128.152 16.983 125.622 14.811 121.847 14.811H119.575V26.7045H121.847Z" fill="white"/>
<path d="M148.199 24.4825H138.439C138.888 26.1663 140.323 27.1001 142.347 27.1001C143.765 27.0951 145.137 26.623 146.229 25.7644L147.804 28.2153C146.26 29.4913 144.282 30.1937 142.236 30.1932C137.82 30.1932 134.614 27.1737 134.614 23.2742C134.6 22.3614 134.779 21.4553 135.141 20.6096C135.502 19.7638 136.038 18.9956 136.718 18.3504C137.397 17.7053 138.205 17.1963 139.095 16.8535C139.985 16.5108 140.939 16.3414 141.899 16.3553C145.807 16.3553 148.452 19.0807 148.452 22.4997C148.443 23.1674 148.359 23.8323 148.199 24.4825V24.4825ZM138.439 21.9458H144.768C144.739 20.262 143.36 19.2743 141.757 19.2743C140.153 19.2743 138.862 20.289 138.442 21.9458H138.439Z" fill="white"/>
<path d="M155.09 14.3641V16.3007H157.955V19.499H155.09V30.1937H151.551V19.499H149.71V16.3007H151.551V14.0268C151.551 10.4627 153.548 8.80689 156.572 8.80689C157.231 8.80088 157.887 8.90424 158.516 9.11332V12.286C158.168 12.2315 157.817 12.2031 157.466 12.201C155.887 12.2061 155.09 12.7624 155.09 14.3641Z" fill="white"/>
<path d="M159.774 11.1755C159.773 10.8593 159.838 10.5461 159.964 10.2546C160.09 9.96299 160.276 9.69897 160.509 9.47815C160.743 9.25733 161.019 9.08421 161.323 8.96903C161.627 8.85384 161.951 8.79894 162.277 8.80759C162.604 8.79864 162.93 8.85313 163.235 8.96789C163.541 9.08265 163.819 9.25537 164.055 9.47591C164.29 9.69645 164.478 9.96037 164.607 10.2522C164.736 10.5441 164.804 10.858 164.806 11.1755C164.8 11.4899 164.728 11.7997 164.597 12.0873C164.466 12.3748 164.277 12.6343 164.042 12.8506C163.807 13.067 163.53 13.236 163.227 13.3478C162.924 13.4596 162.601 13.512 162.277 13.5021C161.954 13.5117 161.633 13.4589 161.332 13.3466C161.03 13.2344 160.755 13.065 160.522 12.8483C160.289 12.6317 160.103 12.3722 159.974 12.0849C159.846 11.7977 159.778 11.4886 159.774 11.1755V11.1755ZM160.326 16.2474H164.255V30.1937H160.326V16.2474Z" fill="white"/>
<path d="M167.323 27.677C167.318 27.3431 167.381 27.0117 167.508 26.7026C167.634 26.3935 167.822 26.113 168.06 25.8782C168.298 25.6433 168.581 25.4588 168.891 25.3357C169.202 25.2127 169.535 25.1535 169.869 25.1619C170.199 25.1585 170.527 25.2215 170.832 25.3471C171.137 25.4727 171.414 25.6584 171.646 25.8931C171.878 26.1278 172.06 26.4067 172.182 26.7132C172.303 27.0197 172.362 27.3475 172.354 27.677C172.364 28.0072 172.307 28.3361 172.187 28.6437C172.066 28.9513 171.884 29.2312 171.651 29.4664C171.419 29.7016 171.141 29.8872 170.835 30.012C170.529 30.1368 170.2 30.1981 169.869 30.1922C169.534 30.2027 169.201 30.145 168.889 30.0227C168.577 29.9004 168.293 29.7159 168.055 29.4806C167.817 29.2453 167.629 28.9641 167.503 28.654C167.377 28.3439 167.316 28.0115 167.323 27.677V27.677Z" fill="#00DA63"/>
</svg>
