<svg width="34" height="19" viewBox="0 0 34 19" fill="none" xmlns="http://www.w3.org/2000/svg">
<path d="M9.69209 0.000180312C11.5381 -0.0112776 13.346 0.52357 14.8865 1.53691C16.427 2.55024 17.6308 3.99644 18.3452 5.69214C19.0597 7.38784 19.2525 9.25665 18.8995 11.0617C18.5464 12.8667 17.6632 14.5268 16.362 15.8312C15.0607 17.1356 13.3999 18.0257 11.5901 18.3887C9.78039 18.7517 7.90327 18.5712 6.19663 17.8702C4.48999 17.1691 3.03075 15.979 2.00392 14.4507C0.977082 12.9225 0.428849 11.1249 0.428813 9.28586C0.42308 8.06972 0.658323 6.86441 1.1211 5.73901C1.58388 4.61361 2.26509 3.59026 3.12565 2.72762C3.9862 1.86498 5.00921 1.18001 6.13602 0.711978C7.26282 0.243946 8.47127 0.00207013 9.69209 0.000180312V0.000180312ZM24.4872 0.535331C27.0571 0.535331 29.1188 4.45498 29.1188 9.28586C29.1188 14.1167 27.0571 17.9641 24.4872 17.9641C21.9173 17.9641 19.8556 14.0444 19.8556 9.28586C19.8556 4.5273 21.9318 0.535331 24.4872 0.535331V0.535331ZM31.6597 1.44655C32.5454 1.44655 33.2859 4.96121 33.2859 9.28586C33.2859 13.6105 32.5454 17.1253 31.6597 17.1253C30.774 17.1253 30.019 13.6105 30.019 9.28586C30.019 4.96121 30.7595 1.44655 31.6597 1.44655V1.44655Z" fill="#9B9C9D"/>
</svg>
