<?xml version="1.0" encoding="UTF-8" standalone="no"?>
<svg
   width="32"
   height="32"
   viewBox="0 0 32 32"
   fill="none"
   version="1.1"
   id="svg826"
   sodipodi:docname="mint-icon.svg"
   inkscape:version="1.1.1 (c3084ef, 2021-09-22)"
   xmlns:inkscape="http://www.inkscape.org/namespaces/inkscape"
   xmlns:sodipodi="http://sodipodi.sourceforge.net/DTD/sodipodi-0.dtd"
   xmlns="http://www.w3.org/2000/svg"
   xmlns:svg="http://www.w3.org/2000/svg">
  <defs
     id="defs830" />
  <sodipodi:namedview
     id="namedview828"
     pagecolor="#ffffff"
     bordercolor="#666666"
     borderopacity="1.0"
     inkscape:pageshadow="2"
     inkscape:pageopacity="0.0"
     inkscape:pagecheckerboard="0"
     showgrid="false"
     inkscape:zoom="17.16602"
     inkscape:cx="-0.49516428"
     inkscape:cy="16.049148"
     inkscape:window-width="1312"
     inkscape:window-height="969"
     inkscape:window-x="0"
     inkscape:window-y="38"
     inkscape:window-maximized="0"
     inkscape:current-layer="svg826" />
  <path
     fill-rule="evenodd"
     clip-rule="evenodd"
     d="M 15.948634,31.499929 C 7.3883911,31.471548 0.47173692,24.508915 0.50009285,15.948627 0.52845108,7.3883821 7.4911039,0.47172154 16.05139,0.50006981 24.611676,0.5284239 31.528271,7.4910028 31.499906,16.051293 31.471541,24.611584 24.508924,31.528294 15.948634,31.499929 Z M 6.7002606,15.969181 c -0.00258,0.778455 0.6259714,1.411201 1.4044349,1.413805 l 5.0724895,0.01679 c 0.778434,0.0025 1.406965,0.635678 1.404433,1.413701 l -0.01686,5.072967 c -0.0025,0.778022 0.626382,1.411074 1.404435,1.413701 0.778464,0.0026 1.411198,-0.626316 1.413796,-1.404464 l 0.01679,-5.072843 c 0.0025,-0.778021 0.635679,-1.406965 1.413701,-1.404434 l 5.072967,0.01685 c 0.778023,0.0025 1.411096,-0.625971 1.413702,-1.404435 0.0026,-0.778052 -0.626318,-1.411198 -1.404464,-1.413796 l -5.07284,-0.01679 c -0.778024,-0.0025 -1.406944,-0.635268 -1.404435,-1.413701 l 0.01678,-5.0725265 c 0.0026,-0.7784637 -0.625894,-1.4111927 -1.40435,-1.4137685 -0.778135,-0.00256 -1.411203,0.6259624 -1.413805,1.4044349 l -0.01679,5.0724971 c -0.0026,0.778465 -0.635267,1.406944 -1.413702,1.404435 l -5.0725457,-0.01688 c -0.7784341,-0.0025 -1.4111501,0.626405 -1.4137387,1.404445 z"
     fill="white"
     id="path824"
     style="fill:#ffffff" />
</svg>
