<svg width="32" height="32" viewBox="0 0 32 32" fill="none" xmlns="http://www.w3.org/2000/svg">
<path fill-rule="evenodd" clip-rule="evenodd" d="M11.3651 30.3387C3.19475 27.7845 -1.35819 19.0903 1.196 10.9199C3.75018 2.74954 12.4444 -1.8034 20.6148 0.750782C28.7852 3.30497 33.3381 11.9991 30.7839 20.1695C28.2297 28.3399 19.5355 32.8929 11.3651 30.3387ZM7.11377 12.7699C6.8815 13.5129 7.29524 14.303 8.03824 14.5353L12.8797 16.0488C13.6227 16.281 14.0363 17.0715 13.8042 17.8141L12.2905 22.656C12.0584 23.3986 12.4724 24.1891 13.215 24.4213C13.958 24.6536 14.7482 24.2395 14.9804 23.4968L16.494 18.655C16.7261 17.9124 17.5167 17.4984 18.2593 17.7305L23.1012 19.2442C23.8438 19.4763 24.6342 19.0627 24.8665 18.3197C25.0987 17.5771 24.6847 16.7865 23.942 16.5543L19.1002 15.0407C18.3576 14.8086 17.9435 14.0184 18.1757 13.2754L19.6892 8.4339C19.9215 7.6909 19.5078 6.90083 18.7648 6.66856C18.0221 6.4364 17.2317 6.85002 16.9994 7.59303L15.4859 12.4345C15.2536 13.1775 14.4636 13.5912 13.7206 13.359L8.87911 11.8454C8.13611 11.6132 7.34593 12.0273 7.11377 12.7699V12.7699Z" fill="white"/>
</svg>
