<svg width="62" height="62" viewBox="0 0 62 62" fill="none" xmlns="http://www.w3.org/2000/svg">
<circle cx="31.282" cy="31.3596" r="29.3812" transform="rotate(90 31.282 31.3596)" fill="black" stroke="url(#paint0_linear_735_1952)" stroke-width="2.22053"/>
<path fill-rule="evenodd" clip-rule="evenodd" d="M31.8076 45.0272C23.9684 45.0272 17.6133 38.6722 17.6133 30.833C17.6133 22.9937 23.9684 16.6387 31.8076 16.6387C39.6468 16.6387 46.0019 22.9937 46.0019 30.833C46.0019 38.6722 39.6468 45.0272 31.8076 45.0272ZM23.2912 30.833C23.2912 31.5458 23.8687 32.1233 24.5816 32.1233H29.2268C29.9397 32.1233 30.5172 32.7012 30.5172 33.4137V38.0593C30.5172 38.7718 31.095 39.3497 31.8076 39.3497C32.5205 39.3497 33.098 38.7718 33.098 38.0593V33.4137C33.098 32.7012 33.6758 32.1233 34.3883 32.1233H39.0339C39.7465 32.1233 40.3243 31.5458 40.3243 30.833C40.3243 30.1204 39.7465 29.5426 39.0339 29.5426H34.3883C33.6758 29.5426 33.098 28.9651 33.098 28.2522V23.607C33.098 22.8941 32.5205 22.3166 31.8076 22.3166C31.095 22.3166 30.5172 22.8941 30.5172 23.607V28.2522C30.5172 28.9651 29.9397 29.5426 29.2268 29.5426H24.5816C23.8687 29.5426 23.2912 30.1204 23.2912 30.833Z" fill="#00DA63"/>
<defs>
<linearGradient id="paint0_linear_735_1952" x1="4.99629" y1="-29.0976" x2="62.5037" y2="-25.2053" gradientUnits="userSpaceOnUse">
<stop stop-color="#00DA63"/>
<stop offset="0.336458" stop-color="#00DA63" stop-opacity="0"/>
<stop offset="0.711458" stop-color="#00DA63" stop-opacity="0"/>
<stop offset="1" stop-color="#00DA63"/>
</linearGradient>
</defs>
</svg>
