<svg width="47" height="70" viewBox="0 0 47 70" fill="none" xmlns="http://www.w3.org/2000/svg">
<path d="M23.5 43.6142C11.6934 43.6142 2.26855 34.416 2.26855 23.2466C2.26855 12.0771 11.6934 2.8789 23.5 2.8789C35.3066 2.8789 44.7314 12.0771 44.7314 23.2466C44.7314 34.416 35.3066 43.6142 23.5 43.6142Z" stroke="white" stroke-width="4.5371"/>
<path d="M12.1628 53.7223L12.1628 53.7223C11.7917 53.3577 11.2897 53.1541 10.7677 53.1541C10.2457 53.1541 9.7438 53.3577 9.37268 53.7223C9.00134 54.0871 8.79147 54.5833 8.79147 55.1022C8.79147 55.6211 9.00134 56.1173 9.37268 56.4821L22.1417 69.0265C22.3253 69.2074 22.5432 69.3506 22.7826 69.4481C23.0219 69.5457 23.2783 69.5959 23.537 69.5959C23.7958 69.5959 24.0522 69.5457 24.2915 69.4481C24.5309 69.3506 24.7488 69.2074 24.9324 69.0265L37.7014 56.4821C37.8852 56.3015 38.0314 56.0868 38.1313 55.8499C38.2311 55.6131 38.2826 55.359 38.2826 55.1022C38.2826 54.5833 38.0728 54.0871 37.7014 53.7223C37.3303 53.3577 36.8284 53.1541 36.3064 53.1541C35.7844 53.1541 35.2824 53.3577 34.9113 53.7223L34.9113 53.7223L25.5113 62.9599L25.5113 26.8767C25.5113 26.3584 25.3016 25.8626 24.9307 25.4982C24.5599 25.134 24.0585 24.9305 23.5371 24.9305C23.0156 24.9305 22.5142 25.134 22.1434 25.4982C21.7725 25.8626 21.5628 26.3584 21.5628 26.8767L21.5628 62.9599L12.1628 53.7223Z" fill="white" stroke="white" stroke-width="0.756184"/>
</svg>
