<?xml version="1.0" encoding="UTF-8" standalone="no"?>
<svg
   width="36.404125"
   height="30.708912"
   viewBox="0 0 36.404125 30.708912"
   fill="none"
   version="1.1"
   id="svg828"
   sodipodi:docname="stake-icon.svg"
   inkscape:version="1.1.1 (c3084ef, 2021-09-22)"
   xmlns:inkscape="http://www.inkscape.org/namespaces/inkscape"
   xmlns:sodipodi="http://sodipodi.sourceforge.net/DTD/sodipodi-0.dtd"
   xmlns="http://www.w3.org/2000/svg"
   xmlns:svg="http://www.w3.org/2000/svg">
  <defs
     id="defs832" />
  <sodipodi:namedview
     id="namedview830"
     pagecolor="#ffffff"
     bordercolor="#666666"
     borderopacity="1.0"
     inkscape:pageshadow="2"
     inkscape:pageopacity="0.0"
     inkscape:pagecheckerboard="0"
     showgrid="false"
     inkscape:zoom="13.566038"
     inkscape:cx="13.673852"
     inkscape:cy="16.032684"
     inkscape:window-width="1312"
     inkscape:window-height="969"
     inkscape:window-x="0"
     inkscape:window-y="38"
     inkscape:window-maximized="0"
     inkscape:current-layer="svg828" />
  <g
     id="g934"
     transform="rotate(19.452807,53.115207,12.221078)"
     style="fill:#ffffff">
    <path
       d="m 29.7781,18.1375 c -1.4817,0.5175 -2.7159,1.3117 -3.5947,2.3285 -1.7844,0.1253 -3.6133,0.5195 -5.4432,1.1737 -5.4226,1.9389 -9.5749,5.7527 -10.95648,9.5954 C 9.12185,31.0893 8.42702,31.0856 7.74847,31.228 7.17949,30.8746 6.41565,30.7074 5.53248,30.7622 c -0.43036,0.0267 -0.83411,0.3473 -0.90502,0.7152 -0.06955,0.3685 0.22234,0.6447 0.65161,0.6185 0.18744,-0.0118 0.35591,-0.0081 0.50891,0.007 -0.69345,0.516 -1.13571,1.1617 -1.19167,1.7707 -0.07282,0.8016 0.35714,1.3685 1.15038,1.5169 0.41682,0.0775 0.8853,0.0243 1.32573,-0.1331 0.39879,-0.1422 0.77381,-0.3704 1.06476,-0.6642 0.58706,-0.5911 0.80167,-1.3849 0.58556,-2.1177 0.23058,0.0235 0.45791,0.0823 0.68143,0.1577 -0.17233,0.9612 -0.15954,1.9101 0.06555,2.8166 0.57668,2.3222 2.42948,4.0378 5.23368,4.8584 0.2043,1.046 0.753,3.2866 1.76,3.7859 0.7029,0.3494 1.9043,0.0094 2.5587,-0.2246 0.4141,-0.1481 1.8082,-0.6925 2.3642,-1.483 0.3126,-0.4439 0.348,-1.1948 0.3019,-1.8455 1.7621,-0.3081 3.5461,-0.8626 5.2726,-1.649 0.2507,0.4562 0.5851,0.9453 0.9306,1.1167 0.7029,0.3487 1.915,0.0051 2.5753,-0.231 0.5256,-0.1879 1.8054,-0.7073 2.3475,-1.4766 0.5751,-0.8174 0.2835,-2.4204 0.0389,-3.3573 0.9592,-0.8839 1.671,-1.8709 2.0062,-2.3739 3.195,-1.2349 3.6297,-2.7619 3.6692,-2.9367 0.0403,-0.1774 -0.0023,-0.3444 -0.1193,-0.4651 -0.117,-0.1208 -0.2987,-0.1845 -0.5044,-0.1764 -0.2865,0.0106 -0.5554,-0.0415 -0.7719,-0.1389 2.1286,-0.8423 2.4883,-1.4722 2.6129,-1.6916 0.6577,-1.1528 -0.0604,-3.941 -1.3649,-4.2681 -0.5542,-0.1383 -1.1728,0.0373 -1.7046,0.2274 l -0.5243,0.1926 c -0.3777,0.1351 -0.4893,0.1418 -0.5199,0.1386 -0.3237,-0.0899 -0.5671,-0.3258 -0.9044,-0.6521 -0.5392,-0.523 -1.2631,-1.2248 -2.8229,-1.6712 -0.0162,-0.8783 0.291,-1.7156 0.9699,-2.6676 0.158,-0.2221 0.1817,-0.4715 0.062,-0.6572 -0.1202,-0.1848 -0.3645,-0.2781 -0.6433,-0.2434 -0.8964,0.1111 -1.7407,0.3062 -2.5168,0.5773 z m -9.0346,4.4371 c 0.6655,-0.2365 1.3344,-0.4313 2.0002,-0.5824 l 0.2556,1.4059 c -1.398,0.3174 -2.8137,0.8471 -4.1795,1.5651 -1.3771,0.721 -2.6221,1.5827 -3.701,2.5626 l -0.929,-1.0538 c 1.1755,-1.0662 2.5266,-2.0024 4.0163,-2.783 0.8317,-0.4372 1.6816,-0.81 2.5372,-1.1141 z m 9.7283,0.8123 c 0.5358,-0.1915 1.0608,0.0177 1.1725,0.4676 0.1118,0.4499 -0.2322,0.9698 -0.768,1.1614 -0.5358,0.1916 -1.0608,-0.0179 -1.1725,-0.4676 -0.1117,-0.4498 0.2322,-0.9698 0.768,-1.1614 z M 6.46177,32.8118 c 0.421,-0.1505 0.84325,0.0536 0.94316,0.4559 0.0999,0.4023 -0.16043,0.8504 -0.58141,1.0009 -0.421,0.1506 -0.84325,-0.0535 -0.94316,-0.4558 -0.0999,-0.4023 0.16043,-0.8504 0.58141,-1.001 z"
       fill="white"
       id="path824"
       style="fill:#ffffff" />
    <path
       fill-rule="evenodd"
       clip-rule="evenodd"
       d="m 15.5246,19.7974 c 2.2084,-1.2109 3.409,-3.5907 2.6815,-5.3153 -0.7275,-1.7246 -3.1076,-2.1411 -5.3161,-0.9301 -2.2084,1.2109 -3.409,3.5907 -2.6815,5.3153 0.7275,1.7247 3.1076,2.1411 5.3161,0.9301 z m -1.7048,-4.3775 c -0.0446,-0.0895 -0.1565,-0.1271 -0.2498,-0.084 -0.0934,0.0431 -0.1328,0.1506 -0.0882,0.2401 l 1.1874,2.3806 c 0.0446,0.0895 0.1565,0.1271 0.2498,0.084 0.0934,-0.0431 0.1328,-0.1506 0.0882,-0.2401 z"
       fill="white"
       id="path826"
       style="fill:#ffffff" />
  </g>
</svg>
