<svg width="62" height="62" viewBox="0 0 62 62" fill="none" xmlns="http://www.w3.org/2000/svg">
<circle cx="30.7742" cy="30.6692" r="29.3812" transform="rotate(90 30.7742 30.6692)" fill="black" stroke="url(#paint0_linear_735_1933)" stroke-width="2.22053"/>
<path d="M38.837 24.5747C37.58 24.563 36.4626 24.8987 35.5795 25.5669C34.1622 25.0792 32.6582 24.8322 31.1029 24.8322C26.494 24.8322 22.5133 27.0474 20.6899 30.2324C20.2015 29.8686 19.6598 29.6288 19.1025 29.5335C18.7268 29.0038 18.163 28.5851 17.4629 28.3369C17.1218 28.2159 16.7445 28.3836 16.6178 28.7094C16.4921 29.0362 16.6664 29.3981 17.0066 29.5191C17.1552 29.5716 17.286 29.6325 17.4025 29.6989C16.7611 29.9539 16.2907 30.4176 16.129 30.9778C15.9168 31.7153 16.1425 32.4008 16.733 32.8116C17.0433 33.0271 17.4193 33.1358 17.7937 33.1358C18.1325 33.1362 18.4695 33.0467 18.7536 32.8662C19.3265 32.5037 19.6479 31.8217 19.6212 31.0513C19.7966 31.152 19.9627 31.2853 20.1226 31.4329C19.8017 32.2886 19.6278 33.1954 19.6278 34.134C19.6278 36.5387 20.7416 38.8005 22.7716 40.5346C22.7283 41.5989 22.7223 43.9165 23.4116 44.7338C23.8926 45.3051 24.8964 45.3903 25.4525 45.3903C25.8045 45.3903 26.9983 45.3465 27.5856 44.7838C27.9156 44.4679 28.0888 43.7657 28.179 43.1312C29.6143 43.4374 31.1144 43.5167 32.6146 43.3559C32.7219 43.875 32.8881 44.4539 33.1245 44.7344C33.6057 45.305 34.6185 45.3904 35.1797 45.3904C35.6265 45.3904 36.7262 45.3317 37.2985 44.7843C37.9059 44.2026 37.989 42.5788 37.9796 41.6046C38.8998 41.0901 39.6468 40.3934 40.0059 40.029C42.7394 39.9409 43.3747 38.6365 43.4394 38.4837C43.5053 38.3286 43.5044 38.1553 43.4364 38.0007C43.3685 37.8461 43.239 37.7237 43.0769 37.6615C42.8512 37.5742 42.6514 37.4331 42.5013 37.2668C44.3262 37.1896 44.7291 36.7129 44.8689 36.5466C45.6057 35.6738 45.5856 32.7778 44.6308 32.0231C44.2249 31.7031 43.708 31.6597 43.256 31.6597L42.8094 31.6646C42.4883 31.6646 42.4 31.6331 42.3767 31.6197C42.1414 31.424 41.9971 31.1169 41.7971 30.6919C41.4776 30.0111 41.0484 29.0975 39.9174 28.1425C40.075 27.3016 40.4771 26.6098 41.1916 25.9352C41.358 25.7776 41.4248 25.5485 41.3674 25.3312C41.3094 25.1146 41.1368 24.9428 40.9124 24.881C40.1911 24.6818 39.4942 24.5802 38.8358 24.5742L38.837 24.5747ZM30.9242 25.7225C31.4896 25.7238 32.0495 25.766 32.5985 25.8487L32.5255 27.2727C31.3726 27.0992 30.1648 27.1216 28.9595 27.34C27.7447 27.5575 26.6058 27.9537 25.5736 28.5187L25.0527 27.2005C26.177 26.5863 27.4132 26.1553 28.7274 25.9195C29.4614 25.7864 30.1971 25.7209 30.924 25.7227L30.9242 25.7225ZM38.361 29.8032C38.8164 29.8032 39.1856 30.1808 39.1856 30.6466C39.1856 31.1125 38.8164 31.49 38.361 31.49C37.9056 31.49 37.5363 31.1123 37.5363 30.6466C37.5363 30.1808 37.9056 29.8032 38.361 29.8032ZM17.791 30.6023C18.1489 30.6023 18.4389 30.9399 18.4389 31.3566C18.4389 31.7732 18.1488 32.1108 17.791 32.1108C17.4332 32.1108 17.1431 31.7732 17.1431 31.3566C17.1431 30.9399 17.4332 30.6023 17.791 30.6023Z" fill="#00DA63"/>
<path fill-rule="evenodd" clip-rule="evenodd" d="M29.6543 23.4926C31.5139 23.182 32.7787 21.3676 32.4794 19.4399C32.18 17.5122 30.4298 16.2013 28.5702 16.5119C26.7106 16.8224 25.4458 18.6369 25.7452 20.5646C26.0446 22.4923 27.7947 23.8032 29.6543 23.4926ZM29.164 18.8188C29.1462 18.704 29.0389 18.6265 28.9243 18.6456C28.8098 18.6647 28.7313 18.7733 28.7492 18.888L29.1131 21.2313C29.1309 21.3461 29.2382 21.4236 29.3528 21.4045C29.4673 21.3853 29.5457 21.2768 29.5279 21.162L29.164 18.8188Z" fill="#00DA63"/>
<defs>
<linearGradient id="paint0_linear_735_1933" x1="4.48848" y1="-29.788" x2="61.9958" y2="-25.8958" gradientUnits="userSpaceOnUse">
<stop stop-color="#00DA63"/>
<stop offset="0.336458" stop-color="#00DA63" stop-opacity="0"/>
<stop offset="0.711458" stop-color="#00DA63" stop-opacity="0"/>
<stop offset="1" stop-color="#00DA63"/>
</linearGradient>
</defs>
</svg>
