<svg width="31" height="26" viewBox="0 0 31 26" fill="none" xmlns="http://www.w3.org/2000/svg">
<path d="M30.2798 14.1801L19.4299 13.405L19.4297 13.4052C19.1512 13.3808 18.8822 13.5124 18.7306 13.7472C18.5757 13.9787 18.5568 14.2753 18.6813 14.5244L19.971 17.1037C15.3604 21.0204 5.12416 19.4596 1.02019 18.0929C0.698683 17.9854 0.344472 18.0994 0.146248 18.3744C-0.0519751 18.6495 -0.0483684 19.0216 0.15507 19.2925C4.79811 25.4841 16.9848 27.3224 23.7293 23.0706L24.8812 25.3743C25.0128 25.6369 25.2811 25.8028 25.5748 25.803H25.587H25.5867C25.8849 25.7981 26.1537 25.6232 26.2785 25.3526L30.9285 15.2773V15.2776C31.0354 15.0464 31.0217 14.7775 30.8922 14.5585C30.7627 14.3395 30.5338 14.1978 30.2801 14.1799L30.2798 14.1801Z" fill="white"/>
<path d="M0.720131 11.623L11.5699 12.3981C11.5889 12.3997 11.6071 12.4004 11.6252 12.4004L11.6255 12.4002C11.8938 12.3999 12.1432 12.2608 12.2843 12.0325C12.4255 11.8041 12.4385 11.519 12.3186 11.2786L11.0289 8.69935C15.6411 4.78417 25.8771 6.34478 29.9797 7.71016C30.3012 7.81759 30.6554 7.70367 30.8537 7.42861C31.0519 7.15356 31.0483 6.78145 30.8448 6.51057C26.2026 0.318407 14.0144 -1.52001 7.27059 2.73243L6.11872 0.428679C5.98274 0.16426 5.71029 -0.00129438 5.41318 7.62386e-06C5.11528 0.0049379 4.84646 0.17983 4.72139 0.450474L0.0713708 10.5257V10.5255C-0.0352806 10.7567 -0.0217826 11.0255 0.107699 11.2445C0.237182 11.4635 0.466309 11.6052 0.720093 11.6231L0.720131 11.623Z" fill="white"/>
</svg>
