<svg width="61" height="62" viewBox="0 0 61 62" fill="none" xmlns="http://www.w3.org/2000/svg">
<circle cx="30.5091" cy="31.3196" r="29.3812" transform="rotate(90 30.5091 31.3196)" fill="black" stroke="url(#paint0_linear_1004_1885)" stroke-width="2.22053"/>
<path d="M20.1866 34.3742C19.9666 33.5239 19.8497 32.6324 19.8497 31.7145C19.8497 26.8977 23.0701 22.8208 27.4699 21.5189V18.9521C21.68 20.3142 17.3687 25.5091 17.3687 31.7142C17.3687 33.1194 17.5924 34.472 18.0013 35.7416L20.1866 34.3742Z" fill="#00DA63"/>
<path d="M33.4952 21.5186C37.8952 22.8208 41.1154 26.8973 41.1154 31.7142C41.1154 32.6306 40.9987 33.521 40.7797 34.3699L42.9499 35.7831C43.3677 34.502 43.5964 33.1347 43.5964 31.7142C43.5964 25.5089 39.2852 20.3135 33.4951 18.9521L33.4952 21.5186Z" fill="#00DA63"/>
<path d="M37.6737 39.5371C35.7789 41.2801 33.253 42.3467 30.4819 42.3467C27.7115 42.3467 25.1857 41.2806 23.2908 39.5379L21.1221 40.8957C23.5017 43.3215 26.8153 44.8276 30.4822 44.8276C34.1326 44.8276 37.4328 43.3356 39.8107 40.9288L37.6737 39.5371Z" fill="#00DA63"/>
<path d="M43.919 38.53L37.2531 34.1883L38.9041 31.6016L31.8364 32.1358L34.3275 38.7719L35.9179 36.2801L42.5648 40.6091L43.919 38.53Z" fill="#00DA63"/>
<path d="M31.723 24.6256V16.8281H29.242V24.6256H26.2295L30.4826 30.2964L34.7357 24.6256H31.723Z" fill="#00DA63"/>
<path d="M23.7348 34.244L17 38.4588L18.316 40.5619L25.0698 36.335L26.7102 38.905L29.201 32.2689L22.1327 31.7344L23.7348 34.244Z" fill="#00DA63"/>
<defs>
<linearGradient id="paint0_linear_1004_1885" x1="4.22334" y1="-29.1376" x2="61.7307" y2="-25.2454" gradientUnits="userSpaceOnUse">
<stop stop-color="#00DA63"/>
<stop offset="0.336458" stop-color="#00DA63" stop-opacity="0"/>
<stop offset="0.711458" stop-color="#00DA63" stop-opacity="0"/>
<stop offset="1" stop-color="#00DA63"/>
</linearGradient>
</defs>
</svg>
