<svg width="22" height="20" viewBox="0 0 22 20" fill="none" xmlns="http://www.w3.org/2000/svg">
<path d="M17.4398 4.56952C17.318 4.61469 17.2028 4.67379 17.0968 4.74535C16.3198 5.41685 15.551 6.09897 14.7768 6.77571L6.97676 13.6049L0.142578 11.2547L21.5712 0C20.4541 5.86192 19.3484 11.6358 18.2341 17.4739C16.5969 16.9411 14.9999 16.3549 13.3513 15.8112L9.50824 20V16.0538C9.50824 15.5209 9.52817 14.9881 9.53674 14.4764C9.86239 14.0634 10.1825 13.6504 10.5081 13.24C12.7939 10.3979 15.0729 7.54513 17.3454 4.68173C17.3739 4.64438 17.3968 4.59921 17.4253 4.55925L17.4452 4.54067C17.4484 4.5139 17.4454 4.54587 17.4398 4.56985L17.4398 4.56952Z" fill="#9B9C9D"/>
</svg>
