<svg width="25" height="19" viewBox="0 0 25 19" fill="none" xmlns="http://www.w3.org/2000/svg">
<path d="M24.857 2.19984C24.1807 3.14682 23.351 3.95408 22.3679 4.62161C22.3776 4.80064 22.3825 5.00298 22.3825 5.22865C22.3825 6.48251 22.1883 7.73788 21.7999 8.99477C21.4115 10.2517 20.8183 11.4547 20.0202 12.604C19.2221 13.7532 18.2714 14.7714 17.1681 15.6584C16.0648 16.5454 14.7386 17.2527 13.1895 17.7802C11.6404 18.3077 9.98013 18.5714 8.20877 18.5714C5.44428 18.5714 2.89845 17.8689 0.571289 16.4637C0.984333 16.507 1.38048 16.5286 1.75972 16.5286C4.06923 16.5286 6.132 15.8589 7.94802 14.5196C6.87119 14.501 5.90681 14.189 5.05488 13.5834C4.20295 12.9779 3.61667 12.2042 3.29605 11.2622C3.61296 11.3191 3.92575 11.3475 4.23441 11.3475C4.6787 11.3475 5.11588 11.2929 5.54594 11.1838C4.39677 10.9672 3.44343 10.4283 2.68593 9.56738C1.92846 8.70642 1.54972 7.71271 1.54972 6.58624V6.52818C2.25509 6.89585 3.00747 7.09142 3.80687 7.11489C3.12611 6.68765 2.58637 6.13051 2.18765 5.44348C1.7889 4.75645 1.58953 4.01297 1.58953 3.21302C1.58953 2.36935 1.8141 1.58373 2.26325 0.856161C3.51295 2.29986 5.02723 3.45372 6.80608 4.31772C8.58496 5.18174 10.4934 5.66159 12.5313 5.75727C12.4444 5.41626 12.4008 5.0604 12.4007 4.68969C12.4007 3.39531 12.8872 2.2901 13.8604 1.37406C14.8335 0.45802 16.0076 0 17.3826 0C18.8221 0 20.0346 0.493448 21.0202 1.48035C22.1462 1.27038 23.2005 0.890598 24.1832 0.341008C23.8046 1.4626 23.0751 2.32783 21.9947 2.9367C22.9877 2.82562 23.9418 2.58 24.857 2.19984H24.857Z" fill="#9B9C9D"/>
</svg>
